<svg width="102" height="221" viewBox="0 0 102 221" fill="none" xmlns="http://www.w3.org/2000/svg">
<path d="M87.0844 86.7227C94.7312 79.094 99.7453 69.2396 101.4 58.5846C103.055 47.9297 101.266 37.0268 96.2904 27.4521C91.3154 17.8775 83.4118 10.1274 73.7243 5.32317C64.0368 0.518958 53.0681 -1.09027 42.4019 0.727578C31.7357 2.54542 21.9255 7.69622 14.3914 15.4355C6.85741 23.1748 1.98947 33.1011 0.491297 43.779C-1.00688 54.4569 0.94186 65.3328 6.05696 74.834C11.1721 84.3351 19.1883 91.9693 28.9453 96.6319L10.2032 218.078C10.1491 218.432 10.1698 218.793 10.2654 219.137C10.3611 219.482 10.5286 219.804 10.7573 220.079C10.986 220.355 11.2712 220.58 11.5931 220.739C11.9149 220.897 12.2661 220.986 12.6249 221H89.1248C89.4944 221.004 89.8615 220.928 90.1987 220.777C90.536 220.627 90.8355 220.405 91.0781 220.127C91.3206 219.849 91.4995 219.521 91.6026 219.168C91.7056 218.814 91.7312 218.442 91.6757 218.078L73.315 96.2504C78.3829 93.8219 83.0303 90.6058 87.0844 86.7227Z" fill="white"/>
</svg>
