<svg width="2512" height="646" viewBox="0 0 2512 646" fill="none" xmlns="http://www.w3.org/2000/svg">
<path d="M1930.11 -1233.78C1973.42 -1202.93 2007.78 -1165.3 2035.73 -1123.62C2064.77 -1080.1 2087.51 -1033.45 2105.51 -984.651C2170.53 -802.671 2181.23 -610.768 2204.78 -417.438C2214.77 -335.398 2236.89 -246.937 2313.97 -203.42C2347.51 -184.158 2452.27 -187.725 2487.95 -203.42C2500.08 -209.127 2510.79 -219.828 2511.5 -233.383C2512.21 -241.943 2507.22 -249.077 2500.08 -254.071C2467.97 -276.9 2434.43 -290.454 2416.59 -326.124C2393.75 -368.214 2388.04 -414.585 2386.61 -460.955C2384.47 -563.684 2390.18 -665.699 2398.96 -767.879C2403.31 -819.329 2408.32 -870.95 2413.56 -922.635C2424.04 -1026.01 2373.5 -1122.51 2383.9 -1227.14C2394.61 -1334.86 1703.2 78.3715 1746.01 -20.0769C1800.25 -144.921 1853.77 -316.849 1731.48 -419.849C1694.27 -453.643 1648.6 -479.146 1601.86 -496.625C1551.9 -515.173 1497.67 -505.899 1447.71 -489.491C1389.37 -470.764 1331 -454.292 1272.21 -439.467C974.568 -360.366 664.135 -331.117 385.102 -172.743C342.997 -148.488 283.051 -150.628 261.642 -199.852C228.101 -277.612 251.651 -363.933 285.906 -437.413C295.183 -458.101 305.174 -485.21 286.62 -503.045C199.555 -590.079 56.8274 -566.537 -25.9548 -489.491C-127.292 -395.323 -133.714 -246.936 -138.71 -118.525C-145.133 60.5366 -147.987 236.032 -115.16 418.661C-103.028 486.433 -95.1779 557.773 -43.0822 606.997C9.7272 657.648 92.5094 658.361 149.601 611.277C235.237 541.365 280.197 446.483 308.742 343.041C352.274 183.24 367.261 13.4526 495.002 -107.111C609.898 -214.12 752.626 -264.771 903.204 -301.868C993.837 -323.983 1080.9 -342.531 1172.96 -322.556C1227.2 -311.142 1249.32 -249.79 1281.43 -203.419C1298.56 -178.451 1304.98 -152.055 1319.97 -126.373C1326.39 -114.958 1334.24 -104.971 1340.67 -93.5566C1344.17 -87.2842 1346.18 -80.2913 1346.55 -73.1173C1346.93 -65.9434 1345.64 -58.7799 1342.81 -52.1797C1334.96 -35.0582 1320.68 -15.7966 1299.27 -19.3635C1218.63 -32.2046 1135.85 -55.7467 1059.49 -16.51C1027.38 -0.101938 971.709 -110.213 966 -73.1163C960.291 -40.3002 1741.63 -1392.65 1761.75 -1370.44C1798.35 -1331.15 1855.23 -1286.81 1930.11 -1233.78Z" fill="url(#paint0_linear_1055_144)"/>
<defs>
<linearGradient id="paint0_linear_1055_144" x1="38.0001" y1="177.998" x2="410" y2="407.998" gradientUnits="userSpaceOnUse">
<stop stop-color="#162E77"/>
<stop offset="1" stop-color="#711FFF"/>
</linearGradient>
</defs>
</svg>
