<svg width="971" height="1438" viewBox="0 0 971 1438" fill="none" xmlns="http://www.w3.org/2000/svg">
<path d="M-204.879 -279.909C-146.561 -281.892 -90.183 -266.911 -38.8009 -232.668C50.4041 -172.743 148.173 -119.238 180.287 -15.0823C190.991 22.0142 169.582 60.5375 143.177 88.3599C43.9813 193.229 -53.7874 302.378 -96.6058 438.637C-98.033 554.206 -83.0466 667.636 -67.3465 784.633C-62.351 818.162 -53.0737 848.838 -33.0918 878.088C101.786 1074.27 347.992 1026.47 551.379 1061.43C629.166 1074.98 702.671 1089.97 772.879 1123.1C825.774 1149.93 874.837 1184.85 918.904 1231.22C951.018 1265.46 977.422 1308.98 968.859 1358.2C963.15 1390.3 931.75 1405.29 902.49 1403.86C703.385 1394.59 577.748 1419 378.643 1437.55C356.52 1439.69 150.578 1418.95 129.169 1413.25C-72.078 1357.6 -169.397 1370.33 -362.794 1285.44C-419.885 1260.47 -475.549 1223.37 -502.667 1164.87C-534.067 1097.1 -521.935 1020.77 -492.676 954.421C-411.321 768.938 -302.848 594.87 -280.011 387.986C-257.175 186.095 -250.752 -12.2287 -216.033 -210.488C-209.147 -255.446 -204.879 -279.909 -204.879 -279.909Z" fill="url(#paint0_linear_1055_137)"/>
<defs>
<linearGradient id="paint0_linear_1055_137" x1="426" y1="1438" x2="1014" y2="821.998" gradientUnits="userSpaceOnUse">
<stop stop-color="#00238A"/>
<stop offset="1" stop-color="#E64CC4"/>
</linearGradient>
</defs>
</svg>
