<svg width="3731" height="2184" viewBox="0 0 3731 2184" fill="none" xmlns="http://www.w3.org/2000/svg">
<path d="M433.643 616.449C803.312 619.196 1213.09 764.938 1226.85 1292.99C1240.6 1821.04 1662.34 2041.01 1859.87 1815.51C2057.41 1590 2527.7 1598.25 2560.71 1829.25C2593.73 2060.26 3396.79 2090.53 3270.27 1790.75C3143.76 1490.97 2293.94 1235.23 2794.48 1081.23C3295.02 927.23 3259.27 1328.74 3454.54 1147.23C3649.8 965.719 3514.17 880.456 3758 910.723" stroke="url(#paint0_linear_1055_160)" stroke-width="10" stroke-miterlimit="10"/>
<path d="M433.643 652.645C803.312 655.398 1213.09 801.149 1226.85 1329.16C1240.6 1857.17 1662.34 2077.17 1859.87 1851.7C2057.41 1626.23 2527.7 1634.44 2560.71 1865.45C2593.73 2096.46 3396.79 2126.72 3270.27 1826.95C3143.76 1527.18 2293.94 1271.44 2794.48 1117.44C3295.02 963.431 3259.27 1364.94 3454.54 1183.44C3649.8 1001.93 3514.17 916.671 3758 946.937" stroke="url(#paint1_linear_1055_160)" stroke-width="10" stroke-miterlimit="10"/>
<path d="M1034.77 321.164C905.527 553.32 781.788 1085.88 1515.98 1009C2250.18 932.118 1733.22 347.445 2123.69 514.889C2514.17 682.334 1983.45 828.696 2247.43 973.717C2511.41 1118.74 2940.38 817.271 2808.38 668.819C2676.39 520.367 3110.86 237.625 3297.85 476.446C3484.84 715.268 3758 646.633 3758 646.633" stroke="url(#paint2_linear_1055_160)" stroke-width="10" stroke-miterlimit="10"/>
<path d="M1034.77 300.207C905.527 532.999 781.788 1067.01 1515.98 989.924C2250.18 912.834 1733.22 326.56 2123.69 494.469C2514.17 662.379 1983.45 809.135 2247.43 954.554C2511.41 1099.97 2940.38 797.679 2808.38 648.82C2676.39 499.962 3110.86 216.445 3297.85 455.921C3484.84 695.397 3758 626.574 3758 626.574" stroke="url(#paint3_linear_1055_160)" stroke-width="7" stroke-miterlimit="10"/>
<path d="M1034.77 279.25C905.527 512.042 781.789 1046.06 1515.98 968.967C2250.17 891.877 1733.22 305.633 2123.71 473.512C2514.19 641.391 1983.46 788.178 2247.44 933.597C2511.43 1079.02 2940.41 776.716 2808.39 627.876C2676.37 479.036 3110.86 195.5 3297.85 434.976C3484.84 674.452 3758 605.635 3758 605.635" stroke="url(#paint4_linear_1055_160)" stroke-width="7" stroke-miterlimit="10"/>
<path d="M1034.77 258.297C905.527 491.089 781.789 1025.1 1515.98 948.014C2250.17 870.924 1733.21 284.649 2123.69 452.559C2514.16 620.468 1983.44 767.225 2247.43 912.643C2511.41 1058.06 2940.37 755.769 2808.38 606.91C2676.38 458.052 3110.86 174.547 3297.85 414.005C3484.84 653.462 3758 584.658 3758 584.658" stroke="url(#paint5_linear_1055_160)" stroke-width="7" stroke-miterlimit="10"/>
<path d="M1034.77 239.246C905.527 471.402 781.788 1003.96 1515.98 927.079C2250.18 850.2 1733.22 265.527 2123.69 432.977C2514.17 600.428 1983.45 746.784 2247.43 891.805C2511.41 1036.83 2940.38 735.359 2808.38 586.907C2676.39 438.455 3110.86 155.719 3297.85 394.534C3484.84 633.35 3758 564.721 3758 564.721" stroke="url(#paint6_linear_1055_160)" stroke-width="7" stroke-miterlimit="10"/>
<path d="M1034.77 218.289C905.527 451.081 781.789 985.097 1515.98 908.006C2250.17 830.916 1733.22 244.66 2123.71 412.551C2514.19 580.442 1983.46 727.217 2247.44 872.636C2511.43 1018.05 2940.39 715.761 2808.39 566.902C2676.4 418.044 3110.87 134.533 3297.86 374.003C3484.84 613.473 3758 544.662 3758 544.662" stroke="url(#paint7_linear_1055_160)" stroke-width="7" stroke-miterlimit="10"/>
<path d="M1034.77 197.332C905.527 430.124 781.788 964.14 1515.98 887.049C2250.18 809.959 1733.22 223.685 2123.69 391.594C2514.17 559.503 1983.45 706.26 2247.43 851.679C2511.41 997.097 2940.38 694.804 2808.38 545.945C2676.39 397.087 3110.86 113.576 3297.85 353.046C3484.84 592.516 3758 523.699 3758 523.699" stroke="url(#paint8_linear_1055_160)" stroke-width="7" stroke-miterlimit="10"/>
<path d="M1034.77 176.379C905.527 409.171 781.788 943.186 1515.98 866.096C2250.18 789.006 1733.22 202.731 2123.69 370.641C2514.17 538.55 1983.45 685.307 2247.43 830.725C2511.41 976.144 2940.38 673.851 2808.38 524.992C2676.39 376.134 3110.86 92.6227 3297.85 332.093C3484.84 571.563 3758 502.746 3758 502.746" stroke="url(#paint9_linear_1055_160)" stroke-width="7" stroke-miterlimit="10"/>
<path d="M1034.77 157.328C905.527 389.484 781.789 922.041 1515.98 845.161C2250.17 768.282 1733.22 183.615 2123.71 351.059C2514.19 518.504 1983.46 664.866 2247.44 809.887C2511.43 954.908 2940.39 653.441 2808.39 504.989C2676.4 356.537 3110.87 73.8008 3297.86 312.617C3484.84 551.432 3758 482.797 3758 482.797" stroke="url(#paint10_linear_1055_160)" stroke-width="7" stroke-miterlimit="10"/>
<path d="M1034.77 134.465C905.527 367.893 781.788 903.368 1515.98 826.067C2250.18 748.766 1733.22 160.889 2123.69 329.258C2514.17 497.626 1983.45 644.783 2247.43 790.599C2511.41 936.415 2940.38 633.296 2808.38 484.031C2676.39 334.766 3110.86 50.4799 3297.85 290.604C3484.84 530.728 3758 461.723 3758 461.723" stroke="url(#paint11_linear_1055_160)" stroke-width="7" stroke-miterlimit="10"/>
<path d="M1034.77 115.414C905.527 347.57 781.788 880.127 1515.98 803.247C2250.18 726.368 1733.22 141.695 2123.69 309.145C2514.17 476.596 1983.45 622.952 2247.43 767.973C2511.41 912.994 2940.38 611.52 2808.38 463.069C2676.39 314.617 3110.86 31.8807 3297.85 270.696C3484.84 509.512 3758 440.883 3758 440.883" stroke="url(#paint12_linear_1055_160)" stroke-width="7" stroke-miterlimit="10"/>
<path d="M1034.77 94.457C905.527 327.249 781.789 861.265 1515.98 784.174C2250.17 707.084 1733.22 120.803 2123.7 288.719C2514.19 456.635 1983.46 603.385 2247.44 748.804C2511.42 894.222 2940.39 591.929 2808.39 443.064C2676.39 294.2 3110.86 10.6947 3297.85 250.165C3484.84 489.635 3758 420.818 3758 420.818" stroke="url(#paint13_linear_1055_160)" stroke-width="7" stroke-miterlimit="10"/>
<path d="M1034.77 75.4062C905.527 307.562 781.788 840.119 1515.98 763.239C2250.18 686.36 1733.22 101.687 2123.69 269.138C2514.17 436.588 1983.45 582.944 2247.43 727.965C2511.41 872.986 2940.38 571.519 2808.38 423.061C2676.39 274.603 3110.86 -8.12714 3297.85 230.689C3484.84 469.504 3758 400.875 3758 400.875" stroke="url(#paint14_linear_1055_160)" stroke-width="7" stroke-miterlimit="10"/>
<path d="M1034.77 52.5469C905.527 285.339 781.789 819.354 1515.98 742.264C2250.17 665.174 1733.22 78.8994 2123.7 246.809C2514.19 414.718 1983.46 561.475 2247.44 706.893C2511.42 852.312 2940.39 550.019 2808.39 401.154C2676.39 252.29 3110.86 -31.2154 3297.85 208.255C3484.84 447.725 3758 378.907 3758 378.907" stroke="url(#paint15_linear_1055_160)" stroke-width="7" stroke-miterlimit="10"/>
<path d="M1034.77 33.4961C905.527 265.652 781.789 798.209 1515.98 721.329C2250.17 644.45 1733.22 59.7583 2123.7 227.227C2514.19 394.696 1983.46 541.034 2247.44 686.055C2511.42 831.076 2940.39 529.609 2808.39 381.151C2676.39 232.693 3110.86 -50.0373 3297.85 188.778C3484.84 427.594 3758 358.965 3758 358.965" stroke="url(#paint16_linear_1055_160)" stroke-width="7" stroke-miterlimit="10"/>
<path d="M1034.77 12.5391C905.527 245.331 781.789 779.347 1515.98 702.257C2250.17 625.166 1733.22 38.8916 2123.7 206.801C2514.19 374.711 1983.46 521.467 2247.44 666.886C2511.42 812.304 2940.39 510.011 2808.39 361.146C2676.39 212.282 3110.86 -71.2232 3297.85 168.247C3484.84 407.717 3758 338.9 3758 338.9" stroke="url(#paint17_linear_1055_160)" stroke-width="7" stroke-miterlimit="10"/>
<path d="M1034.77 -8.41406C905.527 224.378 781.789 758.394 1515.98 681.303C2250.17 604.213 1733.22 17.9385 2123.7 185.848C2514.19 353.757 1983.46 500.514 2247.44 645.932C2511.42 791.351 2940.39 489.058 2808.39 340.193C2676.39 191.329 3110.86 -92.1763 3297.85 147.294C3484.84 386.764 3758 317.947 3758 317.947" stroke="url(#paint18_linear_1055_160)" stroke-width="7" stroke-miterlimit="10"/>
<path d="M1034.77 -29.3711C905.527 203.421 781.789 737.436 1515.98 660.346C2250.17 583.256 1733.22 -3.01857 2123.7 164.891C2514.19 332.8 1983.46 479.557 2247.44 624.975C2511.42 770.394 2940.39 468.101 2808.39 319.236C2676.39 170.372 3110.86 -113.133 3297.85 126.337C3484.84 365.807 3758 296.99 3758 296.99" stroke="url(#paint19_linear_1055_160)" stroke-width="7" stroke-miterlimit="10"/>
<path d="M1034.77 -48.4219C905.527 183.734 781.789 716.291 1515.98 639.411C2250.17 562.532 1733.22 -22.1414 2123.7 145.309C2514.19 312.76 1983.46 459.116 2247.44 604.137C2511.42 749.158 2940.39 447.691 2808.39 299.233C2676.39 150.775 3110.86 -131.955 3297.85 106.86C3484.84 345.676 3758 277.047 3758 277.047" stroke="url(#paint20_linear_1055_160)" stroke-width="7" stroke-miterlimit="10"/>
<path d="M1034.77 -69.3789C905.527 163.413 781.789 697.429 1515.98 620.339C2250.17 543.248 1733.22 -43.0203 2123.7 124.883C2514.19 292.786 1983.46 439.549 2247.44 584.968C2511.42 730.386 2940.39 428.093 2808.39 279.228C2676.39 130.364 3110.86 -153.141 3297.85 86.3288C3484.84 325.799 3758 256.988 3758 256.988" stroke="url(#paint21_linear_1055_160)" stroke-width="7" stroke-miterlimit="10"/>
<path d="M1034.77 -90.332C905.527 142.46 781.789 676.476 1515.98 599.385C2250.17 522.295 1733.22 -63.9734 2123.7 103.93C2514.19 271.833 1983.46 418.596 2247.44 564.014C2511.42 709.433 2940.39 407.14 2808.39 258.275C2676.39 109.411 3110.86 -174.094 3297.85 65.3757C3484.84 304.846 3758 236.035 3758 236.035" stroke="url(#paint22_linear_1055_160)" stroke-width="7" stroke-miterlimit="10"/>
<path d="M1034.77 -111.289C905.527 121.503 781.789 655.519 1515.98 578.428C2250.17 501.338 1733.22 -84.9304 2123.7 82.9729C2514.19 250.876 1983.46 397.639 2247.44 543.057C2511.42 688.476 2940.39 386.183 2808.39 237.318C2676.39 88.4537 3110.86 -195.051 3297.85 44.4187C3484.84 283.889 3758 215.078 3758 215.078" stroke="url(#paint23_linear_1055_160)" stroke-width="7" stroke-miterlimit="10"/>
<path d="M1034.77 -130.34C905.527 101.816 781.789 634.373 1515.98 557.493C2250.17 480.614 1733.22 -104.053 2123.71 63.3914C2514.19 230.836 1983.46 377.198 2247.44 522.219C2511.43 667.24 2940.39 365.773 2808.39 217.315C2676.4 68.8571 3110.87 -213.873 3297.86 24.9425C3484.84 263.758 3758 195.153 3758 195.153" stroke="url(#paint24_linear_1055_160)" stroke-width="7" stroke-miterlimit="10"/>
<path d="M1034.77 -151.297C905.527 81.4949 781.789 615.511 1515.98 538.421C2250.17 461.33 1733.22 -124.963 2123.7 42.9407C2514.19 210.844 1983.46 357.607 2247.44 503.025C2511.42 648.444 2940.39 346.15 2808.39 197.286C2676.39 48.4214 3110.86 -235.084 3297.85 4.38645C3484.84 243.856 3758 175.045 3758 175.045" stroke="url(#paint25_linear_1055_160)" stroke-width="7" stroke-miterlimit="10"/>
<path d="M1034.77 -172.25C905.527 59.9057 781.789 592.462 1515.98 515.583C2250.17 438.703 1733.22 -145.963 2123.7 21.4812C2514.19 188.926 1983.46 335.287 2247.44 480.309C2511.42 625.33 2940.39 323.863 2808.39 175.405C2676.39 26.9469 3110.86 -255.783 3297.85 -16.9677C3484.84 221.848 3758 153.225 3758 153.225" stroke="url(#paint26_linear_1055_160)" stroke-width="7" stroke-miterlimit="10"/>
<path d="M1034.77 -193.207C905.527 39.5848 781.789 573.601 1515.98 496.51C2250.17 419.42 1733.22 -166.848 2123.7 1.05497C2514.19 168.958 1983.46 315.721 2247.44 461.14C2511.42 606.558 2940.39 304.265 2808.39 155.4C2676.39 6.53565 3110.86 -276.969 3297.85 -37.4993C3484.84 201.971 3758 133.16 3758 133.16" stroke="url(#paint27_linear_1055_160)" stroke-width="7" stroke-miterlimit="10"/>
<path d="M1034.77 -214.164C905.527 18.6277 781.789 552.644 1515.98 475.553C2250.17 398.463 1733.22 -187.818 2123.7 -19.9143C2514.19 147.989 1983.46 294.752 2247.44 440.17C2511.42 585.589 2940.39 283.296 2808.39 134.431C2676.39 -14.4336 3110.86 -297.939 3297.85 -58.4685C3484.84 181.002 3758 112.19 3758 112.19" stroke="url(#paint28_linear_1055_160)" stroke-width="7" stroke-miterlimit="10"/>
<path d="M1034.77 -235.121C905.527 -2.32932 781.789 531.686 1515.98 454.596C2250.17 377.506 1733.22 -208.762 2123.71 -40.8591C2514.19 127.044 1983.46 273.807 2247.44 419.225C2511.43 564.644 2940.39 262.351 2808.39 113.486C2676.4 -35.3784 3110.87 -318.883 3297.86 -79.4133C3484.84 160.057 3758 91.264 3758 91.264" stroke="url(#paint29_linear_1055_160)" stroke-width="7" stroke-miterlimit="10"/>
<path d="M1034.77 -254.172C905.527 -22.0161 781.789 510.541 1515.98 433.661C2250.17 356.782 1733.22 -227.885 2123.71 -60.4407C2514.19 107.004 1983.46 253.366 2247.44 398.387C2511.43 543.408 2940.39 241.941 2808.39 93.4829C2676.4 -54.9749 3110.86 -337.687 3297.85 -98.8713C3484.84 139.944 3758 71.3215 3758 71.3215" stroke="url(#paint30_linear_1055_160)" stroke-width="7" stroke-miterlimit="10"/>
<path d="M1034.77 -275.125C905.527 -42.3332 781.789 491.683 1515.98 414.592C2250.17 337.502 1733.22 -248.766 2123.7 -80.863C2514.19 87.0404 1983.46 233.803 2247.44 379.222C2511.42 524.64 2940.39 222.347 2808.39 73.4822C2676.39 -75.3823 3110.86 -358.887 3297.85 -119.417C3484.84 120.053 3758 51.2418 3758 51.2418" stroke="url(#paint31_linear_1055_160)" stroke-width="7" stroke-miterlimit="10"/>
<path d="M1034.77 -296.082C905.527 -63.2903 781.789 470.726 1515.98 393.635C2250.17 316.545 1733.22 -269.723 2123.71 -101.82C2514.19 66.0833 1983.46 212.846 2247.44 358.265C2511.43 503.683 2940.39 201.39 2808.39 52.5252C2676.4 -96.3393 3110.86 -379.826 3297.85 -140.356C3484.84 99.1141 3758 30.3031 3758 30.3031" stroke="url(#paint32_linear_1055_160)" stroke-width="7" stroke-miterlimit="10"/>
<path d="M1034.77 -317.039C905.527 -84.2473 781.789 449.769 1515.98 372.678C2250.17 295.588 1733.22 -290.68 2123.71 -122.777C2514.19 45.1263 1983.46 191.889 2247.44 337.307C2511.43 482.726 2940.41 180.451 2808.39 31.5865C2676.37 -117.278 3110.86 -400.783 3297.85 -161.313C3484.84 78.1571 3758 9.34603 3758 9.34603" stroke="url(#paint33_linear_1055_160)" stroke-width="7" stroke-miterlimit="10"/>
<path d="M1034.77 -336.09C905.527 -103.934 781.789 428.623 1515.98 351.743C2250.17 274.864 1733.22 -309.791 2123.71 -142.322C2514.19 25.1469 1983.46 171.484 2247.44 316.505C2511.43 461.527 2940.41 160.053 2808.39 11.5954C2676.37 -136.862 3110.86 -419.568 3297.85 -180.777C3484.84 58.0144 3758 -10.5843 3758 -10.5843" stroke="url(#paint34_linear_1055_160)" stroke-width="7" stroke-miterlimit="10"/>
<path d="M1034.77 -357.043C905.527 -124.251 781.789 409.765 1515.98 332.674C2250.17 255.584 1733.22 -330.684 2123.7 -162.781C2514.19 5.1224 1983.46 151.885 2247.44 297.304C2511.42 442.722 2940.39 140.429 2808.39 -8.43574C2676.39 -157.3 3110.86 -440.805 3297.85 -201.335C3484.84 38.1349 3758 -30.6762 3758 -30.6762" stroke="url(#paint35_linear_1055_160)" stroke-width="7" stroke-miterlimit="10"/>
<path d="M1034.77 -378C905.527 -145.208 781.789 388.808 1515.98 311.717C2250.17 234.627 1733.22 -351.641 2123.7 -183.738C2514.19 -15.8347 1983.46 130.928 2247.44 276.347C2511.42 421.765 2940.39 119.472 2808.39 -29.3928C2676.39 -178.257 3110.86 -461.762 3297.85 -222.292C3484.84 17.1778 3758 -51.6333 3758 -51.6333" stroke="url(#paint36_linear_1055_160)" stroke-width="7" stroke-miterlimit="10"/>
<path d="M2148.21 2679.65C2279.67 2419.19 2350.67 1872.88 2559.37 1728.07C2923.71 1475.24 2794.74 2255.79 3333.17 2224.66" stroke="url(#paint37_linear_1055_160)" stroke-width="10" stroke-miterlimit="10"/>
<path d="M2152.02 2694.89C2283.48 2434.43 2354.48 1888.12 2563.18 1743.3C2927.52 1490.47 2798.56 2271.06 3336.98 2239.92" stroke="url(#paint38_linear_1055_160)" stroke-width="10" stroke-miterlimit="10"/>
<path d="M2155.83 2710.13C2287.29 2449.67 2358.29 1903.34 2566.99 1758.55C2931.34 1505.72 2802.37 2286.3 3340.79 2255.17" stroke="url(#paint39_linear_1055_160)" stroke-width="10" stroke-miterlimit="10"/>
<path d="M2161.55 2723.46C2293.01 2463.01 2364.01 1916.7 2572.7 1771.88C2937.05 1519.06 2808.09 2299.64 3346.5 2268.5" stroke="url(#paint40_linear_1055_160)" stroke-width="10" stroke-miterlimit="10"/>
<path d="M2165.36 2738.7C2296.82 2478.25 2367.82 1931.94 2576.5 1787.12C2940.85 1534.29 2811.88 2314.87 3350.31 2283.74" stroke="url(#paint41_linear_1055_160)" stroke-width="10" stroke-miterlimit="10"/>
<path d="M2169.17 2753.95C2300.84 2493.49 2371.95 1947.18 2580.98 1802.36C2945.92 1549.53 2816.74 2330.11 3356.03 2298.98" stroke="url(#paint42_linear_1055_160)" stroke-width="10" stroke-miterlimit="10"/>
<path d="M2174.88 2767.28C2306.34 2506.83 2377.35 1960.52 2586.04 1815.7C2950.39 1562.87 2821.42 2343.45 3359.84 2312.32" stroke="url(#paint43_linear_1055_160)" stroke-width="10" stroke-miterlimit="10"/>
<path d="M2180.6 2782.52C2312.06 2522.07 2383.06 1975.76 2591.75 1830.94C2956.09 1578.11 2827.13 2358.72 3365.56 2327.58" stroke="url(#paint44_linear_1055_160)" stroke-width="10" stroke-miterlimit="10"/>
<path d="M2184.41 2797.76C2315.87 2537.31 2386.87 1991 2595.56 1846.18C2959.91 1593.35 2830.94 2373.93 3369.36 2342.8" stroke="url(#paint45_linear_1055_160)" stroke-width="10" stroke-miterlimit="10"/>
<path d="M2188.22 2813C2319.68 2552.55 2390.68 2006.24 2599.37 1861.42C2963.72 1608.59 2834.76 2389.17 3373.17 2358.04" stroke="url(#paint46_linear_1055_160)" stroke-width="10" stroke-miterlimit="10"/>
<path d="M2192.03 2828.24C2323.49 2567.8 2394.49 2021.48 2603.18 1876.66C2967.53 1623.83 2838.57 2404.41 3376.98 2373.28" stroke="url(#paint47_linear_1055_160)" stroke-width="10" stroke-miterlimit="10"/>
<path d="M2197.74 2841.58C2329.2 2581.12 2400.2 2034.82 2608.9 1889.99C2973.25 1637.17 2844.28 2417.75 3382.7 2386.61" stroke="url(#paint48_linear_1055_160)" stroke-width="10" stroke-miterlimit="10"/>
<path d="M2201.55 2856.82C2333.01 2596.37 2404.02 2050.05 2612.71 1905.24C2977.06 1652.41 2848.09 2432.99 3386.51 2401.85" stroke="url(#paint49_linear_1055_160)" stroke-width="10" stroke-miterlimit="10"/>
<path d="M2207.27 2872.06C2338.73 2611.6 2409.73 2065.29 2618.42 1920.48C2982.77 1667.65 2853.81 2448.23 3392.22 2417.09" stroke="url(#paint50_linear_1055_160)" stroke-width="10" stroke-miterlimit="10"/>
<path d="M2211.08 2885.39C2342.54 2624.94 2413.54 2078.63 2622.24 1933.81C2986.58 1680.99 2857.62 2461.56 3396.04 2430.43" stroke="url(#paint51_linear_1055_160)" stroke-width="10" stroke-miterlimit="10"/>
<path d="M2216.79 2900.64C2348.25 2640.18 2419.26 2093.87 2627.95 1949.05C2992.3 1696.23 2863.33 2476.81 3401.75 2445.67" stroke="url(#paint52_linear_1055_160)" stroke-width="10" stroke-miterlimit="10"/>
<path d="M2220.6 2915.87C2352.06 2655.42 2423.07 2109.11 2631.76 1964.29C2996.11 1711.46 2867.14 2492.04 3405.56 2460.91" stroke="url(#paint53_linear_1055_160)" stroke-width="10" stroke-miterlimit="10"/>
<path d="M2224.41 2931.12C2355.88 2670.66 2426.88 2124.34 2635.57 1979.53C2999.92 1726.7 2870.95 2507.29 3409.37 2476.15" stroke="url(#paint54_linear_1055_160)" stroke-width="10" stroke-miterlimit="10"/>
<path d="M2228.22 2944.45C2359.69 2684 2430.69 2137.69 2639.38 1992.87C3003.73 1740.04 2874.76 2520.62 3413.18 2489.49" stroke="url(#paint55_linear_1055_160)" stroke-width="10" stroke-miterlimit="10"/>
<path d="M2233.94 2959.7C2365.4 2699.24 2436.4 2152.93 2645.1 2008.11C3009.44 1755.29 2880.48 2535.87 3418.9 2504.73" stroke="url(#paint56_linear_1055_160)" stroke-width="10" stroke-miterlimit="10"/>
<path d="M2237.75 2974.93C2369.21 2714.48 2440.21 2168.17 2648.91 2023.35C3013.25 1770.52 2884.29 2551.1 3422.71 2519.97" stroke="url(#paint57_linear_1055_160)" stroke-width="10" stroke-miterlimit="10"/>
<path d="M2243.46 2990.18C2374.93 2729.72 2445.93 2183.41 2654.62 2038.59C3018.97 1785.76 2890 2566.34 3428.42 2535.21" stroke="url(#paint58_linear_1055_160)" stroke-width="10" stroke-miterlimit="10"/>
<path d="M2247.28 3003.51C2378.74 2743.06 2449.74 2196.75 2658.43 2051.93C3022.78 1799.1 2893.79 2579.71 3432.23 2548.58" stroke="url(#paint59_linear_1055_160)" stroke-width="10" stroke-miterlimit="10"/>
<path d="M2252.99 3018.75C2384.45 2758.3 2455.45 2211.99 2664.15 2067.16C3028.49 1814.34 2899.53 2594.92 3437.95 2563.79" stroke="url(#paint60_linear_1055_160)" stroke-width="10" stroke-miterlimit="10"/>
<path d="M2256.8 3033.99C2388.25 2773.54 2459.26 2227.26 2667.96 2082.41C3032.3 1829.58 2903.34 2610.16 3441.76 2579.03" stroke="url(#paint61_linear_1055_160)" stroke-width="10" stroke-miterlimit="10"/>
<path d="M2260.61 3047.33C2392.07 2786.87 2463.07 2240.56 2671.77 2095.74C3036.11 1842.92 2907.15 2623.5 3445.57 2592.36" stroke="url(#paint62_linear_1055_160)" stroke-width="10" stroke-miterlimit="10"/>
<path d="M2264.42 3062.57C2395.88 2802.11 2466.88 2255.8 2675.58 2110.98C3039.92 1858.16 2910.96 2638.74 3449.38 2607.61" stroke="url(#paint63_linear_1055_160)" stroke-width="10" stroke-miterlimit="10"/>
<path d="M2270.13 3077.81C2401.6 2817.35 2472.6 2271.05 2681.29 2126.22C3045.64 1873.4 2916.67 2653.98 3455.09 2622.85" stroke="url(#paint64_linear_1055_160)" stroke-width="10" stroke-miterlimit="10"/>
<path d="M2273.95 3093.05C2405.41 2832.6 2476.41 2286.29 2685.1 2141.47C3049.45 1888.64 2920.48 2669.22 3458.9 2638.09" stroke="url(#paint65_linear_1055_160)" stroke-width="10" stroke-miterlimit="10"/>
<path d="M2279.66 3108.29C2411.12 2847.83 2482.12 2301.52 2690.82 2156.71C3055.16 1903.88 2926.2 2684.46 3464.62 2653.32" stroke="url(#paint66_linear_1055_160)" stroke-width="10" stroke-miterlimit="10"/>
<path d="M2283.47 3121.62C2414.93 2861.17 2485.93 2314.86 2694.63 2170.04C3058.97 1917.22 2930.01 2697.79 3468.43 2666.65" stroke="url(#paint67_linear_1055_160)" stroke-width="10" stroke-miterlimit="10"/>
<path d="M2289.19 3136.87C2420.65 2876.41 2491.65 2330.1 2700.34 2185.28C3064.68 1932.45 2935.72 2713.04 3474.14 2681.9" stroke="url(#paint68_linear_1055_160)" stroke-width="10" stroke-miterlimit="10"/>
<path d="M2293 3152.11C2424.45 2891.65 2495.45 2345.33 2704.15 2200.52C3068.49 1947.69 2939.53 2728.27 3477.95 2697.14" stroke="url(#paint69_linear_1055_160)" stroke-width="10" stroke-miterlimit="10"/>
<path d="M2296.81 3165.44C2428.26 2904.97 2499.24 2358.68 2707.96 2213.86C3072.3 1961.03 2943.34 2741.61 3481.76 2710.48" stroke="url(#paint70_linear_1055_160)" stroke-width="10" stroke-miterlimit="10"/>
<path d="M2300.62 3180.68C2432.07 2920.23 2503.07 2373.92 2711.77 2229.1C3076.11 1976.27 2947.15 2756.85 3485.57 2725.72" stroke="url(#paint71_linear_1055_160)" stroke-width="10" stroke-miterlimit="10"/>
<path d="M1099.47 2553.91C1434.57 2553.91 1706.23 2282.25 1706.23 1947.15C1706.23 1612.04 1434.57 1340.38 1099.47 1340.38C764.358 1340.38 492.699 1612.04 492.699 1947.15C492.699 2282.25 764.358 2553.91 1099.47 2553.91Z" stroke="url(#paint72_linear_1055_160)" stroke-width="10" stroke-miterlimit="10"/>
<path d="M1068.99 2557.72C1404.09 2557.72 1675.75 2286.49 1675.75 1951.91C1675.75 1617.33 1404.09 1346.09 1068.99 1346.09C733.878 1346.09 462.219 1617.33 462.219 1951.91C462.219 2286.49 733.878 2557.72 1068.99 2557.72Z" stroke="url(#paint73_linear_1055_160)" stroke-width="10" stroke-miterlimit="10"/>
<path d="M1038.5 2561.53C1373.61 2561.53 1645.27 2290.3 1645.27 1955.72C1645.27 1621.13 1373.61 1349.9 1038.5 1349.9C703.395 1349.9 431.736 1621.13 431.736 1955.72C431.736 2290.3 703.395 2561.53 1038.5 2561.53Z" stroke="url(#paint74_linear_1055_160)" stroke-width="10" stroke-miterlimit="10"/>
<path d="M1008.02 2567.25C1343.13 2567.25 1614.79 2295.59 1614.79 1960.48C1614.79 1625.37 1343.13 1353.71 1008.02 1353.71C672.915 1353.71 401.256 1625.37 401.256 1960.48C401.256 2295.59 672.915 2567.25 1008.02 2567.25Z" stroke="url(#paint75_linear_1055_160)" stroke-width="10" stroke-miterlimit="10"/>
<path d="M977.542 2571.06C1312.65 2571.06 1584.31 2299.4 1584.31 1964.29C1584.31 1629.18 1312.65 1357.52 977.542 1357.52C642.434 1357.52 370.775 1629.18 370.775 1964.29C370.775 2299.4 642.434 2571.06 977.542 2571.06Z" stroke="url(#paint76_linear_1055_160)" stroke-width="10" stroke-miterlimit="10"/>
<path d="M947.06 2574.87C1282.17 2574.87 1553.83 2303.21 1553.83 1968.1C1553.83 1632.99 1282.17 1361.34 947.06 1361.34C611.952 1361.34 340.293 1632.99 340.293 1968.1C340.293 2303.21 611.952 2574.87 947.06 2574.87Z" stroke="url(#paint77_linear_1055_160)" stroke-width="10" stroke-miterlimit="10"/>
<path d="M916.579 2578.68C1251.69 2578.68 1523.35 2307.45 1523.35 1972.86C1523.35 1638.28 1251.69 1367.05 916.579 1367.05C581.471 1367.05 309.812 1638.28 309.812 1972.86C309.812 2307.45 581.471 2578.68 916.579 2578.68Z" stroke="url(#paint78_linear_1055_160)" stroke-width="10" stroke-miterlimit="10"/>
<path d="M886.097 2584.39C1221.2 2584.39 1492.86 2312.73 1492.86 1977.63C1492.86 1642.52 1221.2 1370.86 886.097 1370.86C550.989 1370.86 279.33 1642.52 279.33 1977.63C279.33 2312.73 550.989 2584.39 886.097 2584.39Z" stroke="url(#paint79_linear_1055_160)" stroke-width="10" stroke-miterlimit="10"/>
<path d="M855.616 2586.3C1190.72 2586.3 1462.38 2315.07 1462.38 1980.49C1462.38 1645.9 1190.72 1374.67 855.616 1374.67C520.508 1374.67 248.85 1645.9 248.85 1980.49C248.85 2315.07 520.508 2586.3 855.616 2586.3Z" stroke="url(#paint80_linear_1055_160)" stroke-width="10" stroke-miterlimit="10"/>
<path d="M825.136 2592.01C1160.24 2592.01 1431.9 2320.36 1431.9 1985.25C1431.9 1650.14 1160.24 1378.48 825.136 1378.48C490.028 1378.48 218.369 1650.14 218.369 1985.25C218.369 2320.36 490.028 2592.01 825.136 2592.01Z" stroke="url(#paint81_linear_1055_160)" stroke-width="10" stroke-miterlimit="10"/>
<path d="M794.653 2595.82C1129.76 2595.82 1401.42 2324.16 1401.42 1989.06C1401.42 1653.95 1129.76 1382.29 794.653 1382.29C459.545 1382.29 187.887 1653.95 187.887 1989.06C187.887 2324.16 459.545 2595.82 794.653 2595.82Z" stroke="url(#paint82_linear_1055_160)" stroke-width="10" stroke-miterlimit="10"/>
<path d="M764.173 2599.64C1099.28 2599.64 1370.94 2327.98 1370.94 1992.87C1370.94 1657.76 1099.28 1386.1 764.173 1386.1C429.065 1386.1 157.406 1657.76 157.406 1992.87C157.406 2327.98 429.065 2599.64 764.173 2599.64Z" stroke="url(#paint83_linear_1055_160)" stroke-width="10" stroke-miterlimit="10"/>
<path d="M733.693 2603.44C1068.8 2603.44 1340.46 2332.21 1340.46 1997.63C1340.46 1663.05 1068.8 1391.82 733.693 1391.82C398.585 1391.82 126.926 1663.05 126.926 1997.63C126.926 2332.21 398.585 2603.44 733.693 2603.44Z" stroke="url(#paint84_linear_1055_160)" stroke-width="10" stroke-miterlimit="10"/>
<path d="M703.21 2609.16C1038.32 2609.16 1309.98 2337.5 1309.98 2002.39C1309.98 1667.28 1038.32 1395.62 703.21 1395.62C368.102 1395.62 96.4434 1667.28 96.4434 2002.39C96.4434 2337.5 368.102 2609.16 703.21 2609.16Z" stroke="url(#paint85_linear_1055_160)" stroke-width="10" stroke-miterlimit="10"/>
<path d="M672.73 2612.97C1007.84 2612.97 1279.5 2341.31 1279.5 2006.2C1279.5 1671.1 1007.84 1399.44 672.73 1399.44C337.622 1399.44 65.9629 1671.1 65.9629 2006.2C65.9629 2341.31 337.622 2612.97 672.73 2612.97Z" stroke="url(#paint86_linear_1055_160)" stroke-width="10" stroke-miterlimit="10"/>
<path d="M642.247 2616.78C977.355 2616.78 1249.01 2345.12 1249.01 2010.01C1249.01 1674.9 977.355 1403.25 642.247 1403.25C307.139 1403.25 35.4805 1674.9 35.4805 2010.01C35.4805 2345.12 307.139 2616.78 642.247 2616.78Z" stroke="url(#paint87_linear_1055_160)" stroke-width="10" stroke-miterlimit="10"/>
<path d="M611.767 2620.59C946.875 2620.59 1218.53 2348.93 1218.53 2013.82C1218.53 1678.71 946.875 1407.05 611.767 1407.05C276.659 1407.05 5 1678.71 5 2013.82C5 2348.93 276.659 2620.59 611.767 2620.59Z" stroke="url(#paint88_linear_1055_160)" stroke-width="10" stroke-miterlimit="10"/>
<defs>
<linearGradient id="paint0_linear_1055_160" x1="2095.82" y1="616.449" x2="2095.82" y2="2009.06" gradientUnits="userSpaceOnUse">
<stop stop-color="#3F00B5"/>
<stop offset="1" stop-color="#3D05B7"/>
</linearGradient>
<linearGradient id="paint1_linear_1055_160" x1="2095.82" y1="652.645" x2="2095.82" y2="2045.26" gradientUnits="userSpaceOnUse">
<stop stop-color="#6706CC"/>
<stop offset="1" stop-color="#3109A0"/>
</linearGradient>
<linearGradient id="paint2_linear_1055_160" x1="2347.29" y1="321.164" x2="2347.29" y2="1016.52" gradientUnits="userSpaceOnUse">
<stop stop-color="#7B2BE0"/>
<stop offset="1" stop-color="#78ACFF" stop-opacity="0.39"/>
</linearGradient>
<linearGradient id="paint3_linear_1055_160" x1="2347.29" y1="300.207" x2="2347.29" y2="997.465" gradientUnits="userSpaceOnUse">
<stop stop-color="#7B2BE0"/>
<stop offset="1" stop-color="#78ACFF" stop-opacity="0.39"/>
</linearGradient>
<linearGradient id="paint4_linear_1055_160" x1="2347.29" y1="279.25" x2="2347.29" y2="976.508" gradientUnits="userSpaceOnUse">
<stop stop-color="#7B2BE0"/>
<stop offset="1" stop-color="#78ACFF" stop-opacity="0.39"/>
</linearGradient>
<linearGradient id="paint5_linear_1055_160" x1="2347.29" y1="258.297" x2="2347.29" y2="955.555" gradientUnits="userSpaceOnUse">
<stop stop-color="#7B2BE0"/>
<stop offset="1" stop-color="#78ACFF" stop-opacity="0.39"/>
</linearGradient>
<linearGradient id="paint6_linear_1055_160" x1="2347.29" y1="239.246" x2="2347.29" y2="934.599" gradientUnits="userSpaceOnUse">
<stop stop-color="#7B2BE0"/>
<stop offset="1" stop-color="#78ACFF" stop-opacity="0.39"/>
</linearGradient>
<linearGradient id="paint7_linear_1055_160" x1="2347.29" y1="218.289" x2="2347.29" y2="915.547" gradientUnits="userSpaceOnUse">
<stop stop-color="#7B2BE0"/>
<stop offset="1" stop-color="#78ACFF" stop-opacity="0.39"/>
</linearGradient>
<linearGradient id="paint8_linear_1055_160" x1="2347.29" y1="197.332" x2="2347.29" y2="894.59" gradientUnits="userSpaceOnUse">
<stop stop-color="#7B2BE0"/>
<stop offset="1" stop-color="#78ACFF" stop-opacity="0.39"/>
</linearGradient>
<linearGradient id="paint9_linear_1055_160" x1="2347.29" y1="176.379" x2="2347.29" y2="873.637" gradientUnits="userSpaceOnUse">
<stop stop-color="#7B2BE0"/>
<stop offset="1" stop-color="#78ACFF" stop-opacity="0.39"/>
</linearGradient>
<linearGradient id="paint10_linear_1055_160" x1="2347.29" y1="157.328" x2="2347.29" y2="852.681" gradientUnits="userSpaceOnUse">
<stop stop-color="#7B2BE0"/>
<stop offset="1" stop-color="#78ACFF" stop-opacity="0.39"/>
</linearGradient>
<linearGradient id="paint11_linear_1055_160" x1="2347.29" y1="134.465" x2="2347.29" y2="833.628" gradientUnits="userSpaceOnUse">
<stop stop-color="#7B2BE0"/>
<stop offset="1" stop-color="#78ACFF" stop-opacity="0.39"/>
</linearGradient>
<linearGradient id="paint12_linear_1055_160" x1="2347.29" y1="115.414" x2="2347.29" y2="810.767" gradientUnits="userSpaceOnUse">
<stop stop-color="#7B2BE0"/>
<stop offset="1" stop-color="#78ACFF" stop-opacity="0.39"/>
</linearGradient>
<linearGradient id="paint13_linear_1055_160" x1="2347.29" y1="94.457" x2="2347.29" y2="791.715" gradientUnits="userSpaceOnUse">
<stop stop-color="#7B2BE0"/>
<stop offset="1" stop-color="#78ACFF" stop-opacity="0.39"/>
</linearGradient>
<linearGradient id="paint14_linear_1055_160" x1="2347.29" y1="75.4062" x2="2347.29" y2="770.759" gradientUnits="userSpaceOnUse">
<stop stop-color="#7B2BE0"/>
<stop offset="1" stop-color="#78ACFF" stop-opacity="0.39"/>
</linearGradient>
<linearGradient id="paint15_linear_1055_160" x1="2347.29" y1="52.5469" x2="2347.29" y2="749.805" gradientUnits="userSpaceOnUse">
<stop stop-color="#7B2BE0"/>
<stop offset="1" stop-color="#78ACFF" stop-opacity="0.39"/>
</linearGradient>
<linearGradient id="paint16_linear_1055_160" x1="2347.29" y1="33.4961" x2="2347.29" y2="728.849" gradientUnits="userSpaceOnUse">
<stop stop-color="#7B2BE0"/>
<stop offset="1" stop-color="#78ACFF" stop-opacity="0.39"/>
</linearGradient>
<linearGradient id="paint17_linear_1055_160" x1="2347.29" y1="12.5391" x2="2347.29" y2="709.797" gradientUnits="userSpaceOnUse">
<stop stop-color="#7B2BE0"/>
<stop offset="1" stop-color="#78ACFF" stop-opacity="0.39"/>
</linearGradient>
<linearGradient id="paint18_linear_1055_160" x1="2347.29" y1="-8.41406" x2="2347.29" y2="688.844" gradientUnits="userSpaceOnUse">
<stop stop-color="#7B2BE0"/>
<stop offset="1" stop-color="#78ACFF" stop-opacity="0.39"/>
</linearGradient>
<linearGradient id="paint19_linear_1055_160" x1="2347.29" y1="-29.3711" x2="2347.29" y2="667.887" gradientUnits="userSpaceOnUse">
<stop stop-color="#7B2BE0"/>
<stop offset="1" stop-color="#78ACFF" stop-opacity="0.39"/>
</linearGradient>
<linearGradient id="paint20_linear_1055_160" x1="2347.29" y1="-48.4219" x2="2347.29" y2="646.931" gradientUnits="userSpaceOnUse">
<stop stop-color="#7B2BE0"/>
<stop offset="1" stop-color="#78ACFF" stop-opacity="0.39"/>
</linearGradient>
<linearGradient id="paint21_linear_1055_160" x1="2347.29" y1="-69.3789" x2="2347.29" y2="627.879" gradientUnits="userSpaceOnUse">
<stop stop-color="#7B2BE0"/>
<stop offset="1" stop-color="#78ACFF" stop-opacity="0.39"/>
</linearGradient>
<linearGradient id="paint22_linear_1055_160" x1="2347.29" y1="-90.332" x2="2347.29" y2="606.926" gradientUnits="userSpaceOnUse">
<stop stop-color="#7B2BE0"/>
<stop offset="1" stop-color="#78ACFF" stop-opacity="0.39"/>
</linearGradient>
<linearGradient id="paint23_linear_1055_160" x1="2347.29" y1="-111.289" x2="2347.29" y2="585.969" gradientUnits="userSpaceOnUse">
<stop stop-color="#7B2BE0"/>
<stop offset="1" stop-color="#78ACFF" stop-opacity="0.39"/>
</linearGradient>
<linearGradient id="paint24_linear_1055_160" x1="2347.29" y1="-130.34" x2="2347.29" y2="565.013" gradientUnits="userSpaceOnUse">
<stop stop-color="#7B2BE0"/>
<stop offset="1" stop-color="#78ACFF" stop-opacity="0.39"/>
</linearGradient>
<linearGradient id="paint25_linear_1055_160" x1="2347.29" y1="-151.297" x2="2347.29" y2="545.961" gradientUnits="userSpaceOnUse">
<stop stop-color="#7B2BE0"/>
<stop offset="1" stop-color="#78ACFF" stop-opacity="0.39"/>
</linearGradient>
<linearGradient id="paint26_linear_1055_160" x1="2347.29" y1="-172.25" x2="2347.29" y2="523.103" gradientUnits="userSpaceOnUse">
<stop stop-color="#7B2BE0"/>
<stop offset="1" stop-color="#78ACFF" stop-opacity="0.39"/>
</linearGradient>
<linearGradient id="paint27_linear_1055_160" x1="2347.29" y1="-193.207" x2="2347.29" y2="504.051" gradientUnits="userSpaceOnUse">
<stop stop-color="#7B2BE0"/>
<stop offset="1" stop-color="#78ACFF" stop-opacity="0.39"/>
</linearGradient>
<linearGradient id="paint28_linear_1055_160" x1="2347.29" y1="-214.164" x2="2347.29" y2="483.094" gradientUnits="userSpaceOnUse">
<stop stop-color="#7B2BE0"/>
<stop offset="1" stop-color="#78ACFF" stop-opacity="0.39"/>
</linearGradient>
<linearGradient id="paint29_linear_1055_160" x1="2347.29" y1="-235.121" x2="2347.29" y2="462.137" gradientUnits="userSpaceOnUse">
<stop stop-color="#7B2BE0"/>
<stop offset="1" stop-color="#78ACFF" stop-opacity="0.39"/>
</linearGradient>
<linearGradient id="paint30_linear_1055_160" x1="2347.29" y1="-254.172" x2="2347.29" y2="441.181" gradientUnits="userSpaceOnUse">
<stop stop-color="#7B2BE0"/>
<stop offset="1" stop-color="#78ACFF" stop-opacity="0.39"/>
</linearGradient>
<linearGradient id="paint31_linear_1055_160" x1="2347.29" y1="-275.125" x2="2347.29" y2="422.133" gradientUnits="userSpaceOnUse">
<stop stop-color="#7B2BE0"/>
<stop offset="1" stop-color="#78ACFF" stop-opacity="0.39"/>
</linearGradient>
<linearGradient id="paint32_linear_1055_160" x1="2347.29" y1="-296.082" x2="2347.29" y2="401.176" gradientUnits="userSpaceOnUse">
<stop stop-color="#7B2BE0"/>
<stop offset="1" stop-color="#78ACFF" stop-opacity="0.39"/>
</linearGradient>
<linearGradient id="paint33_linear_1055_160" x1="2347.29" y1="-317.039" x2="2347.29" y2="380.219" gradientUnits="userSpaceOnUse">
<stop stop-color="#7B2BE0"/>
<stop offset="1" stop-color="#78ACFF" stop-opacity="0.39"/>
</linearGradient>
<linearGradient id="paint34_linear_1055_160" x1="2347.29" y1="-336.09" x2="2347.29" y2="359.263" gradientUnits="userSpaceOnUse">
<stop stop-color="#7B2BE0"/>
<stop offset="1" stop-color="#78ACFF" stop-opacity="0.39"/>
</linearGradient>
<linearGradient id="paint35_linear_1055_160" x1="2347.29" y1="-357.043" x2="2347.29" y2="340.215" gradientUnits="userSpaceOnUse">
<stop stop-color="#7B2BE0"/>
<stop offset="1" stop-color="#78ACFF" stop-opacity="0.39"/>
</linearGradient>
<linearGradient id="paint36_linear_1055_160" x1="2347.29" y1="-378" x2="2347.29" y2="319.258" gradientUnits="userSpaceOnUse">
<stop stop-color="#7B2BE0"/>
<stop offset="1" stop-color="#78ACFF" stop-opacity="0.39"/>
</linearGradient>
<linearGradient id="paint37_linear_1055_160" x1="2740.69" y1="1677.58" x2="2740.69" y2="2679.65" gradientUnits="userSpaceOnUse">
<stop stop-color="#7B2BE0"/>
<stop offset="1" stop-color="#78ACFF" stop-opacity="0.39"/>
</linearGradient>
<linearGradient id="paint38_linear_1055_160" x1="2744.5" y1="1692.82" x2="2744.5" y2="2694.89" gradientUnits="userSpaceOnUse">
<stop stop-color="#7B2BE0"/>
<stop offset="1" stop-color="#78ACFF" stop-opacity="0.39"/>
</linearGradient>
<linearGradient id="paint39_linear_1055_160" x1="2748.31" y1="1708.06" x2="2748.31" y2="2710.13" gradientUnits="userSpaceOnUse">
<stop stop-color="#7B2BE0"/>
<stop offset="1" stop-color="#78ACFF" stop-opacity="0.39"/>
</linearGradient>
<linearGradient id="paint40_linear_1055_160" x1="2754.03" y1="1721.39" x2="2754.03" y2="2723.46" gradientUnits="userSpaceOnUse">
<stop stop-color="#7B2BE0"/>
<stop offset="1" stop-color="#78ACFF" stop-opacity="0.39"/>
</linearGradient>
<linearGradient id="paint41_linear_1055_160" x1="2757.83" y1="1736.63" x2="2757.83" y2="2738.7" gradientUnits="userSpaceOnUse">
<stop stop-color="#7B2BE0"/>
<stop offset="1" stop-color="#78ACFF" stop-opacity="0.39"/>
</linearGradient>
<linearGradient id="paint42_linear_1055_160" x1="2762.6" y1="1751.88" x2="2762.6" y2="2753.95" gradientUnits="userSpaceOnUse">
<stop stop-color="#7B2BE0"/>
<stop offset="1" stop-color="#78ACFF" stop-opacity="0.39"/>
</linearGradient>
<linearGradient id="paint43_linear_1055_160" x1="2767.36" y1="1765.21" x2="2767.36" y2="2767.28" gradientUnits="userSpaceOnUse">
<stop stop-color="#7B2BE0"/>
<stop offset="1" stop-color="#78ACFF" stop-opacity="0.39"/>
</linearGradient>
<linearGradient id="paint44_linear_1055_160" x1="2773.08" y1="1780.45" x2="2773.08" y2="2782.52" gradientUnits="userSpaceOnUse">
<stop stop-color="#7B2BE0"/>
<stop offset="1" stop-color="#78ACFF" stop-opacity="0.39"/>
</linearGradient>
<linearGradient id="paint45_linear_1055_160" x1="2776.88" y1="1795.69" x2="2776.88" y2="2797.76" gradientUnits="userSpaceOnUse">
<stop stop-color="#7B2BE0"/>
<stop offset="1" stop-color="#78ACFF" stop-opacity="0.39"/>
</linearGradient>
<linearGradient id="paint46_linear_1055_160" x1="2780.7" y1="1810.93" x2="2780.7" y2="2813" gradientUnits="userSpaceOnUse">
<stop stop-color="#7B2BE0"/>
<stop offset="1" stop-color="#78ACFF" stop-opacity="0.39"/>
</linearGradient>
<linearGradient id="paint47_linear_1055_160" x1="2784.51" y1="1826.17" x2="2784.51" y2="2828.24" gradientUnits="userSpaceOnUse">
<stop stop-color="#7B2BE0"/>
<stop offset="1" stop-color="#78ACFF" stop-opacity="0.39"/>
</linearGradient>
<linearGradient id="paint48_linear_1055_160" x1="2790.22" y1="1839.51" x2="2790.22" y2="2841.58" gradientUnits="userSpaceOnUse">
<stop stop-color="#7B2BE0"/>
<stop offset="1" stop-color="#78ACFF" stop-opacity="0.39"/>
</linearGradient>
<linearGradient id="paint49_linear_1055_160" x1="2794.03" y1="1854.75" x2="2794.03" y2="2856.82" gradientUnits="userSpaceOnUse">
<stop stop-color="#7B2BE0"/>
<stop offset="1" stop-color="#78ACFF" stop-opacity="0.39"/>
</linearGradient>
<linearGradient id="paint50_linear_1055_160" x1="2799.75" y1="1869.99" x2="2799.75" y2="2872.06" gradientUnits="userSpaceOnUse">
<stop stop-color="#7B2BE0"/>
<stop offset="1" stop-color="#78ACFF" stop-opacity="0.39"/>
</linearGradient>
<linearGradient id="paint51_linear_1055_160" x1="2803.56" y1="1883.32" x2="2803.56" y2="2885.39" gradientUnits="userSpaceOnUse">
<stop stop-color="#7B2BE0"/>
<stop offset="1" stop-color="#78ACFF" stop-opacity="0.39"/>
</linearGradient>
<linearGradient id="paint52_linear_1055_160" x1="2809.27" y1="1898.57" x2="2809.27" y2="2900.64" gradientUnits="userSpaceOnUse">
<stop stop-color="#7B2BE0"/>
<stop offset="1" stop-color="#78ACFF" stop-opacity="0.39"/>
</linearGradient>
<linearGradient id="paint53_linear_1055_160" x1="2813.08" y1="1913.8" x2="2813.08" y2="2915.87" gradientUnits="userSpaceOnUse">
<stop stop-color="#7B2BE0"/>
<stop offset="1" stop-color="#78ACFF" stop-opacity="0.39"/>
</linearGradient>
<linearGradient id="paint54_linear_1055_160" x1="2816.89" y1="1929.05" x2="2816.89" y2="2931.12" gradientUnits="userSpaceOnUse">
<stop stop-color="#7B2BE0"/>
<stop offset="1" stop-color="#78ACFF" stop-opacity="0.39"/>
</linearGradient>
<linearGradient id="paint55_linear_1055_160" x1="2820.7" y1="1942.38" x2="2820.7" y2="2944.45" gradientUnits="userSpaceOnUse">
<stop stop-color="#7B2BE0"/>
<stop offset="1" stop-color="#78ACFF" stop-opacity="0.39"/>
</linearGradient>
<linearGradient id="paint56_linear_1055_160" x1="2826.42" y1="1957.62" x2="2826.42" y2="2959.7" gradientUnits="userSpaceOnUse">
<stop stop-color="#7B2BE0"/>
<stop offset="1" stop-color="#78ACFF" stop-opacity="0.39"/>
</linearGradient>
<linearGradient id="paint57_linear_1055_160" x1="2830.23" y1="1972.86" x2="2830.23" y2="2974.93" gradientUnits="userSpaceOnUse">
<stop stop-color="#7B2BE0"/>
<stop offset="1" stop-color="#78ACFF" stop-opacity="0.39"/>
</linearGradient>
<linearGradient id="paint58_linear_1055_160" x1="2835.94" y1="1988.11" x2="2835.94" y2="2990.18" gradientUnits="userSpaceOnUse">
<stop stop-color="#7B2BE0"/>
<stop offset="1" stop-color="#78ACFF" stop-opacity="0.39"/>
</linearGradient>
<linearGradient id="paint59_linear_1055_160" x1="2839.75" y1="2001.44" x2="2839.75" y2="3003.51" gradientUnits="userSpaceOnUse">
<stop stop-color="#7B2BE0"/>
<stop offset="1" stop-color="#78ACFF" stop-opacity="0.39"/>
</linearGradient>
<linearGradient id="paint60_linear_1055_160" x1="2845.47" y1="2016.68" x2="2845.47" y2="3018.75" gradientUnits="userSpaceOnUse">
<stop stop-color="#7B2BE0"/>
<stop offset="1" stop-color="#78ACFF" stop-opacity="0.39"/>
</linearGradient>
<linearGradient id="paint61_linear_1055_160" x1="2849.28" y1="2031.92" x2="2849.28" y2="3033.99" gradientUnits="userSpaceOnUse">
<stop stop-color="#7B2BE0"/>
<stop offset="1" stop-color="#78ACFF" stop-opacity="0.39"/>
</linearGradient>
<linearGradient id="paint62_linear_1055_160" x1="2853.09" y1="2045.26" x2="2853.09" y2="3047.33" gradientUnits="userSpaceOnUse">
<stop stop-color="#7B2BE0"/>
<stop offset="1" stop-color="#78ACFF" stop-opacity="0.39"/>
</linearGradient>
<linearGradient id="paint63_linear_1055_160" x1="2856.9" y1="2060.5" x2="2856.9" y2="3062.57" gradientUnits="userSpaceOnUse">
<stop stop-color="#7B2BE0"/>
<stop offset="1" stop-color="#78ACFF" stop-opacity="0.39"/>
</linearGradient>
<linearGradient id="paint64_linear_1055_160" x1="2862.61" y1="2075.74" x2="2862.61" y2="3077.81" gradientUnits="userSpaceOnUse">
<stop stop-color="#7B2BE0"/>
<stop offset="1" stop-color="#78ACFF" stop-opacity="0.39"/>
</linearGradient>
<linearGradient id="paint65_linear_1055_160" x1="2866.42" y1="2090.98" x2="2866.42" y2="3093.05" gradientUnits="userSpaceOnUse">
<stop stop-color="#7B2BE0"/>
<stop offset="1" stop-color="#78ACFF" stop-opacity="0.39"/>
</linearGradient>
<linearGradient id="paint66_linear_1055_160" x1="2872.14" y1="2106.22" x2="2872.14" y2="3108.29" gradientUnits="userSpaceOnUse">
<stop stop-color="#7B2BE0"/>
<stop offset="1" stop-color="#78ACFF" stop-opacity="0.39"/>
</linearGradient>
<linearGradient id="paint67_linear_1055_160" x1="2875.95" y1="2119.55" x2="2875.95" y2="3121.62" gradientUnits="userSpaceOnUse">
<stop stop-color="#7B2BE0"/>
<stop offset="1" stop-color="#78ACFF" stop-opacity="0.39"/>
</linearGradient>
<linearGradient id="paint68_linear_1055_160" x1="2881.66" y1="2134.8" x2="2881.66" y2="3136.87" gradientUnits="userSpaceOnUse">
<stop stop-color="#7B2BE0"/>
<stop offset="1" stop-color="#78ACFF" stop-opacity="0.39"/>
</linearGradient>
<linearGradient id="paint69_linear_1055_160" x1="2885.47" y1="2150.04" x2="2885.47" y2="3152.11" gradientUnits="userSpaceOnUse">
<stop stop-color="#7B2BE0"/>
<stop offset="1" stop-color="#78ACFF" stop-opacity="0.39"/>
</linearGradient>
<linearGradient id="paint70_linear_1055_160" x1="2889.29" y1="2163.37" x2="2889.29" y2="3165.44" gradientUnits="userSpaceOnUse">
<stop stop-color="#7B2BE0"/>
<stop offset="1" stop-color="#78ACFF" stop-opacity="0.39"/>
</linearGradient>
<linearGradient id="paint71_linear_1055_160" x1="2893.1" y1="2178.61" x2="2893.1" y2="3180.68" gradientUnits="userSpaceOnUse">
<stop stop-color="#7B2BE0"/>
<stop offset="1" stop-color="#78ACFF" stop-opacity="0.39"/>
</linearGradient>
<linearGradient id="paint72_linear_1055_160" x1="1099.47" y1="1340.38" x2="1099.47" y2="2553.91" gradientUnits="userSpaceOnUse">
<stop stop-color="#7B2BE0"/>
<stop offset="1" stop-color="#78ACFF" stop-opacity="0.39"/>
</linearGradient>
<linearGradient id="paint73_linear_1055_160" x1="1068.99" y1="1346.09" x2="1068.99" y2="2557.72" gradientUnits="userSpaceOnUse">
<stop stop-color="#7B2BE0"/>
<stop offset="1" stop-color="#78ACFF" stop-opacity="0.39"/>
</linearGradient>
<linearGradient id="paint74_linear_1055_160" x1="1038.5" y1="1349.9" x2="1038.5" y2="2561.53" gradientUnits="userSpaceOnUse">
<stop stop-color="#7B2BE0"/>
<stop offset="1" stop-color="#78ACFF" stop-opacity="0.39"/>
</linearGradient>
<linearGradient id="paint75_linear_1055_160" x1="1008.02" y1="1353.71" x2="1008.02" y2="2567.25" gradientUnits="userSpaceOnUse">
<stop stop-color="#7B2BE0"/>
<stop offset="1" stop-color="#78ACFF" stop-opacity="0.39"/>
</linearGradient>
<linearGradient id="paint76_linear_1055_160" x1="977.542" y1="1357.52" x2="977.542" y2="2571.06" gradientUnits="userSpaceOnUse">
<stop stop-color="#7B2BE0"/>
<stop offset="1" stop-color="#78ACFF" stop-opacity="0.39"/>
</linearGradient>
<linearGradient id="paint77_linear_1055_160" x1="947.06" y1="1361.34" x2="947.06" y2="2574.87" gradientUnits="userSpaceOnUse">
<stop stop-color="#7B2BE0"/>
<stop offset="1" stop-color="#78ACFF" stop-opacity="0.39"/>
</linearGradient>
<linearGradient id="paint78_linear_1055_160" x1="916.579" y1="1367.05" x2="916.579" y2="2578.68" gradientUnits="userSpaceOnUse">
<stop stop-color="#7B2BE0"/>
<stop offset="1" stop-color="#78ACFF" stop-opacity="0.39"/>
</linearGradient>
<linearGradient id="paint79_linear_1055_160" x1="886.097" y1="1370.86" x2="886.097" y2="2584.39" gradientUnits="userSpaceOnUse">
<stop stop-color="#7B2BE0"/>
<stop offset="1" stop-color="#78ACFF" stop-opacity="0.39"/>
</linearGradient>
<linearGradient id="paint80_linear_1055_160" x1="855.616" y1="1374.67" x2="855.616" y2="2586.3" gradientUnits="userSpaceOnUse">
<stop stop-color="#7B2BE0"/>
<stop offset="1" stop-color="#78ACFF" stop-opacity="0.39"/>
</linearGradient>
<linearGradient id="paint81_linear_1055_160" x1="825.136" y1="1378.48" x2="825.136" y2="2592.01" gradientUnits="userSpaceOnUse">
<stop stop-color="#7B2BE0"/>
<stop offset="1" stop-color="#78ACFF" stop-opacity="0.39"/>
</linearGradient>
<linearGradient id="paint82_linear_1055_160" x1="794.653" y1="1382.29" x2="794.653" y2="2595.82" gradientUnits="userSpaceOnUse">
<stop stop-color="#7B2BE0"/>
<stop offset="1" stop-color="#78ACFF" stop-opacity="0.39"/>
</linearGradient>
<linearGradient id="paint83_linear_1055_160" x1="764.173" y1="1386.1" x2="764.173" y2="2599.64" gradientUnits="userSpaceOnUse">
<stop stop-color="#7B2BE0"/>
<stop offset="1" stop-color="#78ACFF" stop-opacity="0.39"/>
</linearGradient>
<linearGradient id="paint84_linear_1055_160" x1="733.693" y1="1391.82" x2="733.693" y2="2603.44" gradientUnits="userSpaceOnUse">
<stop stop-color="#7B2BE0"/>
<stop offset="1" stop-color="#78ACFF" stop-opacity="0.39"/>
</linearGradient>
<linearGradient id="paint85_linear_1055_160" x1="703.21" y1="1395.62" x2="703.21" y2="2609.16" gradientUnits="userSpaceOnUse">
<stop stop-color="#7B2BE0"/>
<stop offset="1" stop-color="#78ACFF" stop-opacity="0.39"/>
</linearGradient>
<linearGradient id="paint86_linear_1055_160" x1="672.73" y1="1399.44" x2="672.73" y2="2612.97" gradientUnits="userSpaceOnUse">
<stop stop-color="#7B2BE0"/>
<stop offset="1" stop-color="#78ACFF" stop-opacity="0.39"/>
</linearGradient>
<linearGradient id="paint87_linear_1055_160" x1="642.247" y1="1403.25" x2="642.247" y2="2616.78" gradientUnits="userSpaceOnUse">
<stop stop-color="#7B2BE0"/>
<stop offset="1" stop-color="#78ACFF" stop-opacity="0.39"/>
</linearGradient>
<linearGradient id="paint88_linear_1055_160" x1="611.767" y1="1407.05" x2="611.767" y2="2620.59" gradientUnits="userSpaceOnUse">
<stop stop-color="#7B2BE0"/>
<stop offset="1" stop-color="#78ACFF" stop-opacity="0.39"/>
</linearGradient>
</defs>
</svg>
