<svg width="1350" height="1680" viewBox="0 0 1350 1680" fill="none" xmlns="http://www.w3.org/2000/svg">
<path d="M723.325 2220.99C485.483 2195.39 253.55 2132.61 53.7309 1980.65C32.3217 1964.25 16.6217 1943.56 8.77161 1918.69C-26.9104 1803.02 63.0082 1704.57 136.513 1623.24C227.859 1522.65 295.655 1410.65 331.337 1278.67C353.46 1197.35 367.733 1119.59 391.996 1038.97C460.506 810.686 586.82 621.637 737.398 434.727C860.144 282.774 1002.16 175.052 1151.31 51.6345C1198.16 12.0831 1290.63 -33.7233 1339 39.5008C1373.97 90.8652 1314.57 175.363 1280.5 218.5C1196 325.5 1137.75 386.93 1028.56 502.5C895.826 644.465 739.148 812.594 693 965.001C683.5 1002.5 693 1044 725.266 1053.95C776.5 1065 818 1008 839 965.001C868.5 918.501 852.836 860.359 908.5 804.001C942 783.001 973 784.809 993 810.501C1015 846.001 1008.16 885.238 995.736 939.811C945.5 1160.5 855.5 1204 709.566 1263.69C677.5 1276.81 633.207 1278.67 608.943 1250.85C487.624 1112.45 573.974 926.256 654.616 787.144C692.439 722.939 758 649.001 764.516 599.522C754.5 527.001 595.384 804.979 548.283 929.11C494.047 1071.08 495.474 1221.6 486.197 1371.41C479.774 1464.87 462.647 1556.9 427.678 1644.64C368.446 1793.74 488.338 1941.42 614.574 2005.92C657.185 2028.83 703.779 2046.68 751.072 2061.5C798.364 2076.33 846.335 2088.12 891.659 2098.97C933.271 2109.06 973.235 2119.94 1012.58 2132.16C1051.92 2144.37 1090.63 2157.93 1129.88 2173.27C1144.15 2178.98 1154.86 2193.96 1152 2211.08C1150.57 2219.64 1142.01 2223.21 1134.16 2225.35C1044.24 2247.46 955.751 2238.9 866.731 2234.55C823.485 2231.63 775.528 2227.22 723.325 2220.99Z" fill="url(#paint0_linear_1055_147)"/>
<defs>
<linearGradient id="paint0_linear_1055_147" x1="693.162" y1="-31.3379" x2="693.162" y2="2239.88" gradientUnits="userSpaceOnUse">
<stop stop-color="#4E2ECE"/>
<stop offset="1" stop-color="#000D3A"/>
</linearGradient>
</defs>
</svg>
