<svg width="1801" height="2379" viewBox="0 0 1801 2379" fill="none" xmlns="http://www.w3.org/2000/svg">
<path d="M348.703 1557.81C352.48 1506.63 359.848 1455.25 369.22 1403.81C480.512 951.773 464.739 515.067 458.314 57.501L647.784 44.501C629.051 492.578 629.297 926.291 581.859 1370.5C575.231 1439.24 570.619 1509.71 574.729 1575.82C582.909 1708.05 626.058 1822.86 757.868 1871.57C812.01 1885.61 869.592 1884.94 925.308 1888.93C981.025 1892.93 1034.91 1901.55 1081.68 1934.15C1215.12 2028.31 1186.06 2220.42 1165.22 2373.24L1116.29 2373.24L1118.72 2349.29C1128.58 2255.58 1142.64 2155.15 1096.6 2082.4C1045.48 2004.05 964.402 1984 874.886 1982.66C785.37 1981.32 687.423 1998.65 602.449 1994.76C510.028 1991.46 412.548 1951.67 381.212 1861.91C347.853 1761.86 341.131 1660.19 348.703 1557.81Z" fill="url(#paint0_linear_1276_130)"/>
<path d="M728.555 1334.24C732.798 1160.86 728.475 995.137 728.157 816.934C727.35 552.578 696.228 298.135 712.613 43.4995L1103.01 43.4995C1032.4 286.162 1065.11 532.712 1138.17 761.384C1186.55 916.3 1235.32 1062.64 1278.26 1215.36C1298.17 1287.7 1316.69 1360.34 1332.64 1433.47C1380.45 1652.84 1405.22 1876.69 1374.82 2110.55C1365.22 2181.89 1353.37 2252.14 1340.52 2322.01L1226.51 2322.01C1245.57 2191.31 1267.14 2052.64 1204.75 1934.23C1150.18 1828.9 1018.16 1834.05 916.84 1792.38C841.502 1763.01 799.458 1699.33 773.702 1624.38C758.213 1578.89 746.519 1531.82 738.733 1483.63C730.917 1434.7 727.511 1384.7 728.555 1334.24Z" fill="url(#paint1_linear_1276_130)"/>
<defs>
<linearGradient id="paint0_linear_1276_130" x1="232.785" y1="1135.25" x2="1374.29" y2="1374.12" gradientUnits="userSpaceOnUse">
<stop stop-color="#0E1380"/>
<stop offset="1" stop-color="#020BBC"/>
</linearGradient>
<linearGradient id="paint1_linear_1276_130" x1="489.95" y1="1107.55" x2="1548.31" y2="1329.02" gradientUnits="userSpaceOnUse">
<stop stop-color="#0E1380"/>
<stop offset="1" stop-color="#020BBC"/>
</linearGradient>
</defs>
</svg>
