<svg xmlns="http://www.w3.org/2000/svg" xmlns:xlink="http://www.w3.org/1999/xlink" viewBox="0 0 203.09 51.68"><defs><style>.cls-1{fill:none;}.cls-2{clip-path:url(#clip-path);}.cls-3{fill:#0a0d42;}</style><clipPath id="clip-path" transform="translate(0 0)"><rect class="cls-1" width="203.09" height="51.68"/></clipPath></defs><g id="Layer_2" data-name="Layer 2"><g id="Layer_1-2" data-name="Layer 1"><g class="cls-2"><path class="cls-3" d="M.38,42.44a5.39,5.39,0,0,0,2.74-5V8.08A5.4,5.4,0,0,0,.38,3c-.49-.17-.54-.82,0-.82H24.56c.59,0,.75.41.32.88-1.72,2.05-4,4.57-5.28,7.5a1.62,1.62,0,0,1,1.78,1.71,1.79,1.79,0,0,1-1.67,1.93c-1.13,0-2.05-.82-2.05-2.52A10.81,10.81,0,0,1,19.71,6.5,15.24,15.24,0,0,0,13.35,5c-2.58,0-5.7.52-5.7,4.39v9.68H16.8c.27,0,.43.23.22.58a16.83,16.83,0,0,0-2.21,5.57.61.61,0,0,1,.32-.06,1.43,1.43,0,0,1,1.4,1.53,1.47,1.47,0,0,1-1.4,1.58c-1.07,0-1.78-.94-1.78-2.4a11.35,11.35,0,0,1,.43-3.23H7.65V36.05c0,4.16,2.42,4.4,4.84,4.4a14.25,14.25,0,0,0,7.16-1.64,15.64,15.64,0,0,1-1.45-6.69c0-2.52,1.29-3.75,2.53-3.75a1.88,1.88,0,0,1,1.83,1.94,1.78,1.78,0,0,1-1.77,1.87,1.43,1.43,0,0,1-.65-.17c0,3.51,2.21,6.91,5.39,10.37.43.47.21.88-.33.88H.43c-.59,0-.54-.64,0-.82" transform="translate(0 0)"/><path class="cls-3" d="M28.54,42.44a5.38,5.38,0,0,0,2.75-5V21.57a5.38,5.38,0,0,0-2.75-5c-.48-.18-.54-.82.06-.82h6.57a.41.41,0,0,1,.43.46V23l5.33-4.64c1.18-1,0-1.7-.59-1.93s-.38-.76,0-.76h8.67c.59,0,.54.64,0,.82a5.39,5.39,0,0,0-2.74,5V37.4a5.39,5.39,0,0,0,2.74,5c.49.18.54.82,0,.82H42.49a.41.41,0,0,1-.43-.47V20.16L35.6,25.85V37.4a5.39,5.39,0,0,0,2.74,5c.49.18.54.82-.05.82H28.6c-.6,0-.54-.64-.06-.82" transform="translate(0 0)"/><path class="cls-3" d="M50.62,32.77c0-8.68,4.69-13.66,4.69-15.31a1.19,1.19,0,0,0-.54-1.05c-.48-.41-.21-.7.16-.7H65.22c.27,0,.43.17.32.46l-3,8.16a1.36,1.36,0,0,1,1.19,1.4,1.52,1.52,0,0,1-1.4,1.59,1.71,1.71,0,0,1-1.62-1.88A4,4,0,0,1,61,23.86l1.45-4.28H57.09A28,28,0,0,0,54.61,31c0,6.51,2.58,8.39,4.63,8.39,2.69,0,4.47-3.17,4.63-6.16a.42.42,0,0,1,.43-.47h.81c.27,0,.43.12.43.47-.05,4.22-1.08,10.55-7.05,10.55-4.69,0-7.87-5.22-7.87-11" transform="translate(0 0)"/><path class="cls-3" d="M66.84,42.44a5.39,5.39,0,0,0,2.74-5V8.08a5.4,5.4,0,0,0-2.74-5c-.49-.17-.54-.82,0-.82h6.57a.42.42,0,0,1,.43.47V23l4.69-4.11c1.29-1.11.86-2.11.27-2.46s-.38-.76.05-.76h8.45c.6,0,.54.64.06.82a5.38,5.38,0,0,0-2.75,5V37.4a5.38,5.38,0,0,0,2.75,5c.48.18.54.82-.06.82H80.78a.41.41,0,0,1-.43-.47V20.16l-6.46,5.69V37.4a5.38,5.38,0,0,0,2.75,5c.48.18.54.82-.06.82H66.89c-.59,0-.54-.64,0-.82" transform="translate(0 0)"/><path class="cls-3" d="M105.93,42.44a5.38,5.38,0,0,0,2.75-5V21.57a5.38,5.38,0,0,0-2.75-5c-.48-.18-.53-.82.06-.82h6.57a.41.41,0,0,1,.43.46V23l5.33-4.64c1.19-1,0-1.7-.59-1.93s-.38-.76,0-.76h8.67c.6,0,.54.64.06.82a5.38,5.38,0,0,0-2.75,5V37.4a5.38,5.38,0,0,0,2.75,5c.48.18.54.82-.06.82h-6.57a.41.41,0,0,1-.43-.47V20.16L113,25.85V37.4a5.38,5.38,0,0,0,2.75,5c.48.18.53.82-.06.82H106c-.59,0-.54-.64-.06-.82" transform="translate(0 0)"/><path class="cls-3" d="M129.15,42.44a5.39,5.39,0,0,0,2.74-5V18.93h-2.8c-.32,0-.27-.29-.27-.53a3.79,3.79,0,0,0-.32-2c-.21-.47-.27-.7.22-.7h3.17V12.66c0-3.05-.37-3.34-1.07-3.81-.33-.24-.59-.65-.11-.94l5.76-3.4c.49-.3.7.11.54.53a12.49,12.49,0,0,0-.81,4.63v6h5.23c.27,0,.43.17.32.46a42.82,42.82,0,0,0-2.15,9.15.91.91,0,0,1,.43-.06,1.64,1.64,0,0,1,1.56,1.7,1.73,1.73,0,0,1-1.67,1.7A2,2,0,0,1,138,26.38a37.7,37.7,0,0,1,1-7.45H136.2V37.4a5.38,5.38,0,0,0,2.75,5c.48.18.54.82-.06.82H129.2c-.59,0-.54-.64,0-.82" transform="translate(0 0)"/><path class="cls-3" d="M156.29,4.39a1.06,1.06,0,0,1,1-.53h3.44c.49,0,.6.47.22.88l-6.46,7.86a.8.8,0,0,1-.7.35h-2a.37.37,0,0,1-.33-.58Zm-2.1,15.19H149.4a28.57,28.57,0,0,0-2.48,11.14c5.12-2,7.16-6.86,7.27-11.14M142.93,32.71c0-8.68,4.69-13.6,4.69-15.19a1.24,1.24,0,0,0-.54-1c-.48-.41-.16-.82.22-.82h11.25c.54,0,.7.52.22.88s-1,.41-1,2.4c0,4.87-2.91,12.84-10.71,14,.59,4.93,3.23,6.4,4.79,6.4,3,0,4.58-3.17,4.9-6.22a.36.36,0,0,1,.38-.41H158c.27,0,.38.12.38.41,0,4.81-1.45,10.61-7.27,10.61-5,0-8.19-5.27-8.19-11" transform="translate(0 0)"/><path class="cls-3" d="M161.78,25.79A33.72,33.72,0,0,1,172.56.34c.43-.41.7-.52,1.23.06l.81.82a.81.81,0,0,1,0,1.23C169.43,8,166.31,17,166.31,25.79s3.07,17.65,8.24,23.28a.87.87,0,0,1,0,1.29l-.81.94c-.43.52-.8.47-1.23.05a34,34,0,0,1-10.78-25.56" transform="translate(0 0)"/><path class="cls-3" d="M185.64,19.58h-4.79a28.74,28.74,0,0,0-2.48,11.14c5.12-2,7.16-6.86,7.27-11.14M174.39,32.71c0-8.68,4.68-13.6,4.68-15.19a1.21,1.21,0,0,0-.54-1c-.48-.41-.16-.82.22-.82H190c.54,0,.7.52.22.88-.32.29-1,.41-1,2.4,0,4.87-2.91,12.84-10.72,14,.59,4.93,3.23,6.4,4.79,6.4,3,0,4.58-3.17,4.9-6.22a.36.36,0,0,1,.38-.41h.91c.27,0,.38.12.38.41-.05,4.81-1.45,10.61-7.27,10.61-4.95,0-8.18-5.27-8.18-11" transform="translate(0 0)"/><path class="cls-3" d="M191.08,51.3l-.81-.94a.88.88,0,0,1,.06-1.29c5.17-5.63,8.24-14.54,8.24-23.28S195.44,8,190.33,2.45a.81.81,0,0,1-.06-1.23l.81-.82c.54-.58.81-.47,1.24-.06a33.72,33.72,0,0,1,10.77,25.45,33.94,33.94,0,0,1-10.77,25.56c-.43.42-.81.47-1.24-.05" transform="translate(0 0)"/><path class="cls-3" d="M101.47,28.44a7.59,7.59,0,0,0,0-10.09,6.18,6.18,0,0,0-9.27,0,7.59,7.59,0,0,0,0,10.09A6.68,6.68,0,0,0,94,29.82l-2.41,17a.35.35,0,0,0,.32.41h9.77a.34.34,0,0,0,.32-.41l-2.34-17a6.62,6.62,0,0,0,1.77-1.34" transform="translate(0 0)"/></g></g></g></svg>