<svg xmlns="http://www.w3.org/2000/svg" viewBox="0 0 891.16 247.32"><defs><style>.cls-1{fill:#fff;}</style></defs><g id="Layer_2" data-name="Layer 2"><g id="Layer_1-2" data-name="Layer 1"><path class="cls-1" d="M241.78,232.1H243c3.72,0,5.59-1.43,5.59-4.28q0-4-5.44-4h-1.4Zm4.89,3,8.07,11.1h-4.81l-7.44-10.66h-.71v10.66h-3.93V220.13h4.61c3.44,0,5.93.65,7.45,1.94a7.11,7.11,0,0,1,2.54,5.71,7.36,7.36,0,0,1-1.59,4.75,7.11,7.11,0,0,1-4.19,2.56"/><path class="cls-1" d="M268.44,235.76a3.63,3.63,0,0,0-3.82-3,3.94,3.94,0,0,0-1.3.21,3.54,3.54,0,0,0-1.11.61,4.07,4.07,0,0,0-.85,1,4.27,4.27,0,0,0-.54,1.27Zm3.91,3.1H260.57a5,5,0,0,0,1.31,3.23,4,4,0,0,0,3,1.18,3.8,3.8,0,0,0,2.34-.68,9.56,9.56,0,0,0,2.08-2.5l3.2,1.79a12.24,12.24,0,0,1-1.56,2.17,8.71,8.71,0,0,1-1.77,1.49,7.23,7.23,0,0,1-2.05.85,9.91,9.91,0,0,1-2.38.27,7.74,7.74,0,0,1-5.9-2.36A8.85,8.85,0,0,1,256.6,238a9.13,9.13,0,0,1,2.16-6.32,7.46,7.46,0,0,1,5.77-2.38,7.37,7.37,0,0,1,5.74,2.32,9.11,9.11,0,0,1,2.09,6.36Z"/><path class="cls-1" d="M276.49,229.75h3.82v1.52a6.21,6.21,0,0,1,4.49-2,5.69,5.69,0,0,1,4.47,1.81q1.38,1.54,1.38,5v10.08h-3.82V237a6,6,0,0,0-.67-3.36,2.73,2.73,0,0,0-2.4-.94,2.93,2.93,0,0,0-2.68,1.24,8.72,8.72,0,0,0-.77,4.3v7.94h-3.82Z"/><path class="cls-1" d="M308.24,230.46v5a9.44,9.44,0,0,0-2.33-2.17,4.48,4.48,0,0,0-2.38-.61,4.68,4.68,0,0,0-3.56,1.5,5.28,5.28,0,0,0-1.42,3.77,5.42,5.42,0,0,0,1.37,3.8,4.64,4.64,0,0,0,3.53,1.48,4.76,4.76,0,0,0,2.41-.6,9,9,0,0,0,2.38-2.22v5a10.06,10.06,0,0,1-4.63,1.19,8.88,8.88,0,0,1-6.38-2.46,8.7,8.7,0,0,1,0-12.37,8.79,8.79,0,0,1,6.38-2.54,9.61,9.61,0,0,1,4.59,1.17"/><path class="cls-1" d="M315,237.92a5.51,5.51,0,0,0,1.32,3.89,4.57,4.57,0,0,0,3.56,1.46,4.65,4.65,0,0,0,3.56-1.43,6.18,6.18,0,0,0,0-7.66,4.6,4.6,0,0,0-3.56-1.46,4.55,4.55,0,0,0-3.53,1.46,5.25,5.25,0,0,0-1.35,3.74m-3.88-.07a8.18,8.18,0,0,1,2.55-6.06,9,9,0,0,1,12.45,0,8.8,8.8,0,0,1,0,12.37,8.67,8.67,0,0,1-6.29,2.48,8.33,8.33,0,0,1-6.19-2.53,8.49,8.49,0,0,1-2.5-6.28"/><path class="cls-1" d="M332.69,229.75h3.81v1.52a6.24,6.24,0,0,1,4.5-2,5.69,5.69,0,0,1,4.47,1.81q1.38,1.54,1.38,5v10.08H343V237a6,6,0,0,0-.67-3.36,2.73,2.73,0,0,0-2.4-.94,2.93,2.93,0,0,0-2.68,1.24,8.59,8.59,0,0,0-.78,4.3v7.94h-3.81Z"/><polygon class="cls-1" points="355.56 233.29 355.56 246.19 351.76 246.19 351.76 233.29 350.14 233.29 350.14 229.75 351.76 229.75 351.76 223.73 355.56 223.73 355.56 229.75 358.51 229.75 358.51 233.29 355.56 233.29"/><path class="cls-1" d="M361.1,229.75h3.79v1.47a7.31,7.31,0,0,1,1.86-1.5,4.14,4.14,0,0,1,2-.43,6.13,6.13,0,0,1,3.13,1l-1.73,3.48A3.63,3.63,0,0,0,368,233q-3.11,0-3.11,4.7v8.52H361.1Z"/><path class="cls-1" d="M384.85,235.76a3.63,3.63,0,0,0-3.82-3,3.94,3.94,0,0,0-1.3.21,3.54,3.54,0,0,0-1.11.61,4.07,4.07,0,0,0-.85,1,4.27,4.27,0,0,0-.54,1.27Zm3.91,3.1H377a5,5,0,0,0,1.31,3.23,4,4,0,0,0,3,1.18,3.8,3.8,0,0,0,2.34-.68,9.56,9.56,0,0,0,2.08-2.5l3.2,1.79a12.24,12.24,0,0,1-1.56,2.17,8.71,8.71,0,0,1-1.77,1.49,7.29,7.29,0,0,1-2,.85,10.05,10.05,0,0,1-2.39.27,7.74,7.74,0,0,1-5.9-2.36A8.85,8.85,0,0,1,373,238a9.13,9.13,0,0,1,2.16-6.32,7.46,7.46,0,0,1,5.77-2.38,7.37,7.37,0,0,1,5.74,2.32,9.11,9.11,0,0,1,2.09,6.36Z"/><polygon class="cls-1" points="398.36 242.61 408.13 242.61 408.13 246.19 390.83 246.19 401.48 233.29 393.09 233.29 393.09 229.75 408.99 229.75 398.36 242.61"/><rect class="cls-1" x="409.29" y="236.18" width="7.53" height="3.3"/><polygon class="cls-1" points="429.74 229.75 425.5 238.98 421.26 229.75 417 229.75 425.48 247.32 434.01 229.75 429.74 229.75"/><path class="cls-1" d="M439,237.92a5.47,5.47,0,0,0,1.33,3.89,4.57,4.57,0,0,0,3.56,1.46,4.65,4.65,0,0,0,3.56-1.43,6.18,6.18,0,0,0,0-7.66,5,5,0,0,0-7.1,0,5.3,5.3,0,0,0-1.35,3.74m-3.87-.07a8.17,8.17,0,0,1,2.54-6.06,9,9,0,0,1,12.46,0,8.8,8.8,0,0,1,0,12.37,8.67,8.67,0,0,1-6.29,2.48,8.32,8.32,0,0,1-6.19-2.53,8.49,8.49,0,0,1-2.5-6.28"/><path class="cls-1" d="M460.49,229.75v9.43q0,4.09,3.23,4.09c2.14,0,3.22-1.36,3.22-4.09v-9.43h3.8v9.52a10.82,10.82,0,0,1-.49,3.41,5.67,5.67,0,0,1-1.64,2.31,8,8,0,0,1-9.77,0,5.75,5.75,0,0,1-1.67-2.31,9.32,9.32,0,0,1-.47-3.41v-9.52Z"/><path class="cls-1" d="M485.08,232.55l-3.14,1.68c-.49-1-1.11-1.52-1.84-1.52a1.27,1.27,0,0,0-.89.34,1.15,1.15,0,0,0-.38.89c0,.63.74,1.25,2.2,1.87a13.07,13.07,0,0,1,4.07,2.4,4.12,4.12,0,0,1,1,2.95,5.16,5.16,0,0,1-1.75,4,6.3,6.3,0,0,1-10-2.51l3.25-1.51a6.86,6.86,0,0,0,1,1.51,2.35,2.35,0,0,0,1.65.64c1.28,0,1.92-.59,1.92-1.76,0-.67-.5-1.3-1.48-1.88-.39-.2-.77-.38-1.15-.56l-1.17-.56a7.28,7.28,0,0,1-2.33-1.62,4,4,0,0,1-.86-2.65,4.67,4.67,0,0,1,1.47-3.54,5.14,5.14,0,0,1,3.65-1.41,5,5,0,0,1,4.69,3.26"/><path class="cls-1" d="M503.32,237.92a5.76,5.76,0,0,0,1.27,3.85,4.15,4.15,0,0,0,3.27,1.5,4.33,4.33,0,0,0,3.42-1.46,6.23,6.23,0,0,0,0-7.62,4.31,4.31,0,0,0-3.38-1.47,4.26,4.26,0,0,0-3.28,1.48,5.53,5.53,0,0,0-1.3,3.72m9-8.17h3.81v16.44h-3.81v-1.72a7.3,7.3,0,0,1-10.68-.27,9.14,9.14,0,0,1-2.21-6.28,8.85,8.85,0,0,1,2.21-6.16,7.12,7.12,0,0,1,5.53-2.47,7,7,0,0,1,5.15,2.37Z"/><path class="cls-1" d="M524.73,229.75v9.43q0,4.09,3.23,4.09t3.22-4.09v-9.43H535v9.52a10.82,10.82,0,0,1-.49,3.41,5.64,5.64,0,0,1-1.63,2.31,8,8,0,0,1-9.78,0,5.75,5.75,0,0,1-1.67-2.31,9.54,9.54,0,0,1-.47-3.41v-9.52Z"/><polygon class="cls-1" points="543.69 233.29 543.69 246.19 539.89 246.19 539.89 233.29 538.28 233.29 538.28 229.75 539.89 229.75 539.89 223.73 543.69 223.73 543.69 229.75 546.64 229.75 546.64 233.29 543.69 233.29"/><path class="cls-1" d="M549.23,229.75H553v1.47a7.31,7.31,0,0,1,1.86-1.5,4.19,4.19,0,0,1,2-.43,6.13,6.13,0,0,1,3.13,1l-1.73,3.48a3.63,3.63,0,0,0-2.11-.78q-3.11,0-3.11,4.7v8.52h-3.79Z"/><path class="cls-1" d="M573,235.76a3.65,3.65,0,0,0-3.83-3,3.94,3.94,0,0,0-1.3.21,3.54,3.54,0,0,0-1.11.61,4.07,4.07,0,0,0-.85,1,4.27,4.27,0,0,0-.54,1.27Zm3.9,3.1H565.11a5,5,0,0,0,1.32,3.23,4,4,0,0,0,3,1.18,3.83,3.83,0,0,0,2.35-.68,9.57,9.57,0,0,0,2.07-2.5l3.21,1.79a12.79,12.79,0,0,1-1.57,2.17,8.44,8.44,0,0,1-1.77,1.49,7.29,7.29,0,0,1-2,.85,10.05,10.05,0,0,1-2.39.27,7.74,7.74,0,0,1-5.9-2.36,8.89,8.89,0,0,1-2.23-6.31,9.13,9.13,0,0,1,2.16-6.32,7.48,7.48,0,0,1,5.78-2.38,7.34,7.34,0,0,1,5.73,2.32A9.11,9.11,0,0,1,576.9,238Z"/><path class="cls-1" d="M581,229.75h3.79v1.52a7.91,7.91,0,0,1,1.87-1.55,4.48,4.48,0,0,1,2.08-.43,5.08,5.08,0,0,1,4.41,2.44,5.7,5.7,0,0,1,4.84-2.44q5.55,0,5.55,6.74v10.16h-3.81v-9.13a7.11,7.11,0,0,0-.58-3.35,2.08,2.08,0,0,0-1.94-1A2.47,2.47,0,0,0,595,233.9a7.71,7.71,0,0,0-.71,3.8v8.49h-3.82v-9.08q0-4.4-2.53-4.39a2.55,2.55,0,0,0-2.34,1.2,7.48,7.48,0,0,0-.73,3.78v8.49H581Z"/><path class="cls-1" d="M619.45,235.76a3.65,3.65,0,0,0-3.83-3,4,4,0,0,0-1.3.21,3.54,3.54,0,0,0-1.11.61,4.07,4.07,0,0,0-.85,1,4.27,4.27,0,0,0-.54,1.27Zm3.9,3.1H611.57a5,5,0,0,0,1.32,3.23,4,4,0,0,0,3,1.18,3.83,3.83,0,0,0,2.35-.68,9.57,9.57,0,0,0,2.07-2.5l3.21,1.79a12.79,12.79,0,0,1-1.57,2.17,8.44,8.44,0,0,1-1.77,1.49,7.17,7.17,0,0,1-2,.85,10.05,10.05,0,0,1-2.39.27,7.74,7.74,0,0,1-5.9-2.36A8.89,8.89,0,0,1,607.6,238a9.18,9.18,0,0,1,2.16-6.32,7.48,7.48,0,0,1,5.78-2.38,7.34,7.34,0,0,1,5.73,2.32,9.07,9.07,0,0,1,2.09,6.36Z"/><path class="cls-1" d="M627.5,229.75h3.81v1.52a6.23,6.23,0,0,1,4.49-2,5.69,5.69,0,0,1,4.47,1.81c.92,1,1.39,2.7,1.39,5v10.08h-3.82V237a6.13,6.13,0,0,0-.67-3.36,2.73,2.73,0,0,0-2.4-.94,2.92,2.92,0,0,0-2.68,1.24,8.59,8.59,0,0,0-.78,4.3v7.94H627.5Z"/><polygon class="cls-1" points="650.36 233.29 650.36 246.19 646.56 246.19 646.56 233.29 644.94 233.29 644.94 229.75 646.56 229.75 646.56 223.73 650.36 223.73 650.36 229.75 653.31 229.75 653.31 233.29 650.36 233.29"/><path class="cls-1" d="M1.65,171.05c5.2-1.89,12.06-9.21,12.06-20.32V32.58c0-11.1-6.86-18.43-12.06-20.32C-.47,11.55-.71,9,1.89,9H107.75c2.6,0,3.31,1.66,1.42,3.55C101.61,20.76,91.45,30.93,86,42.74c4-.24,7.8,2.13,7.8,6.86a7.48,7.48,0,0,1-7.33,7.8c-5,0-9-3.31-9-10.17,0-5.43,3.31-13,9-21-9-4.25-20.79-5.9-27.88-5.9C47.26,20.3,33.55,22.42,33.55,38V77H73.72c1.19,0,1.89,1,1,2.37-2.84,5-8,12.53-9.69,22.45a3,3,0,0,1,1.42-.24,6,6,0,0,1,6.14,6.15,6.15,6.15,0,0,1-6.14,6.38c-4.73,0-7.8-3.78-7.8-9.69a42.18,42.18,0,0,1,1.89-13H33.55V145.3c0,16.78,10.63,17.72,21.27,17.72,10.4,0,22.69-1.66,31.43-6.62-5-10.4-6.38-18.43-6.38-26.93,0-10.17,5.67-15.13,11.1-15.13a7.93,7.93,0,0,1,8,7.8,7.52,7.52,0,0,1-7.8,7.56,6.18,6.18,0,0,1-2.83-.71c0,14.18,9.69,27.88,23.63,41.83,1.89,1.89.94,3.54-1.42,3.54H1.89c-2.6,0-2.36-2.59-.24-3.31"/><path class="cls-1" d="M125.24,171.05c5.2-1.89,12.06-9.21,12.06-20.32V86.93c0-11.11-6.86-18.43-12.06-20.32-2.12-.71-2.36-3.31.24-3.31h28.83a1.74,1.74,0,0,1,1.89,1.89V92.84l23.39-18.67c5.2-4.25,0-6.85-2.6-7.8-2.12-.7-1.65-3.07.24-3.07h38.05c2.6,0,2.36,2.6.23,3.31-5.19,1.89-12,9.21-12,20.32v63.8c0,11.11,6.86,18.43,12,20.32,2.13.72,2.37,3.31-.23,3.31H186.45a1.75,1.75,0,0,1-1.9-1.89V81.26L156.2,104.18v46.55c0,11.11,6.85,18.43,12.05,20.32,2.13.72,2.36,3.31-.23,3.31H125.48c-2.6,0-2.36-2.59-.24-3.31"/><path class="cls-1" d="M222.14,132.06c0-35,20.56-55.06,20.56-61.67,0-2.36-1-3.07-2.37-4.26-2.12-1.65-.94-2.83.71-2.83h45.13c1.18,0,1.9.71,1.42,1.89L274.36,98c3.07.47,5.19,2.59,5.19,5.67a6.31,6.31,0,0,1-6.14,6.38c-4.25,0-7.08-3.31-7.08-7.56a15.51,15.51,0,0,1,1.41-6.38l6.38-17.25H250.49a105,105,0,0,0-10.87,45.84c0,26.23,11.34,33.79,20.33,33.79,11.81,0,19.6-12.76,20.32-24.81a1.73,1.73,0,0,1,1.88-1.89h3.55c1.18,0,1.89.47,1.89,1.89-.24,17-4.73,42.53-30.95,42.53-20.56,0-34.5-21-34.5-44.19"/><path class="cls-1" d="M293.27,171.05c5.2-1.89,12.05-9.21,12.05-20.32V32.58c0-11.1-6.85-18.43-12.05-20.32-2.13-.71-2.36-3.31.24-3.31h28.82a1.75,1.75,0,0,1,1.9,1.9v82L344.79,76.3c5.66-4.49,3.78-8.51,1.18-9.93-2.13-.94-1.66-3.07.23-3.07h37.1c2.61,0,2.37,2.6.24,3.31-5.2,1.89-12.05,9.21-12.05,20.32v63.8c0,11.11,6.85,18.43,12.05,20.32,2.13.72,2.37,3.31-.24,3.31H354.48a1.74,1.74,0,0,1-1.9-1.89V81.26l-28.35,22.92v46.55c0,11.11,6.85,18.43,12,20.32,2.12.72,2.36,3.31-.23,3.31H293.51c-2.6,0-2.37-2.59-.24-3.31"/><path class="cls-1" d="M464.84,171.05c5.19-1.89,12.05-9.21,12.05-20.32V86.93c0-11.11-6.86-18.43-12.05-20.32-2.13-.71-2.37-3.31.24-3.31H493.9a1.75,1.75,0,0,1,1.9,1.89V92.84l23.39-18.67c5.2-4.25,0-6.85-2.6-7.8-2.13-.7-1.65-3.07.23-3.07h38c2.6,0,2.36,2.6.24,3.31-5.2,1.89-12.05,9.21-12.05,20.32v63.8c0,11.11,6.85,18.43,12.05,20.32,2.12.72,2.36,3.31-.24,3.31H526a1.74,1.74,0,0,1-1.89-1.89V81.26L495.8,104.18v46.55c0,11.11,6.85,18.43,12,20.32,2.14.72,2.37,3.31-.23,3.31H465.08c-2.61,0-2.37-2.59-.24-3.31"/><path class="cls-1" d="M566.69,171.05c5.2-1.89,12.06-9.21,12.06-20.32V76.3h-12.3c-1.41,0-1.18-1.18-1.18-2.13a14.47,14.47,0,0,0-1.41-8c-.94-1.88-1.18-2.83.94-2.83h14V51c0-12.28-1.66-13.46-4.73-15.35-1.42-.95-2.6-2.61-.47-3.79l25.28-13.7c2.12-1.18,3.07.47,2.36,2.13-2.36,6.61-3.54,10.63-3.54,18.67V63.3h22.92c1.18,0,1.89.71,1.42,1.89-3.79,9.93-8.28,25-9.45,36.86a4.69,4.69,0,0,1,1.89-.23,6.85,6.85,0,0,1,6.84,6.85c0,3.78-3.53,6.86-7.32,6.86s-8.27-2.84-8.27-9.22c0-4.49.47-11.58,4.49-30H597.65v74.43c0,11.11,6.85,18.43,12.05,20.32,2.12.72,2.36,3.31-.24,3.31H566.93c-2.6,0-2.36-2.59-.24-3.31"/><path class="cls-1" d="M685.79,17.69A4.77,4.77,0,0,1,690,15.57h15.13c2.12,0,2.6,1.89,1,3.54L677.76,50.78a3.51,3.51,0,0,1-3.07,1.41H666a1.49,1.49,0,0,1-1.42-2.35ZM676.58,78.9h-21a108.18,108.18,0,0,0-10.87,44.89c22.46-8,31.43-27.64,31.91-44.89m-49.39,52.93c0-35,20.56-54.83,20.56-61.21,0-1.88-1-2.83-2.36-4-2.13-1.65-.72-3.31.94-3.31h49.39c2.36,0,3.07,2.13.94,3.55-1.41,1.18-4.49,1.65-4.49,9.69,0,19.61-12.76,51.74-47,56.24,2.6,19.84,14.18,25.75,21,25.75,13,0,20.09-12.76,21.51-25.05a1.49,1.49,0,0,1,1.65-1.65h4c1.18,0,1.66.47,1.66,1.65-.24,19.38-6.38,42.77-31.9,42.77-21.75,0-35.92-21.26-35.92-44.42"/><path class="cls-1" d="M709.9,103.94c0-41.82,16.07-74.66,47.27-102.55,1.89-1.65,3.07-2.13,5.43.24l3.54,3.3a3.09,3.09,0,0,1-.24,5c-22.44,22.46-36.15,58.61-36.15,94.05,0,35.22,13.47,71.14,36.15,93.82,1.66,1.65,1.9,3.31.24,5.2l-3.54,3.77c-1.89,2.13-3.54,1.9-5.43.24-31.2-27.88-47.27-61.2-47.27-103"/><path class="cls-1" d="M814.59,78.9h-21a107.87,107.87,0,0,0-10.87,44.89c22.45-8,31.42-27.64,31.9-44.89M765.2,131.83c0-35,20.56-54.83,20.56-61.21,0-1.88-1-2.83-2.36-4-2.13-1.65-.71-3.31.94-3.31h49.39c2.36,0,3.07,2.13.94,3.55-1.41,1.18-4.49,1.65-4.49,9.69,0,19.61-12.76,51.74-47,56.24,2.6,19.84,14.18,25.75,21,25.75,13,0,20.09-12.76,21.51-25.05a1.49,1.49,0,0,1,1.65-1.65h4c1.19,0,1.66.47,1.66,1.65-.24,19.38-6.38,42.77-31.9,42.77-21.74,0-35.92-21.26-35.92-44.42"/><path class="cls-1" d="M838.46,206.73,834.92,203c-1.66-1.89-1.42-3.55.23-5.2,22.69-22.69,36.16-58.6,36.16-93.82,0-35.44-13.71-71.59-36.16-94a3.1,3.1,0,0,1-.23-5l3.54-3.3c2.36-2.37,3.54-1.89,5.44-.24,31.19,27.89,47.26,60.73,47.26,102.55s-16.07,75.15-47.26,103c-1.9,1.66-3.55,1.89-5.44-.24"/><path class="cls-1" d="M445.25,114.62a29.19,29.19,0,1,0-32.61,5.55l-10.59,68.49a1.43,1.43,0,0,0,1.41,1.64h42.9a1.42,1.42,0,0,0,1.41-1.64L437.47,120a28.34,28.34,0,0,0,7.78-5.4"/></g></g></svg>