<svg xmlns="http://www.w3.org/2000/svg" xmlns:xlink="http://www.w3.org/1999/xlink" viewBox="0 0 59.25 80.25"><defs><style>.cls-1{fill:none;}.cls-2{clip-path:url(#clip-path);}.cls-3{fill:#0a0d42;}</style><clipPath id="clip-path" transform="translate(0 0)"><rect class="cls-1" width="59.25" height="80.25"/></clipPath></defs><g id="Layer_2" data-name="Layer 2"><g id="Layer_1-2" data-name="Layer 1"><g class="cls-2"><path class="cls-3" d="M49,0H31.84c-.57,0-.9.46-.46,1.13C32.74,3.48,35.21,7.06,36,11.76a1.48,1.48,0,0,0-.68-.11,2.84,2.84,0,0,0-2.93,2.91,2.94,2.94,0,0,0,2.93,3C37.58,17.58,39,15.8,39,13a19.82,19.82,0,0,0-.9-6.15h8.47L49,0ZM59.25,27H33.67c-.84,0-1.33.67-.67,1.67,2,3.5,5.69,8.83,6.87,15.82a2.12,2.12,0,0,0-1-.17,4.21,4.21,0,0,0-4.36,4.33,4.34,4.34,0,0,0,4.36,4.5c3.35,0,5.53-2.66,5.53-6.83a29.48,29.48,0,0,0-1.34-9.15H55.64L59.23,27ZM29.68,47A35.18,35.18,0,0,0,19,50.62a41.15,41.15,0,0,1,4.53,19c0,7.16-4,10.65-7.88,10.65a5.59,5.59,0,0,1-5.7-5.5,5.31,5.31,0,0,1,5.53-5.33,4.45,4.45,0,0,1,2,.51c0-10-6.87-19.63-16.77-29.46C-.62,39.14,0,38,1.72,38H26.88Z" transform="translate(0 0)"/></g></g></g></svg>