<?xml version="1.0" encoding="UTF-8"?><svg id="Calque_2" xmlns="http://www.w3.org/2000/svg" viewBox="0 0 2067.65 797.67"><defs><style>.cls-1{fill:none;stroke:#1a1d5c;stroke-linecap:round;stroke-miterlimit:10;stroke-width:12px;}.cls-2{fill:#1a1d5c;}</style></defs><g id="Calque_2-2"><g><g id="IhHs7U"><path class="cls-2" d="M146.71,783.59c47.21,3.54,74.49-18.68,78.66-62.97,3.03-32.24-3.13-64.14-4.4-96.22-.45-11.51-7.72-13.34-17.1-13.28-16.76,.11-33.46,.2-50.06-3.48-83.5-18.48-135.7-96.15-121.98-180.49,10.11-62.15,43.95-110.75,90.65-149,32.34-26.49,31.44-49.1,27.16-92.47-7-71,12.82-121.31,58.1-167.21,30.89-31.32,65.16-21.79,78.32,20.86,16,51.83,3.83,100.92-20.56,147.53-16.28,31.11-36.84,59.58-60.41,85.41-12.67,13.89-18.11,27.37-12.2,45.3,1.28,3.89,.88,8.32,1.41,12.48q3.91,30.68,34.24,32.58c71.34,4.49,122.08,73.97,103.08,142.77-11.64,42.16-33.9,77.23-77.28,92.94-18.02,6.53-20.59,17.65-18.11,34.06,4.26,28.29,9.89,56.54,7.88,85.4-2.63,37.79-27.38,68.93-60.78,76.95-38.63,9.27-74.48-3.95-93.89-34.57-12.1-19.1-12.05-38.34,.11-57.18,11.8-18.28,29.07-25.92,50.47-22.25,21.85,3.74,33.73,18.69,39.37,38.93,5.21,18.7-.93,34.17-14.93,47.25-5.47,5.11-13.57,7.28-17.76,16.65Zm36.52-240.05c-12.41,7.56-17.75,5.87-23,3.96-31.92-11.65-53.86-47.72-49.98-81.76,4.73-41.42,26.12-71.38,62.44-91.04,6.71-3.63,14.49-5.58,12.48-16.28-3.04-16.14-2.69-32.93-9.25-51.41-34.26,35.89-68.46,69-91.32,110.93-23.71,43.49-16.28,87.47,8.78,127.32,24.42,38.82,64.81,47.92,107.95,47.89,11.77,0,16.31-5.58,14.63-17.18-6.69-46.29-13.5-92.57-19.58-138.94-1.83-13.93-8.36-12.18-16.92-7.04-17.67,10.61-29.77,25.43-32.3,46.4-3.44,28.56-2.05,55.38,36.07,67.14Zm101.49-40.81c.94-44.29-18.88-73.46-52.52-79.96-20.05-3.88-24.17-.62-21.63,19.58,5.41,42.96,11.68,85.81,17.2,128.76,1.9,14.78,8.08,15.47,19.43,8.32,29.49-18.57,38.01-46.72,37.51-76.7ZM179.35,143.43c-6.22,20.16-7.68,41.52-4.25,62.33l.04,.25c1.89,11.37,6.7,12.3,14.94,4.36,19.68-18.95,39.36-38,53.58-61.49,17.29-28.55,24.12-59.36,15.65-92.48-3.31-12.92-9.33-19.62-21.34-7.67-27.84,27.72-47.72,59.39-58.62,94.7Z"/></g><line class="cls-1" x1="6" y1="139.65" x2="2061.65" y2="139.65"/><line class="cls-1" x1="6" y1="259.65" x2="2061.65" y2="259.65"/><line class="cls-1" x1="6" y1="376.65" x2="2061.65" y2="376.65"/><line class="cls-1" x1="6" y1="493.65" x2="2061.65" y2="493.65"/><line class="cls-1" x1="6" y1="610.65" x2="2061.65" y2="610.65"/></g></g></svg>