<svg width="462" height="2265" viewBox="0 0 462 2265" fill="none" xmlns="http://www.w3.org/2000/svg">
<path d="M107.704 2264.54C118.616 2102.03 129.528 1940.42 132.438 1778.11C139.713 1309.77 74.2395 845.71 58.4095 378.629C52.4078 168.878 52.3787 32 52.3787 32H0C0 32 0.0363721 168.864 6.14722 378.724C16.7321 685.546 47.2863 988.719 67.6558 1296.18C89.4802 1620.81 82.2054 1942.57 55.9797 2265L107.704 2264.54Z" fill="url(#paint0_linear_1581_659)"/>
<path d="M123.398 2233C172.032 2231.93 220.748 2234.12 269.464 2231.93C281.642 2127.58 299.505 2026.14 324.269 1928.35C373.39 1734.22 444.434 1558.35 459.86 1340.14C476.911 1098.58 388.411 910.3 324.269 711.8C275.553 562.194 258.909 398.723 265.051 232.246V0H121.153V232.246C121.287 339.611 118.851 443.97 129.406 553.437C143.209 695.744 178.934 814.699 214.659 940.221C241.858 1034.36 266.216 1127.05 274.335 1232.86C291.386 1466.39 218.312 1664.89 173.25 1872.15C164.319 1913.75 155.794 1954.62 149.859 1996.77C129.488 2143.14 123.398 2233 123.398 2233Z" fill="url(#paint1_linear_1581_659)"/>
<defs>
<linearGradient id="paint0_linear_1581_659" x1="66.5" y1="32" x2="66.5" y2="2265" gradientUnits="userSpaceOnUse">
<stop stop-color="#DB9AFF"/>
<stop offset="1" stop-color="#B838FF"/>
</linearGradient>
<linearGradient id="paint1_linear_1581_659" x1="291.5" y1="0" x2="291.5" y2="2233" gradientUnits="userSpaceOnUse">
<stop offset="0.317708" stop-color="#A1497D"/>
<stop offset="1" stop-color="#F45DB6"/>
</linearGradient>
</defs>
</svg>
