<svg width="557" height="795" viewBox="0 0 557 795" fill="none" xmlns="http://www.w3.org/2000/svg">
<path d="M338.996 151C259.411 151 213.032 240.902 258.988 305.963C274.287 327.594 287.802 349.466 298.46 371.775C331.244 439.995 307.931 504.429 255.477 572.437C196.466 649.295 130.169 720.039 85 795H338.529C377.87 728.042 433.239 664.455 487.15 595.834C539.605 528.664 569.474 464.654 551.99 397.485C532.771 325.807 471.334 256.719 415.208 187.434C406.011 176.067 394.397 166.9 381.212 160.601C368.027 154.301 353.604 151.029 338.996 151.022V151Z" fill="url(#paint0_linear_1581_660)"/>
<path d="M45.0038 0.0368628C39.3867 0.0545627 33.942 1.98554 29.5609 5.51354C25.1798 9.04153 22.1219 13.9576 20.8878 19.4571C11.5833 60.8307 3.07905 102.051 0.561967 143.432C-6.71285 281.417 58.7605 418.205 74.5833 555.847C80.5923 617.663 80.6213 658 80.6213 658H133C133 658 133 617.663 126.824 555.789C116.246 465.368 85.6918 376.028 65.3223 285.418C45.8331 199.999 49.5433 115.251 69.2362 30.4448C70.0821 26.7939 70.0932 22.9979 69.2685 19.3421C68.4439 15.6863 66.8049 12.2655 64.4747 9.33612C62.1445 6.40676 59.1834 4.04501 55.8137 2.42816C52.4441 0.811314 48.7533 -0.0188034 45.0184 0.000323164L45.0038 0.0368628Z" fill="#E44688"/>
<defs>
<linearGradient id="paint0_linear_1581_660" x1="321" y1="-16" x2="354" y2="620" gradientUnits="userSpaceOnUse">
<stop stop-color="#FFCE83"/>
<stop offset="1" stop-color="#FF660B"/>
</linearGradient>
</defs>
</svg>
