<svg width="1973" height="2373" viewBox="0 0 1973 2373" fill="none" xmlns="http://www.w3.org/2000/svg">
<path d="M1168 1537.26C832.974 1490.77 1232.51 617.252 702.178 834.713C171.845 1052.17 58.6622 1829.83 509.346 1924.81C960.031 2019.79 1167.98 1792.31 1167.98 1792.31L1168 1537.26Z" fill="url(#paint0_linear_1581_661)"/>
<path d="M1.48977 0C211.203 113.124 439.102 490.405 554.147 701.762C605.311 795.342 676.497 925.276 727.805 1016.75C769.601 1091.65 818.298 1177.1 860.192 1251.77C942.409 1398.07 1079.54 1653.76 1161.64 1803.76C1240.82 1947.83 1317.99 2093.07 1410.29 2229.09C1427.18 2253.54 1444.78 2277.54 1463.92 2300.25C1485.88 2325.71 1516.68 2359.66 1548.79 2367.67C1555.78 2369.42 1563.11 2369.37 1570.07 2367.52L1571 2370.31C1563.69 2373.09 1555.61 2373.58 1547.91 2372.4C1532.56 2370.05 1518.56 2362.38 1505.89 2353.81C1487.08 2340.86 1470.34 2325.04 1454.62 2308.64C1402.92 2253.64 1359.87 2191.28 1318.31 2128.53C1220.01 1977.53 1132.97 1819.68 1048.74 1660.58C979.202 1528.18 909.852 1394.84 842.465 1261.27C775.553 1128.34 706.383 993.088 632.331 864.209C542.703 708.552 444.798 558.052 346.668 407.86C272.066 296.544 194.906 185.957 101.825 89.2597C70.5767 57.356 37.3951 27.274 0 2.57458L1.50483 0.0451681L1.48977 0Z" fill="#DA83E8"/>
<path d="M81.4907 0C291.339 113.124 519.377 490.405 634.502 701.762C685.699 795.342 756.931 925.276 808.272 1016.75C850.095 1091.65 898.823 1177.1 940.744 1251.77C1023.01 1398.07 1160.23 1653.76 1242.39 1803.76C1321.61 1947.83 1398.83 2093.07 1491.19 2229.09C1508.1 2253.54 1525.71 2277.54 1544.86 2300.25C1566.83 2325.71 1597.66 2359.66 1629.78 2367.67C1636.78 2369.42 1644.11 2369.37 1651.08 2367.52L1652 2370.31C1644.7 2373.09 1636.6 2373.58 1628.9 2372.4C1613.54 2370.05 1599.54 2362.38 1586.85 2353.81C1568.03 2340.86 1551.29 2325.04 1535.56 2308.64C1483.82 2253.64 1440.74 2191.28 1399.15 2128.53C1300.8 1977.53 1213.7 1819.68 1129.41 1660.58C1059.83 1528.18 990.435 1394.84 923.006 1261.27C856.05 1128.34 786.836 993.088 712.736 864.209C623.051 708.552 525.084 558.052 426.89 407.86C352.241 296.544 275.031 185.957 181.89 89.2597C150.622 57.3108 117.419 27.2288 80 2.52941L81.5058 0H81.4907Z" fill="#DA83E8"/>
<path d="M162.49 0C372.204 113.124 600.097 490.405 715.15 701.762C766.314 795.342 837.501 925.276 888.808 1016.75C930.598 1091.65 979.302 1177.1 1021.2 1251.77C1103.41 1398.07 1240.54 1653.76 1322.65 1803.76C1401.82 1947.83 1478.99 2093.07 1571.29 2229.09C1588.18 2253.54 1605.79 2277.54 1624.93 2300.25C1646.89 2325.71 1677.69 2359.66 1709.8 2367.67C1716.79 2369.42 1724.11 2369.37 1731.08 2367.52L1732 2370.31C1724.7 2373.09 1716.61 2373.58 1708.92 2372.4C1693.57 2370.05 1679.57 2362.38 1666.89 2353.81C1648.08 2340.86 1631.35 2325.04 1615.63 2308.64C1563.92 2253.64 1520.88 2191.28 1479.32 2128.53C1381.02 1977.53 1293.98 1819.68 1209.75 1660.58C1140.21 1528.18 1070.86 1394.84 1003.47 1261.27C936.557 1128.34 867.387 993.088 793.334 864.209C703.705 708.507 605.793 558.007 507.67 407.815C433.067 296.498 355.907 185.912 262.825 89.2145C231.577 57.3108 198.395 27.2288 161 2.52941L162.505 0L162.49 0Z" fill="#DA83E8"/>
<path d="M242.49 0C452.204 113.124 680.097 490.405 795.15 701.762C846.314 795.342 917.501 925.276 968.808 1016.75C1010.6 1091.65 1059.29 1177.1 1101.2 1251.77C1183.41 1398.07 1320.54 1653.76 1402.64 1803.76C1481.82 1947.83 1558.99 2093.07 1651.29 2229.09C1668.18 2253.54 1685.79 2277.54 1704.93 2300.25C1726.89 2325.71 1757.69 2359.66 1789.8 2367.67C1796.79 2369.42 1804.11 2369.37 1811.08 2367.52L1812 2370.31C1804.7 2373.09 1796.61 2373.58 1788.92 2372.4C1773.57 2370.05 1759.57 2362.38 1746.89 2353.81C1728.08 2340.86 1711.35 2325.04 1695.63 2308.64C1643.92 2253.64 1600.88 2191.28 1559.32 2128.53C1461.02 1977.53 1373.97 1819.68 1289.74 1660.58C1220.21 1528.18 1150.86 1394.84 1083.47 1261.27C1016.55 1128.34 947.387 993.088 873.334 864.209C783.705 708.552 685.8 558.052 587.67 407.86C513.067 296.544 435.907 185.957 342.825 89.2597C311.577 57.3108 278.395 27.2288 241 2.52941L242.505 0H242.49Z" fill="#DA83E8"/>
<path d="M322.491 0C532.331 113.124 760.377 490.405 875.502 701.762C926.699 795.342 997.931 925.276 1049.27 1016.75C1091.09 1091.65 1139.82 1177.1 1181.74 1251.77C1264.01 1398.07 1401.23 1653.76 1483.38 1803.76C1562.61 1947.83 1639.83 2093.07 1732.19 2229.09C1749.09 2253.54 1766.71 2277.54 1785.86 2300.25C1807.83 2325.71 1838.66 2359.66 1870.78 2367.67C1877.78 2369.42 1885.11 2369.37 1892.08 2367.52L1893 2370.31C1885.7 2373.09 1877.6 2373.58 1869.9 2372.4C1854.54 2370.05 1840.54 2362.38 1827.84 2353.81C1809.02 2340.86 1792.28 2325.04 1776.55 2308.64C1724.82 2253.64 1681.74 2191.28 1640.15 2128.53C1541.8 1977.53 1454.69 1819.68 1370.41 1660.58C1300.83 1528.18 1231.44 1394.84 1164.01 1261.27C1097.04 1128.34 1027.84 993.088 953.736 864.209C864.051 708.552 766.084 558.052 667.89 407.86C593.241 296.544 516.031 185.957 422.89 89.2597C391.622 57.356 358.419 27.274 321 2.57458L322.506 0.0451681L322.491 0Z" fill="#DA83E8"/>
<path d="M403.49 0C613.197 113.124 841.097 490.405 956.15 701.762C1007.31 795.342 1078.5 925.276 1129.81 1016.75C1171.6 1091.65 1220.29 1177.1 1262.2 1251.77C1344.41 1398.07 1481.54 1653.76 1563.64 1803.76C1642.82 1947.83 1719.99 2093.07 1812.29 2229.09C1829.18 2253.54 1846.79 2277.54 1865.93 2300.25C1887.89 2325.71 1918.68 2359.66 1950.8 2367.67C1957.79 2369.42 1965.11 2369.37 1972.08 2367.52L1973 2370.31C1965.7 2373.09 1957.61 2373.58 1949.92 2372.4C1934.57 2370.05 1920.57 2362.38 1907.89 2353.81C1889.08 2340.86 1872.35 2325.04 1856.62 2308.64C1804.92 2253.64 1761.88 2191.28 1720.32 2128.53C1622.02 1977.53 1534.97 1819.68 1450.74 1660.58C1381.21 1528.18 1311.86 1394.84 1244.47 1261.27C1177.55 1128.34 1108.39 993.088 1034.33 864.209C944.705 708.552 846.8 558.052 748.67 407.86C674.067 296.544 596.907 185.957 503.825 89.2597C472.577 57.3108 439.395 27.2288 402 2.52941L403.505 0H403.49Z" fill="#DA83E8"/>
<defs>
<linearGradient id="paint0_linear_1581_661" x1="698.5" y1="800" x2="698.5" y2="1948" gradientUnits="userSpaceOnUse">
<stop stop-color="#E257A9"/>
<stop offset="1" stop-color="#A2497D"/>
</linearGradient>
</defs>
</svg>
