<svg width="4720" height="1398" viewBox="0 0 4720 1398" fill="none" xmlns="http://www.w3.org/2000/svg">
<path d="M3349 495.69C3128.43 495.69 2494.93 554.271 2383.06 294.023C2271.18 33.7739 3121.42 -144.786 3512.45 160.638C3903.49 466.062 3880.33 22.2979 4036.84 153.963C4193.35 285.628 4062.36 574.42 3656.82 495.69C3450 495.69 3349 495.69 3349 495.69Z" fill="url(#paint0_linear_1581_770)"/>
<path d="M1493 1338C1315.06 360.862 1103.33 -162.773 761.129 284.558C418.927 731.889 1668.13 1196.3 1141.82 1159.36C615.51 1122.41 505.621 510.564 326.492 619.755C147.363 728.945 366.006 1161.01 164.359 1111.9C-37.2878 1062.8 3.35455 1338 3.35455 1338H1493Z" fill="#DA83E8"/>
<path d="M3871.24 1398C3777.32 1212.58 3112.93 1397.01 3001.06 1044.86C2889.18 692.701 3739.42 451.083 4130.46 864.368C4521.49 1277.65 4498.33 677.172 4654.84 855.336C4811.35 1033.5 4680.36 1424.28 4274.82 1317.74C3869.28 1211.21 4034.58 1398 4034.58 1398H3871.24Z" fill="url(#paint1_linear_1581_770)"/>
<defs>
<linearGradient id="paint0_linear_1581_770" x1="3237" y1="0" x2="3237" y2="555" gradientUnits="userSpaceOnUse">
<stop stop-color="#E5B8FF"/>
<stop offset="1" stop-color="#CB70FF"/>
</linearGradient>
<linearGradient id="paint1_linear_1581_770" x1="3699" y1="461" x2="4003" y2="1425" gradientUnits="userSpaceOnUse">
<stop stop-color="#B42EFF"/>
<stop offset="1" stop-color="#D385FF"/>
</linearGradient>
</defs>
</svg>
