<svg width="1615" height="1870" viewBox="0 0 1615 1870" fill="none" xmlns="http://www.w3.org/2000/svg">
<path d="M5 1188.86C160.349 881.159 244.252 235.738 490.869 64.6477C921.421 -234.05 769.007 688.115 1405.28 651.332" stroke="url(#paint0_linear_1581_581)" stroke-width="10" stroke-miterlimit="10"/>
<path d="M10.3477 1206.27C165.697 898.562 249.6 253.141 496.217 82.0505C926.769 -216.647 774.369 705.546 1410.62 668.764" stroke="url(#paint1_linear_1581_581)" stroke-width="10" stroke-miterlimit="10"/>
<path d="M15.6914 1223.67C171.041 915.964 254.944 270.521 501.561 99.4528C932.112 -199.244 779.713 722.949 1415.97 686.173" stroke="url(#paint2_linear_1581_581)" stroke-width="10" stroke-miterlimit="10"/>
<path d="M21.0078 1241.07C176.357 933.368 260.26 287.954 506.877 116.856C937.429 -181.834 785.03 740.36 1421.29 703.577" stroke="url(#paint3_linear_1581_581)" stroke-width="10" stroke-miterlimit="10"/>
<path d="M26.3828 1258.49C181.732 950.781 265.635 305.359 512.223 134.269C942.775 -164.428 790.376 757.765 1426.63 720.982" stroke="url(#paint4_linear_1581_581)" stroke-width="10" stroke-miterlimit="10"/>
<path d="M31.7266 1275.92C187.076 968.21 270.979 322.789 517.596 151.699C948.147 -146.998 795.748 775.195 1432 738.412" stroke="url(#paint5_linear_1581_581)" stroke-width="10" stroke-miterlimit="10"/>
<path d="M37.0703 1293.29C192.419 985.585 276.322 340.171 522.939 169.074C953.491 -129.623 801.092 792.57 1437.35 755.794" stroke="url(#paint6_linear_1581_581)" stroke-width="10" stroke-miterlimit="10"/>
<path d="M42.4141 1310.69C197.763 1002.99 281.666 357.574 528.283 186.476C958.835 -112.214 806.436 810.001 1442.71 773.218" stroke="url(#paint7_linear_1581_581)" stroke-width="10" stroke-miterlimit="10"/>
<path d="M47.7617 1328.1C203.111 1020.4 287.014 374.978 533.631 203.888C964.183 -94.8089 811.783 827.384 1448.04 790.601" stroke="url(#paint8_linear_1581_581)" stroke-width="10" stroke-miterlimit="10"/>
<path d="M53.1055 1345.51C208.455 1037.8 292.358 392.383 538.974 221.293C969.526 -77.4046 817.127 844.789 1453.38 808.006" stroke="url(#paint9_linear_1581_581)" stroke-width="10" stroke-miterlimit="10"/>
<path d="M58.4531 1362.91C213.802 1055.22 297.705 409.792 544.322 238.695C974.874 -59.9954 822.475 862.191 1458.73 825.415" stroke="url(#paint10_linear_1581_581)" stroke-width="10" stroke-miterlimit="10"/>
<path d="M63.7969 1380.32C219.146 1072.61 303.042 427.196 549.666 256.099C980.218 -42.5914 827.819 879.602 1464.07 842.819" stroke="url(#paint11_linear_1581_581)" stroke-width="10" stroke-miterlimit="10"/>
<path d="M69.1406 1397.72C224.49 1090.02 308.393 444.598 555.01 273.508C985.561 -25.1897 833.162 897.003 1469.42 860.221" stroke="url(#paint12_linear_1581_581)" stroke-width="10" stroke-miterlimit="10"/>
<path d="M74.4844 1415.11C229.834 1107.41 313.737 461.988 560.354 290.898C990.905 -7.79914 838.506 914.394 1474.76 877.611" stroke="url(#paint13_linear_1581_581)" stroke-width="10" stroke-miterlimit="10"/>
<path d="M79.8281 1432.53C235.177 1124.83 319.08 479.411 565.697 308.314C996.249 9.62378 843.85 931.81 1480.11 895.034" stroke="url(#paint14_linear_1581_581)" stroke-width="10" stroke-miterlimit="10"/>
<path d="M85.2031 1449.94C240.552 1142.23 324.455 496.815 571.072 325.718C1001.62 27.0277 849.225 949.221 1485.48 912.438" stroke="url(#paint15_linear_1581_581)" stroke-width="10" stroke-miterlimit="10"/>
<path d="M90.5195 1467.35C245.869 1159.64 329.772 514.219 576.389 343.129C1006.94 44.4313 854.541 966.625 1490.8 929.842" stroke="url(#paint16_linear_1581_581)" stroke-width="10" stroke-miterlimit="10"/>
<path d="M95.8672 1484.75C251.216 1177.04 335.12 531.607 581.736 360.531C1012.29 61.8337 859.889 984.027 1496.14 947.244" stroke="url(#paint17_linear_1581_581)" stroke-width="10" stroke-miterlimit="10"/>
<path d="M101.211 1502.15C256.56 1194.45 340.463 549.032 587.08 377.935C1017.63 79.2449 865.233 1001.43 1501.49 964.656" stroke="url(#paint18_linear_1581_581)" stroke-width="10" stroke-miterlimit="10"/>
<path d="M106.555 1519.56C261.904 1211.85 345.807 566.436 592.424 395.339C1022.98 96.6488 870.577 1018.84 1506.83 982.059" stroke="url(#paint19_linear_1581_581)" stroke-width="10" stroke-miterlimit="10"/>
<path d="M111.891 1537C267.24 1229.3 351.143 583.875 597.76 412.785C1028.31 114.088 875.912 1036.28 1512.17 999.498" stroke="url(#paint20_linear_1581_581)" stroke-width="10" stroke-miterlimit="10"/>
<path d="M117.246 1554.37C272.595 1246.66 356.498 601.242 603.115 430.152C1033.67 131.455 881.268 1053.65 1517.52 1016.87" stroke="url(#paint21_linear_1581_581)" stroke-width="10" stroke-miterlimit="10"/>
<path d="M122.59 1571.77C277.939 1264.07 361.842 618.653 608.459 447.556C1039.01 148.866 886.583 1071.09 1522.87 1034.31" stroke="url(#paint22_linear_1581_581)" stroke-width="10" stroke-miterlimit="10"/>
<path d="M127.938 1589.18C283.287 1281.48 367.19 636.055 613.807 464.958C1044.36 166.268 891.959 1088.46 1528.21 1051.68" stroke="url(#paint23_linear_1581_581)" stroke-width="10" stroke-miterlimit="10"/>
<path d="M133.281 1606.59C288.616 1298.88 372.534 653.495 619.151 482.369C1049.7 183.672 897.303 1105.86 1533.56 1069.08" stroke="url(#paint24_linear_1581_581)" stroke-width="10" stroke-miterlimit="10"/>
<path d="M138.625 1623.99C293.974 1316.28 377.877 670.863 624.494 499.773C1055.05 201.076 902.647 1123.27 1538.9 1086.49" stroke="url(#paint25_linear_1581_581)" stroke-width="10" stroke-miterlimit="10"/>
<path d="M143.969 1641.39C299.318 1333.69 383.221 688.273 629.838 517.183C1060.39 218.493 907.99 1140.68 1544.25 1103.9" stroke="url(#paint26_linear_1581_581)" stroke-width="10" stroke-miterlimit="10"/>
<path d="M149.312 1658.8C304.662 1351.1 388.565 705.676 635.182 534.579C1065.73 235.889 913.334 1158.08 1549.59 1121.3" stroke="url(#paint27_linear_1581_581)" stroke-width="10" stroke-miterlimit="10"/>
<path d="M154.66 1676.2C310.009 1368.49 393.912 723.072 640.529 551.982C1071.08 253.285 918.682 1175.48 1554.94 1138.7" stroke="url(#paint28_linear_1581_581)" stroke-width="10" stroke-miterlimit="10"/>
<path d="M160.004 1693.61C315.353 1385.91 399.256 740.484 645.873 569.394C1076.42 270.697 924.026 1192.89 1560.29 1156.11" stroke="url(#paint29_linear_1581_581)" stroke-width="10" stroke-miterlimit="10"/>
<path d="M165.352 1711.01C320.701 1403.31 404.604 757.894 651.221 586.797C1081.77 288.107 929.373 1210.29 1565.64 1173.5" stroke="url(#paint30_linear_1581_581)" stroke-width="10" stroke-miterlimit="10"/>
<path d="M170.695 1728.42C326.044 1420.72 409.947 775.297 656.564 604.207C1087.12 305.509 934.717 1227.7 1570.98 1190.92" stroke="url(#paint31_linear_1581_581)" stroke-width="10" stroke-miterlimit="10"/>
<path d="M176.047 1745.83C331.389 1438.12 415.292 792.692 661.909 621.609C1092.46 322.912 940.061 1245.1 1576.32 1208.32" stroke="url(#paint32_linear_1581_581)" stroke-width="10" stroke-miterlimit="10"/>
<path d="M181.391 1763.23C336.733 1455.5 420.614 810.104 667.253 639.013C1097.8 340.316 945.405 1262.51 1581.67 1225.73" stroke="url(#paint33_linear_1581_581)" stroke-width="10" stroke-miterlimit="10"/>
<path d="M186.734 1780.63C342.076 1472.93 425.979 827.513 672.596 656.415C1103.15 357.725 950.749 1279.91 1587.01 1243.14" stroke="url(#paint34_linear_1581_581)" stroke-width="10" stroke-miterlimit="10"/>
<path d="M192.082 1798.04C347.424 1490.34 431.327 844.918 677.944 673.828C1108.5 375.131 956.097 1297.32 1592.36 1260.54" stroke="url(#paint35_linear_1581_581)" stroke-width="10" stroke-miterlimit="10"/>
<path d="M197.426 1815.45C352.768 1507.74 436.671 862.32 683.288 691.23C1113.84 392.533 961.44 1314.73 1597.7 1277.94" stroke="url(#paint36_linear_1581_581)" stroke-width="10" stroke-miterlimit="10"/>
<path d="M202.781 1832.85C358.123 1525.14 442.026 879.723 688.643 708.633C1119.19 409.935 966.796 1332.13 1603.06 1295.35" stroke="url(#paint37_linear_1581_581)" stroke-width="10" stroke-miterlimit="10"/>
<path d="M208.117 1850.25C363.459 1542.55 447.362 897.134 693.979 726.037C1124.53 427.346 972.132 1349.53 1608.39 1312.76" stroke="url(#paint38_linear_1581_581)" stroke-width="10" stroke-miterlimit="10"/>
<path d="M213.461 1867.66C368.803 1559.96 452.706 914.537 699.33 743.447C1129.87 444.75 977.483 1366.94 1613.74 1330.16" stroke="url(#paint39_linear_1581_581)" stroke-width="10" stroke-miterlimit="10"/>
<defs>
<linearGradient id="paint0_linear_1581_581" x1="705.139" y1="5" x2="705.139" y2="1188.86" gradientUnits="userSpaceOnUse">
<stop stop-color="#B352E9"/>
<stop offset="1" stop-color="#E952C8" stop-opacity="0.41"/>
</linearGradient>
<linearGradient id="paint1_linear_1581_581" x1="710.486" y1="22.4043" x2="710.486" y2="1206.27" gradientUnits="userSpaceOnUse">
<stop stop-color="#B352E9"/>
<stop offset="1" stop-color="#E952C8" stop-opacity="0.41"/>
</linearGradient>
<linearGradient id="paint2_linear_1581_581" x1="715.83" y1="39.8066" x2="715.83" y2="1223.67" gradientUnits="userSpaceOnUse">
<stop stop-color="#B352E9"/>
<stop offset="1" stop-color="#E952C8" stop-opacity="0.41"/>
</linearGradient>
<linearGradient id="paint3_linear_1581_581" x1="721.147" y1="57.2129" x2="721.147" y2="1241.07" gradientUnits="userSpaceOnUse">
<stop stop-color="#B352E9"/>
<stop offset="1" stop-color="#E952C8" stop-opacity="0.41"/>
</linearGradient>
<linearGradient id="paint4_linear_1581_581" x1="726.507" y1="74.623" x2="726.507" y2="1258.49" gradientUnits="userSpaceOnUse">
<stop stop-color="#B352E9"/>
<stop offset="1" stop-color="#E952C8" stop-opacity="0.41"/>
</linearGradient>
<linearGradient id="paint5_linear_1581_581" x1="731.865" y1="92.0527" x2="731.865" y2="1275.92" gradientUnits="userSpaceOnUse">
<stop stop-color="#B352E9"/>
<stop offset="1" stop-color="#E952C8" stop-opacity="0.41"/>
</linearGradient>
<linearGradient id="paint6_linear_1581_581" x1="737.209" y1="109.428" x2="737.209" y2="1293.29" gradientUnits="userSpaceOnUse">
<stop stop-color="#B352E9"/>
<stop offset="1" stop-color="#E952C8" stop-opacity="0.41"/>
</linearGradient>
<linearGradient id="paint7_linear_1581_581" x1="742.564" y1="126.834" x2="742.564" y2="1310.69" gradientUnits="userSpaceOnUse">
<stop stop-color="#B352E9"/>
<stop offset="1" stop-color="#E952C8" stop-opacity="0.41"/>
</linearGradient>
<linearGradient id="paint8_linear_1581_581" x1="747.9" y1="144.242" x2="747.9" y2="1328.1" gradientUnits="userSpaceOnUse">
<stop stop-color="#B352E9"/>
<stop offset="1" stop-color="#E952C8" stop-opacity="0.41"/>
</linearGradient>
<linearGradient id="paint9_linear_1581_581" x1="753.244" y1="161.646" x2="753.244" y2="1345.51" gradientUnits="userSpaceOnUse">
<stop stop-color="#B352E9"/>
<stop offset="1" stop-color="#E952C8" stop-opacity="0.41"/>
</linearGradient>
<linearGradient id="paint10_linear_1581_581" x1="758.592" y1="179.051" x2="758.592" y2="1362.91" gradientUnits="userSpaceOnUse">
<stop stop-color="#B352E9"/>
<stop offset="1" stop-color="#E952C8" stop-opacity="0.41"/>
</linearGradient>
<linearGradient id="paint11_linear_1581_581" x1="763.936" y1="196.455" x2="763.936" y2="1380.32" gradientUnits="userSpaceOnUse">
<stop stop-color="#B352E9"/>
<stop offset="1" stop-color="#E952C8" stop-opacity="0.41"/>
</linearGradient>
<linearGradient id="paint12_linear_1581_581" x1="769.279" y1="213.861" x2="769.279" y2="1397.72" gradientUnits="userSpaceOnUse">
<stop stop-color="#B352E9"/>
<stop offset="1" stop-color="#E952C8" stop-opacity="0.41"/>
</linearGradient>
<linearGradient id="paint13_linear_1581_581" x1="774.623" y1="231.252" x2="774.623" y2="1415.11" gradientUnits="userSpaceOnUse">
<stop stop-color="#B352E9"/>
<stop offset="1" stop-color="#E952C8" stop-opacity="0.41"/>
</linearGradient>
<linearGradient id="paint14_linear_1581_581" x1="779.967" y1="248.67" x2="779.967" y2="1432.53" gradientUnits="userSpaceOnUse">
<stop stop-color="#B352E9"/>
<stop offset="1" stop-color="#E952C8" stop-opacity="0.41"/>
</linearGradient>
<linearGradient id="paint15_linear_1581_581" x1="785.342" y1="266.074" x2="785.342" y2="1449.94" gradientUnits="userSpaceOnUse">
<stop stop-color="#B352E9"/>
<stop offset="1" stop-color="#E952C8" stop-opacity="0.41"/>
</linearGradient>
<linearGradient id="paint16_linear_1581_581" x1="790.658" y1="283.482" x2="790.658" y2="1467.35" gradientUnits="userSpaceOnUse">
<stop stop-color="#B352E9"/>
<stop offset="1" stop-color="#E952C8" stop-opacity="0.41"/>
</linearGradient>
<linearGradient id="paint17_linear_1581_581" x1="796.006" y1="300.885" x2="796.006" y2="1484.75" gradientUnits="userSpaceOnUse">
<stop stop-color="#B352E9"/>
<stop offset="1" stop-color="#E952C8" stop-opacity="0.41"/>
</linearGradient>
<linearGradient id="paint18_linear_1581_581" x1="801.35" y1="318.291" x2="801.35" y2="1502.15" gradientUnits="userSpaceOnUse">
<stop stop-color="#B352E9"/>
<stop offset="1" stop-color="#E952C8" stop-opacity="0.41"/>
</linearGradient>
<linearGradient id="paint19_linear_1581_581" x1="806.693" y1="335.695" x2="806.693" y2="1519.56" gradientUnits="userSpaceOnUse">
<stop stop-color="#B352E9"/>
<stop offset="1" stop-color="#E952C8" stop-opacity="0.41"/>
</linearGradient>
<linearGradient id="paint20_linear_1581_581" x1="812.029" y1="353.139" x2="812.029" y2="1537" gradientUnits="userSpaceOnUse">
<stop stop-color="#B352E9"/>
<stop offset="1" stop-color="#E952C8" stop-opacity="0.41"/>
</linearGradient>
<linearGradient id="paint21_linear_1581_581" x1="817.385" y1="370.506" x2="817.385" y2="1554.37" gradientUnits="userSpaceOnUse">
<stop stop-color="#B352E9"/>
<stop offset="1" stop-color="#E952C8" stop-opacity="0.41"/>
</linearGradient>
<linearGradient id="paint22_linear_1581_581" x1="822.729" y1="387.914" x2="822.729" y2="1571.77" gradientUnits="userSpaceOnUse">
<stop stop-color="#B352E9"/>
<stop offset="1" stop-color="#E952C8" stop-opacity="0.41"/>
</linearGradient>
<linearGradient id="paint23_linear_1581_581" x1="828.076" y1="405.314" x2="828.076" y2="1589.18" gradientUnits="userSpaceOnUse">
<stop stop-color="#B352E9"/>
<stop offset="1" stop-color="#E952C8" stop-opacity="0.41"/>
</linearGradient>
<linearGradient id="paint24_linear_1581_581" x1="833.42" y1="422.723" x2="833.42" y2="1606.59" gradientUnits="userSpaceOnUse">
<stop stop-color="#B352E9"/>
<stop offset="1" stop-color="#E952C8" stop-opacity="0.41"/>
</linearGradient>
<linearGradient id="paint25_linear_1581_581" x1="838.764" y1="440.127" x2="838.764" y2="1623.99" gradientUnits="userSpaceOnUse">
<stop stop-color="#B352E9"/>
<stop offset="1" stop-color="#E952C8" stop-opacity="0.41"/>
</linearGradient>
<linearGradient id="paint26_linear_1581_581" x1="844.107" y1="457.539" x2="844.107" y2="1641.39" gradientUnits="userSpaceOnUse">
<stop stop-color="#B352E9"/>
<stop offset="1" stop-color="#E952C8" stop-opacity="0.41"/>
</linearGradient>
<linearGradient id="paint27_linear_1581_581" x1="849.451" y1="474.936" x2="849.451" y2="1658.8" gradientUnits="userSpaceOnUse">
<stop stop-color="#B352E9"/>
<stop offset="1" stop-color="#E952C8" stop-opacity="0.41"/>
</linearGradient>
<linearGradient id="paint28_linear_1581_581" x1="854.799" y1="492.336" x2="854.799" y2="1676.2" gradientUnits="userSpaceOnUse">
<stop stop-color="#B352E9"/>
<stop offset="1" stop-color="#E952C8" stop-opacity="0.41"/>
</linearGradient>
<linearGradient id="paint29_linear_1581_581" x1="860.146" y1="509.748" x2="860.146" y2="1693.61" gradientUnits="userSpaceOnUse">
<stop stop-color="#B352E9"/>
<stop offset="1" stop-color="#E952C8" stop-opacity="0.41"/>
</linearGradient>
<linearGradient id="paint30_linear_1581_581" x1="865.494" y1="527.152" x2="865.494" y2="1711.01" gradientUnits="userSpaceOnUse">
<stop stop-color="#B352E9"/>
<stop offset="1" stop-color="#E952C8" stop-opacity="0.41"/>
</linearGradient>
<linearGradient id="paint31_linear_1581_581" x1="870.838" y1="544.561" x2="870.838" y2="1728.42" gradientUnits="userSpaceOnUse">
<stop stop-color="#B352E9"/>
<stop offset="1" stop-color="#E952C8" stop-opacity="0.41"/>
</linearGradient>
<linearGradient id="paint32_linear_1581_581" x1="876.186" y1="561.963" x2="876.186" y2="1745.83" gradientUnits="userSpaceOnUse">
<stop stop-color="#B352E9"/>
<stop offset="1" stop-color="#E952C8" stop-opacity="0.41"/>
</linearGradient>
<linearGradient id="paint33_linear_1581_581" x1="881.529" y1="579.367" x2="881.529" y2="1763.23" gradientUnits="userSpaceOnUse">
<stop stop-color="#B352E9"/>
<stop offset="1" stop-color="#E952C8" stop-opacity="0.41"/>
</linearGradient>
<linearGradient id="paint34_linear_1581_581" x1="886.873" y1="596.771" x2="886.873" y2="1780.63" gradientUnits="userSpaceOnUse">
<stop stop-color="#B352E9"/>
<stop offset="1" stop-color="#E952C8" stop-opacity="0.41"/>
</linearGradient>
<linearGradient id="paint35_linear_1581_581" x1="892.221" y1="614.182" x2="892.221" y2="1798.04" gradientUnits="userSpaceOnUse">
<stop stop-color="#B352E9"/>
<stop offset="1" stop-color="#E952C8" stop-opacity="0.41"/>
</linearGradient>
<linearGradient id="paint36_linear_1581_581" x1="897.565" y1="631.584" x2="897.565" y2="1815.45" gradientUnits="userSpaceOnUse">
<stop stop-color="#B352E9"/>
<stop offset="1" stop-color="#E952C8" stop-opacity="0.41"/>
</linearGradient>
<linearGradient id="paint37_linear_1581_581" x1="902.92" y1="648.986" x2="902.92" y2="1832.85" gradientUnits="userSpaceOnUse">
<stop stop-color="#B352E9"/>
<stop offset="1" stop-color="#E952C8" stop-opacity="0.41"/>
</linearGradient>
<linearGradient id="paint38_linear_1581_581" x1="908.256" y1="666.393" x2="908.256" y2="1850.25" gradientUnits="userSpaceOnUse">
<stop stop-color="#B352E9"/>
<stop offset="1" stop-color="#E952C8" stop-opacity="0.41"/>
</linearGradient>
<linearGradient id="paint39_linear_1581_581" x1="913.6" y1="683.801" x2="913.6" y2="1867.66" gradientUnits="userSpaceOnUse">
<stop stop-color="#B352E9"/>
<stop offset="1" stop-color="#E952C8" stop-opacity="0.41"/>
</linearGradient>
</defs>
</svg>
