<svg width="1649" height="1491" viewBox="0 0 1649 1491" fill="none" xmlns="http://www.w3.org/2000/svg">
<path d="M1539.88 48.6921C1527.58 135.244 1515.1 221.957 1493.68 306.823L1497.12 293.259C1479.24 363.351 1455.13 431.875 1420.24 495.428L1426.99 483.171C1402.49 527.353 1373.22 568.752 1338.47 605.478L1348.28 595.259C1319.68 625.154 1287.72 651.5 1252.3 672.929L1264.86 665.354C1237.25 681.797 1207.65 695.417 1178.68 709.346C1150.78 722.754 1122.48 735.416 1093.49 746.315C1075.67 753.033 1057.62 759.066 1039.27 764.299L1053.39 760.292C1014.07 771.391 973.593 778.389 932.665 778.962L946.889 778.753C916.447 779.124 886.085 775.566 856.554 768.169L870.108 771.614C843.377 764.621 817.596 754.4 793.334 741.178L805.591 747.93C776.901 732.018 750.324 712.563 726.487 690.023L736.707 699.829C726.896 690.176 718.341 679.326 711.242 667.536L718.828 680.095C704.486 656.035 695.249 629.498 687.611 602.66L691.617 616.785C673.887 553.798 664.809 486.806 636.024 427.483C619.597 393.641 597.507 363.187 567.58 340.046C535.786 315.461 495.084 301.683 455.152 299.164C303.81 289.696 169.291 391.293 96.3393 517.115C19.0583 650.362 -8.75296 804.341 2.43581 957.069C14.1912 1117.59 77.1038 1279.15 205.284 1381.92C314.219 1469.23 464.338 1507.71 601.817 1483.15C621.544 1479.62 640.781 1474.36 659.988 1468.76C672.457 1465.11 684.561 1450.15 689.102 1438.65C694.029 1426.17 694.386 1409.04 688.401 1396.79C682.187 1384.07 672.076 1372.45 658.304 1367.68C643.651 1362.61 631.188 1364.07 616.432 1368.39L611.448 1369.82L625.569 1365.83C589.796 1375.72 552.895 1380.95 515.783 1381.4L529.946 1381.21C491.067 1381.49 452.309 1376.85 414.59 1367.43L428.155 1370.87C390.46 1361.3 354.114 1347.04 319.972 1328.42L332.23 1335.17C299.731 1317.26 269.648 1295.28 242.707 1269.77L252.926 1279.58C224.635 1252.15 200.036 1221.15 179.752 1187.37L187.328 1199.93C162.688 1158.68 144.259 1114.24 131.023 1068.12L135.025 1082.24C117.593 1020.35 109.522 956.281 108.665 892.043L108.872 906.266C108.259 841.958 115.005 778.118 130.775 715.718L127.351 729.214C140.776 676.944 160.026 626.249 186.076 578.936L179.319 591.184C199.107 555.665 222.647 522.359 250.625 492.793L240.757 503.039C263.226 479.401 288.643 458.75 316.381 441.597L303.82 449.182C328.948 433.993 355.974 422.189 384.194 414.078L370.073 418.071C392.77 411.574 416.194 407.962 439.793 407.318L425.63 407.5C442.91 407.243 460.151 409.214 476.927 413.365L463.362 409.924C475.512 413.164 487.228 417.855 498.256 423.897L486.009 417.141C496.557 423.247 506.343 430.584 515.162 438.995L504.942 429.189C515.857 439.95 525.376 452.041 533.275 465.176L525.689 452.616C540.912 478.214 550.825 506.307 558.962 534.789L554.96 520.674C570.953 577.378 580.031 636.617 602.459 691.352C613.251 717.679 627.842 744.184 647.715 764.746C669.666 787.426 694.205 807.45 720.829 824.406C768.475 854.707 820.868 875.22 876.814 883.635C924.317 890.764 973.905 888.676 1021.06 879.889C1103.25 864.598 1179.69 830.996 1254.12 794.085C1307.29 767.718 1357.56 738.15 1400.67 696.83C1453.56 646.122 1495.02 587.487 1528.95 522.75C1595.08 396.606 1620.62 252.952 1641.11 113.41C1643.64 96.2028 1646.12 78.9925 1648.53 61.7791C1652.56 33.4083 1629.74 3.13998 1600.73 0.929101C1570.62 -1.38021 1544.18 18.4537 1539.87 48.7352L1539.88 48.6921Z" fill="url(#paint0_linear_1593_472)"/>
<defs>
<linearGradient id="paint0_linear_1593_472" x1="978.305" y1="1017.5" x2="-26.6953" y2="414.5" gradientUnits="userSpaceOnUse">
<stop stop-color="#9391EE"/>
<stop offset="1" stop-color="#EEEEFF"/>
</linearGradient>
</defs>
</svg>
