<svg width="505" height="2277" viewBox="0 0 505 2277" fill="none" xmlns="http://www.w3.org/2000/svg">
<path d="M355.482 2233C304.423 2231.93 253.279 2234.12 202.135 2231.93C189.349 2127.58 170.596 2026.14 144.598 1928.35C93.0275 1734.22 18.4422 1558.35 2.24653 1340.14C-15.6539 1098.58 77.258 910.3 144.598 711.8C195.742 562.194 213.216 398.723 206.768 232.246V0H357.839V232.246C357.699 339.611 360.256 443.97 349.175 553.437C334.684 695.744 297.178 814.699 259.672 940.221C231.117 1034.36 205.545 1127.05 197.021 1232.86C179.12 1466.39 255.836 1664.89 303.145 1872.15C312.521 1913.75 321.471 1954.62 327.702 1996.77C349.089 2143.14 355.482 2233 355.482 2233Z" fill="url(#paint0_linear_1581_1280)"/>
<path d="M149.518 44C200.576 45.0655 251.721 42.876 302.865 45.0654C315.651 149.424 334.404 250.864 360.402 348.655C411.972 542.776 486.558 718.654 502.753 936.859C520.654 1178.42 427.742 1366.7 360.402 1565.2C309.258 1714.81 291.784 1878.28 298.232 2044.75L298.232 2277L147.161 2277L147.161 2044.75C147.301 1937.39 144.744 1833.03 155.825 1723.56C170.316 1581.26 207.822 1462.3 245.328 1336.78C273.883 1242.64 299.455 1149.95 307.979 1044.14C325.88 810.606 249.163 612.106 201.855 404.848C192.479 363.25 183.528 322.383 177.297 280.23C155.911 133.858 149.518 44 149.518 44Z" fill="url(#paint1_linear_1581_1280)"/>
<path d="M397.295 34.4597C386.383 196.974 375.472 358.576 372.562 520.886C365.288 989.23 430.757 1453.29 446.586 1920.37C452.588 2130.12 452.624 2267 452.624 2267H505C505 2267 504.956 2130.11 498.824 1920.28C488.24 1613.45 457.687 1310.28 437.319 1002.82C415.496 678.19 422.77 356.431 448.958 34L397.295 34.4597Z" fill="#AE90FD"/>
<defs>
<linearGradient id="paint0_linear_1581_1280" x1="179" y1="0" x2="179" y2="2233" gradientUnits="userSpaceOnUse">
<stop stop-color="#B9A0FB"/>
<stop offset="1" stop-color="#A583FF"/>
</linearGradient>
<linearGradient id="paint1_linear_1581_1280" x1="326" y1="2277" x2="326" y2="44" gradientUnits="userSpaceOnUse">
<stop stop-color="#B9A0FB"/>
<stop offset="1" stop-color="#A583FF"/>
</linearGradient>
</defs>
</svg>
