<svg width="662" height="2242" viewBox="0 0 662 2242" fill="none" xmlns="http://www.w3.org/2000/svg">
<path d="M48.6889 10C107.321 264.344 177.409 511.004 213.912 775.178C246.766 1011.62 223.403 1234.93 170.838 1470.64C111.702 1737 45.2647 1982.2 0 2242H254.067C293.491 2009.94 348.977 1789.55 403.002 1551.64C455.568 1318.85 485.501 1097 467.979 864.209C445.347 572.304 364.308 292.805 302.12 10.0146L48.6889 10Z" fill="url(#paint0_linear_1581_1281)"/>
<path d="M554.295 0.45974C543.383 162.974 532.472 324.576 529.562 486.886C522.288 955.23 587.757 1419.29 603.586 1886.37C609.588 2096.12 609.624 2233 609.624 2233H662C662 2233 661.956 2096.11 655.824 1886.28C645.24 1579.45 614.687 1276.28 594.319 968.818C572.496 644.19 579.77 322.431 605.958 0L554.295 0.45974Z" fill="url(#paint1_linear_1581_1281)"/>
<defs>
<linearGradient id="paint0_linear_1581_1281" x1="236.5" y1="10" x2="236.5" y2="2242" gradientUnits="userSpaceOnUse">
<stop stop-color="#9391EE"/>
<stop offset="1" stop-color="#C7C6FF"/>
</linearGradient>
<linearGradient id="paint1_linear_1581_1281" x1="595.5" y1="0" x2="595.5" y2="2233" gradientUnits="userSpaceOnUse">
<stop stop-color="#9391EE"/>
<stop offset="1" stop-color="#BFBDFF"/>
</linearGradient>
</defs>
</svg>
