<svg width="2573" height="4156" viewBox="0 0 2573 4156" fill="none" xmlns="http://www.w3.org/2000/svg">
<path d="M2526.81 273.051C2452.97 703.553 2204.75 1153.5 1586.5 1068.67C968.255 983.832 631.17 1433.54 856.311 1706.94C1081.45 1980.34 982.027 2527.12 706.383 2521.48C430.74 2515.84 242.025 3446.41 615.708 3356.17C989.392 3265.93 1449.92 2323.91 1533.85 2936.96C1617.78 3550 1156.48 3431.61 1330.79 3693.96C1505.1 3956.31 1630.43 3814.46 1548.55 4092.97" stroke="url(#paint0_linear_1593_524)" stroke-width="10" stroke-miterlimit="10"/>
<path d="M2435.81 273.051C2361.97 703.553 2113.75 1153.5 1495.5 1068.67C877.255 983.832 540.17 1433.54 765.311 1706.94C990.451 1980.34 891.027 2527.12 615.383 2521.48C339.74 2515.84 151.025 3446.41 524.708 3356.17C898.392 3265.93 1358.92 2323.91 1442.85 2936.96C1526.78 3550 1065.48 3431.61 1239.79 3693.96C1414.1 3956.31 1539.43 3814.46 1457.55 4092.97" stroke="url(#paint1_linear_1593_524)" stroke-width="10" stroke-miterlimit="10"/>
<path d="M2351.81 266.051C2277.97 696.553 2029.75 1146.5 1411.5 1061.67C793.255 976.832 456.17 1426.54 681.311 1699.94C906.451 1973.34 807.027 2520.12 531.383 2514.48C255.74 2508.84 67.0245 3439.41 440.708 3349.17C814.392 3258.93 1274.92 2316.91 1358.85 2929.96C1442.78 3543 981.475 3424.61 1155.79 3686.96C1330.1 3949.31 1455.43 3807.46 1373.55 4085.97" stroke="url(#paint2_linear_1593_524)" stroke-width="10" stroke-miterlimit="10"/>
<path d="M2259.81 266.051C2185.97 696.553 1937.75 1146.5 1319.5 1061.67C701.254 976.832 364.169 1426.54 589.31 1699.94C814.45 1973.34 715.026 2520.12 439.382 2514.48C163.739 2508.84 -24.9765 3439.41 348.707 3349.17C722.391 3258.93 1182.92 2316.91 1266.85 2929.96C1350.78 3543 889.474 3424.61 1063.79 3686.96C1238.1 3949.31 1363.43 3807.46 1281.55 4085.97" stroke="url(#paint3_linear_1593_524)" stroke-width="10" stroke-miterlimit="10"/>
<path d="M2301.05 272.809C2227.22 703.312 1979.01 1153.26 1360.73 1068.42C742.452 983.582 405.409 1433.3 630.585 1706.7C855.761 1980.11 756.295 2526.88 480.658 2521.24C205.021 2515.61 16.2991 3446.18 389.983 3355.94C763.667 3265.69 1224.2 2323.68 1308.12 2936.72C1392.04 3549.76 930.75 3431.37 1105.06 3693.72C1279.38 3956.07 1404.7 3814.22 1322.83 4092.74" stroke="url(#paint4_linear_1593_524)" stroke-width="10" stroke-miterlimit="10"/>
<path d="M2393.05 272.809C2319.22 703.312 2071.01 1153.26 1452.73 1068.42C834.452 983.582 497.409 1433.3 722.585 1706.7C947.761 1980.11 848.295 2526.88 572.658 2521.24C297.021 2515.61 108.299 3446.18 481.983 3355.94C855.667 3265.69 1316.2 2323.68 1400.12 2936.72C1484.04 3549.76 1022.75 3431.37 1197.06 3693.72C1371.38 3956.07 1496.7 3814.22 1414.83 4092.74" stroke="url(#paint5_linear_1593_524)" stroke-width="10" stroke-miterlimit="10"/>
<path d="M2477.05 279.809C2403.22 710.312 2155.01 1160.26 1536.73 1075.42C918.452 990.582 581.409 1440.3 806.585 1713.7C1031.76 1987.11 932.295 2533.88 656.658 2528.24C381.021 2522.61 192.299 3453.18 565.983 3362.94C939.667 3272.69 1400.2 2330.68 1484.12 2943.72C1568.04 3556.76 1106.75 3438.37 1281.06 3700.72C1455.38 3963.07 1580.7 3821.22 1498.83 4099.74" stroke="url(#paint6_linear_1593_524)" stroke-width="10" stroke-miterlimit="10"/>
<path d="M2568.05 279.809C2494.22 710.312 2246.01 1160.26 1627.73 1075.42C1009.45 990.582 672.409 1440.3 897.585 1713.7C1122.76 1987.11 1023.29 2533.88 747.658 2528.24C472.021 2522.61 283.299 3453.18 656.983 3362.94C1030.67 3272.69 1491.2 2330.68 1575.12 2943.72C1659.04 3556.76 1197.75 3438.37 1372.06 3700.72C1546.38 3963.07 1671.7 3821.22 1589.83 4099.74" stroke="url(#paint7_linear_1593_524)" stroke-width="10" stroke-miterlimit="10"/>
<defs>
<linearGradient id="paint0_linear_1593_524" x1="2209.24" y1="2211.12" x2="585.565" y2="1945.07" gradientUnits="userSpaceOnUse">
<stop stop-color="#FF6B2F"/>
<stop offset="0.3125" stop-color="#FFA27C"/>
<stop offset="1" stop-color="#FFD3C1"/>
</linearGradient>
<linearGradient id="paint1_linear_1593_524" x1="2118.24" y1="2211.12" x2="494.565" y2="1945.07" gradientUnits="userSpaceOnUse">
<stop stop-color="#FF6B2F"/>
<stop offset="0.3125" stop-color="#FFA27C"/>
<stop offset="1" stop-color="#FFD3C1"/>
</linearGradient>
<linearGradient id="paint2_linear_1593_524" x1="2034.24" y1="2204.12" x2="410.565" y2="1938.07" gradientUnits="userSpaceOnUse">
<stop stop-color="#FF6B2F"/>
<stop offset="0.3125" stop-color="#FFA27C"/>
<stop offset="1" stop-color="#FFD3C1"/>
</linearGradient>
<linearGradient id="paint3_linear_1593_524" x1="1942.24" y1="2204.12" x2="318.564" y2="1938.07" gradientUnits="userSpaceOnUse">
<stop stop-color="#FF6B2F"/>
<stop offset="0.3125" stop-color="#FFA27C"/>
<stop offset="1" stop-color="#FFD3C1"/>
</linearGradient>
<linearGradient id="paint4_linear_1593_524" x1="1983.49" y1="2210.88" x2="359.843" y2="1944.84" gradientUnits="userSpaceOnUse">
<stop stop-color="#FF6B2F"/>
<stop offset="0.3125" stop-color="#FFA27C"/>
<stop offset="1" stop-color="#FFD3C1"/>
</linearGradient>
<linearGradient id="paint5_linear_1593_524" x1="2075.49" y1="2210.88" x2="451.843" y2="1944.84" gradientUnits="userSpaceOnUse">
<stop stop-color="#FF6B2F"/>
<stop offset="0.3125" stop-color="#FFA27C"/>
<stop offset="1" stop-color="#FFD3C1"/>
</linearGradient>
<linearGradient id="paint6_linear_1593_524" x1="2159.49" y1="2217.88" x2="535.843" y2="1951.84" gradientUnits="userSpaceOnUse">
<stop stop-color="#FF6B2F"/>
<stop offset="0.3125" stop-color="#FFA27C"/>
<stop offset="1" stop-color="#FFD3C1"/>
</linearGradient>
<linearGradient id="paint7_linear_1593_524" x1="2250.49" y1="2217.88" x2="626.843" y2="1951.84" gradientUnits="userSpaceOnUse">
<stop stop-color="#FF6B2F"/>
<stop offset="0.3125" stop-color="#FFA27C"/>
<stop offset="1" stop-color="#FFD3C1"/>
</linearGradient>
</defs>
</svg>
