<svg width="881" height="2204" viewBox="0 0 881 2204" fill="none" xmlns="http://www.w3.org/2000/svg">
<path d="M129.915 309.319C253.271 582.32 413.06 837.01 563.88 1096C563.918 1095.8 563.955 1095.6 564 1095.4C465.697 839.243 370.399 589.552 297.614 318.287C286.346 275.788 282.59 234.075 283.462 191.684C285.76 151.735 288.264 111.772 290.974 71.7941C292.571 47.8795 294.214 23.9482 295.902 0H51C69.1342 76.6274 88.3727 153.082 107.085 229.681C112.749 252.882 118.744 276.717 129.915 309.319Z" fill="#F9A084"/>
<path d="M255.007 1942.46C251.152 1878.46 272.13 1816.58 292.365 1755.42C368.572 1528.74 459.682 1312.8 563.52 1099.02C563.64 1098.54 563.768 1098.07 563.888 1097.58L564 1097C563.948 1097 563.91 1097 563.925 1097C405.945 1313.35 242.767 1526.89 104.175 1755.28C68.8199 1829.1 45.0375 1888.9 36.795 1926.29C23.67 1985.8 11.295 2143.69 0 2204H275.707C274.785 2189.11 273.405 2171.2 271.35 2150.94C267.27 2117.01 261.727 1980.52 255.007 1942.46Z" fill="url(#paint0_linear_1581_1283)"/>
<path d="M628.649 266.418C630.151 234.009 630.901 199.49 616.638 169.054C597.87 131.459 570.507 95.1103 540.283 59.1144C523.693 39.352 506.246 19.6976 488.897 0H348.86C345.967 36.7449 343.347 73.4753 341 110.191C342.989 151.149 343.049 183.652 344.836 221.225C384.856 518.994 482.373 806.133 564.141 1094.72L564.05 1095.19L564.141 1095.44L564.005 1095.94L564.141 1096.16L563.848 1096.56C563.848 1096.65 563.795 1096.74 563.773 1096.84C563.847 1096.83 563.919 1096.81 563.983 1096.77C564.066 1096.83 563.901 1096.85 563.773 1096.85L563.615 1097.43L563.413 1098.51C563.675 1097.96 563.938 1097.41 564.208 1096.86L563.217 1099.51C512.462 1364.18 457.367 1628.14 418.676 1894.28C415.027 1958.05 409.382 2128.45 409.787 2158.26C410.02 2175.83 410.193 2191.13 410.305 2204H881V517.467C806.642 710.115 636.066 902.237 564.891 1096.19C579.14 819.118 612.149 544.208 628.649 266.418Z" fill="url(#paint1_linear_1581_1283)"/>
<path d="M360.599 1927.06C411.064 1648.61 491.344 1375.49 563 1101C471.107 1346.54 374.351 1592.76 320.463 1849.01C317.295 1935.34 319.487 2106.36 324.967 2150.92C327.076 2171.19 328.48 2189.08 329.425 2204H356.636C356.516 2191.13 356.358 2175.84 356.126 2158.28C355.705 2128.49 360.592 1970.62 360.599 1927.06Z" fill="url(#paint2_linear_1581_1283)"/>
<defs>
<linearGradient id="paint0_linear_1581_1283" x1="282" y1="1097" x2="282" y2="2383" gradientUnits="userSpaceOnUse">
<stop stop-color="#FFC7E5"/>
<stop offset="1" stop-color="#F9A084"/>
</linearGradient>
<linearGradient id="paint1_linear_1581_1283" x1="881" y1="2247" x2="138" y2="887" gradientUnits="userSpaceOnUse">
<stop stop-color="#FF9467"/>
<stop offset="0.957697" stop-color="#FFE0D2"/>
</linearGradient>
<linearGradient id="paint2_linear_1581_1283" x1="441" y1="1101" x2="441" y2="2204" gradientUnits="userSpaceOnUse">
<stop stop-color="#FF97DF"/>
<stop offset="1" stop-color="#C57DAF"/>
</linearGradient>
</defs>
</svg>
