<svg width="2383" height="2718" viewBox="0 0 2383 2718" fill="none" xmlns="http://www.w3.org/2000/svg">
<path d="M2024.32 1777.05C1664.14 1902.12 1100.96 2350.56 773.337 2296.83C201.354 2203.04 1031.88 1587.33 497.865 1127.11" stroke="url(#paint0_linear_1593_479)" stroke-width="10" stroke-miterlimit="10"/>
<path d="M2033.46 1759.11C1673.28 1884.17 1110.1 2332.62 782.474 2278.89C210.491 2185.09 1041.02 1569.36 507.024 1109.15" stroke="url(#paint1_linear_1593_479)" stroke-width="10" stroke-miterlimit="10"/>
<path d="M2042.6 1741.16C1682.42 1866.23 1119.23 2314.69 791.617 2260.94C219.634 2167.15 1050.17 1551.41 516.173 1091.2" stroke="url(#paint2_linear_1593_479)" stroke-width="10" stroke-miterlimit="10"/>
<path d="M2051.76 1723.24C1691.59 1848.3 1128.41 2296.74 800.779 2243.02C228.802 2149.22 1059.33 1533.48 525.335 1073.28" stroke="url(#paint3_linear_1593_479)" stroke-width="10" stroke-miterlimit="10"/>
<path d="M2060.89 1705.27C1700.71 1830.33 1137.53 2278.78 809.923 2225.07C237.94 2131.28 1068.47 1515.54 534.473 1055.33" stroke="url(#paint4_linear_1593_479)" stroke-width="10" stroke-miterlimit="10"/>
<path d="M2070.05 1687.3C1709.87 1812.37 1146.69 2260.81 819.062 2207.08C247.08 2113.29 1077.61 1497.55 543.613 1037.34" stroke="url(#paint5_linear_1593_479)" stroke-width="10" stroke-miterlimit="10"/>
<path d="M2079.16 1669.38C1718.99 1794.45 1155.81 2242.89 828.179 2189.16C256.196 2095.37 1086.73 1479.63 552.734 1019.42" stroke="url(#paint6_linear_1593_479)" stroke-width="10" stroke-miterlimit="10"/>
<path d="M2088.3 1651.44C1728.13 1776.5 1164.95 2224.94 837.318 2171.22C265.341 2077.42 1095.89 1461.66 561.874 1001.44" stroke="url(#paint7_linear_1593_479)" stroke-width="10" stroke-miterlimit="10"/>
<path d="M2097.45 1633.49C1737.27 1758.55 1174.09 2207 846.462 2153.27C274.479 2059.47 1105.01 1443.74 571.012 983.528" stroke="url(#paint8_linear_1593_479)" stroke-width="10" stroke-miterlimit="10"/>
<path d="M2106.59 1615.54C1746.41 1740.61 1183.23 2189.05 855.603 2135.33C283.62 2041.53 1114.15 1425.79 580.153 965.585" stroke="url(#paint9_linear_1593_479)" stroke-width="10" stroke-miterlimit="10"/>
<path d="M2115.73 1597.6C1755.56 1722.65 1192.37 2171.1 864.741 2117.38C292.765 2023.58 1123.29 1407.85 589.297 947.636" stroke="url(#paint10_linear_1593_479)" stroke-width="10" stroke-miterlimit="10"/>
<path d="M2124.87 1579.65C1764.69 1704.72 1201.52 2153.17 873.879 2099.44C301.902 2005.64 1132.43 1389.9 598.435 929.692" stroke="url(#paint11_linear_1593_479)" stroke-width="10" stroke-miterlimit="10"/>
<path d="M2134.01 1561.71C1773.83 1686.77 1210.65 2135.22 883.027 2081.49C311.044 1987.69 1141.58 1371.96 607.577 911.747" stroke="url(#paint12_linear_1593_479)" stroke-width="10" stroke-miterlimit="10"/>
<path d="M2143.14 1543.77C1782.96 1668.84 1219.78 2117.28 892.152 2063.56C320.169 1969.76 1150.7 1354.02 616.702 893.814" stroke="url(#paint13_linear_1593_479)" stroke-width="10" stroke-miterlimit="10"/>
<path d="M2152.29 1525.82C1792.11 1650.88 1228.94 2099.32 901.305 2045.6C329.328 1951.8 1159.85 1336.07 625.861 875.853" stroke="url(#paint14_linear_1593_479)" stroke-width="10" stroke-miterlimit="10"/>
<path d="M2161.41 1507.85C1801.23 1632.92 1238.05 2081.36 910.42 2027.63C338.443 1933.83 1168.97 1318.1 634.976 857.887" stroke="url(#paint15_linear_1593_479)" stroke-width="10" stroke-miterlimit="10"/>
<path d="M2170.57 1489.92C1810.4 1614.99 1247.21 2063.43 919.589 2009.71C347.606 1915.91 1178.14 1300.17 644.139 839.966" stroke="url(#paint16_linear_1593_479)" stroke-width="10" stroke-miterlimit="10"/>
<path d="M2179.71 1471.98C1819.54 1597.04 1256.34 2045.5 928.729 1991.76C356.747 1897.97 1187.28 1282.23 653.279 822.021" stroke="url(#paint17_linear_1593_479)" stroke-width="10" stroke-miterlimit="10"/>
<path d="M2188.85 1454.04C1828.67 1579.1 1265.5 2027.54 937.866 1973.82C365.889 1880.02 1196.41 1264.29 662.421 804.072" stroke="url(#paint18_linear_1593_479)" stroke-width="10" stroke-miterlimit="10"/>
<path d="M2198 1436.09C1837.82 1561.16 1274.64 2009.6 947.008 1955.88C375.031 1862.07 1205.56 1246.34 671.564 786.129" stroke="url(#paint19_linear_1593_479)" stroke-width="10" stroke-miterlimit="10"/>
<path d="M2207.17 1418.12C1846.99 1543.19 1283.81 1991.63 956.185 1937.9C384.203 1844.11 1214.73 1228.37 680.735 768.162" stroke="url(#paint20_linear_1593_479)" stroke-width="10" stroke-miterlimit="10"/>
<path d="M2216.27 1400.2C1856.1 1525.26 1292.92 1973.71 965.289 1919.98C393.307 1826.18 1223.84 1210.45 689.839 750.24" stroke="url(#paint21_linear_1593_479)" stroke-width="10" stroke-miterlimit="10"/>
<path d="M2225.42 1382.25C1865.24 1507.32 1302.06 1955.76 974.431 1902.04C402.454 1808.23 1233.03 1192.5 699.008 732.266" stroke="url(#paint22_linear_1593_479)" stroke-width="10" stroke-miterlimit="10"/>
<path d="M2234.56 1364.3C1874.38 1489.37 1311.2 1937.81 983.57 1884.09C411.593 1790.29 1242.13 1174.55 708.126 714.346" stroke="url(#paint23_linear_1593_479)" stroke-width="10" stroke-miterlimit="10"/>
<path d="M2243.7 1346.36C1883.53 1471.44 1320.37 1919.84 992.715 1866.14C420.732 1772.35 1251.26 1156.61 717.265 696.404" stroke="url(#paint24_linear_1593_479)" stroke-width="10" stroke-miterlimit="10"/>
<path d="M2252.84 1328.42C1892.66 1453.48 1329.48 1901.93 1001.85 1848.2C429.871 1754.4 1260.4 1138.67 726.403 678.457" stroke="url(#paint25_linear_1593_479)" stroke-width="10" stroke-miterlimit="10"/>
<path d="M2261.98 1310.47C1901.8 1435.54 1338.62 1883.98 1011 1830.25C439.021 1736.45 1269.55 1120.72 735.554 660.505" stroke="url(#paint26_linear_1593_479)" stroke-width="10" stroke-miterlimit="10"/>
<path d="M2271.12 1292.52C1910.95 1417.59 1347.76 1866.03 1020.13 1812.31C448.155 1718.51 1278.69 1102.77 744.688 642.565" stroke="url(#paint27_linear_1593_479)" stroke-width="10" stroke-miterlimit="10"/>
<path d="M2280.26 1274.59C1920.08 1399.65 1356.9 1848.1 1029.27 1794.37C457.288 1700.57 1287.82 1084.84 753.821 624.627" stroke="url(#paint28_linear_1593_479)" stroke-width="10" stroke-miterlimit="10"/>
<path d="M2289.4 1256.64C1929.23 1381.7 1366.04 1830.15 1038.42 1776.42C466.435 1682.62 1296.97 1066.89 762.962 606.674" stroke="url(#paint29_linear_1593_479)" stroke-width="10" stroke-miterlimit="10"/>
<path d="M2298.54 1238.69C1938.36 1363.75 1375.19 1812.19 1047.56 1758.47C475.58 1664.67 1306.1 1048.95 772.096 588.732" stroke="url(#paint30_linear_1593_479)" stroke-width="10" stroke-miterlimit="10"/>
<path d="M2307.69 1220.74C1947.51 1345.8 1384.33 1794.25 1056.7 1740.52C484.718 1646.73 1315.25 1030.99 781.245 570.776" stroke="url(#paint31_linear_1593_479)" stroke-width="10" stroke-miterlimit="10"/>
<path d="M2316.82 1202.79C1956.65 1327.86 1393.46 1776.31 1065.84 1722.58C493.858 1628.78 1324.39 1013.05 790.385 552.834" stroke="url(#paint32_linear_1593_479)" stroke-width="10" stroke-miterlimit="10"/>
<path d="M2325.96 1184.85C1965.77 1309.94 1402.62 1758.38 1074.98 1704.64C502.999 1610.84 1333.53 995.104 799.526 534.89" stroke="url(#paint33_linear_1593_479)" stroke-width="10" stroke-miterlimit="10"/>
<path d="M2335.1 1166.9C1974.93 1291.97 1411.75 1740.41 1084.12 1686.69C512.143 1592.89 1342.67 977.159 808.67 516.939" stroke="url(#paint34_linear_1593_479)" stroke-width="10" stroke-miterlimit="10"/>
<path d="M2344.24 1148.96C1984.07 1274.03 1420.89 1722.47 1093.26 1668.74C521.28 1574.95 1351.81 959.211 817.807 498.997" stroke="url(#paint35_linear_1593_479)" stroke-width="10" stroke-miterlimit="10"/>
<path d="M2353.38 1131.01C1993.21 1256.08 1430.03 1704.53 1102.4 1650.8C530.42 1557 1360.95 941.267 826.947 481.053" stroke="url(#paint36_linear_1593_479)" stroke-width="10" stroke-miterlimit="10"/>
<path d="M2362.52 1113.06C2002.35 1238.13 1439.16 1686.57 1111.54 1632.85C539.555 1539.05 1370.09 923.314 836.087 463.094" stroke="url(#paint37_linear_1593_479)" stroke-width="10" stroke-miterlimit="10"/>
<path d="M2371.66 1095.12C2011.49 1220.19 1448.31 1668.63 1120.68 1614.91C548.705 1521.11 1379.23 905.378 845.232 445.159" stroke="url(#paint38_linear_1593_479)" stroke-width="10" stroke-miterlimit="10"/>
<path d="M2380.81 1077.17C2020.63 1202.24 1457.45 1650.69 1129.82 1596.96C557.844 1503.16 1388.37 887.423 854.371 427.214" stroke="url(#paint39_linear_1593_479)" stroke-width="10" stroke-miterlimit="10"/>
<defs>
<linearGradient id="paint0_linear_1593_479" x1="557.148" y1="2179.41" x2="1467.84" y2="1238.46" gradientUnits="userSpaceOnUse">
<stop stop-color="#FFCDAC"/>
<stop offset="1" stop-color="#CA86FF" stop-opacity="0.37"/>
</linearGradient>
<linearGradient id="paint1_linear_1593_479" x1="566.286" y1="2161.47" x2="1476.98" y2="1220.52" gradientUnits="userSpaceOnUse">
<stop stop-color="#FFCDAC"/>
<stop offset="1" stop-color="#CA86FF" stop-opacity="0.37"/>
</linearGradient>
<linearGradient id="paint2_linear_1593_479" x1="575.43" y1="2143.52" x2="1486.12" y2="1202.57" gradientUnits="userSpaceOnUse">
<stop stop-color="#FFCDAC"/>
<stop offset="1" stop-color="#CA86FF" stop-opacity="0.37"/>
</linearGradient>
<linearGradient id="paint3_linear_1593_479" x1="584.594" y1="2125.6" x2="1495.29" y2="1184.65" gradientUnits="userSpaceOnUse">
<stop stop-color="#FFCDAC"/>
<stop offset="1" stop-color="#CA86FF" stop-opacity="0.37"/>
</linearGradient>
<linearGradient id="paint4_linear_1593_479" x1="593.724" y1="2107.64" x2="1504.42" y2="1166.69" gradientUnits="userSpaceOnUse">
<stop stop-color="#FFCDAC"/>
<stop offset="1" stop-color="#CA86FF" stop-opacity="0.37"/>
</linearGradient>
<linearGradient id="paint5_linear_1593_479" x1="602.875" y1="2089.66" x2="1513.57" y2="1148.72" gradientUnits="userSpaceOnUse">
<stop stop-color="#FFCDAC"/>
<stop offset="1" stop-color="#CA86FF" stop-opacity="0.37"/>
</linearGradient>
<linearGradient id="paint6_linear_1593_479" x1="611.992" y1="2071.74" x2="1522.69" y2="1130.79" gradientUnits="userSpaceOnUse">
<stop stop-color="#FFCDAC"/>
<stop offset="1" stop-color="#CA86FF" stop-opacity="0.37"/>
</linearGradient>
<linearGradient id="paint7_linear_1593_479" x1="621.125" y1="2053.79" x2="1531.82" y2="1112.84" gradientUnits="userSpaceOnUse">
<stop stop-color="#FFCDAC"/>
<stop offset="1" stop-color="#CA86FF" stop-opacity="0.37"/>
</linearGradient>
<linearGradient id="paint8_linear_1593_479" x1="630.275" y1="2035.85" x2="1540.97" y2="1094.9" gradientUnits="userSpaceOnUse">
<stop stop-color="#FFCDAC"/>
<stop offset="1" stop-color="#CA86FF" stop-opacity="0.37"/>
</linearGradient>
<linearGradient id="paint9_linear_1593_479" x1="639.415" y1="2017.91" x2="1550.11" y2="1076.96" gradientUnits="userSpaceOnUse">
<stop stop-color="#FFCDAC"/>
<stop offset="1" stop-color="#CA86FF" stop-opacity="0.37"/>
</linearGradient>
<linearGradient id="paint10_linear_1593_479" x1="648.556" y1="1999.96" x2="1559.25" y2="1059.01" gradientUnits="userSpaceOnUse">
<stop stop-color="#FFCDAC"/>
<stop offset="1" stop-color="#CA86FF" stop-opacity="0.37"/>
</linearGradient>
<linearGradient id="paint11_linear_1593_479" x1="657.694" y1="1982.02" x2="1568.39" y2="1041.06" gradientUnits="userSpaceOnUse">
<stop stop-color="#FFCDAC"/>
<stop offset="1" stop-color="#CA86FF" stop-opacity="0.37"/>
</linearGradient>
<linearGradient id="paint12_linear_1593_479" x1="666.839" y1="1964.07" x2="1577.53" y2="1023.12" gradientUnits="userSpaceOnUse">
<stop stop-color="#FFCDAC"/>
<stop offset="1" stop-color="#CA86FF" stop-opacity="0.37"/>
</linearGradient>
<linearGradient id="paint13_linear_1593_479" x1="675.965" y1="1946.13" x2="1586.66" y2="1005.19" gradientUnits="userSpaceOnUse">
<stop stop-color="#FFCDAC"/>
<stop offset="1" stop-color="#CA86FF" stop-opacity="0.37"/>
</linearGradient>
<linearGradient id="paint14_linear_1593_479" x1="685.12" y1="1928.18" x2="1595.81" y2="987.231" gradientUnits="userSpaceOnUse">
<stop stop-color="#FFCDAC"/>
<stop offset="1" stop-color="#CA86FF" stop-opacity="0.37"/>
</linearGradient>
<linearGradient id="paint15_linear_1593_479" x1="694.235" y1="1910.21" x2="1604.93" y2="969.259" gradientUnits="userSpaceOnUse">
<stop stop-color="#FFCDAC"/>
<stop offset="1" stop-color="#CA86FF" stop-opacity="0.37"/>
</linearGradient>
<linearGradient id="paint16_linear_1593_479" x1="703.401" y1="1892.29" x2="1614.1" y2="951.338" gradientUnits="userSpaceOnUse">
<stop stop-color="#FFCDAC"/>
<stop offset="1" stop-color="#CA86FF" stop-opacity="0.37"/>
</linearGradient>
<linearGradient id="paint17_linear_1593_479" x1="712.542" y1="1874.34" x2="1623.24" y2="933.393" gradientUnits="userSpaceOnUse">
<stop stop-color="#FFCDAC"/>
<stop offset="1" stop-color="#CA86FF" stop-opacity="0.37"/>
</linearGradient>
<linearGradient id="paint18_linear_1593_479" x1="721.68" y1="1856.4" x2="1632.37" y2="915.45" gradientUnits="userSpaceOnUse">
<stop stop-color="#FFCDAC"/>
<stop offset="1" stop-color="#CA86FF" stop-opacity="0.37"/>
</linearGradient>
<linearGradient id="paint19_linear_1593_479" x1="730.823" y1="1838.45" x2="1641.52" y2="897.501" gradientUnits="userSpaceOnUse">
<stop stop-color="#FFCDAC"/>
<stop offset="1" stop-color="#CA86FF" stop-opacity="0.37"/>
</linearGradient>
<linearGradient id="paint20_linear_1593_479" x1="739.998" y1="1820.48" x2="1650.69" y2="879.534" gradientUnits="userSpaceOnUse">
<stop stop-color="#FFCDAC"/>
<stop offset="1" stop-color="#CA86FF" stop-opacity="0.37"/>
</linearGradient>
<linearGradient id="paint21_linear_1593_479" x1="749.102" y1="1802.56" x2="1659.8" y2="861.612" gradientUnits="userSpaceOnUse">
<stop stop-color="#FFCDAC"/>
<stop offset="1" stop-color="#CA86FF" stop-opacity="0.37"/>
</linearGradient>
<linearGradient id="paint22_linear_1593_479" x1="758.246" y1="1784.61" x2="1668.94" y2="843.667" gradientUnits="userSpaceOnUse">
<stop stop-color="#FFCDAC"/>
<stop offset="1" stop-color="#CA86FF" stop-opacity="0.37"/>
</linearGradient>
<linearGradient id="paint23_linear_1593_479" x1="767.385" y1="1766.67" x2="1678.08" y2="825.717" gradientUnits="userSpaceOnUse">
<stop stop-color="#FFCDAC"/>
<stop offset="1" stop-color="#CA86FF" stop-opacity="0.37"/>
</linearGradient>
<linearGradient id="paint24_linear_1593_479" x1="776.528" y1="1748.72" x2="1687.22" y2="807.776" gradientUnits="userSpaceOnUse">
<stop stop-color="#FFCDAC"/>
<stop offset="1" stop-color="#CA86FF" stop-opacity="0.37"/>
</linearGradient>
<linearGradient id="paint25_linear_1593_479" x1="785.666" y1="1730.78" x2="1696.36" y2="789.83" gradientUnits="userSpaceOnUse">
<stop stop-color="#FFCDAC"/>
<stop offset="1" stop-color="#CA86FF" stop-opacity="0.37"/>
</linearGradient>
<linearGradient id="paint26_linear_1593_479" x1="794.813" y1="1712.83" x2="1705.5" y2="771.889" gradientUnits="userSpaceOnUse">
<stop stop-color="#FFCDAC"/>
<stop offset="1" stop-color="#CA86FF" stop-opacity="0.37"/>
</linearGradient>
<linearGradient id="paint27_linear_1593_479" x1="803.947" y1="1694.89" x2="1714.64" y2="753.937" gradientUnits="userSpaceOnUse">
<stop stop-color="#FFCDAC"/>
<stop offset="1" stop-color="#CA86FF" stop-opacity="0.37"/>
</linearGradient>
<linearGradient id="paint28_linear_1593_479" x1="813.083" y1="1676.95" x2="1723.78" y2="735.999" gradientUnits="userSpaceOnUse">
<stop stop-color="#FFCDAC"/>
<stop offset="1" stop-color="#CA86FF" stop-opacity="0.37"/>
</linearGradient>
<linearGradient id="paint29_linear_1593_479" x1="822.227" y1="1659" x2="1732.92" y2="718.048" gradientUnits="userSpaceOnUse">
<stop stop-color="#FFCDAC"/>
<stop offset="1" stop-color="#CA86FF" stop-opacity="0.37"/>
</linearGradient>
<linearGradient id="paint30_linear_1593_479" x1="831.368" y1="1641.05" x2="1742.06" y2="700.101" gradientUnits="userSpaceOnUse">
<stop stop-color="#FFCDAC"/>
<stop offset="1" stop-color="#CA86FF" stop-opacity="0.37"/>
</linearGradient>
<linearGradient id="paint31_linear_1593_479" x1="840.511" y1="1623.1" x2="1751.21" y2="682.151" gradientUnits="userSpaceOnUse">
<stop stop-color="#FFCDAC"/>
<stop offset="1" stop-color="#CA86FF" stop-opacity="0.37"/>
</linearGradient>
<linearGradient id="paint32_linear_1593_479" x1="849.648" y1="1605.15" x2="1760.34" y2="664.205" gradientUnits="userSpaceOnUse">
<stop stop-color="#FFCDAC"/>
<stop offset="1" stop-color="#CA86FF" stop-opacity="0.37"/>
</linearGradient>
<linearGradient id="paint33_linear_1593_479" x1="858.788" y1="1587.21" x2="1769.48" y2="646.262" gradientUnits="userSpaceOnUse">
<stop stop-color="#FFCDAC"/>
<stop offset="1" stop-color="#CA86FF" stop-opacity="0.37"/>
</linearGradient>
<linearGradient id="paint34_linear_1593_479" x1="867.929" y1="1569.26" x2="1778.62" y2="628.317" gradientUnits="userSpaceOnUse">
<stop stop-color="#FFCDAC"/>
<stop offset="1" stop-color="#CA86FF" stop-opacity="0.37"/>
</linearGradient>
<linearGradient id="paint35_linear_1593_479" x1="877.069" y1="1551.32" x2="1787.76" y2="610.369" gradientUnits="userSpaceOnUse">
<stop stop-color="#FFCDAC"/>
<stop offset="1" stop-color="#CA86FF" stop-opacity="0.37"/>
</linearGradient>
<linearGradient id="paint36_linear_1593_479" x1="886.21" y1="1533.37" x2="1796.9" y2="592.425" gradientUnits="userSpaceOnUse">
<stop stop-color="#FFCDAC"/>
<stop offset="1" stop-color="#CA86FF" stop-opacity="0.37"/>
</linearGradient>
<linearGradient id="paint37_linear_1593_479" x1="895.344" y1="1515.42" x2="1806.04" y2="574.472" gradientUnits="userSpaceOnUse">
<stop stop-color="#FFCDAC"/>
<stop offset="1" stop-color="#CA86FF" stop-opacity="0.37"/>
</linearGradient>
<linearGradient id="paint38_linear_1593_479" x1="904.491" y1="1497.48" x2="1815.18" y2="556.536" gradientUnits="userSpaceOnUse">
<stop stop-color="#FFCDAC"/>
<stop offset="1" stop-color="#CA86FF" stop-opacity="0.37"/>
</linearGradient>
<linearGradient id="paint39_linear_1593_479" x1="913.634" y1="1479.53" x2="1824.33" y2="538.586" gradientUnits="userSpaceOnUse">
<stop stop-color="#FFCDAC"/>
<stop offset="1" stop-color="#CA86FF" stop-opacity="0.37"/>
</linearGradient>
</defs>
</svg>
