<svg width="775" height="798" viewBox="0 0 775 798" fill="none" xmlns="http://www.w3.org/2000/svg">
<path d="M686.34 77.0368C680.681 77.0558 675.196 78.9873 670.783 82.5151C666.369 86.0429 663.288 90.9582 662.044 96.457C652.67 137.831 644.102 179.051 641.566 220.432C634.237 358.417 700.199 495.205 716.147 632.847C722.194 694.663 722.23 735 722.23 735H775C775 735 774.956 694.663 768.777 632.789C758.114 542.368 727.331 453.028 706.81 362.418C687.175 276.999 690.92 192.251 710.753 107.445C711.605 103.794 711.616 99.9992 710.786 96.3439C709.955 92.6886 708.305 89.2682 705.958 86.3389C703.611 83.4097 700.629 81.0478 697.235 79.4304C693.841 77.8131 690.124 76.9823 686.362 77.0003L686.34 77.0368Z" fill="#FFD3C1"/>
<path d="M10.3388 422.516C13.4304 421.659 16.7226 421.874 19.6755 423.125C22.6285 424.375 25.0667 426.588 26.5903 429.399C38.0779 450.545 49.0959 471.727 56.8472 493.918C82.0833 568.103 67.1237 652.774 79.6023 730.299C85.8122 764.947 92 786.963 92 786.963L63.1966 795C63.1966 795 57.016 772.985 50.8721 738.307C42.7978 687.35 45.8439 633.908 43.1133 581.343C40.691 531.745 25.6141 486.085 1.736 442.836C0.712585 440.974 0.12526 438.906 0.0179363 436.787C-0.0893871 434.667 0.285958 432.55 1.11612 430.596C1.94628 428.641 3.20977 426.898 4.81191 425.498C6.41405 424.097 8.31351 423.076 10.3682 422.509L10.3388 422.516Z" fill="url(#paint0_linear_1581_1282)"/>
<path d="M68.1163 1.09612C74.7043 -0.729125 81.7169 -0.264683 88.0065 2.41344C94.2961 5.09156 99.49 9.82471 102.738 15.8383C127.196 61.0643 150.677 106.385 167.181 153.858C220.935 312.565 189.071 493.709 215.594 659.572C228.815 733.692 242 780.785 242 780.785L180.644 798C180.644 798 167.473 750.907 154.376 676.707C137.142 567.698 143.665 453.371 137.842 340.911C132.683 234.805 100.557 137.11 49.6999 44.5932C47.5188 40.609 46.267 36.1835 46.0382 31.6474C45.8095 27.1114 46.6095 22.5824 48.3786 18.399C50.1477 14.2157 52.8401 10.4864 56.2543 7.49004C59.6684 4.4937 63.716 2.30794 68.0944 1.09612H68.1163Z" fill="url(#paint1_linear_1581_1282)"/>
<defs>
<linearGradient id="paint0_linear_1581_1282" x1="46" y1="422" x2="70" y2="860" gradientUnits="userSpaceOnUse">
<stop stop-color="#FFCDBD"/>
<stop offset="1" stop-color="#F9A084"/>
</linearGradient>
<linearGradient id="paint1_linear_1581_1282" x1="144" y1="-80" x2="144" y2="798" gradientUnits="userSpaceOnUse">
<stop stop-color="#FFD3C1"/>
<stop offset="1" stop-color="#FF9C74"/>
</linearGradient>
</defs>
</svg>
