<svg width="3326" height="1440" viewBox="0 0 3326 1440" fill="none" xmlns="http://www.w3.org/2000/svg">
<path d="M0.798828 5.53027C370.468 8.27735 780.247 154.019 794.001 682.069C807.756 1210.12 1229.49 1430.09 1427.03 1204.59C1624.57 979.083 2094.86 987.331 2127.87 1218.34C2160.89 1449.34 2963.94 1479.61 2837.43 1179.83C2710.92 880.054 1861.1 624.313 2361.64 470.312C2862.18 316.311 2826.43 717.818 3021.69 536.309C3216.96 354.8 3081.33 269.537 3325.16 299.804" stroke="url(#paint0_linear_1581_1293)" stroke-width="10" stroke-miterlimit="10"/>
<path d="M0.798828 41.7275C370.468 44.4807 780.247 190.232 794.001 718.241C807.756 1246.25 1229.49 1466.26 1427.03 1240.79C1624.57 1015.32 2094.86 1023.53 2127.87 1254.53C2160.89 1485.54 2963.94 1515.81 2837.43 1216.03C2710.92 916.259 1861.1 660.523 2361.64 506.519C2862.18 352.514 2826.43 754.026 3021.69 572.52C3216.96 391.015 3081.33 305.754 3325.16 336.02" stroke="url(#paint1_linear_1581_1293)" stroke-width="10" stroke-miterlimit="10"/>
<defs>
<linearGradient id="paint0_linear_1581_1293" x1="1662.98" y1="5.53027" x2="1662.98" y2="1398.14" gradientUnits="userSpaceOnUse">
<stop stop-color="#3F00B5"/>
<stop offset="1" stop-color="#3D05B7"/>
</linearGradient>
<linearGradient id="paint1_linear_1581_1293" x1="1662.98" y1="41.7275" x2="1662.98" y2="1434.34" gradientUnits="userSpaceOnUse">
<stop stop-color="#6706CC"/>
<stop offset="1" stop-color="#3109A0"/>
</linearGradient>
</defs>
</svg>
