<svg width="1368" height="1585" viewBox="0 0 1368 1585" fill="none" xmlns="http://www.w3.org/2000/svg">
<path d="M5.21094 1007.36C136.672 746.903 207.673 200.593 416.368 55.7753C780.714 -197.054 651.737 583.503 1190.17 552.368" stroke="url(#paint0_linear_1593_1043)" stroke-width="10" stroke-miterlimit="10"/>
<path d="M9.02148 1022.6C140.483 762.143 211.484 215.832 420.179 71.0143C784.525 -181.815 655.56 598.767 1193.98 567.632" stroke="url(#paint1_linear_1593_1043)" stroke-width="10" stroke-miterlimit="10"/>
<path d="M12.832 1037.84C144.293 777.383 215.295 231.054 423.989 86.2545C788.335 -166.575 659.371 614.007 1197.79 582.879" stroke="url(#paint2_linear_1593_1043)" stroke-width="10" stroke-miterlimit="10"/>
<path d="M18.5469 1051.17C150.008 790.719 221.009 244.413 429.704 99.5884C794.05 -153.236 665.085 627.348 1203.5 596.214" stroke="url(#paint3_linear_1593_1043)" stroke-width="10" stroke-miterlimit="10"/>
<path d="M22.3555 1066.41C153.819 805.959 224.822 259.648 433.497 114.831C797.85 -137.999 668.883 642.583 1207.31 611.449" stroke="url(#paint4_linear_1593_1043)" stroke-width="10" stroke-miterlimit="10"/>
<path d="M26.166 1081.65C157.839 821.2 228.954 274.889 437.984 130.071C802.916 -122.759 673.744 657.824 1213.03 626.689" stroke="url(#paint5_linear_1593_1043)" stroke-width="10" stroke-miterlimit="10"/>
<path d="M31.8828 1094.99C163.344 834.535 234.345 288.231 443.04 143.407C807.386 -109.423 678.421 671.159 1216.84 640.031" stroke="url(#paint6_linear_1593_1043)" stroke-width="10" stroke-miterlimit="10"/>
<path d="M37.5977 1110.23C169.057 849.775 240.057 303.468 448.749 158.644C813.089 -94.1802 684.126 686.423 1222.56 655.288" stroke="url(#paint7_linear_1593_1043)" stroke-width="10" stroke-miterlimit="10"/>
<path d="M41.4062 1125.47C172.867 865.016 243.869 318.705 452.564 173.887C816.91 -78.9422 687.945 701.64 1226.36 670.505" stroke="url(#paint8_linear_1593_1043)" stroke-width="10" stroke-miterlimit="10"/>
<path d="M45.2168 1140.71C176.678 880.256 247.679 333.945 456.374 189.128C820.72 -63.702 691.755 716.88 1230.17 685.746" stroke="url(#paint9_linear_1593_1043)" stroke-width="10" stroke-miterlimit="10"/>
<path d="M49.0273 1155.95C180.489 895.51 251.49 349.192 460.185 204.368C824.53 -48.456 695.566 732.121 1233.98 700.993" stroke="url(#paint10_linear_1593_1043)" stroke-width="10" stroke-miterlimit="10"/>
<path d="M54.7422 1169.29C186.203 908.827 257.199 362.525 465.9 217.701C830.246 -35.1212 701.281 745.458 1239.7 714.324" stroke="url(#paint11_linear_1593_1043)" stroke-width="10" stroke-miterlimit="10"/>
<path d="M58.5527 1184.53C190.014 924.075 261.015 377.764 469.71 232.946C834.056 -19.8836 705.091 760.698 1243.51 729.564" stroke="url(#paint12_linear_1593_1043)" stroke-width="10" stroke-miterlimit="10"/>
<path d="M64.2676 1199.77C195.729 939.315 266.73 393.004 475.425 248.186C839.771 -4.6434 710.806 775.939 1249.22 744.804" stroke="url(#paint13_linear_1593_1043)" stroke-width="10" stroke-miterlimit="10"/>
<path d="M68.0781 1213.11C199.539 952.65 270.541 406.344 479.235 261.52C843.581 8.69635 714.617 789.274 1253.04 758.145" stroke="url(#paint14_linear_1593_1043)" stroke-width="10" stroke-miterlimit="10"/>
<path d="M73.793 1228.35C205.254 967.886 276.255 421.583 484.95 276.76C849.296 23.9375 720.331 804.516 1258.75 773.382" stroke="url(#paint15_linear_1593_1043)" stroke-width="10" stroke-miterlimit="10"/>
<path d="M77.6035 1243.59C209.065 983.131 280.066 436.82 488.761 292.003C853.107 39.173 724.142 819.755 1262.56 788.621" stroke="url(#paint16_linear_1593_1043)" stroke-width="10" stroke-miterlimit="10"/>
<path d="M81.4141 1258.83C212.875 998.371 283.877 452.048 492.571 307.243C856.917 54.4132 727.953 834.995 1266.37 803.861" stroke="url(#paint17_linear_1593_1043)" stroke-width="10" stroke-miterlimit="10"/>
<path d="M85.2246 1272.16C216.686 1011.71 287.687 465.401 496.382 320.577C860.728 67.753 731.763 848.33 1270.18 817.202" stroke="url(#paint18_linear_1593_1043)" stroke-width="10" stroke-miterlimit="10"/>
<path d="M90.9395 1287.4C222.401 1026.94 293.402 480.64 502.097 335.817C866.442 82.994 737.478 863.573 1275.9 832.439" stroke="url(#paint19_linear_1593_1043)" stroke-width="10" stroke-miterlimit="10"/>
<path d="M94.75 1302.64C226.211 1042.19 297.212 495.877 505.907 351.059C870.253 98.2296 741.288 878.812 1279.71 847.677" stroke="url(#paint20_linear_1593_1043)" stroke-width="10" stroke-miterlimit="10"/>
<path d="M100.465 1317.88C231.926 1057.43 302.927 511.119 511.622 366.301C875.968 113.472 747.003 894.054 1285.42 862.919" stroke="url(#paint21_linear_1593_1043)" stroke-width="10" stroke-miterlimit="10"/>
<path d="M104.275 1331.22C235.737 1070.76 306.738 524.456 515.433 379.632C879.778 126.808 750.789 907.417 1289.23 876.282" stroke="url(#paint22_linear_1593_1043)" stroke-width="10" stroke-miterlimit="10"/>
<path d="M109.99 1346.46C241.451 1086.01 312.453 539.696 521.148 394.873C885.494 142.051 756.529 922.63 1294.95 891.495" stroke="url(#paint23_linear_1593_1043)" stroke-width="10" stroke-miterlimit="10"/>
<path d="M113.801 1361.7C245.25 1101.25 316.264 554.966 524.958 410.118C889.304 157.288 760.339 937.87 1298.76 906.736" stroke="url(#paint24_linear_1593_1043)" stroke-width="10" stroke-miterlimit="10"/>
<path d="M117.609 1375.04C249.071 1114.58 320.072 568.271 528.767 423.454C893.112 170.624 764.148 951.206 1302.57 920.072" stroke="url(#paint25_linear_1593_1043)" stroke-width="10" stroke-miterlimit="10"/>
<path d="M121.42 1390.28C252.881 1129.82 323.883 583.511 532.577 438.693C896.923 185.867 767.958 966.449 1306.38 935.321" stroke="url(#paint26_linear_1593_1043)" stroke-width="10" stroke-miterlimit="10"/>
<path d="M127.135 1405.52C258.596 1145.06 329.598 598.755 538.292 453.932C902.638 201.109 773.673 981.688 1312.09 950.554" stroke="url(#paint27_linear_1593_1043)" stroke-width="10" stroke-miterlimit="10"/>
<path d="M130.945 1420.76C262.406 1160.3 333.408 613.992 542.102 469.174C906.448 216.345 777.484 996.927 1315.9 965.793" stroke="url(#paint28_linear_1593_1043)" stroke-width="10" stroke-miterlimit="10"/>
<path d="M136.66 1436C268.121 1175.54 339.122 629.232 547.815 484.415C912.159 231.585 783.195 1012.17 1321.62 981.033" stroke="url(#paint29_linear_1593_1043)" stroke-width="10" stroke-miterlimit="10"/>
<path d="M140.471 1449.33C271.931 1188.88 342.932 642.573 551.626 497.749C915.97 244.925 787.006 1025.5 1325.43 994.362" stroke="url(#paint30_linear_1593_1043)" stroke-width="10" stroke-miterlimit="10"/>
<path d="M146.186 1464.57C277.646 1204.12 348.647 657.809 557.341 512.991C921.685 260.161 792.721 1040.74 1331.14 1009.61" stroke="url(#paint31_linear_1593_1043)" stroke-width="10" stroke-miterlimit="10"/>
<path d="M149.996 1479.81C281.451 1219.36 352.453 673.043 561.147 528.231C925.493 275.402 796.528 1055.98 1334.95 1024.85" stroke="url(#paint32_linear_1593_1043)" stroke-width="10" stroke-miterlimit="10"/>
<path d="M153.807 1493.15C285.262 1232.68 356.245 686.385 564.958 541.567C929.304 288.737 800.339 1069.32 1338.76 1038.19" stroke="url(#paint33_linear_1593_1043)" stroke-width="10" stroke-miterlimit="10"/>
<path d="M157.617 1508.39C289.072 1247.94 360.074 701.631 568.768 556.807C933.114 303.983 804.15 1084.56 1342.57 1053.43" stroke="url(#paint34_linear_1593_1043)" stroke-width="10" stroke-miterlimit="10"/>
<path d="M163.332 1523.63C294.787 1263.18 365.789 716.867 574.483 572.049C938.829 319.22 809.864 1099.8 1348.29 1068.67" stroke="url(#paint35_linear_1593_1043)" stroke-width="10" stroke-miterlimit="10"/>
<path d="M167.143 1536.97C298.598 1276.51 369.599 730.201 578.294 585.383C942.64 332.554 813.675 1113.14 1352.1 1082" stroke="url(#paint36_linear_1593_1043)" stroke-width="10" stroke-miterlimit="10"/>
<path d="M172.857 1552.21C304.312 1291.75 375.314 745.443 584.009 600.626C948.354 347.796 819.39 1128.38 1357.81 1097.25" stroke="url(#paint37_linear_1593_1043)" stroke-width="10" stroke-miterlimit="10"/>
<path d="M176.668 1567.45C308.123 1306.99 379.124 760.688 587.819 615.864C952.165 363.04 823.2 1143.62 1361.63 1112.49" stroke="url(#paint38_linear_1593_1043)" stroke-width="10" stroke-miterlimit="10"/>
<path d="M182.383 1582.69C313.838 1322.23 384.839 775.924 593.54 631.106C957.88 378.277 828.921 1158.86 1367.34 1127.72" stroke="url(#paint39_linear_1593_1043)" stroke-width="10" stroke-miterlimit="10"/>
<defs>
<linearGradient id="paint0_linear_1593_1043" x1="597.69" y1="5.28711" x2="597.69" y2="1007.36" gradientUnits="userSpaceOnUse">
<stop stop-color="#7B2BE0"/>
<stop offset="1" stop-color="#78ACFF" stop-opacity="0.39"/>
</linearGradient>
<linearGradient id="paint1_linear_1593_1043" x1="601.5" y1="20.5273" x2="601.5" y2="1022.6" gradientUnits="userSpaceOnUse">
<stop stop-color="#7B2BE0"/>
<stop offset="1" stop-color="#78ACFF" stop-opacity="0.39"/>
</linearGradient>
<linearGradient id="paint2_linear_1593_1043" x1="605.311" y1="35.7676" x2="605.311" y2="1037.84" gradientUnits="userSpaceOnUse">
<stop stop-color="#7B2BE0"/>
<stop offset="1" stop-color="#78ACFF" stop-opacity="0.39"/>
</linearGradient>
<linearGradient id="paint3_linear_1593_1043" x1="611.026" y1="49.1035" x2="611.026" y2="1051.17" gradientUnits="userSpaceOnUse">
<stop stop-color="#7B2BE0"/>
<stop offset="1" stop-color="#78ACFF" stop-opacity="0.39"/>
</linearGradient>
<linearGradient id="paint4_linear_1593_1043" x1="614.834" y1="64.3437" x2="614.834" y2="1066.41" gradientUnits="userSpaceOnUse">
<stop stop-color="#7B2BE0"/>
<stop offset="1" stop-color="#78ACFF" stop-opacity="0.39"/>
</linearGradient>
<linearGradient id="paint5_linear_1593_1043" x1="619.597" y1="79.584" x2="619.597" y2="1081.65" gradientUnits="userSpaceOnUse">
<stop stop-color="#7B2BE0"/>
<stop offset="1" stop-color="#78ACFF" stop-opacity="0.39"/>
</linearGradient>
<linearGradient id="paint6_linear_1593_1043" x1="624.362" y1="92.9199" x2="624.362" y2="1094.99" gradientUnits="userSpaceOnUse">
<stop stop-color="#7B2BE0"/>
<stop offset="1" stop-color="#78ACFF" stop-opacity="0.39"/>
</linearGradient>
<linearGradient id="paint7_linear_1593_1043" x1="630.076" y1="108.16" x2="630.076" y2="1110.23" gradientUnits="userSpaceOnUse">
<stop stop-color="#7B2BE0"/>
<stop offset="1" stop-color="#78ACFF" stop-opacity="0.39"/>
</linearGradient>
<linearGradient id="paint8_linear_1593_1043" x1="633.885" y1="123.4" x2="633.885" y2="1125.47" gradientUnits="userSpaceOnUse">
<stop stop-color="#7B2BE0"/>
<stop offset="1" stop-color="#78ACFF" stop-opacity="0.39"/>
</linearGradient>
<linearGradient id="paint9_linear_1593_1043" x1="637.695" y1="138.641" x2="637.695" y2="1140.71" gradientUnits="userSpaceOnUse">
<stop stop-color="#7B2BE0"/>
<stop offset="1" stop-color="#78ACFF" stop-opacity="0.39"/>
</linearGradient>
<linearGradient id="paint10_linear_1593_1043" x1="641.506" y1="153.883" x2="641.506" y2="1155.95" gradientUnits="userSpaceOnUse">
<stop stop-color="#7B2BE0"/>
<stop offset="1" stop-color="#78ACFF" stop-opacity="0.39"/>
</linearGradient>
<linearGradient id="paint11_linear_1593_1043" x1="647.221" y1="167.217" x2="647.221" y2="1169.29" gradientUnits="userSpaceOnUse">
<stop stop-color="#7B2BE0"/>
<stop offset="1" stop-color="#78ACFF" stop-opacity="0.39"/>
</linearGradient>
<linearGradient id="paint12_linear_1593_1043" x1="651.031" y1="182.459" x2="651.031" y2="1184.53" gradientUnits="userSpaceOnUse">
<stop stop-color="#7B2BE0"/>
<stop offset="1" stop-color="#78ACFF" stop-opacity="0.39"/>
</linearGradient>
<linearGradient id="paint13_linear_1593_1043" x1="656.746" y1="197.699" x2="656.746" y2="1199.77" gradientUnits="userSpaceOnUse">
<stop stop-color="#7B2BE0"/>
<stop offset="1" stop-color="#78ACFF" stop-opacity="0.39"/>
</linearGradient>
<linearGradient id="paint14_linear_1593_1043" x1="660.557" y1="211.035" x2="660.557" y2="1213.11" gradientUnits="userSpaceOnUse">
<stop stop-color="#7B2BE0"/>
<stop offset="1" stop-color="#78ACFF" stop-opacity="0.39"/>
</linearGradient>
<linearGradient id="paint15_linear_1593_1043" x1="666.272" y1="226.275" x2="666.272" y2="1228.35" gradientUnits="userSpaceOnUse">
<stop stop-color="#7B2BE0"/>
<stop offset="1" stop-color="#78ACFF" stop-opacity="0.39"/>
</linearGradient>
<linearGradient id="paint16_linear_1593_1043" x1="670.082" y1="241.516" x2="670.082" y2="1243.59" gradientUnits="userSpaceOnUse">
<stop stop-color="#7B2BE0"/>
<stop offset="1" stop-color="#78ACFF" stop-opacity="0.39"/>
</linearGradient>
<linearGradient id="paint17_linear_1593_1043" x1="673.893" y1="256.756" x2="673.893" y2="1258.83" gradientUnits="userSpaceOnUse">
<stop stop-color="#7B2BE0"/>
<stop offset="1" stop-color="#78ACFF" stop-opacity="0.39"/>
</linearGradient>
<linearGradient id="paint18_linear_1593_1043" x1="677.703" y1="270.092" x2="677.703" y2="1272.16" gradientUnits="userSpaceOnUse">
<stop stop-color="#7B2BE0"/>
<stop offset="1" stop-color="#78ACFF" stop-opacity="0.39"/>
</linearGradient>
<linearGradient id="paint19_linear_1593_1043" x1="683.418" y1="285.332" x2="683.418" y2="1287.4" gradientUnits="userSpaceOnUse">
<stop stop-color="#7B2BE0"/>
<stop offset="1" stop-color="#78ACFF" stop-opacity="0.39"/>
</linearGradient>
<linearGradient id="paint20_linear_1593_1043" x1="687.229" y1="300.572" x2="687.229" y2="1302.64" gradientUnits="userSpaceOnUse">
<stop stop-color="#7B2BE0"/>
<stop offset="1" stop-color="#78ACFF" stop-opacity="0.39"/>
</linearGradient>
<linearGradient id="paint21_linear_1593_1043" x1="692.944" y1="315.814" x2="692.944" y2="1317.88" gradientUnits="userSpaceOnUse">
<stop stop-color="#7B2BE0"/>
<stop offset="1" stop-color="#78ACFF" stop-opacity="0.39"/>
</linearGradient>
<linearGradient id="paint22_linear_1593_1043" x1="696.754" y1="329.148" x2="696.754" y2="1331.22" gradientUnits="userSpaceOnUse">
<stop stop-color="#7B2BE0"/>
<stop offset="1" stop-color="#78ACFF" stop-opacity="0.39"/>
</linearGradient>
<linearGradient id="paint23_linear_1593_1043" x1="702.469" y1="344.389" x2="702.469" y2="1346.46" gradientUnits="userSpaceOnUse">
<stop stop-color="#7B2BE0"/>
<stop offset="1" stop-color="#78ACFF" stop-opacity="0.39"/>
</linearGradient>
<linearGradient id="paint24_linear_1593_1043" x1="706.279" y1="359.631" x2="706.279" y2="1361.7" gradientUnits="userSpaceOnUse">
<stop stop-color="#7B2BE0"/>
<stop offset="1" stop-color="#78ACFF" stop-opacity="0.39"/>
</linearGradient>
<linearGradient id="paint25_linear_1593_1043" x1="710.088" y1="372.967" x2="710.088" y2="1375.04" gradientUnits="userSpaceOnUse">
<stop stop-color="#7B2BE0"/>
<stop offset="1" stop-color="#78ACFF" stop-opacity="0.39"/>
</linearGradient>
<linearGradient id="paint26_linear_1593_1043" x1="713.899" y1="388.207" x2="713.899" y2="1390.28" gradientUnits="userSpaceOnUse">
<stop stop-color="#7B2BE0"/>
<stop offset="1" stop-color="#78ACFF" stop-opacity="0.39"/>
</linearGradient>
<linearGradient id="paint27_linear_1593_1043" x1="719.613" y1="403.447" x2="719.613" y2="1405.52" gradientUnits="userSpaceOnUse">
<stop stop-color="#7B2BE0"/>
<stop offset="1" stop-color="#78ACFF" stop-opacity="0.39"/>
</linearGradient>
<linearGradient id="paint28_linear_1593_1043" x1="723.424" y1="418.688" x2="723.424" y2="1420.76" gradientUnits="userSpaceOnUse">
<stop stop-color="#7B2BE0"/>
<stop offset="1" stop-color="#78ACFF" stop-opacity="0.39"/>
</linearGradient>
<linearGradient id="paint29_linear_1593_1043" x1="729.139" y1="433.928" x2="729.139" y2="1436" gradientUnits="userSpaceOnUse">
<stop stop-color="#7B2BE0"/>
<stop offset="1" stop-color="#78ACFF" stop-opacity="0.39"/>
</linearGradient>
<linearGradient id="paint30_linear_1593_1043" x1="732.949" y1="447.264" x2="732.949" y2="1449.33" gradientUnits="userSpaceOnUse">
<stop stop-color="#7B2BE0"/>
<stop offset="1" stop-color="#78ACFF" stop-opacity="0.39"/>
</linearGradient>
<linearGradient id="paint31_linear_1593_1043" x1="738.664" y1="462.504" x2="738.664" y2="1464.57" gradientUnits="userSpaceOnUse">
<stop stop-color="#7B2BE0"/>
<stop offset="1" stop-color="#78ACFF" stop-opacity="0.39"/>
</linearGradient>
<linearGradient id="paint32_linear_1593_1043" x1="742.475" y1="477.744" x2="742.475" y2="1479.81" gradientUnits="userSpaceOnUse">
<stop stop-color="#7B2BE0"/>
<stop offset="1" stop-color="#78ACFF" stop-opacity="0.39"/>
</linearGradient>
<linearGradient id="paint33_linear_1593_1043" x1="746.285" y1="491.08" x2="746.285" y2="1493.15" gradientUnits="userSpaceOnUse">
<stop stop-color="#7B2BE0"/>
<stop offset="1" stop-color="#78ACFF" stop-opacity="0.39"/>
</linearGradient>
<linearGradient id="paint34_linear_1593_1043" x1="750.096" y1="506.322" x2="750.096" y2="1508.39" gradientUnits="userSpaceOnUse">
<stop stop-color="#7B2BE0"/>
<stop offset="1" stop-color="#78ACFF" stop-opacity="0.39"/>
</linearGradient>
<linearGradient id="paint35_linear_1593_1043" x1="755.811" y1="521.562" x2="755.811" y2="1523.63" gradientUnits="userSpaceOnUse">
<stop stop-color="#7B2BE0"/>
<stop offset="1" stop-color="#78ACFF" stop-opacity="0.39"/>
</linearGradient>
<linearGradient id="paint36_linear_1593_1043" x1="759.621" y1="534.896" x2="759.621" y2="1536.97" gradientUnits="userSpaceOnUse">
<stop stop-color="#7B2BE0"/>
<stop offset="1" stop-color="#78ACFF" stop-opacity="0.39"/>
</linearGradient>
<linearGradient id="paint37_linear_1593_1043" x1="765.336" y1="550.139" x2="765.336" y2="1552.21" gradientUnits="userSpaceOnUse">
<stop stop-color="#7B2BE0"/>
<stop offset="1" stop-color="#78ACFF" stop-opacity="0.39"/>
</linearGradient>
<linearGradient id="paint38_linear_1593_1043" x1="769.147" y1="565.379" x2="769.147" y2="1567.45" gradientUnits="userSpaceOnUse">
<stop stop-color="#7B2BE0"/>
<stop offset="1" stop-color="#78ACFF" stop-opacity="0.39"/>
</linearGradient>
<linearGradient id="paint39_linear_1593_1043" x1="774.862" y1="580.619" x2="774.862" y2="1582.69" gradientUnits="userSpaceOnUse">
<stop stop-color="#7B2BE0"/>
<stop offset="1" stop-color="#78ACFF" stop-opacity="0.39"/>
</linearGradient>
</defs>
</svg>
