<svg width="1712" height="1291" viewBox="0 0 1712 1291" fill="none" xmlns="http://www.w3.org/2000/svg">
<path d="M1099.47 1218.62C1434.57 1218.62 1706.23 946.962 1706.23 611.854C1706.23 276.747 1434.57 5.08789 1099.47 5.08789C764.358 5.08789 492.699 276.747 492.699 611.854C492.699 946.962 764.358 1218.62 1099.47 1218.62Z" stroke="url(#paint0_linear_1593_1084)" stroke-width="10" stroke-miterlimit="10"/>
<path d="M1068.99 1222.43C1404.09 1222.43 1675.75 951.199 1675.75 616.617C1675.75 282.035 1404.09 10.8027 1068.99 10.8027C733.878 10.8027 462.219 282.035 462.219 616.617C462.219 951.199 733.878 1222.43 1068.99 1222.43Z" stroke="url(#paint1_linear_1593_1084)" stroke-width="10" stroke-miterlimit="10"/>
<path d="M1038.51 1226.24C1373.61 1226.24 1645.27 955.009 1645.27 620.427C1645.27 285.846 1373.61 14.6133 1038.51 14.6133C703.397 14.6133 431.738 285.846 431.738 620.427C431.738 955.009 703.397 1226.24 1038.51 1226.24Z" stroke="url(#paint2_linear_1593_1084)" stroke-width="10" stroke-miterlimit="10"/>
<path d="M1008.02 1231.96C1343.13 1231.96 1614.79 960.299 1614.79 625.191C1614.79 290.083 1343.13 18.4238 1008.02 18.4238C672.915 18.4238 401.256 290.083 401.256 625.191C401.256 960.299 672.915 1231.96 1008.02 1231.96Z" stroke="url(#paint3_linear_1593_1084)" stroke-width="10" stroke-miterlimit="10"/>
<path d="M977.54 1235.77C1312.65 1235.77 1584.31 964.107 1584.31 628.999C1584.31 293.891 1312.65 22.2324 977.54 22.2324C642.432 22.2324 370.773 293.891 370.773 628.999C370.773 964.107 642.432 1235.77 977.54 1235.77Z" stroke="url(#paint4_linear_1593_1084)" stroke-width="10" stroke-miterlimit="10"/>
<path d="M947.06 1239.58C1282.17 1239.58 1553.83 967.918 1553.83 632.81C1553.83 297.702 1282.17 26.043 947.06 26.043C611.952 26.043 340.293 297.702 340.293 632.81C340.293 967.918 611.952 1239.58 947.06 1239.58Z" stroke="url(#paint5_linear_1593_1084)" stroke-width="10" stroke-miterlimit="10"/>
<path d="M916.579 1243.39C1251.69 1243.39 1523.35 972.156 1523.35 637.574C1523.35 302.992 1251.69 31.7598 916.579 31.7598C581.471 31.7598 309.812 302.992 309.812 637.574C309.812 972.156 581.471 1243.39 916.579 1243.39Z" stroke="url(#paint6_linear_1593_1084)" stroke-width="10" stroke-miterlimit="10"/>
<path d="M886.099 1249.1C1221.21 1249.1 1492.87 977.443 1492.87 642.335C1492.87 307.227 1221.21 35.5684 886.099 35.5684C550.991 35.5684 279.332 307.227 279.332 642.335C279.332 977.443 550.991 1249.1 886.099 1249.1Z" stroke="url(#paint7_linear_1593_1084)" stroke-width="10" stroke-miterlimit="10"/>
<path d="M855.616 1251.01C1190.72 1251.01 1462.38 979.775 1462.38 645.193C1462.38 310.611 1190.72 39.3789 855.616 39.3789C520.508 39.3789 248.85 310.611 248.85 645.193C248.85 979.775 520.508 1251.01 855.616 1251.01Z" stroke="url(#paint8_linear_1593_1084)" stroke-width="10" stroke-miterlimit="10"/>
<path d="M825.134 1256.72C1160.24 1256.72 1431.9 985.064 1431.9 649.956C1431.9 314.848 1160.24 43.1895 825.134 43.1895C490.026 43.1895 218.367 314.848 218.367 649.956C218.367 985.064 490.026 1256.72 825.134 1256.72Z" stroke="url(#paint9_linear_1593_1084)" stroke-width="10" stroke-miterlimit="10"/>
<path d="M794.653 1260.53C1129.76 1260.53 1401.42 988.875 1401.42 653.767C1401.42 318.659 1129.76 47 794.653 47C459.545 47 187.887 318.659 187.887 653.767C187.887 988.875 459.545 1260.53 794.653 1260.53Z" stroke="url(#paint10_linear_1593_1084)" stroke-width="10" stroke-miterlimit="10"/>
<path d="M764.173 1264.34C1099.28 1264.34 1370.94 992.683 1370.94 657.575C1370.94 322.467 1099.28 50.8086 764.173 50.8086C429.065 50.8086 157.406 322.467 157.406 657.575C157.406 992.683 429.065 1264.34 764.173 1264.34Z" stroke="url(#paint11_linear_1593_1084)" stroke-width="10" stroke-miterlimit="10"/>
<path d="M733.693 1268.15C1068.8 1268.15 1340.46 996.921 1340.46 662.339C1340.46 327.758 1068.8 56.5254 733.693 56.5254C398.585 56.5254 126.926 327.758 126.926 662.339C126.926 996.921 398.585 1268.15 733.693 1268.15Z" stroke="url(#paint12_linear_1593_1084)" stroke-width="10" stroke-miterlimit="10"/>
<path d="M703.21 1273.87C1038.32 1273.87 1309.98 1002.21 1309.98 667.101C1309.98 331.993 1038.32 60.334 703.21 60.334C368.102 60.334 96.4434 331.993 96.4434 667.101C96.4434 1002.21 368.102 1273.87 703.21 1273.87Z" stroke="url(#paint13_linear_1593_1084)" stroke-width="10" stroke-miterlimit="10"/>
<path d="M672.73 1277.68C1007.84 1277.68 1279.5 1006.02 1279.5 670.911C1279.5 335.803 1007.84 64.1445 672.73 64.1445C337.622 64.1445 65.9629 335.803 65.9629 670.911C65.9629 1006.02 337.622 1277.68 672.73 1277.68Z" stroke="url(#paint14_linear_1593_1084)" stroke-width="10" stroke-miterlimit="10"/>
<path d="M642.247 1281.49C977.355 1281.49 1249.01 1009.83 1249.01 674.722C1249.01 339.614 977.355 67.9551 642.247 67.9551C307.139 67.9551 35.4805 339.614 35.4805 674.722C35.4805 1009.83 307.139 1281.49 642.247 1281.49Z" stroke="url(#paint15_linear_1593_1084)" stroke-width="10" stroke-miterlimit="10"/>
<path d="M611.767 1285.3C946.875 1285.3 1218.53 1013.64 1218.53 678.532C1218.53 343.424 946.875 71.7656 611.767 71.7656C276.659 71.7656 5 343.424 5 678.532C5 1013.64 276.659 1285.3 611.767 1285.3Z" stroke="url(#paint16_linear_1593_1084)" stroke-width="10" stroke-miterlimit="10"/>
<defs>
<linearGradient id="paint0_linear_1593_1084" x1="1099.47" y1="5.08789" x2="1099.47" y2="1218.62" gradientUnits="userSpaceOnUse">
<stop stop-color="#7B2BE0"/>
<stop offset="1" stop-color="#78ACFF" stop-opacity="0.39"/>
</linearGradient>
<linearGradient id="paint1_linear_1593_1084" x1="1068.99" y1="10.8027" x2="1068.99" y2="1222.43" gradientUnits="userSpaceOnUse">
<stop stop-color="#7B2BE0"/>
<stop offset="1" stop-color="#78ACFF" stop-opacity="0.39"/>
</linearGradient>
<linearGradient id="paint2_linear_1593_1084" x1="1038.51" y1="14.6133" x2="1038.51" y2="1226.24" gradientUnits="userSpaceOnUse">
<stop stop-color="#7B2BE0"/>
<stop offset="1" stop-color="#78ACFF" stop-opacity="0.39"/>
</linearGradient>
<linearGradient id="paint3_linear_1593_1084" x1="1008.02" y1="18.4238" x2="1008.02" y2="1231.96" gradientUnits="userSpaceOnUse">
<stop stop-color="#7B2BE0"/>
<stop offset="1" stop-color="#78ACFF" stop-opacity="0.39"/>
</linearGradient>
<linearGradient id="paint4_linear_1593_1084" x1="977.54" y1="22.2324" x2="977.54" y2="1235.77" gradientUnits="userSpaceOnUse">
<stop stop-color="#7B2BE0"/>
<stop offset="1" stop-color="#78ACFF" stop-opacity="0.39"/>
</linearGradient>
<linearGradient id="paint5_linear_1593_1084" x1="947.06" y1="26.043" x2="947.06" y2="1239.58" gradientUnits="userSpaceOnUse">
<stop stop-color="#7B2BE0"/>
<stop offset="1" stop-color="#78ACFF" stop-opacity="0.39"/>
</linearGradient>
<linearGradient id="paint6_linear_1593_1084" x1="916.579" y1="31.7598" x2="916.579" y2="1243.39" gradientUnits="userSpaceOnUse">
<stop stop-color="#7B2BE0"/>
<stop offset="1" stop-color="#78ACFF" stop-opacity="0.39"/>
</linearGradient>
<linearGradient id="paint7_linear_1593_1084" x1="886.099" y1="35.5684" x2="886.099" y2="1249.1" gradientUnits="userSpaceOnUse">
<stop stop-color="#7B2BE0"/>
<stop offset="1" stop-color="#78ACFF" stop-opacity="0.39"/>
</linearGradient>
<linearGradient id="paint8_linear_1593_1084" x1="855.616" y1="39.3789" x2="855.616" y2="1251.01" gradientUnits="userSpaceOnUse">
<stop stop-color="#7B2BE0"/>
<stop offset="1" stop-color="#78ACFF" stop-opacity="0.39"/>
</linearGradient>
<linearGradient id="paint9_linear_1593_1084" x1="825.134" y1="43.1895" x2="825.134" y2="1256.72" gradientUnits="userSpaceOnUse">
<stop stop-color="#7B2BE0"/>
<stop offset="1" stop-color="#78ACFF" stop-opacity="0.39"/>
</linearGradient>
<linearGradient id="paint10_linear_1593_1084" x1="794.653" y1="47" x2="794.653" y2="1260.53" gradientUnits="userSpaceOnUse">
<stop stop-color="#7B2BE0"/>
<stop offset="1" stop-color="#78ACFF" stop-opacity="0.39"/>
</linearGradient>
<linearGradient id="paint11_linear_1593_1084" x1="764.173" y1="50.8086" x2="764.173" y2="1264.34" gradientUnits="userSpaceOnUse">
<stop stop-color="#7B2BE0"/>
<stop offset="1" stop-color="#78ACFF" stop-opacity="0.39"/>
</linearGradient>
<linearGradient id="paint12_linear_1593_1084" x1="733.693" y1="56.5254" x2="733.693" y2="1268.15" gradientUnits="userSpaceOnUse">
<stop stop-color="#7B2BE0"/>
<stop offset="1" stop-color="#78ACFF" stop-opacity="0.39"/>
</linearGradient>
<linearGradient id="paint13_linear_1593_1084" x1="703.21" y1="60.334" x2="703.21" y2="1273.87" gradientUnits="userSpaceOnUse">
<stop stop-color="#7B2BE0"/>
<stop offset="1" stop-color="#78ACFF" stop-opacity="0.39"/>
</linearGradient>
<linearGradient id="paint14_linear_1593_1084" x1="672.73" y1="64.1445" x2="672.73" y2="1277.68" gradientUnits="userSpaceOnUse">
<stop stop-color="#7B2BE0"/>
<stop offset="1" stop-color="#78ACFF" stop-opacity="0.39"/>
</linearGradient>
<linearGradient id="paint15_linear_1593_1084" x1="642.247" y1="67.9551" x2="642.247" y2="1281.49" gradientUnits="userSpaceOnUse">
<stop stop-color="#7B2BE0"/>
<stop offset="1" stop-color="#78ACFF" stop-opacity="0.39"/>
</linearGradient>
<linearGradient id="paint16_linear_1593_1084" x1="611.767" y1="71.7656" x2="611.767" y2="1285.3" gradientUnits="userSpaceOnUse">
<stop stop-color="#7B2BE0"/>
<stop offset="1" stop-color="#78ACFF" stop-opacity="0.39"/>
</linearGradient>
</defs>
</svg>
