<svg width="1492" height="1718" viewBox="0 0 1492 1718" fill="none" xmlns="http://www.w3.org/2000/svg">
<path d="M316.277 0.173432C374.596 -1.8098 430.973 13.1715 482.355 47.4144C571.56 107.34 669.329 160.844 701.443 265C712.147 302.096 690.738 340.62 664.334 368.442C565.138 473.311 467.369 582.46 424.55 718.719C423.123 834.288 438.11 947.718 453.81 1064.71C458.805 1098.24 468.083 1128.92 488.064 1158.17C622.942 1354.35 869.148 1306.56 1072.54 1341.51C1150.32 1355.07 1223.83 1370.05 1294.04 1403.18C1346.93 1430.02 1395.99 1464.93 1440.06 1511.3C1472.17 1545.54 1498.58 1589.06 1490.02 1638.28C1484.31 1670.39 1452.91 1685.37 1423.65 1683.94C1224.54 1674.67 1098.9 1699.08 899.799 1717.63C877.676 1719.77 671.734 1699.04 650.325 1693.33C449.078 1637.68 351.759 1650.41 158.363 1565.52C101.272 1540.55 45.6076 1503.45 18.4893 1444.95C-12.9109 1377.18 -0.778989 1300.85 28.4803 1234.5C109.835 1049.02 218.308 874.952 241.145 668.068C263.981 466.177 270.404 267.853 305.123 69.5938C312.009 24.6357 316.277 0.173432 316.277 0.173432Z" fill="url(#paint0_linear_1593_984)"/>
<defs>
<linearGradient id="paint0_linear_1593_984" x1="947.156" y1="1718.08" x2="1535.16" y2="1102.08" gradientUnits="userSpaceOnUse">
<stop stop-color="#00238A"/>
<stop offset="1" stop-color="#E64CC4"/>
</linearGradient>
</defs>
</svg>
