<svg width="2511" height="2955" viewBox="0 0 2511 2955" fill="none" xmlns="http://www.w3.org/2000/svg">
<path d="M648.278 1719.93C759.391 1725.24 866.437 1713.11 979.192 1692.43C1150.47 1661.04 1308.18 1608.25 1478.03 1604.68C1577.22 1603.25 1677.85 1620.37 1769.19 1662.46C1847.69 1698.85 1951.88 1796.58 2023.96 1698.13C2131.72 1551.89 2051.79 1370.69 1991.85 1225.15C1960.45 1147.39 1921.2 1078.19 1868.39 1008.99C1822.36 947.643 1778.6 890.871 1730.24 840.498C1654.3 767.867 1579.36 685.827 1468.75 664.425C1344.58 640.17 1226.83 650.157 1104.79 641.596C1004.17 635.176 887.846 601.646 853.592 495.351C827.901 416.164 837.892 325.563 892.842 258.504C934.233 209.279 997.033 187.164 1059.83 196.438C1222.54 220.694 1378.12 229.968 1540.11 247.089C1762.77 271.345 1980.43 350.532 2132.05 517.609C2180.77 565.335 2229.93 612.026 2278.69 659.717C2327.44 707.407 2375.79 756.096 2422.89 807.817C2442.15 829.219 2469.99 849.908 2498.53 839.207C2512.8 834.213 2511.38 814.238 2507.86 800.634C2489.61 732.911 2462.67 670.846 2429.04 612.255C2395.42 553.664 2355.09 498.561 2310.13 444.7C2275.28 402.724 2239.03 362.747 2201.38 324.771C1925.48 22.3701 1486.59 13.8094 1106.22 0.254883C862.869 20.9433 797.928 294.887 780.8 498.204C773.664 585.952 767.955 671.559 757.964 759.307C751.541 814.951 752.969 874.163 788.651 919.82C916.392 1086.04 1140.48 1041.1 1323.17 1061.79C1431.64 1074.63 1538.69 1086.75 1637.88 1130.27C1711.39 1163.09 1772.76 1218.73 1850.55 1240.85C1871.96 1210.89 1838.41 1167.37 1822 1138.83C1789.17 1082.47 1742.79 1041.1 1700.13 994.548C1742.77 1017.92 1779.54 1049.3 1811.3 1085.41C1843.05 1121.53 1869.82 1162.37 1891.94 1205.18C1929.76 1277.94 1966.87 1362.12 1936.9 1443.45C1916.92 1496.24 1856.97 1489.11 1812.01 1477.69C1670.71 1441.31 1535.83 1417.06 1388.82 1447.02C1070.54 1512.65 780.8 1585.42 479.937 1666.71C445.311 1689.09 490.649 1709.33 648.278 1719.93Z" fill="#001F7C"/>
<path d="M1512.28 1821.18C1499.5 1803.26 1485.94 1784.71 1465.95 1773.3C1450.25 1764.03 1435.27 1777.58 1430.27 1791.85C1421.71 1820.38 1423.85 1852.49 1402.44 1876.03C1373.18 1906.71 1327.51 1898.86 1291.83 1886.02C1169.08 1841.79 1042.05 1814.68 911.457 1828.23C673.101 1852.49 444.194 1783.63 203.697 1828.57C13.1553 1863.53 248.714 2335.71 61.797 2347.78C41.0444 2349.27 15.3533 2348.55 3.93508 2367.1C-11.765 2392.78 23.2033 2412.76 43.9703 2425.52C76.7263 2444.86 109.554 2461.27 145.236 2474.11C353.619 2549.73 488.868 2141.38 589.491 2362.54C660.141 2518.06 441.882 2819.11 590.319 2923.26C667.392 2976.77 760.879 2954.65 837.238 2912.56C974.971 2837.66 1111.99 2777.73 1267.56 2754.9C1454.54 2727.08 1679.33 2685.7 1754.98 2493.8C1767.11 2462.41 1762.12 2427.45 1752.12 2394.64C1702.17 2233.41 1634.37 2084.31 1568.88 1931.7C1548.86 1887.43 1529.99 1850.73 1512.28 1821.18Z" fill="#00207E"/>
</svg>
