<svg width="1645" height="1297" viewBox="0 0 1645 1297" fill="none" xmlns="http://www.w3.org/2000/svg">
<path d="M551.367 1280.42C841.726 1206.12 1070.09 1003.52 1264.2 773.089C1440.47 564.777 1593.19 350.759 1643.86 76.1022C1649.57 44.7129 1632.44 3.33599 1595.33 0.482416C1551.8 -3.08456 1513.98 19.7441 1476.15 39.7191C1381.24 90.3701 1298.46 147.442 1204.97 205.94C1108.87 266.101 1010.22 317.864 909.072 359.056C858.865 379.565 807.614 397.425 755.533 412.56C610.507 453.466 451.365 473.442 306.496 417.083C219.432 382.841 128.8 434.918 92.4042 516.959C15.331 691.027 -48.1829 901.478 50.3422 1078.4C92.0473 1143.32 146.462 1199.17 209.627 1238.03C272.791 1276.89 344.697 1298.78 421.435 1295.81C464.953 1295.94 508.549 1290.24 551.367 1280.42Z" fill="url(#paint0_linear_1593_983)"/>
<defs>
<linearGradient id="paint0_linear_1593_983" x1="822.426" y1="161" x2="822.467" y2="1296.08" gradientUnits="userSpaceOnUse">
<stop stop-color="#EB853F"/>
<stop offset="1" stop-color="#290080"/>
</linearGradient>
</defs>
</svg>
