<svg width="1360" height="1522" viewBox="0 0 1360 1522" fill="none" xmlns="http://www.w3.org/2000/svg">
<path d="M70.7783 388.888C110.214 319.789 148.037 250.59 201.56 189.238C268.642 111.478 334.297 26.5839 437.061 0.901683C447.766 -1.95189 447.052 15.1696 443.484 24.4437C407.088 130.739 344.288 227.761 335.724 339.764C331.442 401.116 353.565 461.041 387.82 515.259C459.184 627.975 516.275 742.832 511.28 874.096C505.57 1013.92 477.738 1147.33 442.77 1285.73C432.066 1329.96 440.629 1387.03 488.443 1404.15C520.557 1414.85 553.384 1404.15 579.075 1383.46C662.571 1317.83 732.508 1251.48 808.867 1180.14C925.191 1070.99 1057.21 995.374 1199.23 931.881C1239.91 914.047 1283.44 900.492 1328.4 906.913C1346.24 909.766 1359.8 926.174 1359.8 944.009C1360.51 1006.07 1339.1 1066.71 1311.63 1121.47C1284.69 1175.86 1249.9 1227.23 1211.36 1276.45C1127.86 1384.17 1020.82 1459.79 891.65 1497.6C838.425 1512.96 783.357 1521 727.962 1521.5C673.276 1522.04 618.326 1515.44 562.662 1502.6C505.57 1487.97 442.77 1477.27 385.679 1456.58C328.588 1435.89 277.206 1405.28 241.331 1351.6C211.551 1314.97 205.842 1265.04 210.123 1218.67C212.978 1190.13 218.687 1163.02 220.828 1134.49C221.457 1125.99 223.135 1117.6 225.824 1109.52C264.36 977.539 264.36 847.701 283.628 712.156C287.197 683.62 297.188 656.511 300.756 628.689C302.897 611.567 275.065 610.141 260.792 614.421C240.81 619.415 223.683 627.975 205.842 640.103C155.173 675.06 111.641 729.991 51.6954 714.296C-27.5186 694.321 6.02253 588.739 18.4185 525.247C28.7091 489.677 45.0801 445.097 70.7783 388.888Z" fill="#001248"/>
</svg>
