<svg width="2047" height="2135" viewBox="0 0 2047 2135" fill="none" xmlns="http://www.w3.org/2000/svg">
<path d="M631.682 657.113C639.654 834.135 526.898 978.954 437.693 1128.77C379.889 1225.08 301.388 1340.65 355.625 1451.22C377.034 1494.02 419.852 1518.28 461.957 1535.4C601.117 1591.05 749.554 1612.45 897.278 1616.73C1054.99 1621.72 1211.28 1604.6 1368.99 1593.19C1555.97 1579.63 1743.65 1589.62 1923.49 1651.69C1962.03 1665.24 2019.12 1665.95 2039.1 1625.29C2065.51 1569.64 2014.12 1517.57 1969.16 1484.75C1806.46 1366.33 1615.91 1342.79 1427.51 1335.65C1238.4 1327.8 1047.86 1344.93 860.882 1289.28C818.064 1276.44 777.386 1257.18 748.127 1220.79C678.19 1133.76 719.581 1023.18 742.418 925.45C765.254 829.855 777.386 737.827 779.527 642.232C780.954 576.6 818.064 500.98 892.282 495.273C954.369 490.279 1017.88 499.553 1074.97 462.457C1171.32 399.678 1232.69 296.949 1239.11 185.659C1242.68 124.308 1215.56 60.1021 1159.18 28.7127C1102.09 -1.96324 1035.72 -6.24361 974.351 7.31088C896.207 23.719 826.27 51.363 760.173 86.8544C694.076 122.346 631.804 165.684 569.003 213.482C506.56 260.923 443.403 309.077 389.344 363.83C333.502 418.939 282.834 481.718 260.711 558.051C250.72 590.868 293.538 602.995 322.084 600.855C416.284 595.148 520.476 565.899 605.884 617.128C623.946 640.192 631.682 657.113 631.682 657.113Z" fill="url(#paint0_linear_1581_1295)"/>
<path d="M208.529 2027.17C266.42 2074.01 333.502 2111.82 409.148 2121.1C577.567 2140.36 742.418 2144.64 908.696 2099.7C1045 2062.6 1186.3 2027.64 1286.21 1920.64C1300.48 1904.23 1305.48 1882.11 1296.2 1862.14C1287.64 1845.73 1275.51 1831.46 1258.38 1823.61C1174.88 1785.09 1089.96 1758.69 1000.04 1734.44C823.059 1687.36 653.213 1655.97 481.225 1600.32C429.843 1583.2 382.743 1563.22 337.784 1529.7C205.76 1430.53 279.979 1263.6 328.506 1143.04C333.502 1130.91 338.497 1115.93 329.934 1103.8C327.793 1100.94 322.797 1099.52 319.229 1101.66C197.197 1173.71 130.114 1295.7 60.8914 1415.55C33.773 1462.64 15.9321 1509.72 5.94109 1563.94C-19.0363 1701.62 45.1913 1827.89 122.264 1933.54C150.018 1970.67 178.435 2001.63 208.529 2027.17Z" fill="#001D67"/>
<defs>
<linearGradient id="paint0_linear_1581_1295" x1="1152.77" y1="0" x2="1152.77" y2="1660.01" gradientUnits="userSpaceOnUse">
<stop stop-color="#00223D"/>
<stop offset="1" stop-color="#4500C8"/>
</linearGradient>
</defs>
</svg>
