<svg width="2829" height="1402" viewBox="0 0 2829 1402" fill="none" xmlns="http://www.w3.org/2000/svg">
<path d="M103.766 700.871C-25.473 933.027 -149.212 1465.58 584.983 1388.7C1319.18 1311.82 802.216 727.152 1192.69 894.596C1583.17 1062.04 1052.45 1208.4 1316.43 1353.42C1580.41 1498.44 2009.38 1196.98 1877.38 1048.53C1745.39 900.074 2179.86 617.332 2366.85 856.153C2553.84 1094.98 2827 1026.34 2827 1026.34" stroke="url(#paint0_linear_1593_1007)" stroke-width="10" stroke-miterlimit="10"/>
<path d="M103.766 679.916C-25.473 912.708 -149.212 1446.72 584.983 1369.63C1319.18 1292.54 802.216 706.269 1192.69 874.178C1583.17 1042.09 1052.45 1188.84 1316.43 1334.26C1580.41 1479.68 2009.38 1177.39 1877.38 1028.53C1745.39 879.671 2179.86 596.154 2366.85 835.63C2553.84 1075.11 2827 1006.28 2827 1006.28" stroke="url(#paint1_linear_1593_1007)" stroke-width="7" stroke-miterlimit="10"/>
<path d="M103.765 658.961C-25.4729 891.753 -149.211 1425.77 584.98 1348.68C1319.17 1271.59 802.219 685.344 1192.71 853.223C1583.19 1021.1 1052.46 1167.89 1316.44 1313.31C1580.43 1458.73 2009.41 1156.43 1877.39 1007.59C1745.37 858.746 2179.86 575.211 2366.85 814.687C2553.84 1054.16 2827 985.346 2827 985.346" stroke="url(#paint2_linear_1593_1007)" stroke-width="7" stroke-miterlimit="10"/>
<path d="M103.765 638.004C-25.4729 870.796 -149.211 1404.81 584.98 1327.72C1319.17 1250.63 802.213 664.356 1192.69 832.266C1583.16 1000.18 1052.44 1146.93 1316.43 1292.35C1580.41 1437.77 2009.37 1135.48 1877.38 986.617C1745.38 837.759 2179.86 554.254 2366.85 793.712C2553.84 1033.17 2827 964.365 2827 964.365" stroke="url(#paint3_linear_1593_1007)" stroke-width="7" stroke-miterlimit="10"/>
<path d="M103.766 618.953C-25.473 851.109 -149.212 1383.67 584.983 1306.79C1319.18 1229.91 802.216 645.234 1192.69 812.684C1583.17 980.135 1052.45 1126.49 1316.43 1271.51C1580.41 1416.53 2009.38 1115.07 1877.38 966.614C1745.39 818.162 2179.86 535.426 2366.85 774.242C2553.84 1013.06 2827 944.428 2827 944.428" stroke="url(#paint4_linear_1593_1007)" stroke-width="7" stroke-miterlimit="10"/>
<path d="M103.765 597.998C-25.4729 830.79 -149.211 1364.81 584.98 1287.72C1319.17 1210.63 802.219 624.369 1192.71 792.26C1583.19 960.151 1052.46 1106.93 1316.44 1252.34C1580.43 1397.76 2009.39 1095.47 1877.39 946.611C1745.4 797.753 2179.87 514.242 2366.86 753.712C2553.84 993.182 2827 924.371 2827 924.371" stroke="url(#paint5_linear_1593_1007)" stroke-width="7" stroke-miterlimit="10"/>
<path d="M103.766 577.041C-25.473 809.833 -149.212 1343.85 584.983 1266.76C1319.18 1189.67 802.216 603.394 1192.69 771.303C1583.17 939.212 1052.45 1085.97 1316.43 1231.39C1580.41 1376.81 2009.38 1074.51 1877.38 925.654C1745.39 776.796 2179.86 493.285 2366.85 732.755C2553.84 972.225 2827 903.408 2827 903.408" stroke="url(#paint6_linear_1593_1007)" stroke-width="7" stroke-miterlimit="10"/>
<path d="M103.766 556.086C-25.473 788.878 -149.212 1322.89 584.983 1245.8C1319.18 1168.71 802.216 582.438 1192.69 750.348C1583.17 918.257 1052.45 1065.01 1316.43 1210.43C1580.41 1355.85 2009.38 1053.56 1877.38 904.699C1745.39 755.841 2179.86 472.33 2366.85 711.8C2553.84 951.27 2827 882.453 2827 882.453" stroke="url(#paint7_linear_1593_1007)" stroke-width="7" stroke-miterlimit="10"/>
<path d="M103.765 537.035C-25.4729 769.191 -149.211 1301.75 584.98 1224.87C1319.17 1147.99 802.219 563.322 1192.71 730.766C1583.19 898.211 1052.46 1044.57 1316.44 1189.59C1580.43 1334.62 2009.39 1033.15 1877.39 884.696C1745.4 736.244 2179.87 453.508 2366.86 692.324C2553.84 931.139 2827 862.504 2827 862.504" stroke="url(#paint8_linear_1593_1007)" stroke-width="7" stroke-miterlimit="10"/>
<path d="M103.766 514.174C-25.473 747.602 -149.212 1283.08 584.983 1205.78C1319.18 1128.48 802.216 540.598 1192.69 708.967C1583.17 877.335 1052.45 1024.49 1316.43 1170.31C1580.41 1316.12 2009.38 1013 1877.38 863.74C1745.39 714.474 2179.86 430.189 2366.85 670.313C2553.84 910.437 2827 841.432 2827 841.432" stroke="url(#paint9_linear_1593_1007)" stroke-width="7" stroke-miterlimit="10"/>
<path d="M103.766 495.123C-25.473 727.279 -149.212 1259.84 584.983 1182.96C1319.18 1106.08 802.216 521.404 1192.69 688.854C1583.17 856.305 1052.45 1002.66 1316.43 1147.68C1580.41 1292.7 2009.38 991.229 1877.38 842.778C1745.39 694.326 2179.86 411.59 2366.85 650.405C2553.84 889.221 2827 820.592 2827 820.592" stroke="url(#paint10_linear_1593_1007)" stroke-width="7" stroke-miterlimit="10"/>
<path d="M103.765 474.168C-25.4728 706.96 -149.211 1240.98 584.979 1163.89C1319.17 1086.8 802.217 500.514 1192.7 668.43C1583.19 836.346 1052.46 983.096 1316.44 1128.51C1580.42 1273.93 2009.39 971.64 1877.39 822.775C1745.39 673.911 2179.86 390.406 2366.85 629.876C2553.84 869.346 2827 800.529 2827 800.529" stroke="url(#paint11_linear_1593_1007)" stroke-width="7" stroke-miterlimit="10"/>
<path d="M103.766 455.117C-25.473 687.273 -149.212 1219.83 584.983 1142.95C1319.18 1066.07 802.216 481.398 1192.69 648.848C1583.17 816.299 1052.45 962.655 1316.43 1107.68C1580.41 1252.7 2009.38 951.23 1877.38 802.772C1745.39 654.314 2179.86 371.584 2366.85 610.4C2553.84 849.215 2827 780.586 2827 780.586" stroke="url(#paint12_linear_1593_1007)" stroke-width="7" stroke-miterlimit="10"/>
<path d="M103.765 432.256C-25.4728 665.048 -149.211 1199.06 584.979 1121.97C1319.17 1044.88 802.217 458.608 1192.7 626.518C1583.19 794.427 1052.46 941.184 1316.44 1086.6C1580.42 1232.02 2009.39 929.728 1877.39 780.863C1745.39 631.999 2179.86 348.494 2366.85 587.964C2553.84 827.434 2827 758.616 2827 758.616" stroke="url(#paint13_linear_1593_1007)" stroke-width="7" stroke-miterlimit="10"/>
<path d="M103.765 413.205C-25.4728 645.361 -149.211 1177.92 584.979 1101.04C1319.17 1024.16 802.217 439.467 1192.7 606.936C1583.19 774.405 1052.46 920.743 1316.44 1065.76C1580.42 1210.78 2009.39 909.318 1877.39 760.86C1745.39 612.402 2179.86 329.672 2366.85 568.487C2553.84 807.303 2827 738.674 2827 738.674" stroke="url(#paint14_linear_1593_1007)" stroke-width="7" stroke-miterlimit="10"/>
<path d="M103.765 392.25C-25.4728 625.042 -149.211 1159.06 584.979 1081.97C1319.17 1004.88 802.217 418.603 1192.7 586.512C1583.19 754.421 1052.46 901.178 1316.44 1046.6C1580.42 1192.02 2009.39 889.722 1877.39 740.857C1745.39 591.993 2179.86 308.488 2366.85 547.958C2553.84 787.428 2827 718.611 2827 718.611" stroke="url(#paint15_linear_1593_1007)" stroke-width="7" stroke-miterlimit="10"/>
<path d="M103.765 371.293C-25.4728 604.085 -149.211 1138.1 584.979 1061.01C1319.17 983.92 802.217 397.645 1192.7 565.555C1583.19 733.464 1052.46 880.221 1316.44 1025.64C1580.42 1171.06 2009.39 868.765 1877.39 719.9C1745.39 571.036 2179.86 287.531 2366.85 527.001C2553.84 766.471 2827 697.654 2827 697.654" stroke="url(#paint16_linear_1593_1007)" stroke-width="7" stroke-miterlimit="10"/>
<path d="M103.765 350.338C-25.4728 583.13 -149.211 1117.15 584.979 1040.06C1319.17 962.965 802.217 376.69 1192.7 544.6C1583.19 712.509 1052.46 859.266 1316.44 1004.68C1580.42 1150.1 2009.39 847.81 1877.39 698.945C1745.39 550.081 2179.86 266.576 2366.85 506.046C2553.84 745.516 2827 676.699 2827 676.699" stroke="url(#paint17_linear_1593_1007)" stroke-width="7" stroke-miterlimit="10"/>
<path d="M103.765 331.287C-25.4728 563.443 -149.211 1096 584.979 1019.12C1319.17 942.241 802.217 357.568 1192.7 525.018C1583.19 692.469 1052.46 838.825 1316.44 983.846C1580.42 1128.87 2009.39 827.4 1877.39 678.942C1745.39 530.484 2179.86 247.754 2366.85 486.569C2553.84 725.385 2827 656.756 2827 656.756" stroke="url(#paint18_linear_1593_1007)" stroke-width="7" stroke-miterlimit="10"/>
<path d="M103.765 310.332C-25.4728 543.124 -149.211 1077.14 584.979 1000.05C1319.17 922.959 802.217 336.691 1192.7 504.594C1583.19 672.497 1052.46 819.26 1316.44 964.679C1580.42 1110.1 2009.39 807.804 1877.39 658.939C1745.39 510.075 2179.86 226.57 2366.85 466.04C2553.84 705.51 2827 636.699 2827 636.699" stroke="url(#paint19_linear_1593_1007)" stroke-width="7" stroke-miterlimit="10"/>
<path d="M103.765 289.375C-25.4728 522.167 -149.211 1056.18 584.979 979.092C1319.17 902.002 802.217 315.734 1192.7 483.637C1583.19 651.54 1052.46 798.303 1316.44 943.721C1580.42 1089.14 2009.39 786.847 1877.39 637.982C1745.39 489.118 2179.86 205.613 2366.85 445.083C2553.84 684.553 2827 615.742 2827 615.742" stroke="url(#paint20_linear_1593_1007)" stroke-width="7" stroke-miterlimit="10"/>
<path d="M103.765 268.42C-25.4728 501.212 -149.211 1035.23 584.979 958.137C1319.17 881.047 802.217 294.779 1192.7 462.682C1583.19 630.585 1052.46 777.348 1316.44 922.766C1580.42 1068.18 2009.39 765.892 1877.39 617.027C1745.39 468.163 2179.86 184.658 2366.85 424.128C2553.84 663.598 2827 594.787 2827 594.787" stroke="url(#paint21_linear_1593_1007)" stroke-width="7" stroke-miterlimit="10"/>
<path d="M103.765 249.369C-25.4729 481.525 -149.211 1014.08 584.98 937.202C1319.17 860.323 802.219 275.656 1192.71 443.1C1583.19 610.545 1052.46 756.907 1316.44 901.928C1580.43 1046.95 2009.39 745.482 1877.39 597.024C1745.4 448.566 2179.87 165.836 2366.86 404.651C2553.84 643.467 2827 574.862 2827 574.862" stroke="url(#paint22_linear_1593_1007)" stroke-width="7" stroke-miterlimit="10"/>
<path d="M103.765 228.412C-25.4728 461.204 -149.211 995.22 584.979 918.13C1319.17 841.039 802.217 254.746 1192.7 422.65C1583.19 590.553 1052.46 737.316 1316.44 882.734C1580.42 1028.15 2009.39 725.859 1877.39 576.995C1745.39 428.13 2179.86 144.625 2366.85 384.095C2553.84 623.565 2827 554.754 2827 554.754" stroke="url(#paint23_linear_1593_1007)" stroke-width="7" stroke-miterlimit="10"/>
<path d="M103.765 207.457C-25.4728 439.613 -149.211 972.17 584.979 895.29C1319.17 818.411 802.217 233.744 1192.7 401.188C1583.19 568.633 1052.46 714.995 1316.44 860.016C1580.42 1005.04 2009.39 703.57 1877.39 555.112C1745.39 406.654 2179.86 123.924 2366.85 362.739C2553.84 601.555 2827 532.932 2827 532.932" stroke="url(#paint24_linear_1593_1007)" stroke-width="7" stroke-miterlimit="10"/>
<path d="M103.765 186.502C-25.4728 419.294 -149.211 953.31 584.979 876.219C1319.17 799.129 802.217 212.861 1192.7 380.764C1583.19 548.667 1052.46 695.43 1316.44 840.848C1580.42 986.267 2009.39 683.974 1877.39 535.109C1745.39 386.245 2179.86 102.74 2366.85 342.21C2553.84 581.68 2827 512.869 2827 512.869" stroke="url(#paint25_linear_1593_1007)" stroke-width="7" stroke-miterlimit="10"/>
<path d="M103.765 165.545C-25.4728 398.337 -149.211 932.353 584.979 855.262C1319.17 778.172 802.217 191.891 1192.7 359.795C1583.19 527.698 1052.46 674.461 1316.44 819.879C1580.42 965.298 2009.39 663.005 1877.39 514.14C1745.39 365.275 2179.86 81.7704 2366.85 321.24C2553.84 560.711 2827 491.899 2827 491.899" stroke="url(#paint26_linear_1593_1007)" stroke-width="7" stroke-miterlimit="10"/>
<path d="M103.765 144.59C-25.4729 377.382 -149.211 911.397 584.98 834.307C1319.17 757.217 802.219 170.948 1192.71 338.852C1583.19 506.755 1052.46 653.518 1316.44 798.936C1580.43 944.355 2009.39 642.062 1877.39 493.197C1745.4 344.333 2179.87 60.8276 2366.86 300.298C2553.84 539.768 2827 470.975 2827 470.975" stroke="url(#paint27_linear_1593_1007)" stroke-width="7" stroke-miterlimit="10"/>
<path d="M103.765 125.539C-25.4729 357.695 -149.211 890.252 584.98 813.372C1319.17 736.493 802.219 151.826 1192.71 319.27C1583.19 486.715 1052.46 633.077 1316.44 778.098C1580.43 923.119 2009.39 621.652 1877.39 473.194C1745.4 324.736 2179.86 42.0239 2366.85 280.84C2553.84 519.655 2827 451.032 2827 451.032" stroke="url(#paint28_linear_1593_1007)" stroke-width="7" stroke-miterlimit="10"/>
<path d="M103.765 104.584C-25.4728 337.376 -149.211 871.392 584.979 794.301C1319.17 717.211 802.217 130.943 1192.7 298.846C1583.19 466.749 1052.46 613.512 1316.44 758.931C1580.42 904.349 2009.39 602.056 1877.39 453.191C1745.39 304.327 2179.86 20.8217 2366.85 260.292C2553.84 499.762 2827 430.951 2827 430.951" stroke="url(#paint29_linear_1593_1007)" stroke-width="7" stroke-miterlimit="10"/>
<path d="M103.765 83.627C-25.4729 316.419 -149.211 850.435 584.98 773.344C1319.17 696.254 802.219 109.986 1192.71 277.889C1583.19 445.792 1052.46 592.555 1316.44 737.974C1580.43 883.392 2009.39 581.099 1877.39 432.234C1745.4 283.37 2179.86 -0.116983 2366.85 239.353C2553.84 478.823 2827 410.012 2827 410.012" stroke="url(#paint30_linear_1593_1007)" stroke-width="7" stroke-miterlimit="10"/>
<path d="M103.765 62.6719C-25.4729 295.464 -149.211 829.479 584.98 752.389C1319.17 675.299 802.219 89.0305 1192.71 256.934C1583.19 424.837 1052.46 571.6 1316.44 717.018C1580.43 862.437 2009.41 560.162 1877.39 411.297C1745.37 262.433 2179.86 -21.0721 2366.85 218.398C2553.84 457.868 2827 389.057 2827 389.057" stroke="url(#paint31_linear_1593_1007)" stroke-width="7" stroke-miterlimit="10"/>
<path d="M103.765 43.6211C-25.4729 275.777 -149.211 808.334 584.98 731.454C1319.17 654.575 802.219 69.9199 1192.71 237.389C1583.19 404.858 1052.46 551.195 1316.44 696.216C1580.43 841.238 2009.41 539.764 1877.39 391.306C1745.37 242.848 2179.86 -39.8575 2366.85 198.934C2553.84 437.725 2827 369.127 2827 369.127" stroke="url(#paint32_linear_1593_1007)" stroke-width="7" stroke-miterlimit="10"/>
<path d="M103.765 22.6641C-25.4728 255.456 -149.211 789.472 584.979 712.382C1319.17 635.291 802.217 49.0227 1192.7 216.926C1583.19 384.829 1052.46 531.592 1316.44 677.011C1580.42 822.429 2009.39 520.136 1877.39 371.271C1745.39 222.407 2179.86 -61.0982 2366.85 178.372C2553.84 417.842 2827 349.031 2827 349.031" stroke="url(#paint33_linear_1593_1007)" stroke-width="7" stroke-miterlimit="10"/>
<path d="M103.765 1.70898C-25.4728 234.501 -149.211 768.517 584.979 691.426C1319.17 614.336 802.217 28.0676 1192.7 195.971C1583.19 363.874 1052.46 510.637 1316.44 656.056C1580.42 801.474 2009.39 499.181 1877.39 350.316C1745.39 201.452 2179.86 -82.0533 2366.85 157.417C2553.84 396.887 2827 328.076 2827 328.076" stroke="url(#paint34_linear_1593_1007)" stroke-width="7" stroke-miterlimit="10"/>
<defs>
<linearGradient id="paint0_linear_1593_1007" x1="1416.29" y1="700.871" x2="1416.29" y2="1396.22" gradientUnits="userSpaceOnUse">
<stop stop-color="#7B2BE0"/>
<stop offset="1" stop-color="#78ACFF" stop-opacity="0.39"/>
</linearGradient>
<linearGradient id="paint1_linear_1593_1007" x1="1416.29" y1="679.916" x2="1416.29" y2="1377.17" gradientUnits="userSpaceOnUse">
<stop stop-color="#7B2BE0"/>
<stop offset="1" stop-color="#78ACFF" stop-opacity="0.39"/>
</linearGradient>
<linearGradient id="paint2_linear_1593_1007" x1="1416.29" y1="658.961" x2="1416.29" y2="1356.22" gradientUnits="userSpaceOnUse">
<stop stop-color="#7B2BE0"/>
<stop offset="1" stop-color="#78ACFF" stop-opacity="0.39"/>
</linearGradient>
<linearGradient id="paint3_linear_1593_1007" x1="1416.29" y1="638.004" x2="1416.29" y2="1335.26" gradientUnits="userSpaceOnUse">
<stop stop-color="#7B2BE0"/>
<stop offset="1" stop-color="#78ACFF" stop-opacity="0.39"/>
</linearGradient>
<linearGradient id="paint4_linear_1593_1007" x1="1416.29" y1="618.953" x2="1416.29" y2="1314.31" gradientUnits="userSpaceOnUse">
<stop stop-color="#7B2BE0"/>
<stop offset="1" stop-color="#78ACFF" stop-opacity="0.39"/>
</linearGradient>
<linearGradient id="paint5_linear_1593_1007" x1="1416.29" y1="597.998" x2="1416.29" y2="1295.26" gradientUnits="userSpaceOnUse">
<stop stop-color="#7B2BE0"/>
<stop offset="1" stop-color="#78ACFF" stop-opacity="0.39"/>
</linearGradient>
<linearGradient id="paint6_linear_1593_1007" x1="1416.29" y1="577.041" x2="1416.29" y2="1274.3" gradientUnits="userSpaceOnUse">
<stop stop-color="#7B2BE0"/>
<stop offset="1" stop-color="#78ACFF" stop-opacity="0.39"/>
</linearGradient>
<linearGradient id="paint7_linear_1593_1007" x1="1416.29" y1="556.086" x2="1416.29" y2="1253.34" gradientUnits="userSpaceOnUse">
<stop stop-color="#7B2BE0"/>
<stop offset="1" stop-color="#78ACFF" stop-opacity="0.39"/>
</linearGradient>
<linearGradient id="paint8_linear_1593_1007" x1="1416.29" y1="537.035" x2="1416.29" y2="1232.39" gradientUnits="userSpaceOnUse">
<stop stop-color="#7B2BE0"/>
<stop offset="1" stop-color="#78ACFF" stop-opacity="0.39"/>
</linearGradient>
<linearGradient id="paint9_linear_1593_1007" x1="1416.29" y1="514.174" x2="1416.29" y2="1213.34" gradientUnits="userSpaceOnUse">
<stop stop-color="#7B2BE0"/>
<stop offset="1" stop-color="#78ACFF" stop-opacity="0.39"/>
</linearGradient>
<linearGradient id="paint10_linear_1593_1007" x1="1416.29" y1="495.123" x2="1416.29" y2="1190.48" gradientUnits="userSpaceOnUse">
<stop stop-color="#7B2BE0"/>
<stop offset="1" stop-color="#78ACFF" stop-opacity="0.39"/>
</linearGradient>
<linearGradient id="paint11_linear_1593_1007" x1="1416.29" y1="474.168" x2="1416.29" y2="1171.43" gradientUnits="userSpaceOnUse">
<stop stop-color="#7B2BE0"/>
<stop offset="1" stop-color="#78ACFF" stop-opacity="0.39"/>
</linearGradient>
<linearGradient id="paint12_linear_1593_1007" x1="1416.29" y1="455.117" x2="1416.29" y2="1150.47" gradientUnits="userSpaceOnUse">
<stop stop-color="#7B2BE0"/>
<stop offset="1" stop-color="#78ACFF" stop-opacity="0.39"/>
</linearGradient>
<linearGradient id="paint13_linear_1593_1007" x1="1416.29" y1="432.256" x2="1416.29" y2="1129.51" gradientUnits="userSpaceOnUse">
<stop stop-color="#7B2BE0"/>
<stop offset="1" stop-color="#78ACFF" stop-opacity="0.39"/>
</linearGradient>
<linearGradient id="paint14_linear_1593_1007" x1="1416.29" y1="413.205" x2="1416.29" y2="1108.56" gradientUnits="userSpaceOnUse">
<stop stop-color="#7B2BE0"/>
<stop offset="1" stop-color="#78ACFF" stop-opacity="0.39"/>
</linearGradient>
<linearGradient id="paint15_linear_1593_1007" x1="1416.29" y1="392.25" x2="1416.29" y2="1089.51" gradientUnits="userSpaceOnUse">
<stop stop-color="#7B2BE0"/>
<stop offset="1" stop-color="#78ACFF" stop-opacity="0.39"/>
</linearGradient>
<linearGradient id="paint16_linear_1593_1007" x1="1416.29" y1="371.293" x2="1416.29" y2="1068.55" gradientUnits="userSpaceOnUse">
<stop stop-color="#7B2BE0"/>
<stop offset="1" stop-color="#78ACFF" stop-opacity="0.39"/>
</linearGradient>
<linearGradient id="paint17_linear_1593_1007" x1="1416.29" y1="350.338" x2="1416.29" y2="1047.6" gradientUnits="userSpaceOnUse">
<stop stop-color="#7B2BE0"/>
<stop offset="1" stop-color="#78ACFF" stop-opacity="0.39"/>
</linearGradient>
<linearGradient id="paint18_linear_1593_1007" x1="1416.29" y1="331.287" x2="1416.29" y2="1026.64" gradientUnits="userSpaceOnUse">
<stop stop-color="#7B2BE0"/>
<stop offset="1" stop-color="#78ACFF" stop-opacity="0.39"/>
</linearGradient>
<linearGradient id="paint19_linear_1593_1007" x1="1416.29" y1="310.332" x2="1416.29" y2="1007.59" gradientUnits="userSpaceOnUse">
<stop stop-color="#7B2BE0"/>
<stop offset="1" stop-color="#78ACFF" stop-opacity="0.39"/>
</linearGradient>
<linearGradient id="paint20_linear_1593_1007" x1="1416.29" y1="289.375" x2="1416.29" y2="986.633" gradientUnits="userSpaceOnUse">
<stop stop-color="#7B2BE0"/>
<stop offset="1" stop-color="#78ACFF" stop-opacity="0.39"/>
</linearGradient>
<linearGradient id="paint21_linear_1593_1007" x1="1416.29" y1="268.42" x2="1416.29" y2="965.678" gradientUnits="userSpaceOnUse">
<stop stop-color="#7B2BE0"/>
<stop offset="1" stop-color="#78ACFF" stop-opacity="0.39"/>
</linearGradient>
<linearGradient id="paint22_linear_1593_1007" x1="1416.29" y1="249.369" x2="1416.29" y2="944.722" gradientUnits="userSpaceOnUse">
<stop stop-color="#7B2BE0"/>
<stop offset="1" stop-color="#78ACFF" stop-opacity="0.39"/>
</linearGradient>
<linearGradient id="paint23_linear_1593_1007" x1="1416.29" y1="228.412" x2="1416.29" y2="925.67" gradientUnits="userSpaceOnUse">
<stop stop-color="#7B2BE0"/>
<stop offset="1" stop-color="#78ACFF" stop-opacity="0.39"/>
</linearGradient>
<linearGradient id="paint24_linear_1593_1007" x1="1416.29" y1="207.457" x2="1416.29" y2="902.81" gradientUnits="userSpaceOnUse">
<stop stop-color="#7B2BE0"/>
<stop offset="1" stop-color="#78ACFF" stop-opacity="0.39"/>
</linearGradient>
<linearGradient id="paint25_linear_1593_1007" x1="1416.29" y1="186.502" x2="1416.29" y2="883.76" gradientUnits="userSpaceOnUse">
<stop stop-color="#7B2BE0"/>
<stop offset="1" stop-color="#78ACFF" stop-opacity="0.39"/>
</linearGradient>
<linearGradient id="paint26_linear_1593_1007" x1="1416.29" y1="165.545" x2="1416.29" y2="862.803" gradientUnits="userSpaceOnUse">
<stop stop-color="#7B2BE0"/>
<stop offset="1" stop-color="#78ACFF" stop-opacity="0.39"/>
</linearGradient>
<linearGradient id="paint27_linear_1593_1007" x1="1416.29" y1="144.59" x2="1416.29" y2="841.848" gradientUnits="userSpaceOnUse">
<stop stop-color="#7B2BE0"/>
<stop offset="1" stop-color="#78ACFF" stop-opacity="0.39"/>
</linearGradient>
<linearGradient id="paint28_linear_1593_1007" x1="1416.29" y1="125.539" x2="1416.29" y2="820.892" gradientUnits="userSpaceOnUse">
<stop stop-color="#7B2BE0"/>
<stop offset="1" stop-color="#78ACFF" stop-opacity="0.39"/>
</linearGradient>
<linearGradient id="paint29_linear_1593_1007" x1="1416.29" y1="104.584" x2="1416.29" y2="801.842" gradientUnits="userSpaceOnUse">
<stop stop-color="#7B2BE0"/>
<stop offset="1" stop-color="#78ACFF" stop-opacity="0.39"/>
</linearGradient>
<linearGradient id="paint30_linear_1593_1007" x1="1416.29" y1="83.627" x2="1416.29" y2="780.885" gradientUnits="userSpaceOnUse">
<stop stop-color="#7B2BE0"/>
<stop offset="1" stop-color="#78ACFF" stop-opacity="0.39"/>
</linearGradient>
<linearGradient id="paint31_linear_1593_1007" x1="1416.29" y1="62.6719" x2="1416.29" y2="759.93" gradientUnits="userSpaceOnUse">
<stop stop-color="#7B2BE0"/>
<stop offset="1" stop-color="#78ACFF" stop-opacity="0.39"/>
</linearGradient>
<linearGradient id="paint32_linear_1593_1007" x1="1416.29" y1="43.6211" x2="1416.29" y2="738.974" gradientUnits="userSpaceOnUse">
<stop stop-color="#7B2BE0"/>
<stop offset="1" stop-color="#78ACFF" stop-opacity="0.39"/>
</linearGradient>
<linearGradient id="paint33_linear_1593_1007" x1="1416.29" y1="22.6641" x2="1416.29" y2="719.922" gradientUnits="userSpaceOnUse">
<stop stop-color="#7B2BE0"/>
<stop offset="1" stop-color="#78ACFF" stop-opacity="0.39"/>
</linearGradient>
<linearGradient id="paint34_linear_1593_1007" x1="1416.29" y1="1.70898" x2="1416.29" y2="698.967" gradientUnits="userSpaceOnUse">
<stop stop-color="#7B2BE0"/>
<stop offset="1" stop-color="#78ACFF" stop-opacity="0.39"/>
</linearGradient>
</defs>
</svg>
