<svg width="1955" height="1562" viewBox="0 0 1955 1562" fill="none" xmlns="http://www.w3.org/2000/svg">
<path d="M0 1252.72C94.1434 1151.79 218.317 1065.47 358.904 1061.91C429.554 1060.48 503.059 1081.88 572.282 1054.77C651.496 1023.38 711.442 945.622 714.297 860.728C720.006 708.775 677.187 560.389 627.232 416.997C588.696 307.134 535.887 209.399 473.8 108.097C455.245 78.1346 433.122 43.1783 450.25 11.0756C461.668 -10.3263 493.068 3.94161 510.909 16.0693C576.564 61.0132 620.81 115.945 660.773 182.29C744.269 319.262 798.506 457.661 866.302 598.199C911.975 692.367 1007.6 737.311 1106.8 746.585C1176.02 753.006 1244.53 751.579 1313.04 743.817C1369.06 737.889 1424.9 729.392 1481.02 720.468C1537.13 711.543 1593.5 702.177 1650.59 694.508C1743.37 681.666 1851.12 678.813 1911.78 757.286C1981.72 847.887 1949.61 965.597 1923.2 1070.47C1888.23 1208.86 1829.72 1336.56 1724.81 1434.3C1651.31 1503.5 1559.25 1544.16 1459.34 1556.29C1395.82 1564.14 1334.45 1562 1270.22 1552.01C1122.5 1530.07 982.803 1507.33 838.798 1483.49C790.792 1475.54 742.307 1467.47 692.887 1459.27C526.609 1438.58 374.604 1370.09 221.885 1303.03C175.498 1283.06 127.684 1270.22 78.8215 1260.81C28.988 1254.13 0 1252.72 0 1252.72Z" fill="#032375"/>
</svg>
