<svg width="639" height="1205" viewBox="0 0 639 1205" fill="none" xmlns="http://www.w3.org/2000/svg">
<path d="M404.642 358.859C426.051 408.083 485.997 410.223 528.102 385.968L638.002 451.6C510.261 572.164 495.274 741.952 451.742 901.752C423.197 1005.19 378.237 1100.08 292.601 1169.99C235.509 1217.07 152.727 1216.36 99.9178 1165.71C47.8221 1116.48 39.9721 1045.14 27.8402 977.372C-4.98724 794.743 -2.13268 619.248 4.29008 440.186C9.28556 311.775 15.7083 163.389 117.045 69.2205C199.827 -7.82608 342.555 -31.3681 429.62 55.666C448.174 73.5009 438.183 100.61 428.906 121.298C394.651 194.778 371.101 281.099 404.642 358.859Z" fill="url(#paint0_linear_1593_991)"/>
<defs>
<linearGradient id="paint0_linear_1593_991" x1="46.5" y1="735.5" x2="651.522" y2="950.674" gradientUnits="userSpaceOnUse">
<stop stop-color="#162E77"/>
<stop offset="1" stop-color="#711FFF"/>
</linearGradient>
</defs>
</svg>
