<svg width="2382" height="2718" viewBox="0 0 2382 2718" fill="none" xmlns="http://www.w3.org/2000/svg">
<path d="M2023.65 1777.05C1663.47 1902.12 1100.29 2350.56 772.667 2296.83C200.684 2203.04 1031.21 1587.33 497.195 1127.11" stroke="url(#paint0_linear_1606_493)" stroke-width="10" stroke-miterlimit="10"/>
<path d="M2032.79 1759.11C1672.61 1884.17 1109.43 2332.62 781.802 2278.89C209.82 2185.09 1040.35 1569.36 506.353 1109.15" stroke="url(#paint1_linear_1606_493)" stroke-width="10" stroke-miterlimit="10"/>
<path d="M2041.93 1741.16C1681.75 1866.23 1118.56 2314.69 790.947 2260.94C218.964 2167.15 1049.5 1551.41 515.503 1091.2" stroke="url(#paint2_linear_1606_493)" stroke-width="10" stroke-miterlimit="10"/>
<path d="M2051.09 1723.24C1690.92 1848.3 1127.74 2296.74 800.109 2243.02C228.132 2149.22 1058.66 1533.48 524.665 1073.28" stroke="url(#paint3_linear_1606_493)" stroke-width="10" stroke-miterlimit="10"/>
<path d="M2060.22 1705.27C1700.04 1830.33 1136.86 2278.78 809.255 2225.07C237.272 2131.28 1067.8 1515.54 533.805 1055.33" stroke="url(#paint4_linear_1606_493)" stroke-width="10" stroke-miterlimit="10"/>
<path d="M2069.38 1687.3C1709.2 1812.37 1146.02 2260.81 818.392 2207.08C246.41 2113.29 1076.94 1497.55 542.943 1037.34" stroke="url(#paint5_linear_1606_493)" stroke-width="10" stroke-miterlimit="10"/>
<path d="M2078.5 1669.38C1718.32 1794.44 1155.14 2242.88 827.509 2189.16C255.527 2095.37 1086.06 1479.63 552.065 1019.42" stroke="url(#paint6_linear_1606_493)" stroke-width="10" stroke-miterlimit="10"/>
<path d="M2087.63 1651.44C1727.46 1776.5 1164.28 2224.94 836.647 2171.22C264.67 2077.42 1095.22 1461.66 561.202 1001.44" stroke="url(#paint7_linear_1606_493)" stroke-width="10" stroke-miterlimit="10"/>
<path d="M2096.78 1633.49C1736.6 1758.55 1173.42 2207 845.791 2153.27C273.808 2059.47 1104.34 1443.74 570.341 983.527" stroke="url(#paint8_linear_1606_493)" stroke-width="10" stroke-miterlimit="10"/>
<path d="M2105.92 1615.54C1745.74 1740.61 1182.56 2189.05 854.931 2135.33C282.949 2041.53 1113.48 1425.79 579.481 965.585" stroke="url(#paint9_linear_1606_493)" stroke-width="10" stroke-miterlimit="10"/>
<path d="M2115.06 1597.6C1754.89 1722.65 1191.7 2171.1 864.07 2117.38C292.093 2023.58 1122.62 1407.85 588.626 947.636" stroke="url(#paint10_linear_1606_493)" stroke-width="10" stroke-miterlimit="10"/>
<path d="M2124.2 1579.65C1764.02 1704.72 1200.85 2153.17 873.21 2099.44C301.233 2005.64 1131.77 1389.9 597.766 929.691" stroke="url(#paint11_linear_1606_493)" stroke-width="10" stroke-miterlimit="10"/>
<path d="M2133.34 1561.71C1773.17 1686.77 1209.98 2135.22 882.357 2081.49C310.375 1987.69 1140.91 1371.96 606.907 911.747" stroke="url(#paint12_linear_1606_493)" stroke-width="10" stroke-miterlimit="10"/>
<path d="M2142.47 1543.77C1782.29 1668.84 1219.11 2117.28 891.482 2063.56C319.499 1969.76 1150.03 1354.02 616.032 893.814" stroke="url(#paint13_linear_1606_493)" stroke-width="10" stroke-miterlimit="10"/>
<path d="M2151.62 1525.82C1791.44 1650.88 1228.27 2099.32 900.637 2045.6C328.66 1951.8 1159.19 1336.07 625.192 875.853" stroke="url(#paint14_linear_1606_493)" stroke-width="10" stroke-miterlimit="10"/>
<path d="M2160.74 1507.85C1800.56 1632.92 1237.38 2081.36 909.75 2027.64C337.773 1933.83 1168.3 1318.1 634.305 857.888" stroke="url(#paint15_linear_1606_493)" stroke-width="10" stroke-miterlimit="10"/>
<path d="M2169.91 1489.92C1809.73 1614.99 1246.55 2063.43 918.92 2009.71C346.937 1915.91 1177.47 1300.17 643.47 839.966" stroke="url(#paint16_linear_1606_493)" stroke-width="10" stroke-miterlimit="10"/>
<path d="M2179.05 1471.98C1818.87 1597.04 1255.68 2045.5 928.06 1991.76C356.078 1897.97 1186.61 1282.23 652.61 822.021" stroke="url(#paint17_linear_1606_493)" stroke-width="10" stroke-miterlimit="10"/>
<path d="M2188.18 1454.04C1828 1579.1 1264.83 2027.54 937.195 1973.82C365.218 1880.02 1195.74 1264.29 661.751 804.072" stroke="url(#paint18_linear_1606_493)" stroke-width="10" stroke-miterlimit="10"/>
<path d="M2197.33 1436.09C1837.15 1561.16 1273.97 2009.6 946.339 1955.88C374.363 1862.07 1204.89 1246.34 670.895 786.129" stroke="url(#paint19_linear_1606_493)" stroke-width="10" stroke-miterlimit="10"/>
<path d="M2206.5 1418.12C1846.33 1543.18 1283.14 1991.63 955.517 1937.9C383.535 1844.11 1214.07 1228.37 680.068 768.161" stroke="url(#paint20_linear_1606_493)" stroke-width="10" stroke-miterlimit="10"/>
<path d="M2215.6 1400.2C1855.43 1525.26 1292.25 1973.71 964.619 1919.98C392.636 1826.18 1223.17 1210.45 689.169 750.24" stroke="url(#paint21_linear_1606_493)" stroke-width="10" stroke-miterlimit="10"/>
<path d="M2224.75 1382.25C1864.57 1507.32 1301.39 1955.76 973.76 1902.04C401.783 1808.23 1232.36 1192.5 698.338 732.267" stroke="url(#paint22_linear_1606_493)" stroke-width="10" stroke-miterlimit="10"/>
<path d="M2233.89 1364.3C1873.72 1489.37 1310.53 1937.81 982.902 1884.09C410.925 1790.29 1241.46 1174.55 707.458 714.346" stroke="url(#paint23_linear_1606_493)" stroke-width="10" stroke-miterlimit="10"/>
<path d="M2243.03 1346.36C1882.86 1471.44 1319.7 1919.84 992.044 1866.14C420.062 1772.35 1250.59 1156.61 716.595 696.404" stroke="url(#paint24_linear_1606_493)" stroke-width="10" stroke-miterlimit="10"/>
<path d="M2252.17 1328.41C1891.99 1453.48 1328.81 1901.92 1001.19 1848.2C429.203 1754.4 1259.73 1138.66 725.735 678.456" stroke="url(#paint25_linear_1606_493)" stroke-width="10" stroke-miterlimit="10"/>
<path d="M2261.31 1310.47C1901.13 1435.54 1337.95 1883.98 1010.33 1830.25C438.351 1736.45 1268.88 1120.72 734.884 660.505" stroke="url(#paint26_linear_1606_493)" stroke-width="10" stroke-miterlimit="10"/>
<path d="M2270.46 1292.52C1910.28 1417.59 1347.1 1866.03 1019.46 1812.31C447.487 1718.51 1278.02 1102.77 744.02 642.566" stroke="url(#paint27_linear_1606_493)" stroke-width="10" stroke-miterlimit="10"/>
<path d="M2279.59 1274.58C1919.41 1399.65 1356.23 1848.09 1028.6 1794.37C456.617 1700.57 1287.15 1084.83 753.15 624.626" stroke="url(#paint28_linear_1606_493)" stroke-width="10" stroke-miterlimit="10"/>
<path d="M2288.73 1256.64C1928.56 1381.7 1365.37 1830.15 1037.75 1776.42C465.765 1682.62 1296.3 1066.89 762.292 606.674" stroke="url(#paint29_linear_1606_493)" stroke-width="10" stroke-miterlimit="10"/>
<path d="M2297.87 1238.69C1937.69 1363.75 1374.52 1812.19 1046.89 1758.47C474.91 1664.67 1305.43 1048.95 771.426 588.732" stroke="url(#paint30_linear_1606_493)" stroke-width="10" stroke-miterlimit="10"/>
<path d="M2307.02 1220.74C1946.84 1345.81 1383.66 1794.25 1056.03 1740.52C484.05 1646.73 1314.58 1030.99 780.577 570.777" stroke="url(#paint31_linear_1606_493)" stroke-width="10" stroke-miterlimit="10"/>
<path d="M2316.15 1202.79C1955.98 1327.86 1392.79 1776.31 1065.17 1722.58C493.189 1628.78 1323.72 1013.05 789.716 552.834" stroke="url(#paint32_linear_1606_493)" stroke-width="10" stroke-miterlimit="10"/>
<path d="M2325.29 1184.85C1965.1 1309.94 1401.96 1758.38 1074.31 1704.64C502.329 1610.84 1332.86 995.104 798.857 534.89" stroke="url(#paint33_linear_1606_493)" stroke-width="10" stroke-miterlimit="10"/>
<path d="M2334.43 1166.9C1974.26 1291.97 1411.08 1740.41 1083.45 1686.69C511.474 1592.89 1342 977.159 808.001 516.939" stroke="url(#paint34_linear_1606_493)" stroke-width="10" stroke-miterlimit="10"/>
<path d="M2343.57 1148.96C1983.4 1274.03 1420.22 1722.47 1092.59 1668.74C520.611 1574.95 1351.14 959.211 817.138 498.997" stroke="url(#paint35_linear_1606_493)" stroke-width="10" stroke-miterlimit="10"/>
<path d="M2352.71 1131.01C1992.54 1256.08 1429.36 1704.53 1101.73 1650.8C529.751 1557 1360.28 941.266 826.278 481.052" stroke="url(#paint36_linear_1606_493)" stroke-width="10" stroke-miterlimit="10"/>
<path d="M2361.85 1113.06C2001.67 1238.13 1438.49 1686.57 1110.87 1632.85C538.884 1539.05 1369.42 923.315 835.417 463.095" stroke="url(#paint37_linear_1606_493)" stroke-width="10" stroke-miterlimit="10"/>
<path d="M2370.99 1095.12C2010.82 1220.19 1447.65 1668.63 1120.01 1614.91C548.036 1521.11 1378.56 905.379 844.563 445.16" stroke="url(#paint38_linear_1606_493)" stroke-width="10" stroke-miterlimit="10"/>
<path d="M2380.14 1077.17C2019.96 1202.24 1456.78 1650.69 1129.15 1596.96C557.173 1503.16 1387.7 887.423 853.7 427.214" stroke="url(#paint39_linear_1606_493)" stroke-width="10" stroke-miterlimit="10"/>
<defs>
<linearGradient id="paint0_linear_1606_493" x1="556.478" y1="2179.41" x2="1467.17" y2="1238.46" gradientUnits="userSpaceOnUse">
<stop stop-color="#FFCDAC"/>
<stop offset="1" stop-color="#CA86FF" stop-opacity="0.37"/>
</linearGradient>
<linearGradient id="paint1_linear_1606_493" x1="565.615" y1="2161.47" x2="1476.31" y2="1220.52" gradientUnits="userSpaceOnUse">
<stop stop-color="#FFCDAC"/>
<stop offset="1" stop-color="#CA86FF" stop-opacity="0.37"/>
</linearGradient>
<linearGradient id="paint2_linear_1606_493" x1="574.76" y1="2143.52" x2="1485.45" y2="1202.57" gradientUnits="userSpaceOnUse">
<stop stop-color="#FFCDAC"/>
<stop offset="1" stop-color="#CA86FF" stop-opacity="0.37"/>
</linearGradient>
<linearGradient id="paint3_linear_1606_493" x1="583.924" y1="2125.6" x2="1494.62" y2="1184.65" gradientUnits="userSpaceOnUse">
<stop stop-color="#FFCDAC"/>
<stop offset="1" stop-color="#CA86FF" stop-opacity="0.37"/>
</linearGradient>
<linearGradient id="paint4_linear_1606_493" x1="593.056" y1="2107.64" x2="1503.75" y2="1166.69" gradientUnits="userSpaceOnUse">
<stop stop-color="#FFCDAC"/>
<stop offset="1" stop-color="#CA86FF" stop-opacity="0.37"/>
</linearGradient>
<linearGradient id="paint5_linear_1606_493" x1="602.205" y1="2089.66" x2="1512.9" y2="1148.72" gradientUnits="userSpaceOnUse">
<stop stop-color="#FFCDAC"/>
<stop offset="1" stop-color="#CA86FF" stop-opacity="0.37"/>
</linearGradient>
<linearGradient id="paint6_linear_1606_493" x1="611.322" y1="2071.74" x2="1522.02" y2="1130.79" gradientUnits="userSpaceOnUse">
<stop stop-color="#FFCDAC"/>
<stop offset="1" stop-color="#CA86FF" stop-opacity="0.37"/>
</linearGradient>
<linearGradient id="paint7_linear_1606_493" x1="620.454" y1="2053.79" x2="1531.15" y2="1112.84" gradientUnits="userSpaceOnUse">
<stop stop-color="#FFCDAC"/>
<stop offset="1" stop-color="#CA86FF" stop-opacity="0.37"/>
</linearGradient>
<linearGradient id="paint8_linear_1606_493" x1="629.603" y1="2035.85" x2="1540.3" y2="1094.9" gradientUnits="userSpaceOnUse">
<stop stop-color="#FFCDAC"/>
<stop offset="1" stop-color="#CA86FF" stop-opacity="0.37"/>
</linearGradient>
<linearGradient id="paint9_linear_1606_493" x1="638.744" y1="2017.91" x2="1549.44" y2="1076.96" gradientUnits="userSpaceOnUse">
<stop stop-color="#FFCDAC"/>
<stop offset="1" stop-color="#CA86FF" stop-opacity="0.37"/>
</linearGradient>
<linearGradient id="paint10_linear_1606_493" x1="647.885" y1="1999.96" x2="1558.58" y2="1059.01" gradientUnits="userSpaceOnUse">
<stop stop-color="#FFCDAC"/>
<stop offset="1" stop-color="#CA86FF" stop-opacity="0.37"/>
</linearGradient>
<linearGradient id="paint11_linear_1606_493" x1="657.025" y1="1982.02" x2="1567.72" y2="1041.06" gradientUnits="userSpaceOnUse">
<stop stop-color="#FFCDAC"/>
<stop offset="1" stop-color="#CA86FF" stop-opacity="0.37"/>
</linearGradient>
<linearGradient id="paint12_linear_1606_493" x1="666.17" y1="1964.07" x2="1576.86" y2="1023.12" gradientUnits="userSpaceOnUse">
<stop stop-color="#FFCDAC"/>
<stop offset="1" stop-color="#CA86FF" stop-opacity="0.37"/>
</linearGradient>
<linearGradient id="paint13_linear_1606_493" x1="675.295" y1="1946.13" x2="1585.99" y2="1005.19" gradientUnits="userSpaceOnUse">
<stop stop-color="#FFCDAC"/>
<stop offset="1" stop-color="#CA86FF" stop-opacity="0.37"/>
</linearGradient>
<linearGradient id="paint14_linear_1606_493" x1="684.451" y1="1928.18" x2="1595.14" y2="987.231" gradientUnits="userSpaceOnUse">
<stop stop-color="#FFCDAC"/>
<stop offset="1" stop-color="#CA86FF" stop-opacity="0.37"/>
</linearGradient>
<linearGradient id="paint15_linear_1606_493" x1="693.564" y1="1910.21" x2="1604.26" y2="969.26" gradientUnits="userSpaceOnUse">
<stop stop-color="#FFCDAC"/>
<stop offset="1" stop-color="#CA86FF" stop-opacity="0.37"/>
</linearGradient>
<linearGradient id="paint16_linear_1606_493" x1="702.732" y1="1892.29" x2="1613.43" y2="951.338" gradientUnits="userSpaceOnUse">
<stop stop-color="#FFCDAC"/>
<stop offset="1" stop-color="#CA86FF" stop-opacity="0.37"/>
</linearGradient>
<linearGradient id="paint17_linear_1606_493" x1="711.873" y1="1874.34" x2="1622.57" y2="933.393" gradientUnits="userSpaceOnUse">
<stop stop-color="#FFCDAC"/>
<stop offset="1" stop-color="#CA86FF" stop-opacity="0.37"/>
</linearGradient>
<linearGradient id="paint18_linear_1606_493" x1="721.01" y1="1856.4" x2="1631.7" y2="915.449" gradientUnits="userSpaceOnUse">
<stop stop-color="#FFCDAC"/>
<stop offset="1" stop-color="#CA86FF" stop-opacity="0.37"/>
</linearGradient>
<linearGradient id="paint19_linear_1606_493" x1="730.154" y1="1838.45" x2="1640.85" y2="897.501" gradientUnits="userSpaceOnUse">
<stop stop-color="#FFCDAC"/>
<stop offset="1" stop-color="#CA86FF" stop-opacity="0.37"/>
</linearGradient>
<linearGradient id="paint20_linear_1606_493" x1="739.33" y1="1820.48" x2="1650.02" y2="879.533" gradientUnits="userSpaceOnUse">
<stop stop-color="#FFCDAC"/>
<stop offset="1" stop-color="#CA86FF" stop-opacity="0.37"/>
</linearGradient>
<linearGradient id="paint21_linear_1606_493" x1="748.431" y1="1802.56" x2="1659.13" y2="861.612" gradientUnits="userSpaceOnUse">
<stop stop-color="#FFCDAC"/>
<stop offset="1" stop-color="#CA86FF" stop-opacity="0.37"/>
</linearGradient>
<linearGradient id="paint22_linear_1606_493" x1="757.576" y1="1784.61" x2="1668.27" y2="843.668" gradientUnits="userSpaceOnUse">
<stop stop-color="#FFCDAC"/>
<stop offset="1" stop-color="#CA86FF" stop-opacity="0.37"/>
</linearGradient>
<linearGradient id="paint23_linear_1606_493" x1="766.717" y1="1766.67" x2="1677.41" y2="825.717" gradientUnits="userSpaceOnUse">
<stop stop-color="#FFCDAC"/>
<stop offset="1" stop-color="#CA86FF" stop-opacity="0.37"/>
</linearGradient>
<linearGradient id="paint24_linear_1606_493" x1="775.857" y1="1748.72" x2="1686.55" y2="807.776" gradientUnits="userSpaceOnUse">
<stop stop-color="#FFCDAC"/>
<stop offset="1" stop-color="#CA86FF" stop-opacity="0.37"/>
</linearGradient>
<linearGradient id="paint25_linear_1606_493" x1="784.998" y1="1730.78" x2="1695.69" y2="789.829" gradientUnits="userSpaceOnUse">
<stop stop-color="#FFCDAC"/>
<stop offset="1" stop-color="#CA86FF" stop-opacity="0.37"/>
</linearGradient>
<linearGradient id="paint26_linear_1606_493" x1="794.142" y1="1712.83" x2="1704.83" y2="771.889" gradientUnits="userSpaceOnUse">
<stop stop-color="#FFCDAC"/>
<stop offset="1" stop-color="#CA86FF" stop-opacity="0.37"/>
</linearGradient>
<linearGradient id="paint27_linear_1606_493" x1="803.279" y1="1694.89" x2="1713.98" y2="753.938" gradientUnits="userSpaceOnUse">
<stop stop-color="#FFCDAC"/>
<stop offset="1" stop-color="#CA86FF" stop-opacity="0.37"/>
</linearGradient>
<linearGradient id="paint28_linear_1606_493" x1="812.412" y1="1676.95" x2="1723.11" y2="735.998" gradientUnits="userSpaceOnUse">
<stop stop-color="#FFCDAC"/>
<stop offset="1" stop-color="#CA86FF" stop-opacity="0.37"/>
</linearGradient>
<linearGradient id="paint29_linear_1606_493" x1="821.558" y1="1659" x2="1732.25" y2="718.048" gradientUnits="userSpaceOnUse">
<stop stop-color="#FFCDAC"/>
<stop offset="1" stop-color="#CA86FF" stop-opacity="0.37"/>
</linearGradient>
<linearGradient id="paint30_linear_1606_493" x1="830.698" y1="1641.05" x2="1741.39" y2="700.101" gradientUnits="userSpaceOnUse">
<stop stop-color="#FFCDAC"/>
<stop offset="1" stop-color="#CA86FF" stop-opacity="0.37"/>
</linearGradient>
<linearGradient id="paint31_linear_1606_493" x1="839.843" y1="1623.1" x2="1750.54" y2="682.152" gradientUnits="userSpaceOnUse">
<stop stop-color="#FFCDAC"/>
<stop offset="1" stop-color="#CA86FF" stop-opacity="0.37"/>
</linearGradient>
<linearGradient id="paint32_linear_1606_493" x1="848.978" y1="1605.15" x2="1759.67" y2="664.205" gradientUnits="userSpaceOnUse">
<stop stop-color="#FFCDAC"/>
<stop offset="1" stop-color="#CA86FF" stop-opacity="0.37"/>
</linearGradient>
<linearGradient id="paint33_linear_1606_493" x1="858.119" y1="1587.21" x2="1768.81" y2="646.262" gradientUnits="userSpaceOnUse">
<stop stop-color="#FFCDAC"/>
<stop offset="1" stop-color="#CA86FF" stop-opacity="0.37"/>
</linearGradient>
<linearGradient id="paint34_linear_1606_493" x1="867.26" y1="1569.26" x2="1777.95" y2="628.317" gradientUnits="userSpaceOnUse">
<stop stop-color="#FFCDAC"/>
<stop offset="1" stop-color="#CA86FF" stop-opacity="0.37"/>
</linearGradient>
<linearGradient id="paint35_linear_1606_493" x1="876.4" y1="1551.32" x2="1787.09" y2="610.369" gradientUnits="userSpaceOnUse">
<stop stop-color="#FFCDAC"/>
<stop offset="1" stop-color="#CA86FF" stop-opacity="0.37"/>
</linearGradient>
<linearGradient id="paint36_linear_1606_493" x1="885.541" y1="1533.37" x2="1796.24" y2="592.424" gradientUnits="userSpaceOnUse">
<stop stop-color="#FFCDAC"/>
<stop offset="1" stop-color="#CA86FF" stop-opacity="0.37"/>
</linearGradient>
<linearGradient id="paint37_linear_1606_493" x1="894.674" y1="1515.42" x2="1805.37" y2="574.473" gradientUnits="userSpaceOnUse">
<stop stop-color="#FFCDAC"/>
<stop offset="1" stop-color="#CA86FF" stop-opacity="0.37"/>
</linearGradient>
<linearGradient id="paint38_linear_1606_493" x1="903.822" y1="1497.48" x2="1814.51" y2="556.537" gradientUnits="userSpaceOnUse">
<stop stop-color="#FFCDAC"/>
<stop offset="1" stop-color="#CA86FF" stop-opacity="0.37"/>
</linearGradient>
<linearGradient id="paint39_linear_1606_493" x1="912.963" y1="1479.53" x2="1823.66" y2="538.586" gradientUnits="userSpaceOnUse">
<stop stop-color="#FFCDAC"/>
<stop offset="1" stop-color="#CA86FF" stop-opacity="0.37"/>
</linearGradient>
</defs>
</svg>
