<svg width="2572" height="4156" viewBox="0 0 2572 4156" fill="none" xmlns="http://www.w3.org/2000/svg">
<path d="M2525.81 273.051C2451.98 703.553 2203.75 1153.5 1585.51 1068.67C967.259 983.832 630.174 1433.54 855.314 1706.94C1080.45 1980.34 981.031 2527.12 705.387 2521.48C429.744 2515.84 241.028 3446.41 614.712 3356.17C988.396 3265.93 1448.93 2323.91 1532.85 2936.96C1616.78 3550 1155.48 3431.61 1329.79 3693.96C1504.11 3956.31 1629.43 3814.46 1547.56 4092.97" stroke="url(#paint0_linear_1606_535)" stroke-width="10" stroke-miterlimit="10"/>
<path d="M2434.81 273.051C2360.98 703.553 2112.75 1153.5 1494.51 1068.67C876.259 983.832 539.174 1433.54 764.314 1706.94C989.455 1980.34 890.031 2527.12 614.387 2521.48C338.744 2515.84 150.028 3446.41 523.712 3356.17C897.396 3265.93 1357.93 2323.91 1441.85 2936.96C1525.78 3550 1064.48 3431.61 1238.79 3693.96C1413.11 3956.31 1538.43 3814.46 1456.56 4092.97" stroke="url(#paint1_linear_1606_535)" stroke-width="10" stroke-miterlimit="10"/>
<path d="M2350.81 266.051C2276.98 696.553 2028.75 1146.5 1410.51 1061.67C792.259 976.832 455.174 1426.54 680.314 1699.94C905.455 1973.34 806.031 2520.12 530.387 2514.48C254.744 2508.84 66.0284 3439.41 439.712 3349.17C813.396 3258.93 1273.93 2316.91 1357.85 2929.96C1441.78 3543 980.479 3424.61 1154.79 3686.96C1329.11 3949.31 1454.43 3807.46 1372.56 4085.97" stroke="url(#paint2_linear_1606_535)" stroke-width="10" stroke-miterlimit="10"/>
<path d="M2258.81 266.051C2184.97 696.553 1936.75 1146.5 1318.5 1061.67C700.255 976.832 363.17 1426.54 588.311 1699.94C813.451 1973.34 714.027 2520.12 438.383 2514.48C162.74 2508.84 -25.9755 3439.41 347.708 3349.17C721.392 3258.93 1181.92 2316.91 1265.85 2929.96C1349.78 3543 888.475 3424.61 1062.79 3686.96C1237.1 3949.31 1362.43 3807.46 1280.55 4085.97" stroke="url(#paint3_linear_1606_535)" stroke-width="10" stroke-miterlimit="10"/>
<path d="M2300.05 272.809C2226.22 703.312 1978.01 1153.26 1359.73 1068.42C741.452 983.582 404.409 1433.3 629.585 1706.7C854.761 1980.11 755.295 2526.88 479.658 2521.24C204.021 2515.61 15.2991 3446.18 388.983 3355.94C762.667 3265.69 1223.2 2323.68 1307.12 2936.72C1391.04 3549.76 929.75 3431.37 1104.06 3693.72C1278.38 3956.07 1403.7 3814.22 1321.83 4092.74" stroke="url(#paint4_linear_1606_535)" stroke-width="10" stroke-miterlimit="10"/>
<path d="M2392.05 272.809C2318.22 703.312 2070.01 1153.26 1451.73 1068.42C833.452 983.582 496.409 1433.3 721.585 1706.7C946.761 1980.11 847.295 2526.88 571.658 2521.24C296.021 2515.61 107.299 3446.18 480.983 3355.94C854.667 3265.69 1315.2 2323.68 1399.12 2936.72C1483.04 3549.76 1021.75 3431.37 1196.06 3693.72C1370.38 3956.07 1495.7 3814.22 1413.83 4092.74" stroke="url(#paint5_linear_1606_535)" stroke-width="10" stroke-miterlimit="10"/>
<path d="M2476.05 279.809C2402.22 710.312 2154.01 1160.26 1535.73 1075.42C917.452 990.582 580.409 1440.3 805.585 1713.7C1030.76 1987.11 931.295 2533.88 655.658 2528.24C380.021 2522.61 191.299 3453.18 564.983 3362.94C938.667 3272.69 1399.2 2330.68 1483.12 2943.72C1567.04 3556.76 1105.75 3438.37 1280.06 3700.72C1454.38 3963.07 1579.7 3821.22 1497.83 4099.74" stroke="url(#paint6_linear_1606_535)" stroke-width="10" stroke-miterlimit="10"/>
<path d="M2567.05 279.809C2493.22 710.312 2245.01 1160.26 1626.73 1075.42C1008.45 990.582 671.409 1440.3 896.585 1713.7C1121.76 1987.11 1022.29 2533.88 746.658 2528.24C471.021 2522.61 282.299 3453.18 655.983 3362.94C1029.67 3272.69 1490.2 2330.68 1574.12 2943.72C1658.04 3556.76 1196.75 3438.37 1371.06 3700.72C1545.38 3963.07 1670.7 3821.22 1588.83 4099.74" stroke="url(#paint7_linear_1606_535)" stroke-width="10" stroke-miterlimit="10"/>
<defs>
<linearGradient id="paint0_linear_1606_535" x1="2208.25" y1="2211.12" x2="584.569" y2="1945.07" gradientUnits="userSpaceOnUse">
<stop stop-color="#FF6B2F"/>
<stop offset="0.3125" stop-color="#FFA27C"/>
<stop offset="1" stop-color="#FFD3C1"/>
</linearGradient>
<linearGradient id="paint1_linear_1606_535" x1="2117.25" y1="2211.12" x2="493.569" y2="1945.07" gradientUnits="userSpaceOnUse">
<stop stop-color="#FF6B2F"/>
<stop offset="0.3125" stop-color="#FFA27C"/>
<stop offset="1" stop-color="#FFD3C1"/>
</linearGradient>
<linearGradient id="paint2_linear_1606_535" x1="2033.25" y1="2204.12" x2="409.569" y2="1938.07" gradientUnits="userSpaceOnUse">
<stop stop-color="#FF6B2F"/>
<stop offset="0.3125" stop-color="#FFA27C"/>
<stop offset="1" stop-color="#FFD3C1"/>
</linearGradient>
<linearGradient id="paint3_linear_1606_535" x1="1941.24" y1="2204.12" x2="317.565" y2="1938.07" gradientUnits="userSpaceOnUse">
<stop stop-color="#FF6B2F"/>
<stop offset="0.3125" stop-color="#FFA27C"/>
<stop offset="1" stop-color="#FFD3C1"/>
</linearGradient>
<linearGradient id="paint4_linear_1606_535" x1="1982.49" y1="2210.88" x2="358.843" y2="1944.84" gradientUnits="userSpaceOnUse">
<stop stop-color="#FF6B2F"/>
<stop offset="0.3125" stop-color="#FFA27C"/>
<stop offset="1" stop-color="#FFD3C1"/>
</linearGradient>
<linearGradient id="paint5_linear_1606_535" x1="2074.49" y1="2210.88" x2="450.843" y2="1944.84" gradientUnits="userSpaceOnUse">
<stop stop-color="#FF6B2F"/>
<stop offset="0.3125" stop-color="#FFA27C"/>
<stop offset="1" stop-color="#FFD3C1"/>
</linearGradient>
<linearGradient id="paint6_linear_1606_535" x1="2158.49" y1="2217.88" x2="534.843" y2="1951.84" gradientUnits="userSpaceOnUse">
<stop stop-color="#FF6B2F"/>
<stop offset="0.3125" stop-color="#FFA27C"/>
<stop offset="1" stop-color="#FFD3C1"/>
</linearGradient>
<linearGradient id="paint7_linear_1606_535" x1="2249.49" y1="2217.88" x2="625.843" y2="1951.84" gradientUnits="userSpaceOnUse">
<stop stop-color="#FF6B2F"/>
<stop offset="0.3125" stop-color="#FFA27C"/>
<stop offset="1" stop-color="#FFD3C1"/>
</linearGradient>
</defs>
</svg>
