<svg width="2405" height="2444" viewBox="0 0 2405 2444" fill="none" xmlns="http://www.w3.org/2000/svg">
<path d="M736.003 1917.58C665.092 1582.54 328.857 1030.21 413.607 744.306C561.565 245.158 1016.76 1054.54 1486.97 630.474" stroke="url(#paint0_linear_1606_375)" stroke-width="7" stroke-miterlimit="10"/>
<path d="M750.967 1927.74C680.056 1592.71 343.821 1040.37 428.571 754.467C576.529 255.319 1031.75 1064.72 1501.95 640.657" stroke="url(#paint1_linear_1606_375)" stroke-width="7" stroke-miterlimit="10"/>
<path d="M765.928 1937.91C695.017 1602.87 358.769 1050.52 443.532 764.631C591.49 265.483 1046.71 1074.88 1516.91 650.827" stroke="url(#paint2_linear_1606_375)" stroke-width="7" stroke-miterlimit="10"/>
<path d="M780.864 1948.09C709.953 1613.05 373.722 1060.73 458.468 774.815C606.43 275.673 1061.65 1085.07 1531.85 661.01" stroke="url(#paint3_linear_1606_375)" stroke-width="7" stroke-miterlimit="10"/>
<path d="M795.858 1958.24C724.946 1623.2 388.712 1070.87 473.44 784.983C621.397 285.835 1076.62 1095.24 1546.82 671.173" stroke="url(#paint4_linear_1606_375)" stroke-width="7" stroke-miterlimit="10"/>
<path d="M810.834 1968.43C739.923 1633.39 403.688 1081.06 488.438 795.15C636.396 296.003 1091.62 1105.4 1561.82 681.341" stroke="url(#paint5_linear_1606_375)" stroke-width="7" stroke-miterlimit="10"/>
<path d="M825.779 1978.57C754.868 1643.53 418.638 1091.21 503.384 805.293C651.341 306.146 1106.56 1115.55 1576.77 691.489" stroke="url(#paint6_linear_1606_375)" stroke-width="7" stroke-miterlimit="10"/>
<path d="M840.738 1988.73C769.827 1653.7 433.597 1101.37 518.342 815.458C666.304 316.316 1121.54 1125.73 1591.76 701.657" stroke="url(#paint7_linear_1606_375)" stroke-width="7" stroke-miterlimit="10"/>
<path d="M855.705 1998.9C784.794 1663.86 448.56 1111.53 533.31 825.625C681.267 326.477 1136.49 1135.88 1606.69 711.816" stroke="url(#paint8_linear_1606_375)" stroke-width="7" stroke-miterlimit="10"/>
<path d="M870.67 2009.06C799.759 1674.03 463.524 1121.7 548.274 835.789C696.232 336.642 1151.45 1146.04 1621.65 721.98" stroke="url(#paint9_linear_1606_375)" stroke-width="7" stroke-miterlimit="10"/>
<path d="M885.634 2019.23C814.731 1684.2 478.492 1131.86 563.238 845.951C711.2 346.809 1166.42 1156.2 1636.62 732.147" stroke="url(#paint10_linear_1606_375)" stroke-width="7" stroke-miterlimit="10"/>
<path d="M900.599 2029.4C829.683 1694.35 493.447 1142.03 578.199 856.115C726.161 356.973 1181.38 1166.37 1651.58 742.311" stroke="url(#paint11_linear_1606_375)" stroke-width="7" stroke-miterlimit="10"/>
<path d="M915.557 2039.56C844.646 1704.53 508.411 1152.19 593.161 866.287C741.119 367.14 1196.34 1176.54 1666.54 752.478" stroke="url(#paint12_linear_1606_375)" stroke-width="7" stroke-miterlimit="10"/>
<path d="M930.506 2049.71C859.595 1714.68 523.36 1162.35 608.11 876.44C756.068 377.292 1211.29 1186.69 1681.49 762.63" stroke="url(#paint13_linear_1606_375)" stroke-width="7" stroke-miterlimit="10"/>
<path d="M945.481 2059.89C874.57 1724.85 538.34 1172.53 623.086 886.616C771.048 387.473 1226.26 1196.87 1696.47 772.812" stroke="url(#paint14_linear_1606_375)" stroke-width="7" stroke-miterlimit="10"/>
<path d="M960.47 2070.04C889.554 1735 553.324 1182.67 638.07 896.76C786.032 397.618 1241.25 1207.02 1711.45 782.956" stroke="url(#paint15_linear_1606_375)" stroke-width="7" stroke-miterlimit="10"/>
<path d="M975.408 2080.22C904.497 1745.19 568.263 1192.85 653.013 906.947C800.97 407.8 1256.19 1217.2 1726.39 793.138" stroke="url(#paint16_linear_1606_375)" stroke-width="7" stroke-miterlimit="10"/>
<path d="M990.369 2090.39C919.458 1755.35 583.215 1203.01 667.974 917.111C815.931 417.964 1271.15 1227.36 1741.35 803.302" stroke="url(#paint17_linear_1606_375)" stroke-width="7" stroke-miterlimit="10"/>
<path d="M1005.33 2100.55C934.418 1765.51 598.188 1213.19 682.933 927.276C830.895 428.134 1286.11 1237.53 1756.32 813.472" stroke="url(#paint18_linear_1606_375)" stroke-width="7" stroke-miterlimit="10"/>
<path d="M1020.29 2110.72C949.378 1775.68 613.148 1223.35 697.894 937.44C845.856 438.298 1301.08 1247.7 1771.28 823.635" stroke="url(#paint19_linear_1606_375)" stroke-width="7" stroke-miterlimit="10"/>
<path d="M1035.27 2120.92C964.361 1785.88 628.126 1233.55 712.876 947.643C860.833 448.495 1316.06 1257.9 1786.25 833.833" stroke="url(#paint20_linear_1606_375)" stroke-width="7" stroke-miterlimit="10"/>
<path d="M1050.22 2131.05C979.306 1796.01 643.071 1243.68 727.821 957.772C875.779 458.624 1331 1268.02 1801.2 843.962" stroke="url(#paint21_linear_1606_375)" stroke-width="7" stroke-miterlimit="10"/>
<path d="M1065.18 2141.21C994.272 1806.18 658.042 1253.85 742.787 967.936C890.749 468.794 1345.97 1278.23 1816.19 854.155" stroke="url(#paint22_linear_1606_375)" stroke-width="7" stroke-miterlimit="10"/>
<path d="M1080.15 2151.38C1009.24 1816.34 673.008 1264.01 757.753 978.098C905.715 478.956 1360.94 1288.36 1831.14 864.294" stroke="url(#paint23_linear_1606_375)" stroke-width="7" stroke-miterlimit="10"/>
<path d="M1095.11 2161.54C1024.19 1826.52 687.988 1274.2 772.716 988.268C920.674 489.12 1375.89 1298.52 1846.09 874.458" stroke="url(#paint24_linear_1606_375)" stroke-width="7" stroke-miterlimit="10"/>
<path d="M1110.07 2171.71C1039.16 1836.67 702.927 1284.34 787.677 998.434C935.634 499.286 1390.86 1308.69 1861.05 884.624" stroke="url(#paint25_linear_1606_375)" stroke-width="7" stroke-miterlimit="10"/>
<path d="M1125.03 2181.87C1054.12 1846.84 717.886 1294.51 802.636 1008.6C950.598 509.46 1405.82 1318.85 1876.02 894.798" stroke="url(#paint26_linear_1606_375)" stroke-width="7" stroke-miterlimit="10"/>
<path d="M1140 2192.04C1069.09 1857.01 732.852 1304.67 817.597 1018.76C965.559 519.62 1420.78 1329.02 1890.98 904.958" stroke="url(#paint27_linear_1606_375)" stroke-width="7" stroke-miterlimit="10"/>
<path d="M1154.96 2202.2C1084.05 1867.16 747.813 1314.83 832.563 1028.92C980.521 529.774 1435.74 1339.17 1905.94 915.112" stroke="url(#paint28_linear_1606_375)" stroke-width="7" stroke-miterlimit="10"/>
<path d="M1169.92 2212.37C1099.01 1877.33 762.774 1325 847.524 1039.09C995.482 539.946 1450.7 1349.35 1920.91 925.28" stroke="url(#paint29_linear_1606_375)" stroke-width="7" stroke-miterlimit="10"/>
<path d="M1184.89 2222.53C1113.98 1887.5 777.747 1335.17 862.492 1049.26C1010.45 550.114 1465.67 1359.5 1935.87 935.437" stroke="url(#paint30_linear_1606_375)" stroke-width="7" stroke-miterlimit="10"/>
<path d="M1199.85 2232.7C1128.94 1897.66 792.704 1345.33 877.454 1059.43C1025.41 560.278 1480.63 1369.68 1950.84 945.612" stroke="url(#paint31_linear_1606_375)" stroke-width="7" stroke-miterlimit="10"/>
<path d="M1214.81 2242.86C1143.9 1907.83 807.659 1355.49 892.413 1069.59C1040.37 570.443 1495.59 1379.84 1965.8 955.776" stroke="url(#paint32_linear_1606_375)" stroke-width="7" stroke-miterlimit="10"/>
<path d="M1229.78 2253.03C1158.85 1917.98 822.608 1365.67 907.374 1079.75C1055.33 580.607 1510.55 1390.01 1980.76 965.941" stroke="url(#paint33_linear_1606_375)" stroke-width="7" stroke-miterlimit="10"/>
<path d="M1244.74 2263.19C1173.82 1928.16 837.592 1375.83 922.338 1089.92C1070.3 590.777 1525.52 1400.17 1995.73 976.11" stroke="url(#paint34_linear_1606_375)" stroke-width="7" stroke-miterlimit="10"/>
<path d="M1259.71 2273.36C1188.79 1938.33 852.554 1385.99 937.304 1100.09C1085.26 600.939 1540.48 1410.34 2010.69 986.273" stroke="url(#paint35_linear_1606_375)" stroke-width="7" stroke-miterlimit="10"/>
<path d="M1274.67 2283.52C1203.75 1948.49 867.515 1396.16 952.265 1110.25C1100.22 611.103 1555.44 1420.5 2025.65 996.437" stroke="url(#paint36_linear_1606_375)" stroke-width="7" stroke-miterlimit="10"/>
<path d="M1289.64 2293.68C1218.72 1958.65 882.488 1406.31 967.238 1120.41C1115.2 621.259 1570.42 1430.66 2040.63 1006.6" stroke="url(#paint37_linear_1606_375)" stroke-width="7" stroke-miterlimit="10"/>
<path d="M1304.59 2303.85C1233.67 1968.82 897.444 1416.49 982.189 1130.58C1130.15 631.435 1585.37 1440.83 2055.58 1016.77" stroke="url(#paint38_linear_1606_375)" stroke-width="7" stroke-miterlimit="10"/>
<path d="M1319.55 2314.02C1248.64 1978.99 912.402 1426.65 997.157 1140.74C1145.11 641.599 1600.34 1450.99 2070.54 1026.93" stroke="url(#paint39_linear_1606_375)" stroke-width="7" stroke-miterlimit="10"/>
<defs>
<linearGradient id="paint0_linear_1606_375" x1="542.573" y1="564.872" x2="1278.58" y2="1482.31" gradientUnits="userSpaceOnUse">
<stop stop-color="#E8BDD2"/>
<stop offset="1" stop-color="#E85EA7"/>
</linearGradient>
<linearGradient id="paint1_linear_1606_375" x1="557.538" y1="575.034" x2="1293.54" y2="1492.47" gradientUnits="userSpaceOnUse">
<stop stop-color="#E8BDD2"/>
<stop offset="1" stop-color="#E85EA7"/>
</linearGradient>
<linearGradient id="paint2_linear_1606_375" x1="572.499" y1="585.198" x2="1308.5" y2="1502.63" gradientUnits="userSpaceOnUse">
<stop stop-color="#E8BDD2"/>
<stop offset="1" stop-color="#E85EA7"/>
</linearGradient>
<linearGradient id="paint3_linear_1606_375" x1="587.436" y1="595.383" x2="1323.44" y2="1512.82" gradientUnits="userSpaceOnUse">
<stop stop-color="#E8BDD2"/>
<stop offset="1" stop-color="#E85EA7"/>
</linearGradient>
<linearGradient id="paint4_linear_1606_375" x1="602.417" y1="605.541" x2="1338.42" y2="1522.98" gradientUnits="userSpaceOnUse">
<stop stop-color="#E8BDD2"/>
<stop offset="1" stop-color="#E85EA7"/>
</linearGradient>
<linearGradient id="paint5_linear_1606_375" x1="617.405" y1="615.717" x2="1353.41" y2="1533.15" gradientUnits="userSpaceOnUse">
<stop stop-color="#E8BDD2"/>
<stop offset="1" stop-color="#E85EA7"/>
</linearGradient>
<linearGradient id="paint6_linear_1606_375" x1="632.35" y1="625.86" x2="1368.35" y2="1543.3" gradientUnits="userSpaceOnUse">
<stop stop-color="#E8BDD2"/>
<stop offset="1" stop-color="#E85EA7"/>
</linearGradient>
<linearGradient id="paint7_linear_1606_375" x1="647.32" y1="636.021" x2="1383.32" y2="1553.45" gradientUnits="userSpaceOnUse">
<stop stop-color="#E8BDD2"/>
<stop offset="1" stop-color="#E85EA7"/>
</linearGradient>
<linearGradient id="paint8_linear_1606_375" x1="662.276" y1="646.192" x2="1398.28" y2="1563.63" gradientUnits="userSpaceOnUse">
<stop stop-color="#E8BDD2"/>
<stop offset="1" stop-color="#E85EA7"/>
</linearGradient>
<linearGradient id="paint9_linear_1606_375" x1="677.241" y1="656.356" x2="1413.24" y2="1573.79" gradientUnits="userSpaceOnUse">
<stop stop-color="#E8BDD2"/>
<stop offset="1" stop-color="#E85EA7"/>
</linearGradient>
<linearGradient id="paint10_linear_1606_375" x1="692.206" y1="666.52" x2="1428.21" y2="1583.95" gradientUnits="userSpaceOnUse">
<stop stop-color="#E8BDD2"/>
<stop offset="1" stop-color="#E85EA7"/>
</linearGradient>
<linearGradient id="paint11_linear_1606_375" x1="707.167" y1="676.684" x2="1443.17" y2="1594.12" gradientUnits="userSpaceOnUse">
<stop stop-color="#E8BDD2"/>
<stop offset="1" stop-color="#E85EA7"/>
</linearGradient>
<linearGradient id="paint12_linear_1606_375" x1="722.128" y1="686.854" x2="1458.13" y2="1604.29" gradientUnits="userSpaceOnUse">
<stop stop-color="#E8BDD2"/>
<stop offset="1" stop-color="#E85EA7"/>
</linearGradient>
<linearGradient id="paint13_linear_1606_375" x1="737.077" y1="697.006" x2="1473.08" y2="1614.44" gradientUnits="userSpaceOnUse">
<stop stop-color="#E8BDD2"/>
<stop offset="1" stop-color="#E85EA7"/>
</linearGradient>
<linearGradient id="paint14_linear_1606_375" x1="752.053" y1="707.184" x2="1488.05" y2="1624.62" gradientUnits="userSpaceOnUse">
<stop stop-color="#E8BDD2"/>
<stop offset="1" stop-color="#E85EA7"/>
</linearGradient>
<linearGradient id="paint15_linear_1606_375" x1="767.038" y1="717.329" x2="1503.04" y2="1634.77" gradientUnits="userSpaceOnUse">
<stop stop-color="#E8BDD2"/>
<stop offset="1" stop-color="#E85EA7"/>
</linearGradient>
<linearGradient id="paint16_linear_1606_375" x1="781.979" y1="727.514" x2="1517.98" y2="1644.95" gradientUnits="userSpaceOnUse">
<stop stop-color="#E8BDD2"/>
<stop offset="1" stop-color="#E85EA7"/>
</linearGradient>
<linearGradient id="paint17_linear_1606_375" x1="796.94" y1="737.678" x2="1532.94" y2="1655.11" gradientUnits="userSpaceOnUse">
<stop stop-color="#E8BDD2"/>
<stop offset="1" stop-color="#E85EA7"/>
</linearGradient>
<linearGradient id="paint18_linear_1606_375" x1="811.901" y1="747.844" x2="1547.9" y2="1665.28" gradientUnits="userSpaceOnUse">
<stop stop-color="#E8BDD2"/>
<stop offset="1" stop-color="#E85EA7"/>
</linearGradient>
<linearGradient id="paint19_linear_1606_375" x1="826.862" y1="758.008" x2="1562.87" y2="1675.45" gradientUnits="userSpaceOnUse">
<stop stop-color="#E8BDD2"/>
<stop offset="1" stop-color="#E85EA7"/>
</linearGradient>
<linearGradient id="paint20_linear_1606_375" x1="841.843" y1="768.209" x2="1577.84" y2="1685.64" gradientUnits="userSpaceOnUse">
<stop stop-color="#E8BDD2"/>
<stop offset="1" stop-color="#E85EA7"/>
</linearGradient>
<linearGradient id="paint21_linear_1606_375" x1="856.788" y1="778.338" x2="1592.79" y2="1695.77" gradientUnits="userSpaceOnUse">
<stop stop-color="#E8BDD2"/>
<stop offset="1" stop-color="#E85EA7"/>
</linearGradient>
<linearGradient id="paint22_linear_1606_375" x1="871.757" y1="788.506" x2="1607.76" y2="1705.94" gradientUnits="userSpaceOnUse">
<stop stop-color="#E8BDD2"/>
<stop offset="1" stop-color="#E85EA7"/>
</linearGradient>
<linearGradient id="paint23_linear_1606_375" x1="886.721" y1="798.666" x2="1622.73" y2="1716.11" gradientUnits="userSpaceOnUse">
<stop stop-color="#E8BDD2"/>
<stop offset="1" stop-color="#E85EA7"/>
</linearGradient>
<linearGradient id="paint24_linear_1606_375" x1="901.682" y1="808.834" x2="1637.68" y2="1726.27" gradientUnits="userSpaceOnUse">
<stop stop-color="#E8BDD2"/>
<stop offset="1" stop-color="#E85EA7"/>
</linearGradient>
<linearGradient id="paint25_linear_1606_375" x1="916.643" y1="819" x2="1652.65" y2="1736.44" gradientUnits="userSpaceOnUse">
<stop stop-color="#E8BDD2"/>
<stop offset="1" stop-color="#E85EA7"/>
</linearGradient>
<linearGradient id="paint26_linear_1606_375" x1="931.604" y1="829.17" x2="1667.6" y2="1746.6" gradientUnits="userSpaceOnUse">
<stop stop-color="#E8BDD2"/>
<stop offset="1" stop-color="#E85EA7"/>
</linearGradient>
<linearGradient id="paint27_linear_1606_375" x1="946.565" y1="839.331" x2="1682.57" y2="1756.77" gradientUnits="userSpaceOnUse">
<stop stop-color="#E8BDD2"/>
<stop offset="1" stop-color="#E85EA7"/>
</linearGradient>
<linearGradient id="paint28_linear_1606_375" x1="961.53" y1="849.489" x2="1697.53" y2="1766.92" gradientUnits="userSpaceOnUse">
<stop stop-color="#E8BDD2"/>
<stop offset="1" stop-color="#E85EA7"/>
</linearGradient>
<linearGradient id="paint29_linear_1606_375" x1="976.494" y1="859.658" x2="1712.5" y2="1777.09" gradientUnits="userSpaceOnUse">
<stop stop-color="#E8BDD2"/>
<stop offset="1" stop-color="#E85EA7"/>
</linearGradient>
<linearGradient id="paint30_linear_1606_375" x1="991.463" y1="869.822" x2="1727.46" y2="1787.26" gradientUnits="userSpaceOnUse">
<stop stop-color="#E8BDD2"/>
<stop offset="1" stop-color="#E85EA7"/>
</linearGradient>
<linearGradient id="paint31_linear_1606_375" x1="1006.42" y1="879.99" x2="1742.43" y2="1797.43" gradientUnits="userSpaceOnUse">
<stop stop-color="#E8BDD2"/>
<stop offset="1" stop-color="#E85EA7"/>
</linearGradient>
<linearGradient id="paint32_linear_1606_375" x1="1021.39" y1="890.153" x2="1757.39" y2="1807.59" gradientUnits="userSpaceOnUse">
<stop stop-color="#E8BDD2"/>
<stop offset="1" stop-color="#E85EA7"/>
</linearGradient>
<linearGradient id="paint33_linear_1606_375" x1="1036.35" y1="900.317" x2="1772.35" y2="1817.75" gradientUnits="userSpaceOnUse">
<stop stop-color="#E8BDD2"/>
<stop offset="1" stop-color="#E85EA7"/>
</linearGradient>
<linearGradient id="paint34_linear_1606_375" x1="1051.31" y1="910.483" x2="1787.31" y2="1827.92" gradientUnits="userSpaceOnUse">
<stop stop-color="#E8BDD2"/>
<stop offset="1" stop-color="#E85EA7"/>
</linearGradient>
<linearGradient id="paint35_linear_1606_375" x1="1066.28" y1="920.649" x2="1802.28" y2="1838.08" gradientUnits="userSpaceOnUse">
<stop stop-color="#E8BDD2"/>
<stop offset="1" stop-color="#E85EA7"/>
</linearGradient>
<linearGradient id="paint36_linear_1606_375" x1="1081.24" y1="930.813" x2="1817.24" y2="1848.25" gradientUnits="userSpaceOnUse">
<stop stop-color="#E8BDD2"/>
<stop offset="1" stop-color="#E85EA7"/>
</linearGradient>
<linearGradient id="paint37_linear_1606_375" x1="1096.21" y1="940.969" x2="1832.21" y2="1858.4" gradientUnits="userSpaceOnUse">
<stop stop-color="#E8BDD2"/>
<stop offset="1" stop-color="#E85EA7"/>
</linearGradient>
<linearGradient id="paint38_linear_1606_375" x1="1111.16" y1="951.141" x2="1847.16" y2="1868.57" gradientUnits="userSpaceOnUse">
<stop stop-color="#E8BDD2"/>
<stop offset="1" stop-color="#E85EA7"/>
</linearGradient>
<linearGradient id="paint39_linear_1606_375" x1="1126.12" y1="961.309" x2="1862.13" y2="1878.74" gradientUnits="userSpaceOnUse">
<stop stop-color="#E8BDD2"/>
<stop offset="1" stop-color="#E85EA7"/>
</linearGradient>
</defs>
</svg>
