<svg width="2315" height="4628" viewBox="0 0 2315 4628" fill="none" xmlns="http://www.w3.org/2000/svg">
<path d="M1139.28 169.143C757.705 -39.133 -115.449 -234.67 19.5322 964.04C154.513 2162.75 1104.97 1310.73 835.794 1950.86C566.615 2590.99 320.453 1725.62 86.3954 2158.78C-147.662 2591.94 351.085 3289.1 592.403 3071.57C833.721 2854.03 1301.89 3560.42 913.354 3868.94C524.817 4177.46 640.556 4622.95 640.556 4622.95" stroke="url(#paint0_linear_1606_337)" stroke-width="10" stroke-miterlimit="10"/>
<path d="M1172.85 168.889C791.275 -39.3869 -81.8786 -234.924 53.1024 963.786C188.083 2162.5 1138.54 1310.48 869.354 1950.61C600.165 2590.73 354.013 1725.37 119.956 2158.53C-114.102 2591.69 384.645 3288.85 625.963 3071.31C867.281 2853.77 1335.45 3560.17 946.914 3868.69C558.377 4177.21 674.116 4622.7 674.116 4622.7" stroke="url(#paint1_linear_1606_337)" stroke-width="7" stroke-miterlimit="10"/>
<path d="M1206.41 168.632C824.838 -39.6437 -48.316 -235.181 86.665 963.529C221.646 2162.24 1172.06 1310.23 902.917 1950.38C633.778 2590.53 387.576 1725.14 153.518 2158.3C-80.5389 2591.46 418.218 3288.65 659.506 3071.08C900.794 2853.5 1368.99 3559.93 980.457 3868.45C591.92 4176.97 707.649 4622.46 707.649 4622.46" stroke="url(#paint2_linear_1606_337)" stroke-width="7" stroke-miterlimit="10"/>
<path d="M1239.98 168.375C858.408 -39.9005 -14.7456 -235.437 120.235 963.272C255.216 2161.98 1205.68 1309.97 936.487 1950.09C667.298 2590.22 421.146 1724.85 187.089 2158.01C-46.9688 2591.17 451.778 3288.34 693.096 3070.8C934.414 2853.26 1402.56 3559.67 1014.06 3868.2C625.55 4176.72 741.259 4622.21 741.259 4622.21" stroke="url(#paint3_linear_1606_337)" stroke-width="7" stroke-miterlimit="10"/>
<path d="M1273.55 168.119C891.978 -40.1564 18.8245 -235.693 153.805 963.016C288.786 2161.73 1239.25 1309.71 970.057 1949.84C700.868 2589.96 454.716 1724.6 220.659 2157.76C-13.3984 2590.92 485.348 3288.08 726.666 3070.54C967.984 2853 1436.14 3559.4 1047.62 3867.92C659.091 4176.44 774.819 4621.93 774.819 4621.93" stroke="url(#paint4_linear_1606_337)" stroke-width="7" stroke-miterlimit="10"/>
<path d="M1307.12 167.862C925.545 -40.4132 52.3912 -235.95 187.372 962.76C322.353 2161.47 1272.78 1309.46 1003.62 1949.61C734.465 2589.76 488.283 1724.37 254.226 2157.53C20.1682 2590.69 518.915 3287.85 760.233 3070.32C1001.55 2852.78 1469.71 3559.17 1081.18 3867.69C692.657 4176.21 808.376 4621.69 808.376 4621.69" stroke="url(#paint5_linear_1606_337)" stroke-width="7" stroke-miterlimit="10"/>
<path d="M1340.69 167.606C959.115 -40.6701 85.9613 -236.207 220.942 962.503C355.923 2161.21 1306.38 1309.2 1037.19 1949.32C768.005 2589.45 521.853 1724.09 287.796 2157.24C53.7383 2590.4 552.485 3287.57 793.803 3070.03C1035.12 2852.49 1503.28 3558.89 1114.75 3867.41C726.227 4175.93 841.956 4621.42 841.956 4621.42" stroke="url(#paint6_linear_1606_337)" stroke-width="7" stroke-miterlimit="10"/>
<path d="M1374.25 167.35C992.682 -40.9259 119.528 -236.463 254.509 962.247C389.49 2160.96 1339.95 1308.94 1070.76 1949.07C801.571 2589.19 555.419 1723.83 321.362 2156.99C87.3047 2590.15 586.052 3287.31 827.37 3069.77C1068.69 2852.23 1536.85 3558.63 1148.32 3867.15C759.794 4175.67 875.522 4621.16 875.522 4621.16" stroke="url(#paint7_linear_1606_337)" stroke-width="7" stroke-miterlimit="10"/>
<path d="M1407.82 167.093C1026.25 -41.1828 153.094 -236.72 288.075 961.99C423.056 2160.7 1373.51 1308.69 1104.33 1948.84C835.148 2588.99 588.986 1723.6 354.929 2156.76C120.871 2589.92 619.618 3287.08 860.936 3069.55C1102.25 2852.01 1570.41 3558.4 1181.89 3866.92C793.36 4175.44 909.099 4620.93 909.099 4620.93" stroke="url(#paint8_linear_1606_337)" stroke-width="7" stroke-miterlimit="10"/>
<path d="M1441.39 166.839C1059.82 -41.4367 186.664 -236.974 321.645 961.736C456.626 2160.45 1407.09 1308.43 1137.9 1948.56C868.708 2588.68 622.556 1723.32 388.499 2156.48C154.441 2589.64 653.188 3286.8 894.506 3069.26C1135.82 2851.72 1603.98 3558.12 1215.46 3866.64C826.93 4175.16 942.659 4620.65 942.659 4620.65" stroke="url(#paint9_linear_1606_337)" stroke-width="7" stroke-miterlimit="10"/>
<path d="M1474.95 166.582C1093.38 -41.6935 220.231 -237.23 355.212 961.479C490.193 2160.19 1440.65 1308.17 1171.46 1948.3C902.274 2588.43 656.123 1723.06 422.065 2156.22C188.008 2589.38 686.765 3286.54 928.083 3069.01C1169.4 2851.47 1637.56 3557.86 1249.03 3866.38C860.507 4174.9 976.235 4620.39 976.235 4620.39" stroke="url(#paint10_linear_1606_337)" stroke-width="7" stroke-miterlimit="10"/>
<path d="M1508.53 166.325C1126.96 -41.9504 253.801 -237.487 388.782 961.223C523.763 2159.93 1474.23 1307.93 1205.03 1948.07C935.835 2588.22 689.693 1722.83 455.636 2155.99C221.578 2589.15 720.325 3286.32 961.653 3068.78C1202.98 2851.24 1671.13 3557.64 1282.6 3866.16C894.077 4174.68 1009.81 4620.17 1009.81 4620.17" stroke="url(#paint11_linear_1606_337)" stroke-width="7" stroke-miterlimit="10"/>
<path d="M1542.09 166.069C1160.52 -42.2062 287.368 -237.743 422.348 960.967C557.329 2159.68 1507.79 1307.66 1238.6 1947.79C969.411 2587.91 723.259 1722.55 489.202 2155.71C255.144 2588.87 753.891 3286.03 995.219 3068.49C1236.55 2850.95 1704.7 3557.35 1316.17 3865.87C927.643 4174.39 1043.37 4619.88 1043.37 4619.88" stroke="url(#paint12_linear_1606_337)" stroke-width="7" stroke-miterlimit="10"/>
<path d="M1575.66 165.813C1194.09 -42.463 320.934 -238 455.915 960.71C590.896 2159.42 1541.36 1307.41 1272.17 1947.56C1002.98 2587.71 756.826 1722.32 522.769 2155.48C288.711 2588.64 787.458 3285.8 1028.79 3068.27C1270.11 2850.73 1738.26 3557.12 1349.74 3865.64C961.21 4174.16 1076.94 4619.65 1076.94 4619.65" stroke="url(#paint13_linear_1606_337)" stroke-width="7" stroke-miterlimit="10"/>
<path d="M1609.23 165.556C1227.66 -42.7199 354.504 -238.257 489.485 960.453C624.466 2159.16 1574.96 1307.16 1305.74 1947.3C1036.52 2587.45 790.396 1722.07 556.339 2155.22C322.282 2588.38 821.029 3285.55 1062.36 3068.01C1303.68 2850.47 1771.83 3556.87 1383.31 3865.39C994.78 4173.91 1110.51 4619.4 1110.51 4619.4" stroke="url(#paint14_linear_1606_337)" stroke-width="7" stroke-miterlimit="10"/>
<path d="M1642.79 165.299C1261.22 -42.9767 388.071 -238.514 523.052 960.196C658.033 2158.91 1608.49 1306.9 1339.3 1947.05C1070.11 2587.19 823.963 1721.81 589.905 2154.97C355.848 2588.13 854.595 3285.29 1095.92 3067.75C1337.25 2850.21 1805.4 3556.61 1416.87 3865.13C1028.35 4173.65 1144.08 4619.14 1144.08 4619.14" stroke="url(#paint15_linear_1606_337)" stroke-width="7" stroke-miterlimit="10"/>
<path d="M1676.36 165.046C1294.79 -43.2296 421.637 -238.767 556.618 959.943C691.599 2158.65 1642.06 1306.65 1372.87 1946.79C1103.68 2586.94 857.529 1721.56 623.472 2154.71C389.414 2587.87 888.161 3285.04 1129.49 3067.5C1370.82 2849.96 1838.97 3556.36 1450.44 3864.88C1061.91 4173.4 1177.64 4618.89 1177.64 4618.89" stroke="url(#paint16_linear_1606_337)" stroke-width="7" stroke-miterlimit="10"/>
<path d="M1709.93 164.789C1328.36 -43.4865 455.207 -239.023 590.188 959.686C725.169 2158.4 1675.63 1306.39 1406.44 1946.54C1137.25 2586.68 891.099 1721.3 657.042 2154.46C422.985 2587.62 921.732 3284.78 1163.06 3067.24C1404.39 2849.7 1872.54 3556.1 1484.01 3864.62C1095.48 4173.14 1211.21 4618.63 1211.21 4618.63" stroke="url(#paint17_linear_1606_337)" stroke-width="7" stroke-miterlimit="10"/>
<path d="M1743.5 164.532C1361.93 -43.7433 488.778 -239.28 623.759 959.43C758.74 2158.14 1709.2 1306.13 1440.01 1946.28C1170.82 2586.43 924.67 1721.04 690.612 2154.2C456.555 2587.36 955.302 3284.52 1196.63 3066.99C1437.96 2849.45 1906.11 3555.84 1517.58 3864.36C1129.05 4172.88 1244.78 4618.37 1244.78 4618.37" stroke="url(#paint18_linear_1606_337)" stroke-width="7" stroke-miterlimit="10"/>
<path d="M1777.07 164.276C1395.5 -44.0002 522.344 -239.537 657.325 959.173C792.306 2157.88 1742.76 1305.88 1473.58 1946.02C1204.4 2586.17 958.236 1720.78 724.179 2153.94C490.121 2587.1 988.868 3284.27 1230.2 3066.73C1471.52 2849.19 1939.67 3555.59 1551.15 3864.11C1162.62 4172.63 1278.34 4618.12 1278.34 4618.12" stroke="url(#paint19_linear_1606_337)" stroke-width="7" stroke-miterlimit="10"/>
<path d="M1810.63 164.02C1429.06 -44.256 555.91 -239.793 690.891 958.917C825.872 2157.63 1776.32 1305.62 1507.14 1945.77C1237.96 2585.91 991.802 1720.53 757.745 2153.69C523.688 2586.85 1022.43 3284.01 1263.76 3066.47C1505.09 2848.94 1973.24 3555.33 1584.71 3863.85C1196.19 4172.37 1311.91 4617.86 1311.91 4617.86" stroke="url(#paint20_linear_1606_337)" stroke-width="7" stroke-miterlimit="10"/>
<path d="M1844.2 163.763C1462.63 -44.5129 589.481 -240.05 724.462 958.66C859.443 2157.37 1809.89 1305.36 1540.71 1945.51C1271.53 2585.66 1025.37 1720.27 791.315 2153.43C557.258 2586.59 1056 3283.75 1297.33 3066.22C1538.66 2848.68 2006.81 3555.07 1618.28 3863.59C1229.76 4172.11 1345.48 4617.6 1345.48 4617.6" stroke="url(#paint21_linear_1606_337)" stroke-width="7" stroke-miterlimit="10"/>
<path d="M1877.77 163.506C1496.2 -44.7697 623.047 -240.307 758.028 958.403C893.009 2157.11 1843.46 1305.11 1574.28 1945.25C1305.1 2585.4 1058.94 1720.02 824.882 2153.17C590.824 2586.33 1089.57 3283.5 1330.9 3065.96C1572.23 2848.42 2040.38 3554.82 1651.85 3863.34C1263.32 4171.86 1379.01 4617.34 1379.01 4617.34" stroke="url(#paint22_linear_1606_337)" stroke-width="7" stroke-miterlimit="10"/>
<path d="M1911.3 163.252C1529.73 -45.0236 656.579 -240.56 791.56 958.149C926.54 2156.86 1877.03 1304.85 1607.85 1945C1338.67 2585.15 1092.51 1719.76 858.453 2152.92C624.396 2586.08 1123.14 3283.24 1364.47 3065.71C1605.8 2848.17 2073.95 3554.56 1685.42 3863.08C1296.89 4171.6 1412.61 4617.09 1412.61 4617.09" stroke="url(#paint23_linear_1606_337)" stroke-width="7" stroke-miterlimit="10"/>
<path d="M1944.91 162.995C1563.34 -45.2804 690.184 -240.817 825.165 957.893C960.146 2156.6 1910.6 1304.6 1641.42 1944.74C1372.24 2584.89 1126.08 1719.5 892.019 2152.66C657.961 2585.82 1156.71 3282.99 1398.04 3065.45C1639.36 2847.91 2107.51 3554.31 1718.99 3862.83C1330.46 4171.35 1446.18 4616.84 1446.18 4616.84" stroke="url(#paint24_linear_1606_337)" stroke-width="7" stroke-miterlimit="10"/>
<path d="M1978.48 162.739C1596.91 -45.5363 723.754 -241.073 858.735 957.637C993.716 2156.35 1944.17 1304.34 1674.99 1944.49C1405.81 2584.63 1159.65 1719.25 925.589 2152.41C691.532 2585.57 1190.28 3282.73 1431.61 3065.19C1672.93 2847.65 2141.08 3554.05 1752.56 3862.57C1364.03 4171.09 1479.75 4616.58 1479.75 4616.58" stroke="url(#paint25_linear_1606_337)" stroke-width="7" stroke-miterlimit="10"/>
<path d="M2012.03 162.483C1630.46 -45.7931 757.301 -241.33 892.282 957.38C1027.26 2156.09 1977.73 1304.08 1708.55 1944.23C1439.37 2584.38 1193.21 1718.99 959.156 2152.15C725.098 2585.31 1223.85 3282.47 1465.17 3064.94C1706.5 2847.4 2174.65 3553.79 1786.12 3862.31C1397.6 4170.83 1513.32 4616.32 1513.32 4616.32" stroke="url(#paint26_linear_1606_337)" stroke-width="7" stroke-miterlimit="10"/>
<path d="M2045.61 162.226C1664.04 -46.05 790.887 -241.587 925.868 957.123C1060.85 2155.83 2011.3 1303.83 1742.12 1943.97C1472.94 2584.12 1226.78 1718.74 992.722 2151.89C758.664 2585.05 1257.41 3282.22 1498.74 3064.68C1740.07 2847.14 2208.22 3553.54 1819.69 3862.06C1431.16 4170.58 1546.85 4616.06 1546.85 4616.06" stroke="url(#paint27_linear_1606_337)" stroke-width="7" stroke-miterlimit="10"/>
<path d="M2079.18 161.97C1697.61 -46.3058 824.454 -241.843 959.435 956.867C1094.42 2155.58 2044.87 1303.57 1775.69 1943.72C1506.51 2583.86 1260.35 1718.48 1026.29 2151.64C792.231 2584.8 1290.98 3281.96 1532.31 3064.42C1773.63 2846.89 2241.75 3553.27 1853.23 3861.79C1464.7 4170.31 1580.42 4615.8 1580.42 4615.8" stroke="url(#paint28_linear_1606_337)" stroke-width="7" stroke-miterlimit="10"/>
<path d="M2112.75 161.713C1731.18 -46.5627 858.024 -242.1 993.005 956.61C1127.99 2155.32 2078.44 1303.31 1809.26 1943.46C1540.08 2583.61 1293.92 1718.22 1059.86 2151.38C825.801 2584.54 1324.55 3281.7 1565.88 3064.17C1807.2 2846.63 2275.35 3553.02 1886.83 3861.54C1498.3 4170.06 1614.02 4615.56 1614.02 4615.56" stroke="url(#paint29_linear_1606_337)" stroke-width="7" stroke-miterlimit="10"/>
<path d="M2146.31 161.459C1764.74 -46.8166 891.59 -242.353 1026.57 956.356C1161.55 2155.07 2112 1303.06 1842.82 1943.21C1573.64 2583.35 1327.48 1717.97 1093.42 2151.13C859.367 2584.29 1358.11 3281.45 1599.44 3063.91C1840.77 2846.37 2308.89 3552.76 1920.36 3861.28C1531.84 4169.8 1647.55 4615.29 1647.55 4615.29" stroke="url(#paint30_linear_1606_337)" stroke-width="7" stroke-miterlimit="10"/>
<path d="M2179.88 161.202C1798.31 -47.0734 925.161 -242.61 1060.14 956.1C1195.12 2154.81 2145.57 1302.8 1876.39 1942.95C1607.21 2583.1 1361.05 1717.71 1127 2150.87C892.938 2584.03 1391.65 3281.22 1632.98 3063.65C1874.31 2846.07 2342.46 3552.5 1953.93 3861.02C1565.41 4169.54 1681.13 4615.03 1681.13 4615.03" stroke="url(#paint31_linear_1606_337)" stroke-width="7" stroke-miterlimit="10"/>
<path d="M2213.47 160.945C1831.9 -47.3302 958.747 -242.867 1093.73 955.843C1228.71 2154.55 2179.14 1302.55 1909.92 1942.69C1640.7 2582.84 1394.58 1717.46 1160.52 2150.61C926.464 2583.77 1425.22 3280.97 1666.55 3063.39C1907.88 2845.81 2375.99 3552.25 1987.5 3860.77C1599.01 4169.29 1714.69 4614.78 1714.69 4614.78" stroke="url(#paint32_linear_1606_337)" stroke-width="7" stroke-miterlimit="10"/>
<path d="M2247.02 160.69C1865.45 -47.5861 992.293 -243.123 1127.27 955.587C1262.26 2154.3 2212.71 1302.29 1943.53 1942.44C1674.35 2582.58 1428.19 1717.2 1194.13 2150.36C960.07 2583.52 1458.82 3280.68 1700.15 3063.14C1941.47 2845.61 2409.62 3552 2021.1 3860.52C1632.57 4169.04 1748.29 4614.53 1748.29 4614.53" stroke="url(#paint33_linear_1606_337)" stroke-width="7" stroke-miterlimit="10"/>
<path d="M2280.59 160.433C1899.02 -47.8429 1025.86 -243.38 1160.84 955.33C1295.83 2154.04 2246.28 1302.03 1977.1 1942.18C1707.92 2582.33 1461.76 1716.94 1227.7 2150.1C993.641 2583.26 1492.39 3280.42 1733.72 3062.89C1975.04 2845.35 2443.19 3551.74 2054.67 3860.26C1666.14 4168.78 1781.86 4614.27 1781.86 4614.27" stroke="url(#paint34_linear_1606_337)" stroke-width="7" stroke-miterlimit="10"/>
<defs>
<linearGradient id="paint0_linear_1606_337" x1="1155.64" y1="2313.8" x2="17.5917" y2="2322.49" gradientUnits="userSpaceOnUse">
<stop stop-color="#0810C1"/>
<stop offset="1" stop-color="#6269F0" stop-opacity="0.58"/>
</linearGradient>
<linearGradient id="paint1_linear_1606_337" x1="1189.21" y1="2313.55" x2="51.1619" y2="2322.23" gradientUnits="userSpaceOnUse">
<stop stop-color="#0810C1"/>
<stop offset="1" stop-color="#6269F0" stop-opacity="0.58"/>
</linearGradient>
<linearGradient id="paint2_linear_1606_337" x1="1222.78" y1="2313.3" x2="84.7246" y2="2321.99" gradientUnits="userSpaceOnUse">
<stop stop-color="#0810C1"/>
<stop offset="1" stop-color="#6269F0" stop-opacity="0.58"/>
</linearGradient>
<linearGradient id="paint3_linear_1606_337" x1="1256.35" y1="2313.04" x2="118.295" y2="2321.73" gradientUnits="userSpaceOnUse">
<stop stop-color="#0810C1"/>
<stop offset="1" stop-color="#6269F0" stop-opacity="0.58"/>
</linearGradient>
<linearGradient id="paint4_linear_1606_337" x1="1289.92" y1="2312.78" x2="151.865" y2="2321.46" gradientUnits="userSpaceOnUse">
<stop stop-color="#0810C1"/>
<stop offset="1" stop-color="#6269F0" stop-opacity="0.58"/>
</linearGradient>
<linearGradient id="paint5_linear_1606_337" x1="1323.48" y1="2312.53" x2="185.432" y2="2321.22" gradientUnits="userSpaceOnUse">
<stop stop-color="#0810C1"/>
<stop offset="1" stop-color="#6269F0" stop-opacity="0.58"/>
</linearGradient>
<linearGradient id="paint6_linear_1606_337" x1="1357.05" y1="2312.26" x2="219.002" y2="2320.95" gradientUnits="userSpaceOnUse">
<stop stop-color="#0810C1"/>
<stop offset="1" stop-color="#6269F0" stop-opacity="0.58"/>
</linearGradient>
<linearGradient id="paint7_linear_1606_337" x1="1390.62" y1="2312.01" x2="252.568" y2="2320.69" gradientUnits="userSpaceOnUse">
<stop stop-color="#0810C1"/>
<stop offset="1" stop-color="#6269F0" stop-opacity="0.58"/>
</linearGradient>
<linearGradient id="paint8_linear_1606_337" x1="1424.19" y1="2311.76" x2="286.135" y2="2320.45" gradientUnits="userSpaceOnUse">
<stop stop-color="#0810C1"/>
<stop offset="1" stop-color="#6269F0" stop-opacity="0.58"/>
</linearGradient>
<linearGradient id="paint9_linear_1606_337" x1="1457.76" y1="2311.5" x2="319.705" y2="2320.18" gradientUnits="userSpaceOnUse">
<stop stop-color="#0810C1"/>
<stop offset="1" stop-color="#6269F0" stop-opacity="0.58"/>
</linearGradient>
<linearGradient id="paint10_linear_1606_337" x1="1491.32" y1="2311.24" x2="353.271" y2="2319.93" gradientUnits="userSpaceOnUse">
<stop stop-color="#0810C1"/>
<stop offset="1" stop-color="#6269F0" stop-opacity="0.58"/>
</linearGradient>
<linearGradient id="paint11_linear_1606_337" x1="1524.89" y1="2311" x2="386.842" y2="2319.68" gradientUnits="userSpaceOnUse">
<stop stop-color="#0810C1"/>
<stop offset="1" stop-color="#6269F0" stop-opacity="0.58"/>
</linearGradient>
<linearGradient id="paint12_linear_1606_337" x1="1558.46" y1="2310.73" x2="420.408" y2="2319.41" gradientUnits="userSpaceOnUse">
<stop stop-color="#0810C1"/>
<stop offset="1" stop-color="#6269F0" stop-opacity="0.58"/>
</linearGradient>
<linearGradient id="paint13_linear_1606_337" x1="1592.03" y1="2310.49" x2="453.975" y2="2319.17" gradientUnits="userSpaceOnUse">
<stop stop-color="#0810C1"/>
<stop offset="1" stop-color="#6269F0" stop-opacity="0.58"/>
</linearGradient>
<linearGradient id="paint14_linear_1606_337" x1="1625.6" y1="2310.23" x2="487.545" y2="2318.91" gradientUnits="userSpaceOnUse">
<stop stop-color="#0810C1"/>
<stop offset="1" stop-color="#6269F0" stop-opacity="0.58"/>
</linearGradient>
<linearGradient id="paint15_linear_1606_337" x1="1659.16" y1="2309.97" x2="521.111" y2="2318.66" gradientUnits="userSpaceOnUse">
<stop stop-color="#0810C1"/>
<stop offset="1" stop-color="#6269F0" stop-opacity="0.58"/>
</linearGradient>
<linearGradient id="paint16_linear_1606_337" x1="1692.73" y1="2309.72" x2="554.678" y2="2318.4" gradientUnits="userSpaceOnUse">
<stop stop-color="#0810C1"/>
<stop offset="1" stop-color="#6269F0" stop-opacity="0.58"/>
</linearGradient>
<linearGradient id="paint17_linear_1606_337" x1="1726.3" y1="2309.46" x2="588.248" y2="2318.15" gradientUnits="userSpaceOnUse">
<stop stop-color="#0810C1"/>
<stop offset="1" stop-color="#6269F0" stop-opacity="0.58"/>
</linearGradient>
<linearGradient id="paint18_linear_1606_337" x1="1759.87" y1="2309.2" x2="621.818" y2="2317.89" gradientUnits="userSpaceOnUse">
<stop stop-color="#0810C1"/>
<stop offset="1" stop-color="#6269F0" stop-opacity="0.58"/>
</linearGradient>
<linearGradient id="paint19_linear_1606_337" x1="1793.44" y1="2308.95" x2="655.385" y2="2317.63" gradientUnits="userSpaceOnUse">
<stop stop-color="#0810C1"/>
<stop offset="1" stop-color="#6269F0" stop-opacity="0.58"/>
</linearGradient>
<linearGradient id="paint20_linear_1606_337" x1="1827" y1="2308.69" x2="688.951" y2="2317.38" gradientUnits="userSpaceOnUse">
<stop stop-color="#0810C1"/>
<stop offset="1" stop-color="#6269F0" stop-opacity="0.58"/>
</linearGradient>
<linearGradient id="paint21_linear_1606_337" x1="1860.57" y1="2308.44" x2="722.522" y2="2317.12" gradientUnits="userSpaceOnUse">
<stop stop-color="#0810C1"/>
<stop offset="1" stop-color="#6269F0" stop-opacity="0.58"/>
</linearGradient>
<linearGradient id="paint22_linear_1606_337" x1="1894.14" y1="2308.17" x2="756.088" y2="2316.86" gradientUnits="userSpaceOnUse">
<stop stop-color="#0810C1"/>
<stop offset="1" stop-color="#6269F0" stop-opacity="0.58"/>
</linearGradient>
<linearGradient id="paint23_linear_1606_337" x1="1927.67" y1="2307.92" x2="789.619" y2="2316.61" gradientUnits="userSpaceOnUse">
<stop stop-color="#0810C1"/>
<stop offset="1" stop-color="#6269F0" stop-opacity="0.58"/>
</linearGradient>
<linearGradient id="paint24_linear_1606_337" x1="1961.28" y1="2307.67" x2="823.225" y2="2316.35" gradientUnits="userSpaceOnUse">
<stop stop-color="#0810C1"/>
<stop offset="1" stop-color="#6269F0" stop-opacity="0.58"/>
</linearGradient>
<linearGradient id="paint25_linear_1606_337" x1="1994.85" y1="2307.41" x2="856.795" y2="2316.1" gradientUnits="userSpaceOnUse">
<stop stop-color="#0810C1"/>
<stop offset="1" stop-color="#6269F0" stop-opacity="0.58"/>
</linearGradient>
<linearGradient id="paint26_linear_1606_337" x1="2028.39" y1="2307.15" x2="890.342" y2="2315.84" gradientUnits="userSpaceOnUse">
<stop stop-color="#0810C1"/>
<stop offset="1" stop-color="#6269F0" stop-opacity="0.58"/>
</linearGradient>
<linearGradient id="paint27_linear_1606_337" x1="2061.98" y1="2306.89" x2="923.928" y2="2315.58" gradientUnits="userSpaceOnUse">
<stop stop-color="#0810C1"/>
<stop offset="1" stop-color="#6269F0" stop-opacity="0.58"/>
</linearGradient>
<linearGradient id="paint28_linear_1606_337" x1="2095.55" y1="2306.64" x2="957.494" y2="2315.32" gradientUnits="userSpaceOnUse">
<stop stop-color="#0810C1"/>
<stop offset="1" stop-color="#6269F0" stop-opacity="0.58"/>
</linearGradient>
<linearGradient id="paint29_linear_1606_337" x1="2129.12" y1="2306.39" x2="991.064" y2="2315.07" gradientUnits="userSpaceOnUse">
<stop stop-color="#0810C1"/>
<stop offset="1" stop-color="#6269F0" stop-opacity="0.58"/>
</linearGradient>
<linearGradient id="paint30_linear_1606_337" x1="2162.68" y1="2306.13" x2="1024.63" y2="2314.81" gradientUnits="userSpaceOnUse">
<stop stop-color="#0810C1"/>
<stop offset="1" stop-color="#6269F0" stop-opacity="0.58"/>
</linearGradient>
<linearGradient id="paint31_linear_1606_337" x1="2196.25" y1="2305.87" x2="1058.2" y2="2314.56" gradientUnits="userSpaceOnUse">
<stop stop-color="#0810C1"/>
<stop offset="1" stop-color="#6269F0" stop-opacity="0.58"/>
</linearGradient>
<linearGradient id="paint32_linear_1606_337" x1="2229.84" y1="2305.61" x2="1091.79" y2="2314.3" gradientUnits="userSpaceOnUse">
<stop stop-color="#0810C1"/>
<stop offset="1" stop-color="#6269F0" stop-opacity="0.58"/>
</linearGradient>
<linearGradient id="paint33_linear_1606_337" x1="2263.39" y1="2305.36" x2="1125.33" y2="2314.05" gradientUnits="userSpaceOnUse">
<stop stop-color="#0810C1"/>
<stop offset="1" stop-color="#6269F0" stop-opacity="0.58"/>
</linearGradient>
<linearGradient id="paint34_linear_1606_337" x1="2296.96" y1="2305.11" x2="1158.9" y2="2313.79" gradientUnits="userSpaceOnUse">
<stop stop-color="#0810C1"/>
<stop offset="1" stop-color="#6269F0" stop-opacity="0.58"/>
</linearGradient>
</defs>
</svg>
