<svg width="2238" height="1898" viewBox="0 0 2238 1898" fill="none" xmlns="http://www.w3.org/2000/svg">
<path d="M1438.57 1795.08C1877.32 1795.08 2233 1394.35 2233 900.038C2233 405.722 1877.32 5 1438.57 5C999.813 5 644.133 405.722 644.133 900.038C644.133 1394.35 999.813 1795.08 1438.57 1795.08Z" stroke="#FEA2A4" stroke-width="10" stroke-miterlimit="10"/>
<path d="M1398.62 1801.19C1837.37 1801.19 2193.05 1400.47 2193.05 906.153C2193.05 411.837 1837.37 11.1152 1398.62 11.1152C959.867 11.1152 604.188 411.837 604.188 906.153C604.188 1400.47 959.867 1801.19 1398.62 1801.19Z" stroke="#FEA2A4" stroke-width="10" stroke-miterlimit="10"/>
<path d="M1358.68 1807.32C1797.43 1807.32 2153.11 1406.6 2153.11 912.282C2153.11 417.966 1797.43 17.2441 1358.68 17.2441C919.926 17.2441 564.246 417.966 564.246 912.282C564.246 1406.6 919.926 1807.32 1358.68 1807.32Z" stroke="#FEA2A4" stroke-width="10" stroke-miterlimit="10"/>
<path d="M1318.73 1813.44C1757.48 1813.44 2113.16 1412.71 2113.16 918.399C2113.16 424.083 1757.48 23.3613 1318.73 23.3613C879.977 23.3613 524.297 424.083 524.297 918.399C524.297 1412.71 879.977 1813.44 1318.73 1813.44Z" stroke="#FEA2A4" stroke-width="10" stroke-miterlimit="10"/>
<path d="M1278.78 1819.55C1717.53 1819.55 2073.21 1418.83 2073.21 924.516C2073.21 430.201 1717.53 29.4785 1278.78 29.4785C840.028 29.4785 484.348 430.201 484.348 924.516C484.348 1418.83 840.028 1819.55 1278.78 1819.55Z" stroke="#FEA2A4" stroke-width="10" stroke-miterlimit="10"/>
<path d="M1238.84 1825.67C1677.59 1825.67 2033.27 1424.95 2033.27 930.635C2033.27 436.32 1677.59 35.5977 1238.84 35.5977C800.082 35.5977 444.402 436.32 444.402 930.635C444.402 1424.95 800.082 1825.67 1238.84 1825.67Z" stroke="#FEA2A4" stroke-width="10" stroke-miterlimit="10"/>
<path d="M1198.9 1831.79C1637.65 1831.79 1993.33 1431.07 1993.33 936.753C1993.33 442.437 1637.65 41.7148 1198.9 41.7148C760.145 41.7148 404.465 442.437 404.465 936.753C404.465 1431.07 760.145 1831.79 1198.9 1831.79Z" stroke="#FEA2A4" stroke-width="10" stroke-miterlimit="10"/>
<path d="M1158.95 1837.92C1597.7 1837.92 1953.38 1437.2 1953.38 942.881C1953.38 448.566 1597.7 47.8438 1158.95 47.8438C720.196 47.8438 364.516 448.566 364.516 942.881C364.516 1437.2 720.196 1837.92 1158.95 1837.92Z" stroke="#FEA2A4" stroke-width="10" stroke-miterlimit="10"/>
<path d="M1119 1844.04C1557.75 1844.04 1913.43 1443.32 1913.43 949.001C1913.43 454.685 1557.75 53.9629 1119 53.9629C680.243 53.9629 324.562 454.685 324.562 949.001C324.562 1443.32 680.243 1844.04 1119 1844.04Z" stroke="#FEA2A4" stroke-width="10" stroke-miterlimit="10"/>
<path d="M1079.05 1850.16C1517.8 1850.16 1873.48 1449.43 1873.48 955.118C1873.48 460.802 1517.8 60.0801 1079.05 60.0801C640.297 60.0801 284.617 460.802 284.617 955.118C284.617 1449.43 640.297 1850.16 1079.05 1850.16Z" stroke="#FEA2A4" stroke-width="10" stroke-miterlimit="10"/>
<path d="M1039.11 1856.27C1477.87 1856.27 1833.55 1455.55 1833.55 961.235C1833.55 466.919 1477.87 66.1973 1039.11 66.1973C600.36 66.1973 244.68 466.919 244.68 961.235C244.68 1455.55 600.36 1856.27 1039.11 1856.27Z" stroke="#FEA2A4" stroke-width="10" stroke-miterlimit="10"/>
<path d="M999.164 1862.4C1437.92 1862.4 1793.6 1461.68 1793.6 967.362C1793.6 473.046 1437.92 72.3242 999.164 72.3242C560.41 72.3242 204.73 473.046 204.73 967.362C204.73 1461.68 560.41 1862.4 999.164 1862.4Z" stroke="#FEA2A4" stroke-width="10" stroke-miterlimit="10"/>
<path d="M959.219 1868.52C1397.97 1868.52 1753.65 1467.79 1753.65 973.479C1753.65 479.163 1397.97 78.4414 959.219 78.4414C520.465 78.4414 164.785 479.163 164.785 973.479C164.785 1467.79 520.465 1868.52 959.219 1868.52Z" stroke="#FEA2A4" stroke-width="10" stroke-miterlimit="10"/>
<path d="M919.266 1874.64C1358.02 1874.64 1713.7 1473.91 1713.7 979.598C1713.7 485.283 1358.02 84.5605 919.266 84.5605C480.512 84.5605 124.832 485.283 124.832 979.598C124.832 1473.91 480.512 1874.64 919.266 1874.64Z" stroke="#FEA2A4" stroke-width="10" stroke-miterlimit="10"/>
<path d="M879.324 1880.75C1318.08 1880.75 1673.76 1480.03 1673.76 985.716C1673.76 491.4 1318.08 90.6777 879.324 90.6777C440.571 90.6777 84.8906 491.4 84.8906 985.716C84.8906 1480.03 440.571 1880.75 879.324 1880.75Z" stroke="#FEA2A4" stroke-width="10" stroke-miterlimit="10"/>
<path d="M839.379 1886.87C1278.13 1886.87 1633.81 1486.15 1633.81 991.833C1633.81 497.517 1278.13 96.7949 839.379 96.7949C400.625 96.7949 44.9453 497.517 44.9453 991.833C44.9453 1486.15 400.625 1886.87 839.379 1886.87Z" stroke="#FEA2A4" stroke-width="10" stroke-miterlimit="10"/>
<path d="M799.433 1893C1238.19 1893 1593.87 1492.28 1593.87 997.964C1593.87 503.648 1238.19 102.926 799.433 102.926C360.68 102.926 5 503.648 5 997.964C5 1492.28 360.68 1893 799.433 1893Z" stroke="#FEA2A4" stroke-width="10" stroke-miterlimit="10"/>
</svg>
