<svg width="612" height="2172" viewBox="0 0 612 2172" fill="none" xmlns="http://www.w3.org/2000/svg">
<path d="M336.704 2210.54C347.616 2048.03 358.528 1886.42 361.438 1724.11C368.713 1255.77 303.24 791.71 287.409 324.629C281.408 114.878 281.379 -22 281.379 -22H229C229 -22 229.036 114.864 235.147 324.724C245.732 631.546 276.286 934.719 296.656 1242.18C318.48 1566.81 311.205 1888.57 284.98 2211L336.704 2210.54Z" fill="url(#paint0_linear_1787_162)"/>
<path d="M605.537 2233C474.467 2231.93 343.178 2234.12 211.888 2231.93C179.066 2127.58 130.927 2026.14 64.1883 1928.35C-68.1949 1734.22 -259.658 1558.35 -301.233 1340.14C-347.184 1098.58 -108.676 910.3 64.1883 711.8C195.477 562.194 240.334 398.723 223.781 232.246V0H611.587V232.246C611.226 339.611 617.791 443.97 589.345 553.437C552.146 695.744 455.867 814.699 359.589 940.221C286.286 1034.36 220.641 1127.05 198.76 1232.86C152.808 1466.39 349.742 1664.89 471.184 1872.15C495.254 1913.75 518.23 1954.62 534.225 1996.77C589.126 2143.14 605.537 2233 605.537 2233Z" fill="url(#paint1_linear_1787_162)"/>
<path d="M143.689 2214C56.2612 2212.93 -31.3124 2215.12 -118.886 2212.93C-140.78 2108.58 -172.89 2007.14 -217.406 1909.35C-305.71 1715.22 -433.422 1539.35 -461.153 1321.14C-491.804 1079.58 -332.712 891.3 -217.406 692.8C-129.833 543.194 -99.9118 379.723 -110.953 213.246V-19H147.725V213.246C147.484 320.611 151.863 424.97 132.888 534.437C108.076 676.744 43.855 795.699 -20.3657 921.221C-69.261 1015.36 -113.048 1108.05 -127.643 1213.86C-158.294 1447.39 -26.9337 1645.89 54.0719 1853.15C70.1271 1894.75 85.4525 1935.62 96.1219 1977.77C132.742 2124.14 143.689 2214 143.689 2214Z" fill="url(#paint2_linear_1787_162)"/>
<defs>
<linearGradient id="paint0_linear_1787_162" x1="295.5" y1="-22" x2="295.5" y2="2211" gradientUnits="userSpaceOnUse">
<stop stop-color="#020780"/>
<stop offset="1" stop-color="#040CA9"/>
</linearGradient>
<linearGradient id="paint1_linear_1787_162" x1="152.5" y1="0" x2="152.5" y2="2233" gradientUnits="userSpaceOnUse">
<stop stop-color="#0108B5"/>
<stop offset="0.989583" stop-color="#0C1182"/>
</linearGradient>
<linearGradient id="paint2_linear_1787_162" x1="-158.5" y1="-19" x2="-158.5" y2="2214" gradientUnits="userSpaceOnUse">
<stop stop-color="#0108B5"/>
<stop offset="0.989583" stop-color="#0C1182"/>
</linearGradient>
</defs>
</svg>
