<svg width="1010" height="2172" viewBox="0 0 1010 2172" fill="none" xmlns="http://www.w3.org/2000/svg">
<path d="M702.689 -48C761.321 206.344 831.409 453.004 867.912 717.178C900.766 953.621 877.403 1176.93 824.838 1412.64C765.702 1679 699.265 1924.2 654 2184H908.067C947.491 1951.94 1002.98 1731.55 1057 1493.64C1109.57 1260.85 1139.5 1039 1121.98 806.209C1099.35 514.304 1018.31 234.805 956.12 -47.9854L702.689 -48Z" fill="url(#paint0_linear_1787_163)"/>
<path d="M823.895 -61.5403C848.097 100.974 872.3 262.576 878.754 424.886C894.889 893.23 749.674 1357.29 714.564 1824.37C701.253 2034.12 701.172 2171 701.172 2171H585C585 2171 585.097 2034.11 598.699 1824.28C622.175 1517.45 689.942 1214.28 735.12 906.818C783.525 582.19 767.39 260.431 709.304 -62L823.895 -61.5403Z" fill="#141A91"/>
<path d="M736.003 2707.58C665.092 2372.54 328.857 1820.21 413.607 1534.31C561.565 1035.16 1016.76 1844.54 1486.97 1420.47" stroke="url(#paint1_linear_1787_163)" stroke-width="7" stroke-miterlimit="10"/>
<path d="M750.967 2717.74C680.056 2382.71 343.821 1830.37 428.571 1544.47C576.529 1045.32 1031.75 1854.72 1501.95 1430.66" stroke="url(#paint2_linear_1787_163)" stroke-width="7" stroke-miterlimit="10"/>
<path d="M765.928 2727.91C695.017 2392.87 358.769 1840.52 443.532 1554.63C591.49 1055.48 1046.71 1864.88 1516.91 1440.83" stroke="url(#paint3_linear_1787_163)" stroke-width="7" stroke-miterlimit="10"/>
<path d="M780.864 2738.09C709.953 2403.05 373.722 1850.73 458.468 1564.81C606.43 1065.67 1061.65 1875.07 1531.85 1451.01" stroke="url(#paint4_linear_1787_163)" stroke-width="7" stroke-miterlimit="10"/>
<path d="M795.858 2748.24C724.946 2413.2 388.712 1860.87 473.44 1574.98C621.397 1075.84 1076.62 1885.24 1546.82 1461.17" stroke="url(#paint5_linear_1787_163)" stroke-width="7" stroke-miterlimit="10"/>
<path d="M810.834 2758.43C739.923 2423.39 403.688 1871.06 488.438 1585.15C636.396 1086 1091.62 1895.4 1561.82 1471.34" stroke="url(#paint6_linear_1787_163)" stroke-width="7" stroke-miterlimit="10"/>
<path d="M825.779 2768.57C754.868 2433.53 418.638 1881.21 503.384 1595.29C651.341 1096.15 1106.56 1905.55 1576.77 1481.49" stroke="url(#paint7_linear_1787_163)" stroke-width="7" stroke-miterlimit="10"/>
<path d="M840.738 2778.73C769.827 2443.7 433.597 1891.37 518.342 1605.46C666.304 1106.32 1121.54 1915.73 1591.76 1491.66" stroke="url(#paint8_linear_1787_163)" stroke-width="7" stroke-miterlimit="10"/>
<path d="M855.705 2788.9C784.794 2453.86 448.56 1901.53 533.31 1615.63C681.267 1116.48 1136.49 1925.88 1606.69 1501.82" stroke="url(#paint9_linear_1787_163)" stroke-width="7" stroke-miterlimit="10"/>
<path d="M870.67 2799.06C799.759 2464.03 463.524 1911.7 548.274 1625.79C696.232 1126.64 1151.45 1936.04 1621.65 1511.98" stroke="url(#paint10_linear_1787_163)" stroke-width="7" stroke-miterlimit="10"/>
<path d="M885.634 2809.23C814.731 2474.2 478.492 1921.86 563.238 1635.95C711.2 1136.81 1166.42 1946.2 1636.62 1522.15" stroke="url(#paint11_linear_1787_163)" stroke-width="7" stroke-miterlimit="10"/>
<path d="M900.599 2819.4C829.683 2484.35 493.447 1932.03 578.199 1646.12C726.161 1146.97 1181.38 1956.37 1651.58 1532.31" stroke="url(#paint12_linear_1787_163)" stroke-width="7" stroke-miterlimit="10"/>
<path d="M915.557 2829.56C844.646 2494.53 508.411 1942.19 593.161 1656.29C741.119 1157.14 1196.34 1966.54 1666.54 1542.48" stroke="url(#paint13_linear_1787_163)" stroke-width="7" stroke-miterlimit="10"/>
<path d="M930.506 2839.71C859.595 2504.68 523.36 1952.35 608.11 1666.44C756.068 1167.29 1211.29 1976.69 1681.49 1552.63" stroke="url(#paint14_linear_1787_163)" stroke-width="7" stroke-miterlimit="10"/>
<path d="M945.481 2849.89C874.57 2514.85 538.34 1962.53 623.086 1676.62C771.048 1177.47 1226.26 1986.87 1696.47 1562.81" stroke="url(#paint15_linear_1787_163)" stroke-width="7" stroke-miterlimit="10"/>
<path d="M960.47 2860.04C889.554 2525 553.324 1972.67 638.07 1686.76C786.032 1187.62 1241.25 1997.02 1711.45 1572.96" stroke="url(#paint16_linear_1787_163)" stroke-width="7" stroke-miterlimit="10"/>
<path d="M975.408 2870.22C904.497 2535.19 568.263 1982.85 653.013 1696.95C800.97 1197.8 1256.19 2007.2 1726.39 1583.14" stroke="url(#paint17_linear_1787_163)" stroke-width="7" stroke-miterlimit="10"/>
<path d="M990.369 2880.39C919.458 2545.35 583.215 1993.01 667.974 1707.11C815.931 1207.96 1271.15 2017.36 1741.35 1593.3" stroke="url(#paint18_linear_1787_163)" stroke-width="7" stroke-miterlimit="10"/>
<path d="M1005.33 2890.55C934.418 2555.51 598.188 2003.19 682.933 1717.28C830.895 1218.13 1286.11 2027.53 1756.32 1603.47" stroke="url(#paint19_linear_1787_163)" stroke-width="7" stroke-miterlimit="10"/>
<path d="M1020.29 2900.72C949.378 2565.68 613.148 2013.35 697.894 1727.44C845.856 1228.3 1301.08 2037.7 1771.28 1613.64" stroke="url(#paint20_linear_1787_163)" stroke-width="7" stroke-miterlimit="10"/>
<path d="M1035.27 2910.92C964.361 2575.88 628.126 2023.55 712.876 1737.64C860.833 1238.5 1316.06 2047.9 1786.25 1623.83" stroke="url(#paint21_linear_1787_163)" stroke-width="7" stroke-miterlimit="10"/>
<path d="M1050.22 2921.05C979.306 2586.01 643.071 2033.68 727.821 1747.77C875.779 1248.62 1331 2058.02 1801.2 1633.96" stroke="url(#paint22_linear_1787_163)" stroke-width="7" stroke-miterlimit="10"/>
<path d="M1065.18 2931.21C994.272 2596.18 658.042 2043.85 742.787 1757.94C890.749 1258.79 1345.97 2068.23 1816.19 1644.15" stroke="url(#paint23_linear_1787_163)" stroke-width="7" stroke-miterlimit="10"/>
<path d="M1080.15 2941.38C1009.24 2606.34 673.008 2054.01 757.753 1768.1C905.715 1268.96 1360.94 2078.36 1831.14 1654.29" stroke="url(#paint24_linear_1787_163)" stroke-width="7" stroke-miterlimit="10"/>
<path d="M1095.11 2951.54C1024.19 2616.52 687.988 2064.2 772.716 1778.27C920.674 1279.12 1375.89 2088.52 1846.09 1664.46" stroke="url(#paint25_linear_1787_163)" stroke-width="7" stroke-miterlimit="10"/>
<path d="M1110.07 2961.71C1039.16 2626.67 702.927 2074.34 787.677 1788.43C935.634 1289.29 1390.86 2098.69 1861.05 1674.62" stroke="url(#paint26_linear_1787_163)" stroke-width="7" stroke-miterlimit="10"/>
<path d="M1125.03 2971.87C1054.12 2636.84 717.886 2084.51 802.636 1798.6C950.598 1299.46 1405.82 2108.85 1876.02 1684.8" stroke="url(#paint27_linear_1787_163)" stroke-width="7" stroke-miterlimit="10"/>
<path d="M1140 2982.04C1069.09 2647.01 732.852 2094.67 817.597 1808.76C965.559 1309.62 1420.78 2119.02 1890.98 1694.96" stroke="url(#paint28_linear_1787_163)" stroke-width="7" stroke-miterlimit="10"/>
<path d="M1154.96 2992.2C1084.05 2657.16 747.813 2104.83 832.563 1818.92C980.521 1319.77 1435.74 2129.17 1905.94 1705.11" stroke="url(#paint29_linear_1787_163)" stroke-width="7" stroke-miterlimit="10"/>
<path d="M1169.92 3002.37C1099.01 2667.33 762.774 2115 847.524 1829.09C995.482 1329.95 1450.7 2139.35 1920.91 1715.28" stroke="url(#paint30_linear_1787_163)" stroke-width="7" stroke-miterlimit="10"/>
<path d="M1184.89 3012.53C1113.98 2677.5 777.747 2125.17 862.492 1839.26C1010.45 1340.11 1465.67 2149.5 1935.87 1725.44" stroke="url(#paint31_linear_1787_163)" stroke-width="7" stroke-miterlimit="10"/>
<path d="M1199.85 3022.7C1128.94 2687.66 792.704 2135.33 877.454 1849.43C1025.41 1350.28 1480.63 2159.68 1950.84 1735.61" stroke="url(#paint32_linear_1787_163)" stroke-width="7" stroke-miterlimit="10"/>
<path d="M1214.81 3032.86C1143.9 2697.83 807.659 2145.49 892.413 1859.59C1040.37 1360.44 1495.59 2169.84 1965.8 1745.78" stroke="url(#paint33_linear_1787_163)" stroke-width="7" stroke-miterlimit="10"/>
<path d="M1229.78 3043.03C1158.85 2707.98 822.608 2155.67 907.374 1869.75C1055.33 1370.61 1510.55 2180.01 1980.76 1755.94" stroke="url(#paint34_linear_1787_163)" stroke-width="7" stroke-miterlimit="10"/>
<path d="M1244.74 3053.19C1173.82 2718.16 837.592 2165.83 922.338 1879.92C1070.3 1380.78 1525.52 2190.17 1995.73 1766.11" stroke="url(#paint35_linear_1787_163)" stroke-width="7" stroke-miterlimit="10"/>
<path d="M1259.71 3063.36C1188.79 2728.33 852.554 2175.99 937.304 1890.09C1085.26 1390.94 1540.48 2200.34 2010.69 1776.27" stroke="url(#paint36_linear_1787_163)" stroke-width="7" stroke-miterlimit="10"/>
<path d="M1274.67 3073.52C1203.75 2738.49 867.515 2186.16 952.265 1900.25C1100.22 1401.1 1555.44 2210.5 2025.65 1786.44" stroke="url(#paint37_linear_1787_163)" stroke-width="7" stroke-miterlimit="10"/>
<path d="M1289.64 3083.68C1218.72 2748.65 882.488 2196.31 967.238 1910.41C1115.2 1411.26 1570.42 2220.66 2040.63 1796.6" stroke="url(#paint38_linear_1787_163)" stroke-width="7" stroke-miterlimit="10"/>
<path d="M1304.59 3093.85C1233.67 2758.82 897.444 2206.49 982.189 1920.58C1130.15 1421.44 1585.37 2230.83 2055.58 1806.77" stroke="url(#paint39_linear_1787_163)" stroke-width="7" stroke-miterlimit="10"/>
<path d="M1319.55 3104.02C1248.64 2768.99 912.402 2216.65 997.157 1930.74C1145.11 1431.6 1600.34 2240.99 2070.54 1816.93" stroke="url(#paint40_linear_1787_163)" stroke-width="7" stroke-miterlimit="10"/>
<defs>
<linearGradient id="paint0_linear_1787_163" x1="890.5" y1="-48" x2="890.5" y2="2184" gradientUnits="userSpaceOnUse">
<stop stop-color="#1A1D5C"/>
<stop offset="1" stop-color="#1118AC"/>
</linearGradient>
<linearGradient id="paint1_linear_1787_163" x1="542.573" y1="1354.87" x2="1278.58" y2="2272.31" gradientUnits="userSpaceOnUse">
<stop stop-color="#131A98"/>
<stop offset="1" stop-color="#1621DD"/>
</linearGradient>
<linearGradient id="paint2_linear_1787_163" x1="557.538" y1="1365.03" x2="1293.54" y2="2282.47" gradientUnits="userSpaceOnUse">
<stop stop-color="#131A98"/>
<stop offset="1" stop-color="#1621DD"/>
</linearGradient>
<linearGradient id="paint3_linear_1787_163" x1="572.499" y1="1375.2" x2="1308.5" y2="2292.63" gradientUnits="userSpaceOnUse">
<stop stop-color="#131A98"/>
<stop offset="1" stop-color="#1621DD"/>
</linearGradient>
<linearGradient id="paint4_linear_1787_163" x1="587.436" y1="1385.38" x2="1323.44" y2="2302.82" gradientUnits="userSpaceOnUse">
<stop stop-color="#131A98"/>
<stop offset="1" stop-color="#1621DD"/>
</linearGradient>
<linearGradient id="paint5_linear_1787_163" x1="602.417" y1="1395.54" x2="1338.42" y2="2312.98" gradientUnits="userSpaceOnUse">
<stop stop-color="#131A98"/>
<stop offset="1" stop-color="#1621DD"/>
</linearGradient>
<linearGradient id="paint6_linear_1787_163" x1="617.405" y1="1405.72" x2="1353.41" y2="2323.15" gradientUnits="userSpaceOnUse">
<stop stop-color="#131A98"/>
<stop offset="1" stop-color="#1621DD"/>
</linearGradient>
<linearGradient id="paint7_linear_1787_163" x1="632.35" y1="1415.86" x2="1368.35" y2="2333.3" gradientUnits="userSpaceOnUse">
<stop stop-color="#131A98"/>
<stop offset="1" stop-color="#1621DD"/>
</linearGradient>
<linearGradient id="paint8_linear_1787_163" x1="647.32" y1="1426.02" x2="1383.32" y2="2343.45" gradientUnits="userSpaceOnUse">
<stop stop-color="#131A98"/>
<stop offset="1" stop-color="#1621DD"/>
</linearGradient>
<linearGradient id="paint9_linear_1787_163" x1="662.276" y1="1436.19" x2="1398.28" y2="2353.63" gradientUnits="userSpaceOnUse">
<stop stop-color="#131A98"/>
<stop offset="1" stop-color="#1621DD"/>
</linearGradient>
<linearGradient id="paint10_linear_1787_163" x1="677.241" y1="1446.36" x2="1413.24" y2="2363.79" gradientUnits="userSpaceOnUse">
<stop stop-color="#131A98"/>
<stop offset="1" stop-color="#1621DD"/>
</linearGradient>
<linearGradient id="paint11_linear_1787_163" x1="692.206" y1="1456.52" x2="1428.21" y2="2373.95" gradientUnits="userSpaceOnUse">
<stop stop-color="#131A98"/>
<stop offset="1" stop-color="#1621DD"/>
</linearGradient>
<linearGradient id="paint12_linear_1787_163" x1="707.167" y1="1466.68" x2="1443.17" y2="2384.12" gradientUnits="userSpaceOnUse">
<stop stop-color="#131A98"/>
<stop offset="1" stop-color="#1621DD"/>
</linearGradient>
<linearGradient id="paint13_linear_1787_163" x1="722.128" y1="1476.85" x2="1458.13" y2="2394.29" gradientUnits="userSpaceOnUse">
<stop stop-color="#131A98"/>
<stop offset="1" stop-color="#1621DD"/>
</linearGradient>
<linearGradient id="paint14_linear_1787_163" x1="737.077" y1="1487.01" x2="1473.08" y2="2404.44" gradientUnits="userSpaceOnUse">
<stop stop-color="#131A98"/>
<stop offset="1" stop-color="#1621DD"/>
</linearGradient>
<linearGradient id="paint15_linear_1787_163" x1="752.053" y1="1497.18" x2="1488.05" y2="2414.62" gradientUnits="userSpaceOnUse">
<stop stop-color="#131A98"/>
<stop offset="1" stop-color="#1621DD"/>
</linearGradient>
<linearGradient id="paint16_linear_1787_163" x1="767.038" y1="1507.33" x2="1503.04" y2="2424.77" gradientUnits="userSpaceOnUse">
<stop stop-color="#131A98"/>
<stop offset="1" stop-color="#1621DD"/>
</linearGradient>
<linearGradient id="paint17_linear_1787_163" x1="781.979" y1="1517.51" x2="1517.98" y2="2434.95" gradientUnits="userSpaceOnUse">
<stop stop-color="#131A98"/>
<stop offset="1" stop-color="#1621DD"/>
</linearGradient>
<linearGradient id="paint18_linear_1787_163" x1="796.94" y1="1527.68" x2="1532.94" y2="2445.11" gradientUnits="userSpaceOnUse">
<stop stop-color="#131A98"/>
<stop offset="1" stop-color="#1621DD"/>
</linearGradient>
<linearGradient id="paint19_linear_1787_163" x1="811.901" y1="1537.84" x2="1547.9" y2="2455.28" gradientUnits="userSpaceOnUse">
<stop stop-color="#131A98"/>
<stop offset="1" stop-color="#1621DD"/>
</linearGradient>
<linearGradient id="paint20_linear_1787_163" x1="826.862" y1="1548.01" x2="1562.87" y2="2465.45" gradientUnits="userSpaceOnUse">
<stop stop-color="#131A98"/>
<stop offset="1" stop-color="#1621DD"/>
</linearGradient>
<linearGradient id="paint21_linear_1787_163" x1="841.843" y1="1558.21" x2="1577.84" y2="2475.64" gradientUnits="userSpaceOnUse">
<stop stop-color="#131A98"/>
<stop offset="1" stop-color="#1621DD"/>
</linearGradient>
<linearGradient id="paint22_linear_1787_163" x1="856.788" y1="1568.34" x2="1592.79" y2="2485.77" gradientUnits="userSpaceOnUse">
<stop stop-color="#131A98"/>
<stop offset="1" stop-color="#1621DD"/>
</linearGradient>
<linearGradient id="paint23_linear_1787_163" x1="871.757" y1="1578.51" x2="1607.76" y2="2495.94" gradientUnits="userSpaceOnUse">
<stop stop-color="#131A98"/>
<stop offset="1" stop-color="#1621DD"/>
</linearGradient>
<linearGradient id="paint24_linear_1787_163" x1="886.721" y1="1588.67" x2="1622.73" y2="2506.11" gradientUnits="userSpaceOnUse">
<stop stop-color="#131A98"/>
<stop offset="1" stop-color="#1621DD"/>
</linearGradient>
<linearGradient id="paint25_linear_1787_163" x1="901.682" y1="1598.83" x2="1637.68" y2="2516.27" gradientUnits="userSpaceOnUse">
<stop stop-color="#131A98"/>
<stop offset="1" stop-color="#1621DD"/>
</linearGradient>
<linearGradient id="paint26_linear_1787_163" x1="916.643" y1="1609" x2="1652.65" y2="2526.44" gradientUnits="userSpaceOnUse">
<stop stop-color="#131A98"/>
<stop offset="1" stop-color="#1621DD"/>
</linearGradient>
<linearGradient id="paint27_linear_1787_163" x1="931.604" y1="1619.17" x2="1667.6" y2="2536.6" gradientUnits="userSpaceOnUse">
<stop stop-color="#131A98"/>
<stop offset="1" stop-color="#1621DD"/>
</linearGradient>
<linearGradient id="paint28_linear_1787_163" x1="946.565" y1="1629.33" x2="1682.57" y2="2546.77" gradientUnits="userSpaceOnUse">
<stop stop-color="#131A98"/>
<stop offset="1" stop-color="#1621DD"/>
</linearGradient>
<linearGradient id="paint29_linear_1787_163" x1="961.53" y1="1639.49" x2="1697.53" y2="2556.92" gradientUnits="userSpaceOnUse">
<stop stop-color="#131A98"/>
<stop offset="1" stop-color="#1621DD"/>
</linearGradient>
<linearGradient id="paint30_linear_1787_163" x1="976.494" y1="1649.66" x2="1712.5" y2="2567.09" gradientUnits="userSpaceOnUse">
<stop stop-color="#131A98"/>
<stop offset="1" stop-color="#1621DD"/>
</linearGradient>
<linearGradient id="paint31_linear_1787_163" x1="991.463" y1="1659.82" x2="1727.46" y2="2577.26" gradientUnits="userSpaceOnUse">
<stop stop-color="#131A98"/>
<stop offset="1" stop-color="#1621DD"/>
</linearGradient>
<linearGradient id="paint32_linear_1787_163" x1="1006.42" y1="1669.99" x2="1742.43" y2="2587.43" gradientUnits="userSpaceOnUse">
<stop stop-color="#131A98"/>
<stop offset="1" stop-color="#1621DD"/>
</linearGradient>
<linearGradient id="paint33_linear_1787_163" x1="1021.39" y1="1680.15" x2="1757.39" y2="2597.59" gradientUnits="userSpaceOnUse">
<stop stop-color="#131A98"/>
<stop offset="1" stop-color="#1621DD"/>
</linearGradient>
<linearGradient id="paint34_linear_1787_163" x1="1036.35" y1="1690.32" x2="1772.35" y2="2607.75" gradientUnits="userSpaceOnUse">
<stop stop-color="#131A98"/>
<stop offset="1" stop-color="#1621DD"/>
</linearGradient>
<linearGradient id="paint35_linear_1787_163" x1="1051.31" y1="1700.48" x2="1787.31" y2="2617.92" gradientUnits="userSpaceOnUse">
<stop stop-color="#131A98"/>
<stop offset="1" stop-color="#1621DD"/>
</linearGradient>
<linearGradient id="paint36_linear_1787_163" x1="1066.28" y1="1710.65" x2="1802.28" y2="2628.08" gradientUnits="userSpaceOnUse">
<stop stop-color="#131A98"/>
<stop offset="1" stop-color="#1621DD"/>
</linearGradient>
<linearGradient id="paint37_linear_1787_163" x1="1081.24" y1="1720.81" x2="1817.24" y2="2638.25" gradientUnits="userSpaceOnUse">
<stop stop-color="#131A98"/>
<stop offset="1" stop-color="#1621DD"/>
</linearGradient>
<linearGradient id="paint38_linear_1787_163" x1="1096.21" y1="1730.97" x2="1832.21" y2="2648.4" gradientUnits="userSpaceOnUse">
<stop stop-color="#131A98"/>
<stop offset="1" stop-color="#1621DD"/>
</linearGradient>
<linearGradient id="paint39_linear_1787_163" x1="1111.16" y1="1741.14" x2="1847.16" y2="2658.57" gradientUnits="userSpaceOnUse">
<stop stop-color="#131A98"/>
<stop offset="1" stop-color="#1621DD"/>
</linearGradient>
<linearGradient id="paint40_linear_1787_163" x1="1126.12" y1="1751.31" x2="1862.13" y2="2668.74" gradientUnits="userSpaceOnUse">
<stop stop-color="#131A98"/>
<stop offset="1" stop-color="#1621DD"/>
</linearGradient>
</defs>
</svg>
