<svg width="2289" height="805" viewBox="0 0 2289 805" fill="none" xmlns="http://www.w3.org/2000/svg">
<path d="M2113.31 1.1057C2119.96 -0.735497 2127.03 -0.266996 2133.37 2.43453C2139.72 5.13605 2144.96 9.91057 2148.23 15.9767C2172.91 61.5979 2196.59 107.315 2213.24 155.202C2267.46 315.296 2235.32 498.023 2262.08 665.336C2275.41 740.103 2288.71 787.608 2288.71 787.608L2226.82 804.973C2226.82 804.973 2213.53 757.468 2200.32 682.62C2182.94 572.658 2189.52 457.332 2183.64 343.89C2178.44 236.857 2146.03 138.308 2094.73 44.9829C2092.53 40.9639 2091.27 36.4996 2091.04 31.924C2090.81 27.3483 2091.61 22.7797 2093.4 18.5598C2095.18 14.34 2097.9 10.578 2101.34 7.55549C2104.79 4.53297 2108.87 2.3281 2113.29 1.1057H2113.31Z" fill="url(#paint0_linear_1581_1288)"/>
<path d="M433.945 29.877C353.664 29.877 306.881 120.565 353.238 186.194C368.671 208.014 382.303 230.077 393.055 252.582C426.125 321.398 402.609 386.394 349.696 454.997C290.169 532.526 223.293 603.889 177.729 679.504H433.474C473.159 611.962 529.011 547.819 583.394 478.598C636.307 410.842 666.437 346.272 648.8 278.515C629.413 206.211 567.439 136.519 510.823 66.629C501.546 55.1634 489.83 45.916 476.53 39.5616C463.23 33.2073 448.681 29.9061 433.945 29.8991V29.877Z" fill="url(#paint1_linear_1581_1288)"/>
<path d="M45.5885 16.7999C39.9223 16.8177 34.43 18.7656 30.0106 22.3244C25.5913 25.8832 22.5066 30.8423 21.2617 36.3898C11.8759 78.125 3.29737 119.706 0.758284 161.448C-6.58011 300.639 59.4654 438.622 75.4264 577.467C81.4879 639.823 81.5172 680.513 81.5172 680.513H134.354C134.354 680.513 134.354 639.823 128.123 577.408C117.453 486.198 86.632 396.077 66.0846 304.675C46.425 218.509 50.1676 133.021 70.0326 47.4736C70.8859 43.7907 70.8971 39.9616 70.0652 36.2738C69.2334 32.586 67.5801 29.1354 65.2295 26.1804C62.8789 23.2254 59.892 20.8431 56.4929 19.2121C53.0938 17.5811 49.3708 16.7437 45.6032 16.763L45.5885 16.7999Z" fill="#91B0FF"/>
<path d="M847.531 679.133C851.661 358.239 1044.62 -41.7863 1287.34 185.35C1530.07 412.486 1614.96 331.111 1667.49 530.031C1720.02 728.951 1667.49 680.31 1667.49 680.31L847.531 679.133Z" fill="#DFEFFF"/>
<defs>
<linearGradient id="paint0_linear_1581_1288" x1="2189.86" y1="0" x2="2189.86" y2="804.973" gradientUnits="userSpaceOnUse">
<stop stop-color="#DEEEFF"/>
<stop offset="1" stop-color="#9DCDFF"/>
</linearGradient>
<linearGradient id="paint1_linear_1581_1288" x1="415.792" y1="29.877" x2="415.999" y2="893.99" gradientUnits="userSpaceOnUse">
<stop stop-color="#EEFCFF"/>
<stop offset="1" stop-color="#6FA7FA"/>
</linearGradient>
</defs>
</svg>
