<svg width="1402" height="2828" viewBox="0 0 1402 2828" fill="none" xmlns="http://www.w3.org/2000/svg">
<path d="M700.818 103.184C468.663 -26.055 -63.8941 -149.794 12.9854 584.401C89.8648 1318.6 674.538 801.634 507.093 1192.11C339.649 1582.59 193.287 1051.87 48.2656 1315.85C-96.7556 1579.83 204.712 2008.8 353.164 1876.8C501.615 1744.8 784.358 2179.28 545.536 2366.27C306.714 2553.25 375.349 2826.42 375.349 2826.42" stroke="url(#paint0_linear_1593_797)" stroke-width="10" stroke-miterlimit="10"/>
<path d="M721.773 103.184C488.982 -26.055 -45.0341 -149.794 32.0559 584.401C109.146 1318.6 695.421 801.634 527.511 1192.11C359.602 1582.59 212.845 1051.87 67.4269 1315.85C-77.9916 1579.83 224.302 2008.8 373.16 1876.8C522.018 1744.8 805.536 2179.28 566.059 2366.27C326.583 2553.25 395.407 2826.42 395.407 2826.42" stroke="url(#paint1_linear_1593_797)" stroke-width="7" stroke-miterlimit="10"/>
<path d="M742.729 103.183C509.937 -26.0549 -24.0791 -149.794 53.011 584.398C130.101 1318.59 716.345 801.637 548.466 1192.12C380.587 1582.61 233.8 1051.88 88.3818 1315.86C-57.0367 1579.84 245.263 2008.83 394.103 1876.81C542.943 1744.78 826.478 2179.28 587.002 2366.27C347.526 2553.25 416.343 2826.42 416.343 2826.42" stroke="url(#paint2_linear_1593_797)" stroke-width="7" stroke-miterlimit="10"/>
<path d="M763.686 103.183C530.894 -26.0549 -3.12204 -149.794 73.9681 584.398C151.058 1318.59 737.333 801.631 569.424 1192.1C401.514 1582.58 254.757 1051.86 109.339 1315.84C-36.0796 1579.83 266.214 2008.79 415.072 1876.79C563.931 1744.8 847.436 2179.28 607.978 2366.27C368.52 2553.25 437.325 2826.42 437.325 2826.42" stroke="url(#paint3_linear_1593_797)" stroke-width="7" stroke-miterlimit="10"/>
<path d="M782.736 103.184C550.581 -26.055 18.0238 -149.794 94.9033 584.401C171.783 1318.6 756.456 801.634 589.005 1192.11C421.554 1582.59 275.199 1051.87 130.178 1315.85C-14.8435 1579.83 286.624 2008.8 435.075 1876.8C583.527 1744.8 866.264 2179.28 627.448 2366.27C388.632 2553.25 457.261 2826.42 457.261 2826.42" stroke="url(#paint4_linear_1593_797)" stroke-width="7" stroke-miterlimit="10"/>
<path d="M803.691 103.183C570.9 -26.0549 36.8839 -149.794 113.974 584.398C191.064 1318.59 777.321 801.637 609.429 1192.12C441.538 1582.61 294.763 1051.88 149.345 1315.86C3.9263 1579.84 306.22 2008.81 455.078 1876.81C603.936 1744.81 887.448 2179.29 647.977 2366.27C408.507 2553.26 477.318 2826.42 477.318 2826.42" stroke="url(#paint5_linear_1593_797)" stroke-width="7" stroke-miterlimit="10"/>
<path d="M824.648 103.184C591.857 -26.055 57.8409 -149.794 134.931 584.401C212.021 1318.6 798.296 801.634 630.386 1192.11C462.477 1582.59 315.72 1051.87 170.302 1315.85C24.8834 1579.83 327.177 2008.8 476.035 1876.8C624.893 1744.8 908.404 2179.28 668.934 2366.27C429.464 2553.25 498.282 2826.42 498.282 2826.42" stroke="url(#paint6_linear_1593_797)" stroke-width="7" stroke-miterlimit="10"/>
<path d="M845.604 103.184C612.812 -26.055 78.7959 -149.794 155.886 584.401C232.976 1318.6 819.251 801.634 651.341 1192.11C483.432 1582.59 336.675 1051.87 191.257 1315.85C45.8384 1579.83 348.132 2008.8 496.99 1876.8C645.849 1744.8 929.36 2179.28 689.89 2366.27C450.419 2553.25 519.237 2826.42 519.237 2826.42" stroke="url(#paint7_linear_1593_797)" stroke-width="7" stroke-miterlimit="10"/>
<path d="M864.654 103.183C632.499 -26.0549 99.9418 -149.794 176.821 584.398C253.701 1318.59 838.368 801.637 670.923 1192.12C503.478 1582.61 357.117 1051.88 212.095 1315.86C67.0743 1579.84 368.542 2008.81 516.993 1876.81C665.445 1744.81 948.182 2179.29 709.366 2366.27C470.55 2553.26 539.185 2826.42 539.185 2826.42" stroke="url(#paint8_linear_1593_797)" stroke-width="7" stroke-miterlimit="10"/>
<path d="M887.516 103.184C654.088 -26.055 118.613 -149.794 195.914 584.401C273.214 1318.6 861.091 801.634 692.723 1192.11C524.355 1582.59 377.197 1051.87 231.381 1315.85C85.5654 1579.83 388.685 2008.8 537.95 1876.8C687.215 1744.8 971.501 2179.28 731.376 2366.27C491.252 2553.25 560.257 2826.42 560.257 2826.42" stroke="url(#paint9_linear_1593_797)" stroke-width="7" stroke-miterlimit="10"/>
<path d="M906.566 103.184C674.411 -26.055 141.854 -149.794 218.733 584.401C295.613 1318.6 880.286 801.634 712.835 1192.11C545.384 1582.59 399.029 1051.87 254.008 1315.85C108.987 1579.83 410.46 2008.8 558.912 1876.8C707.363 1744.8 990.1 2179.28 751.284 2366.27C512.468 2553.25 581.097 2826.42 581.097 2826.42" stroke="url(#paint10_linear_1593_797)" stroke-width="7" stroke-miterlimit="10"/>
<path d="M927.521 103.183C694.73 -26.0548 160.714 -149.793 237.804 584.397C314.894 1318.59 901.175 801.635 733.259 1192.12C565.344 1582.61 418.593 1051.88 273.175 1315.86C127.756 1579.84 430.05 2008.81 578.914 1876.81C727.779 1744.81 1011.28 2179.28 771.814 2366.27C532.344 2553.26 601.161 2826.42 601.161 2826.42" stroke="url(#paint11_linear_1593_797)" stroke-width="7" stroke-miterlimit="10"/>
<path d="M946.572 103.184C714.417 -26.055 181.86 -149.794 258.739 584.401C335.619 1318.6 920.292 801.634 752.841 1192.11C585.39 1582.59 439.035 1051.87 294.013 1315.85C148.992 1579.83 450.46 2008.8 598.917 1876.8C747.375 1744.8 1030.11 2179.28 791.29 2366.27C552.474 2553.25 621.103 2826.42 621.103 2826.42" stroke="url(#paint12_linear_1593_797)" stroke-width="7" stroke-miterlimit="10"/>
<path d="M969.434 103.183C736.642 -26.0548 202.626 -149.793 279.716 584.397C356.806 1318.59 943.081 801.635 775.172 1192.12C607.262 1582.61 460.506 1051.88 315.087 1315.86C169.669 1579.84 471.962 2008.81 620.826 1876.81C769.691 1744.81 1053.2 2179.28 813.726 2366.27C574.256 2553.26 643.073 2826.42 643.073 2826.42" stroke="url(#paint13_linear_1593_797)" stroke-width="7" stroke-miterlimit="10"/>
<path d="M988.484 103.183C756.329 -26.0548 223.772 -149.793 300.651 584.397C377.531 1318.59 962.222 801.635 794.753 1192.12C627.284 1582.61 480.947 1051.88 335.926 1315.86C190.904 1579.84 492.372 2008.81 640.83 1876.81C789.287 1744.81 1072.02 2179.28 833.202 2366.27C594.386 2553.26 663.015 2826.42 663.015 2826.42" stroke="url(#paint14_linear_1593_797)" stroke-width="7" stroke-miterlimit="10"/>
<path d="M1009.44 103.183C776.648 -26.0548 242.632 -149.793 319.722 584.397C396.812 1318.59 983.087 801.635 815.177 1192.12C647.268 1582.61 500.511 1051.88 355.093 1315.86C209.674 1579.84 511.968 2008.81 660.832 1876.81C809.697 1744.81 1093.2 2179.28 853.732 2366.27C614.262 2553.26 683.079 2826.42 683.079 2826.42" stroke="url(#paint15_linear_1593_797)" stroke-width="7" stroke-miterlimit="10"/>
<path d="M1030.4 103.183C797.605 -26.0548 263.589 -149.793 340.679 584.397C417.769 1318.59 1004.04 801.635 836.134 1192.12C668.225 1582.61 521.468 1051.88 376.05 1315.86C230.631 1579.84 532.925 2008.81 681.789 1876.81C830.654 1744.81 1114.16 2179.28 874.689 2366.27C635.219 2553.26 704.036 2826.42 704.036 2826.42" stroke="url(#paint16_linear_1593_797)" stroke-width="7" stroke-miterlimit="10"/>
<path d="M1051.35 103.183C818.56 -26.0548 284.544 -149.793 361.634 584.397C438.724 1318.59 1025 801.635 857.09 1192.12C689.18 1582.61 542.424 1051.88 397.005 1315.86C251.587 1579.84 553.88 2008.81 702.744 1876.81C851.609 1744.81 1135.11 2179.28 895.644 2366.27C656.174 2553.26 724.991 2826.42 724.991 2826.42" stroke="url(#paint17_linear_1593_797)" stroke-width="7" stroke-miterlimit="10"/>
<path d="M1070.4 103.183C838.247 -26.0548 305.69 -149.793 382.569 584.397C459.449 1318.59 1044.12 801.635 876.671 1192.12C709.22 1582.61 562.865 1051.88 417.844 1315.86C272.822 1579.84 574.29 2008.81 722.747 1876.81C871.205 1744.81 1153.94 2179.28 915.12 2366.27C676.304 2553.26 744.933 2826.42 744.933 2826.42" stroke="url(#paint18_linear_1593_797)" stroke-width="7" stroke-miterlimit="10"/>
<path d="M1091.36 103.183C858.566 -26.0548 324.55 -149.793 401.64 584.397C478.73 1318.59 1065 801.635 897.095 1192.12C729.192 1582.61 582.429 1051.88 437.011 1315.86C291.592 1579.84 593.886 2008.81 742.75 1876.81C891.615 1744.81 1175.12 2179.28 935.65 2366.27C696.18 2553.26 764.991 2826.42 764.991 2826.42" stroke="url(#paint19_linear_1593_797)" stroke-width="7" stroke-miterlimit="10"/>
<path d="M1112.31 103.183C879.523 -26.0548 345.507 -149.793 422.597 584.397C499.687 1318.59 1085.96 801.635 918.052 1192.12C750.149 1582.61 603.386 1051.88 457.968 1315.86C312.549 1579.84 614.843 2008.81 763.707 1876.81C912.572 1744.81 1196.08 2179.28 956.607 2366.27C717.137 2553.26 785.948 2826.42 785.948 2826.42" stroke="url(#paint20_linear_1593_797)" stroke-width="7" stroke-miterlimit="10"/>
<path d="M1133.27 103.183C900.478 -26.0548 366.462 -149.793 443.552 584.397C520.642 1318.59 1106.91 801.635 939.007 1192.12C771.104 1582.61 624.341 1051.88 478.923 1315.86C333.504 1579.84 635.798 2008.81 784.662 1876.81C933.527 1744.81 1217.03 2179.28 977.562 2366.27C738.092 2553.26 806.903 2826.42 806.903 2826.42" stroke="url(#paint21_linear_1593_797)" stroke-width="7" stroke-miterlimit="10"/>
<path d="M1152.32 103.183C920.165 -26.0549 387.608 -149.794 464.487 584.398C541.367 1318.59 1126.03 801.637 958.589 1192.12C791.144 1582.61 644.783 1051.88 499.761 1315.86C354.74 1579.84 656.208 2008.81 804.665 1876.81C953.123 1744.81 1235.85 2179.29 997.038 2366.27C758.222 2553.26 826.827 2826.42 826.827 2826.42" stroke="url(#paint22_linear_1593_797)" stroke-width="7" stroke-miterlimit="10"/>
<path d="M1173.28 103.183C940.486 -26.0548 406.47 -149.793 483.56 584.397C560.65 1318.59 1146.94 801.635 979.04 1192.12C811.136 1582.61 664.374 1051.88 518.955 1315.86C373.537 1579.84 675.83 2008.81 824.694 1876.81C973.559 1744.81 1257.06 2179.28 1017.59 2366.27C778.124 2553.26 846.935 2826.42 846.935 2826.42" stroke="url(#paint23_linear_1593_797)" stroke-width="7" stroke-miterlimit="10"/>
<path d="M1194.23 103.183C962.077 -26.0548 429.52 -149.793 506.399 584.397C583.279 1318.59 1167.95 801.635 1000.5 1192.12C833.057 1582.61 686.695 1051.88 541.674 1315.86C396.653 1579.84 698.12 2008.81 846.578 1876.81C995.035 1744.81 1277.77 2179.28 1038.95 2366.27C800.134 2553.26 868.757 2826.42 868.757 2826.42" stroke="url(#paint24_linear_1593_797)" stroke-width="7" stroke-miterlimit="10"/>
<path d="M1215.19 103.183C982.396 -26.0548 448.38 -149.793 525.47 584.397C602.56 1318.59 1188.83 801.635 1020.93 1192.12C853.022 1582.61 706.259 1051.88 560.841 1315.86C415.422 1579.84 717.716 2008.81 866.58 1876.81C1015.44 1744.81 1298.95 2179.28 1059.48 2366.27C820.01 2553.26 888.821 2826.42 888.821 2826.42" stroke="url(#paint25_linear_1593_797)" stroke-width="7" stroke-miterlimit="10"/>
<path d="M1236.14 103.183C1003.35 -26.0548 469.337 -149.793 546.427 584.397C623.517 1318.59 1209.8 801.635 1041.89 1192.12C873.991 1582.61 727.229 1051.88 581.81 1315.86C436.392 1579.84 738.685 2008.81 887.549 1876.81C1036.41 1744.81 1319.92 2179.28 1080.45 2366.27C840.979 2553.26 909.79 2826.42 909.79 2826.42" stroke="url(#paint26_linear_1593_797)" stroke-width="7" stroke-miterlimit="10"/>
<path d="M1257.1 103.183C1024.31 -26.0549 490.292 -149.794 567.382 584.398C644.472 1318.59 1230.74 801.637 1062.84 1192.12C894.934 1582.61 748.172 1051.88 602.753 1315.86C457.335 1579.84 759.628 2008.81 908.492 1876.81C1057.36 1744.81 1340.86 2179.29 1101.39 2366.27C861.922 2553.26 930.714 2826.42 930.714 2826.42" stroke="url(#paint27_linear_1593_797)" stroke-width="7" stroke-miterlimit="10"/>
<path d="M1276.15 103.183C1043.99 -26.0549 511.438 -149.794 588.317 584.398C665.197 1318.59 1249.86 801.637 1082.42 1192.12C914.974 1582.61 768.613 1051.88 623.592 1315.86C478.57 1579.84 780.038 2008.81 928.496 1876.81C1076.95 1744.81 1359.67 2179.28 1120.85 2366.27C882.034 2553.25 950.657 2826.42 950.657 2826.42" stroke="url(#paint28_linear_1593_797)" stroke-width="7" stroke-miterlimit="10"/>
<path d="M1297.11 103.183C1064.31 -26.0548 530.298 -149.793 607.388 584.397C684.478 1318.59 1270.75 801.635 1102.84 1192.12C934.94 1582.61 788.177 1051.88 642.759 1315.86C497.34 1579.84 799.634 2008.81 948.498 1876.81C1097.36 1744.81 1380.87 2179.28 1141.4 2366.27C901.928 2553.26 970.739 2826.42 970.739 2826.42" stroke="url(#paint29_linear_1593_797)" stroke-width="7" stroke-miterlimit="10"/>
<path d="M1318.06 103.183C1085.27 -26.0549 551.255 -149.794 628.345 584.398C705.435 1318.59 1291.7 801.637 1123.8 1192.12C955.897 1582.61 809.134 1051.88 663.716 1315.86C518.297 1579.84 820.591 2008.81 969.455 1876.81C1118.32 1744.81 1401.81 2179.28 1162.34 2366.27C922.866 2553.25 991.677 2826.42 991.677 2826.42" stroke="url(#paint30_linear_1593_797)" stroke-width="7" stroke-miterlimit="10"/>
<path d="M1339.02 103.183C1106.23 -26.0549 572.21 -149.794 649.3 584.398C726.39 1318.59 1312.66 801.637 1144.76 1192.12C976.852 1582.61 830.089 1051.88 684.671 1315.86C539.252 1579.84 841.527 2008.83 990.392 1876.81C1139.26 1744.78 1422.76 2179.28 1183.29 2366.27C943.821 2553.25 1012.63 2826.42 1012.63 2826.42" stroke="url(#paint31_linear_1593_797)" stroke-width="7" stroke-miterlimit="10"/>
<path d="M1358.07 103.183C1125.91 -26.0549 593.356 -149.794 670.235 584.398C747.115 1318.59 1331.77 801.637 1164.3 1192.12C996.832 1582.61 850.494 1051.88 705.473 1315.86C560.452 1579.84 861.925 2008.83 1010.38 1876.81C1158.84 1744.78 1441.55 2179.28 1202.76 2366.27C963.964 2553.25 1032.56 2826.42 1032.56 2826.42" stroke="url(#paint32_linear_1593_797)" stroke-width="7" stroke-miterlimit="10"/>
<path d="M1379.03 103.183C1146.23 -26.0548 612.218 -149.793 689.308 584.397C766.398 1318.59 1352.67 801.635 1184.76 1192.12C1016.86 1582.61 870.097 1051.88 724.679 1315.86C579.26 1579.84 881.554 2008.81 1030.42 1876.81C1179.28 1744.81 1462.79 2179.28 1223.32 2366.27C983.847 2553.26 1052.66 2826.42 1052.66 2826.42" stroke="url(#paint33_linear_1593_797)" stroke-width="7" stroke-miterlimit="10"/>
<path d="M1399.98 103.183C1167.19 -26.0548 633.173 -149.793 710.263 584.397C787.353 1318.59 1373.62 801.635 1205.72 1192.12C1037.82 1582.61 891.052 1051.88 745.634 1315.86C600.215 1579.84 902.509 2008.81 1051.37 1876.81C1200.24 1744.81 1483.74 2179.28 1244.27 2366.27C1004.8 2553.26 1073.61 2826.42 1073.61 2826.42" stroke="url(#paint34_linear_1593_797)" stroke-width="7" stroke-miterlimit="10"/>
<defs>
<linearGradient id="paint0_linear_1593_797" x1="700.818" y1="1415.71" x2="5.46551" y2="1415.71" gradientUnits="userSpaceOnUse">
<stop stop-color="#DBC5FF"/>
<stop offset="1" stop-color="#FFEA7D" stop-opacity="0.33"/>
</linearGradient>
<linearGradient id="paint1_linear_1593_797" x1="721.773" y1="1415.71" x2="24.5155" y2="1415.71" gradientUnits="userSpaceOnUse">
<stop stop-color="#DBC5FF"/>
<stop offset="1" stop-color="#FFEA7D" stop-opacity="0.33"/>
</linearGradient>
<linearGradient id="paint2_linear_1593_797" x1="742.728" y1="1415.71" x2="45.4706" y2="1415.71" gradientUnits="userSpaceOnUse">
<stop stop-color="#DBC5FF"/>
<stop offset="1" stop-color="#FFEA7D" stop-opacity="0.33"/>
</linearGradient>
<linearGradient id="paint3_linear_1593_797" x1="763.685" y1="1415.71" x2="66.4276" y2="1415.71" gradientUnits="userSpaceOnUse">
<stop stop-color="#DBC5FF"/>
<stop offset="1" stop-color="#FFEA7D" stop-opacity="0.33"/>
</linearGradient>
<linearGradient id="paint4_linear_1593_797" x1="782.736" y1="1415.71" x2="87.3835" y2="1415.71" gradientUnits="userSpaceOnUse">
<stop stop-color="#DBC5FF"/>
<stop offset="1" stop-color="#FFEA7D" stop-opacity="0.33"/>
</linearGradient>
<linearGradient id="paint5_linear_1593_797" x1="803.691" y1="1415.71" x2="106.433" y2="1415.71" gradientUnits="userSpaceOnUse">
<stop stop-color="#DBC5FF"/>
<stop offset="1" stop-color="#FFEA7D" stop-opacity="0.33"/>
</linearGradient>
<linearGradient id="paint6_linear_1593_797" x1="824.648" y1="1415.71" x2="127.391" y2="1415.71" gradientUnits="userSpaceOnUse">
<stop stop-color="#DBC5FF"/>
<stop offset="1" stop-color="#FFEA7D" stop-opacity="0.33"/>
</linearGradient>
<linearGradient id="paint7_linear_1593_797" x1="845.603" y1="1415.71" x2="148.346" y2="1415.71" gradientUnits="userSpaceOnUse">
<stop stop-color="#DBC5FF"/>
<stop offset="1" stop-color="#FFEA7D" stop-opacity="0.33"/>
</linearGradient>
<linearGradient id="paint8_linear_1593_797" x1="864.654" y1="1415.71" x2="169.301" y2="1415.71" gradientUnits="userSpaceOnUse">
<stop stop-color="#DBC5FF"/>
<stop offset="1" stop-color="#FFEA7D" stop-opacity="0.33"/>
</linearGradient>
<linearGradient id="paint9_linear_1593_797" x1="887.516" y1="1415.71" x2="188.353" y2="1415.71" gradientUnits="userSpaceOnUse">
<stop stop-color="#DBC5FF"/>
<stop offset="1" stop-color="#FFEA7D" stop-opacity="0.33"/>
</linearGradient>
<linearGradient id="paint10_linear_1593_797" x1="906.566" y1="1415.71" x2="211.214" y2="1415.71" gradientUnits="userSpaceOnUse">
<stop stop-color="#DBC5FF"/>
<stop offset="1" stop-color="#FFEA7D" stop-opacity="0.33"/>
</linearGradient>
<linearGradient id="paint11_linear_1593_797" x1="927.521" y1="1415.71" x2="230.264" y2="1415.71" gradientUnits="userSpaceOnUse">
<stop stop-color="#DBC5FF"/>
<stop offset="1" stop-color="#FFEA7D" stop-opacity="0.33"/>
</linearGradient>
<linearGradient id="paint12_linear_1593_797" x1="946.572" y1="1415.71" x2="251.219" y2="1415.71" gradientUnits="userSpaceOnUse">
<stop stop-color="#DBC5FF"/>
<stop offset="1" stop-color="#FFEA7D" stop-opacity="0.33"/>
</linearGradient>
<linearGradient id="paint13_linear_1593_797" x1="969.434" y1="1415.71" x2="272.176" y2="1415.71" gradientUnits="userSpaceOnUse">
<stop stop-color="#DBC5FF"/>
<stop offset="1" stop-color="#FFEA7D" stop-opacity="0.33"/>
</linearGradient>
<linearGradient id="paint14_linear_1593_797" x1="988.484" y1="1415.71" x2="293.132" y2="1415.71" gradientUnits="userSpaceOnUse">
<stop stop-color="#DBC5FF"/>
<stop offset="1" stop-color="#FFEA7D" stop-opacity="0.33"/>
</linearGradient>
<linearGradient id="paint15_linear_1593_797" x1="1009.44" y1="1415.71" x2="312.182" y2="1415.71" gradientUnits="userSpaceOnUse">
<stop stop-color="#DBC5FF"/>
<stop offset="1" stop-color="#FFEA7D" stop-opacity="0.33"/>
</linearGradient>
<linearGradient id="paint16_linear_1593_797" x1="1030.4" y1="1415.71" x2="333.139" y2="1415.71" gradientUnits="userSpaceOnUse">
<stop stop-color="#DBC5FF"/>
<stop offset="1" stop-color="#FFEA7D" stop-opacity="0.33"/>
</linearGradient>
<linearGradient id="paint17_linear_1593_797" x1="1051.35" y1="1415.71" x2="354.094" y2="1415.71" gradientUnits="userSpaceOnUse">
<stop stop-color="#DBC5FF"/>
<stop offset="1" stop-color="#FFEA7D" stop-opacity="0.33"/>
</linearGradient>
<linearGradient id="paint18_linear_1593_797" x1="1070.4" y1="1415.71" x2="375.049" y2="1415.71" gradientUnits="userSpaceOnUse">
<stop stop-color="#DBC5FF"/>
<stop offset="1" stop-color="#FFEA7D" stop-opacity="0.33"/>
</linearGradient>
<linearGradient id="paint19_linear_1593_797" x1="1091.36" y1="1415.71" x2="394.099" y2="1415.71" gradientUnits="userSpaceOnUse">
<stop stop-color="#DBC5FF"/>
<stop offset="1" stop-color="#FFEA7D" stop-opacity="0.33"/>
</linearGradient>
<linearGradient id="paint20_linear_1593_797" x1="1112.31" y1="1415.71" x2="415.057" y2="1415.71" gradientUnits="userSpaceOnUse">
<stop stop-color="#DBC5FF"/>
<stop offset="1" stop-color="#FFEA7D" stop-opacity="0.33"/>
</linearGradient>
<linearGradient id="paint21_linear_1593_797" x1="1133.27" y1="1415.71" x2="436.012" y2="1415.71" gradientUnits="userSpaceOnUse">
<stop stop-color="#DBC5FF"/>
<stop offset="1" stop-color="#FFEA7D" stop-opacity="0.33"/>
</linearGradient>
<linearGradient id="paint22_linear_1593_797" x1="1152.32" y1="1415.71" x2="456.967" y2="1415.71" gradientUnits="userSpaceOnUse">
<stop stop-color="#DBC5FF"/>
<stop offset="1" stop-color="#FFEA7D" stop-opacity="0.33"/>
</linearGradient>
<linearGradient id="paint23_linear_1593_797" x1="1173.28" y1="1415.71" x2="476.019" y2="1415.71" gradientUnits="userSpaceOnUse">
<stop stop-color="#DBC5FF"/>
<stop offset="1" stop-color="#FFEA7D" stop-opacity="0.33"/>
</linearGradient>
<linearGradient id="paint24_linear_1593_797" x1="1194.23" y1="1415.71" x2="498.88" y2="1415.71" gradientUnits="userSpaceOnUse">
<stop stop-color="#DBC5FF"/>
<stop offset="1" stop-color="#FFEA7D" stop-opacity="0.33"/>
</linearGradient>
<linearGradient id="paint25_linear_1593_797" x1="1215.19" y1="1415.71" x2="517.93" y2="1415.71" gradientUnits="userSpaceOnUse">
<stop stop-color="#DBC5FF"/>
<stop offset="1" stop-color="#FFEA7D" stop-opacity="0.33"/>
</linearGradient>
<linearGradient id="paint26_linear_1593_797" x1="1236.14" y1="1415.71" x2="538.887" y2="1415.71" gradientUnits="userSpaceOnUse">
<stop stop-color="#DBC5FF"/>
<stop offset="1" stop-color="#FFEA7D" stop-opacity="0.33"/>
</linearGradient>
<linearGradient id="paint27_linear_1593_797" x1="1257.1" y1="1415.71" x2="559.842" y2="1415.71" gradientUnits="userSpaceOnUse">
<stop stop-color="#DBC5FF"/>
<stop offset="1" stop-color="#FFEA7D" stop-opacity="0.33"/>
</linearGradient>
<linearGradient id="paint28_linear_1593_797" x1="1276.15" y1="1415.71" x2="580.798" y2="1415.71" gradientUnits="userSpaceOnUse">
<stop stop-color="#DBC5FF"/>
<stop offset="1" stop-color="#FFEA7D" stop-opacity="0.33"/>
</linearGradient>
<linearGradient id="paint29_linear_1593_797" x1="1297.11" y1="1415.71" x2="599.848" y2="1415.71" gradientUnits="userSpaceOnUse">
<stop stop-color="#DBC5FF"/>
<stop offset="1" stop-color="#FFEA7D" stop-opacity="0.33"/>
</linearGradient>
<linearGradient id="paint30_linear_1593_797" x1="1318.06" y1="1415.71" x2="620.805" y2="1415.71" gradientUnits="userSpaceOnUse">
<stop stop-color="#DBC5FF"/>
<stop offset="1" stop-color="#FFEA7D" stop-opacity="0.33"/>
</linearGradient>
<linearGradient id="paint31_linear_1593_797" x1="1339.02" y1="1415.71" x2="641.76" y2="1415.71" gradientUnits="userSpaceOnUse">
<stop stop-color="#DBC5FF"/>
<stop offset="1" stop-color="#FFEA7D" stop-opacity="0.33"/>
</linearGradient>
<linearGradient id="paint32_linear_1593_797" x1="1358.07" y1="1415.71" x2="662.716" y2="1415.71" gradientUnits="userSpaceOnUse">
<stop stop-color="#DBC5FF"/>
<stop offset="1" stop-color="#FFEA7D" stop-opacity="0.33"/>
</linearGradient>
<linearGradient id="paint33_linear_1593_797" x1="1379.03" y1="1415.71" x2="681.767" y2="1415.71" gradientUnits="userSpaceOnUse">
<stop stop-color="#DBC5FF"/>
<stop offset="1" stop-color="#FFEA7D" stop-opacity="0.33"/>
</linearGradient>
<linearGradient id="paint34_linear_1593_797" x1="1399.98" y1="1415.71" x2="702.723" y2="1415.71" gradientUnits="userSpaceOnUse">
<stop stop-color="#DBC5FF"/>
<stop offset="1" stop-color="#FFEA7D" stop-opacity="0.33"/>
</linearGradient>
</defs>
</svg>
