<svg width="1450" height="1118" viewBox="0 0 1450 1118" fill="none" xmlns="http://www.w3.org/2000/svg">
<path d="M1021.18 0.0367945C1080.42 74.023 1151.24 145.838 1188.12 222.724C1221.31 291.537 1197.71 356.531 1144.6 425.13C1128.75 445.691 1112.39 465.81 1096.05 485.694C1042.2 551.188 1088.92 649.628 1173.81 649.628C1190.1 649.617 1206.15 645.661 1220.57 638.099C1235 630.536 1247.36 619.593 1256.61 606.21C1292.68 554.102 1336.38 502.958 1379.17 448.678C1432.28 380.925 1462.53 316.358 1444.82 248.605C1421.96 163.654 1340.08 82.2944 1277.24 0L1021.18 0.0367945Z" fill="url(#paint0_linear_1581_1289)"/>
<path d="M36.2246 0.0514972C67.2648 146.451 100.823 293.306 90.5376 441.957C79.1773 599.745 32.0944 751.676 3.41023 910.207C3.28507 910.943 3.16727 911.612 3.04211 912.311C-15.8574 1019.46 66.7495 1117.65 175.633 1117.68H218.247C309.173 1117.68 385.029 1048.21 392.855 957.702C393.278 952.906 393.712 948.026 394.159 943.062C406.027 818.159 431.464 695.434 447.698 569.788C472.046 378.402 450.945 189.201 420.097 0C357.324 0 294.007 -4.11091e-08 230.969 0.0441405L36.2246 0.0514972Z" fill="url(#paint1_linear_1581_1289)"/>
<defs>
<linearGradient id="paint0_linear_1581_1289" x1="1235.54" y1="0" x2="1235.54" y2="649.628" gradientUnits="userSpaceOnUse">
<stop stop-color="#B7D3FF"/>
<stop offset="1" stop-color="#FCDCD5"/>
</linearGradient>
<linearGradient id="paint1_linear_1581_1289" x1="228.999" y1="21.9902" x2="179.999" y2="1305.99" gradientUnits="userSpaceOnUse">
<stop stop-color="#A4CEFF"/>
<stop offset="1" stop-color="#FBE1FF"/>
</linearGradient>
</defs>
</svg>
