<svg width="712" height="2272" viewBox="0 0 712 2272" fill="none" xmlns="http://www.w3.org/2000/svg">
<path d="M603.231 0.890515C592.224 164.825 581.217 327.839 578.282 491.568C570.944 964.004 636.985 1432.12 652.953 1903.28C659.007 2114.87 659.044 2252.94 659.044 2252.94H711.877C711.877 2252.94 711.833 2114.86 705.647 1903.19C694.97 1593.68 664.151 1287.86 643.604 977.711C621.59 650.246 628.928 325.675 655.345 0.426758L603.231 0.890515Z" fill="url(#paint0_linear_1581_1290)"/>
<path d="M49.1144 20.418C108.259 276.985 178.959 525.8 215.782 792.282C248.922 1030.79 225.356 1256.05 172.331 1493.82C112.678 1762.51 45.6603 2009.86 0 2271.92H256.287C296.055 2037.83 352.026 1815.52 406.524 1575.53C459.549 1340.71 489.743 1116.92 472.068 882.091C449.238 587.635 367.492 305.694 304.76 20.4327L49.1144 20.418Z" fill="url(#paint1_linear_1581_1290)"/>
<defs>
<linearGradient id="paint0_linear_1581_1290" x1="644.796" y1="0.426758" x2="644.796" y2="2252.94" gradientUnits="userSpaceOnUse">
<stop stop-color="#D8BFFF"/>
<stop offset="1" stop-color="#9CCCFF"/>
</linearGradient>
<linearGradient id="paint1_linear_1581_1290" x1="238.908" y1="-499.592" x2="238.567" y2="2271.92" gradientUnits="userSpaceOnUse">
<stop stop-color="#FFC5B9"/>
<stop offset="1" stop-color="#FFEBB8"/>
</linearGradient>
</defs>
</svg>
