<svg width="952" height="262" viewBox="0 0 952 262" fill="none" xmlns="http://www.w3.org/2000/svg">
<path d="M0.459071 192.907C0.459071 192.538 0.459071 192.17 0.459071 191.787C0.437578 179.598 4.41462 167.739 11.7798 158.03C19.145 148.32 29.4913 141.297 41.2311 138.038C71.6894 129.663 101.441 118.899 130.208 105.847C212.901 68.2069 287.828 13.8092 380.787 1.96214C483.689 -11.1072 563.901 56.6986 648.463 105.847C712.197 143.17 781.84 155.915 852.764 151.217H951.699V261.463H852.764C807.017 261.368 762.566 263.23 715.928 255.146C655.307 244.565 604.629 217.197 551.154 189.829C511.052 168.984 471.568 150.326 426.483 144.105C327.004 131.043 242.435 187.024 154.142 221.549C136.42 228.396 119.014 234.927 101.057 239.47C89.2008 242.415 78.2423 245.014 68.1891 247.238C60.056 249.038 51.6228 248.991 43.5104 247.099C35.3981 245.207 27.8134 241.518 21.3146 236.305C14.8158 231.092 9.56872 224.487 5.95935 216.976C2.34998 209.465 0.47038 201.24 0.459071 192.907Z" fill="#BADBFE"/>
</svg>
