<svg width="816" height="2187" viewBox="0 0 816 2187" fill="none" xmlns="http://www.w3.org/2000/svg">
<path d="M405.677 1800.38C281.695 1610.82 158.419 1446.87 19 1282.26C19.4945 1281.09 19.982 1279.91 20.4765 1278.74C205.313 1081.8 385.826 890.315 532.712 650.672C538.768 641.063 544.066 630.986 548.558 620.536C572.04 633.899 594.258 653.481 615.325 668.324C651.354 696.288 686.323 727.754 721.823 756.426V508.543C671.071 469.438 620.701 422.728 569.547 388.482C571.082 356.004 572.417 323.49 573.552 290.94C577.381 158.88 578.766 56.3571 579.267 0H816V2187H518.11C508.452 2138.45 491.808 1982.21 480.138 1932.91C463.564 1884.65 434.621 1844.66 405.677 1800.38Z" fill="url(#paint0_linear_1581_1285)"/>
<path d="M20 1284C165.855 1490.19 303.262 1697.89 423.246 1925.38C433.823 1945.38 442.989 2062.13 447.805 2083.77C451.606 2112.48 461.238 2152.04 468 2187H259.439C256.202 2121.16 237.58 1959.89 220.325 1894.68C165.481 1682.34 97.3097 1484.23 20 1284Z" fill="url(#paint1_linear_1581_1285)"/>
<path d="M467 613C348.747 851.989 183.408 1065.3 21 1275C26.0115 1263.04 30.9924 1251.09 35.9426 1239.13C114.945 1087.3 194.196 942.152 298.837 795.78C348.931 725.748 388.309 643.014 467 613Z" fill="url(#paint2_linear_1581_1285)"/>
<path d="M269.362 432C273.424 465.294 269.397 497.838 263.142 532.069C212.751 785.421 131.798 1012.22 37.8843 1240.41C31.5943 1252.56 25.2995 1264.76 19 1277C19 1276.44 19 1275.87 19 1275.31C53.5531 1047.59 106.962 825.541 179.989 605.619C200.658 543.419 225.007 479.633 269.362 432Z" fill="url(#paint3_linear_1581_1285)"/>
<path d="M5.03983 447.617C2.86583 411.574 1.28866 360.596 0.649246 334.545C-0.622471 282.444 0.386363 230.607 0.27269 178.027V0H25.2097C59.3613 65.0908 104.369 169.637 131.956 270.377C144.14 314.832 152.921 358.564 155.877 397.798C156.914 436.137 151.238 473.303 144.843 512.615C104.49 758.529 69.0733 993.071 17.4799 1229C17.5154 968.565 13.9276 708.173 5.03983 447.617Z" fill="url(#paint4_linear_1581_1285)"/>
<defs>
<linearGradient id="paint0_linear_1581_1285" x1="418" y1="-241" x2="417.5" y2="2187" gradientUnits="userSpaceOnUse">
<stop stop-color="#FBDFCC"/>
<stop offset="1" stop-color="#CDCCFB"/>
</linearGradient>
<linearGradient id="paint1_linear_1581_1285" x1="244" y1="1261" x2="244" y2="2471" gradientUnits="userSpaceOnUse">
<stop stop-color="#FFE2A7"/>
<stop offset="0.0001" stop-color="#FFE2A7"/>
<stop offset="1" stop-color="#CD9BFF"/>
</linearGradient>
<linearGradient id="paint2_linear_1581_1285" x1="467" y1="429" x2="154" y2="1139" gradientUnits="userSpaceOnUse">
<stop stop-color="#DCBEFF"/>
<stop offset="1" stop-color="#C0CDFF"/>
</linearGradient>
<linearGradient id="paint3_linear_1581_1285" x1="298" y1="109" x2="145" y2="1277" gradientUnits="userSpaceOnUse">
<stop stop-color="#E3CCFF"/>
<stop offset="1" stop-color="#ACB9FF"/>
</linearGradient>
<linearGradient id="paint4_linear_1581_1285" x1="58" y1="-727" x2="78" y2="1229" gradientUnits="userSpaceOnUse">
<stop stop-color="#EECBFE"/>
<stop offset="1" stop-color="#ADC5FF"/>
</linearGradient>
</defs>
</svg>
