<svg width="650" height="429" viewBox="0 0 650 429" fill="none" xmlns="http://www.w3.org/2000/svg">
<path d="M0 428.609C74.0165 369.508 145.803 298.86 222.69 262.064C291.503 228.948 356.498 252.497 425.061 305.483C445.666 321.283 465.823 337.613 485.692 353.943C551.187 407.665 649.628 361.06 649.628 276.37C649.617 260.116 645.66 244.108 638.097 229.72C630.535 215.332 619.592 202.996 606.21 193.771C554.13 157.748 502.963 114.152 448.684 71.4619C380.93 18.476 316.362 -11.6966 248.608 5.96539C163.649 28.7788 82.2953 110.465 0 173.151L0 428.609Z" fill="url(#paint0_linear_1593_897)"/>
<defs>
<linearGradient id="paint0_linear_1593_897" x1="-171" y1="95.418" x2="695" y2="461.418" gradientUnits="userSpaceOnUse">
<stop offset="0.0619906" stop-color="#9DC3FF"/>
<stop offset="1" stop-color="#DEEBFF"/>
</linearGradient>
</defs>
</svg>
