<svg width="1586" height="1368" viewBox="0 0 1586 1368" fill="none" xmlns="http://www.w3.org/2000/svg">
<path d="M578.332 4.62886C838.786 136.09 1385.1 207.091 1529.91 415.786C1782.74 780.132 1002.19 651.155 1033.32 1189.59" stroke="url(#paint0_linear_1593_833)" stroke-width="10" stroke-miterlimit="10"/>
<path d="M563.092 8.43941C823.546 139.901 1369.86 210.902 1514.68 419.597C1767.5 783.943 986.923 654.978 1018.06 1193.4" stroke="url(#paint1_linear_1593_833)" stroke-width="10" stroke-miterlimit="10"/>
<path d="M547.852 12.248C808.306 143.709 1354.64 214.711 1499.43 423.405C1752.26 787.751 971.682 658.786 1002.81 1197.21" stroke="url(#paint2_linear_1593_833)" stroke-width="10" stroke-miterlimit="10"/>
<path d="M534.516 17.9648C794.971 149.426 1341.28 220.427 1486.1 429.122C1738.93 793.468 958.341 664.503 989.476 1202.92" stroke="url(#paint3_linear_1593_833)" stroke-width="10" stroke-miterlimit="10"/>
<path d="M519.276 21.7734C779.73 153.237 1326.04 224.24 1470.86 432.915C1723.69 797.268 943.106 668.301 974.241 1206.73" stroke="url(#paint4_linear_1593_833)" stroke-width="10" stroke-miterlimit="10"/>
<path d="M504.035 25.5839C764.49 157.256 1310.8 228.372 1455.62 437.402C1708.45 802.334 927.866 673.162 959 1212.45" stroke="url(#paint5_linear_1593_833)" stroke-width="10" stroke-miterlimit="10"/>
<path d="M490.699 31.2988C751.154 162.76 1297.46 233.761 1442.28 442.456C1695.11 806.802 914.53 677.837 945.658 1216.26" stroke="url(#paint6_linear_1593_833)" stroke-width="10" stroke-miterlimit="10"/>
<path d="M475.459 37.0156C735.914 168.475 1282.22 239.475 1427.05 448.167C1679.87 812.507 899.267 683.544 930.401 1221.97" stroke="url(#paint7_linear_1593_833)" stroke-width="10" stroke-miterlimit="10"/>
<path d="M460.219 40.8242C720.674 172.285 1266.98 243.287 1411.8 451.982C1664.63 816.328 884.05 687.363 915.184 1225.78" stroke="url(#paint8_linear_1593_833)" stroke-width="10" stroke-miterlimit="10"/>
<path d="M444.979 44.6347C705.433 176.096 1251.74 247.097 1396.56 455.792C1649.39 820.138 868.81 691.173 899.944 1229.59" stroke="url(#paint9_linear_1593_833)" stroke-width="10" stroke-miterlimit="10"/>
<path d="M429.737 48.4453C690.179 179.906 1236.5 250.908 1381.32 459.603C1634.15 823.948 853.568 694.984 884.696 1233.4" stroke="url(#paint10_linear_1593_833)" stroke-width="10" stroke-miterlimit="10"/>
<path d="M416.403 54.1601C676.862 185.621 1223.16 256.617 1367.99 465.318C1620.81 829.663 840.231 700.699 871.366 1239.12" stroke="url(#paint11_linear_1593_833)" stroke-width="10" stroke-miterlimit="10"/>
<path d="M401.16 57.9707C661.615 189.432 1207.93 260.433 1352.74 469.128C1605.57 833.474 824.991 704.509 856.126 1242.93" stroke="url(#paint12_linear_1593_833)" stroke-width="10" stroke-miterlimit="10"/>
<path d="M385.92 63.6855C646.375 195.147 1192.69 266.148 1337.5 474.843C1590.33 839.189 809.751 710.224 840.885 1248.64" stroke="url(#paint13_linear_1593_833)" stroke-width="10" stroke-miterlimit="10"/>
<path d="M372.584 67.496C633.039 198.957 1179.35 269.959 1324.17 478.653C1576.99 842.999 796.416 714.035 827.544 1252.45" stroke="url(#paint14_linear_1593_833)" stroke-width="10" stroke-miterlimit="10"/>
<path d="M357.344 73.2109C617.804 204.672 1164.11 275.673 1308.93 484.368C1561.75 848.714 781.173 719.749 812.307 1258.17" stroke="url(#paint15_linear_1593_833)" stroke-width="10" stroke-miterlimit="10"/>
<path d="M342.104 77.0214C602.558 208.483 1148.87 279.484 1293.69 488.179C1546.52 852.525 765.934 723.56 797.069 1261.98" stroke="url(#paint16_linear_1593_833)" stroke-width="10" stroke-miterlimit="10"/>
<path d="M326.864 80.832C587.318 212.293 1133.64 283.295 1278.45 491.989C1531.28 856.335 750.694 727.37 781.828 1265.79" stroke="url(#paint17_linear_1593_833)" stroke-width="10" stroke-miterlimit="10"/>
<path d="M313.528 84.6425C573.983 216.104 1120.29 287.105 1265.11 495.8C1517.94 860.146 737.359 731.181 768.487 1269.6" stroke="url(#paint18_linear_1593_833)" stroke-width="10" stroke-miterlimit="10"/>
<path d="M298.287 90.3574C558.747 221.819 1105.05 292.82 1249.87 501.515C1502.7 865.86 722.116 736.896 753.25 1275.31" stroke="url(#paint19_linear_1593_833)" stroke-width="10" stroke-miterlimit="10"/>
<path d="M283.047 94.1679C543.502 225.629 1089.81 296.63 1234.63 505.325C1487.46 869.671 706.878 740.706 738.012 1279.13" stroke="url(#paint20_linear_1593_833)" stroke-width="10" stroke-miterlimit="10"/>
<path d="M267.805 99.8828C528.259 231.344 1074.57 302.345 1219.39 511.04C1472.22 875.386 691.636 746.421 722.77 1284.84" stroke="url(#paint21_linear_1593_833)" stroke-width="10" stroke-miterlimit="10"/>
<path d="M254.471 103.693C514.926 235.154 1061.23 306.156 1206.06 514.85C1458.88 879.196 678.273 750.207 709.407 1288.65" stroke="url(#paint22_linear_1593_833)" stroke-width="10" stroke-miterlimit="10"/>
<path d="M239.229 109.408C499.682 240.869 1045.99 311.871 1190.81 520.566C1443.64 884.912 663.058 755.947 694.192 1294.37" stroke="url(#paint23_linear_1593_833)" stroke-width="10" stroke-miterlimit="10"/>
<path d="M223.989 113.219C484.443 244.668 1030.72 315.681 1175.57 524.376C1428.4 888.722 647.819 759.757 678.953 1298.18" stroke="url(#paint24_linear_1593_833)" stroke-width="10" stroke-miterlimit="10"/>
<path d="M210.653 117.027C471.107 248.488 1017.42 319.49 1162.24 528.184C1415.07 892.53 634.483 763.566 665.618 1301.98" stroke="url(#paint25_linear_1593_833)" stroke-width="10" stroke-miterlimit="10"/>
<path d="M195.412 120.838C455.869 252.299 1002.18 323.301 1147 531.995C1399.82 896.341 619.24 767.376 650.369 1305.8" stroke="url(#paint26_linear_1593_833)" stroke-width="10" stroke-miterlimit="10"/>
<path d="M180.172 126.553C440.626 258.014 986.934 329.015 1131.76 537.71C1384.58 902.056 604.001 773.091 635.135 1311.51" stroke="url(#paint27_linear_1593_833)" stroke-width="10" stroke-miterlimit="10"/>
<path d="M164.932 130.363C425.386 261.824 971.697 332.826 1116.51 541.52C1369.34 905.866 588.762 776.902 619.897 1315.32" stroke="url(#paint28_linear_1593_833)" stroke-width="10" stroke-miterlimit="10"/>
<path d="M149.692 136.078C410.146 267.539 956.457 338.54 1101.27 547.233C1354.1 911.577 573.522 782.613 604.657 1321.04" stroke="url(#paint29_linear_1593_833)" stroke-width="10" stroke-miterlimit="10"/>
<path d="M136.356 139.889C396.811 271.349 943.116 342.35 1087.94 551.044C1340.76 915.388 560.193 786.424 591.328 1324.85" stroke="url(#paint30_linear_1593_833)" stroke-width="10" stroke-miterlimit="10"/>
<path d="M121.115 145.603C381.57 277.064 927.881 348.065 1072.7 556.759C1325.53 921.103 544.946 792.139 576.081 1330.56" stroke="url(#paint31_linear_1593_833)" stroke-width="10" stroke-miterlimit="10"/>
<path d="M105.873 149.414C366.328 280.869 912.645 351.871 1057.46 560.565C1310.29 924.911 529.704 795.946 560.838 1334.37" stroke="url(#paint32_linear_1593_833)" stroke-width="10" stroke-miterlimit="10"/>
<path d="M92.5393 153.225C353.012 284.68 899.305 355.663 1044.12 564.376C1296.95 928.722 516.37 799.757 547.504 1338.18" stroke="url(#paint33_linear_1593_833)" stroke-width="10" stroke-miterlimit="10"/>
<path d="M77.2971 157.035C337.752 288.49 884.058 359.492 1028.88 568.186C1281.71 932.532 501.129 803.567 532.257 1341.99" stroke="url(#paint34_linear_1593_833)" stroke-width="10" stroke-miterlimit="10"/>
<path d="M62.0569 162.75C322.511 294.205 868.822 365.206 1013.64 573.901C1266.47 938.247 485.887 809.282 517.022 1347.71" stroke="url(#paint35_linear_1593_833)" stroke-width="10" stroke-miterlimit="10"/>
<path d="M48.7229 166.561C309.177 298.016 855.488 369.017 1000.31 577.712C1253.14 942.058 472.553 813.093 503.688 1351.52" stroke="url(#paint36_linear_1593_833)" stroke-width="10" stroke-miterlimit="10"/>
<path d="M33.4807 172.275C293.935 303.73 840.246 374.732 985.064 583.427C1237.89 947.772 457.311 818.808 488.44 1357.23" stroke="url(#paint37_linear_1593_833)" stroke-width="10" stroke-miterlimit="10"/>
<path d="M18.2405 176.086C278.695 307.541 825.001 378.542 969.825 587.237C1222.65 951.583 442.072 822.618 473.2 1361.04" stroke="url(#paint38_linear_1593_833)" stroke-width="10" stroke-miterlimit="10"/>
<path d="M3.00022 181.801C263.455 313.256 809.766 384.257 954.583 592.958C1207.41 957.298 426.831 828.339 457.965 1366.76" stroke="url(#paint39_linear_1593_833)" stroke-width="10" stroke-miterlimit="10"/>
<defs>
<linearGradient id="paint0_linear_1593_833" x1="1580.4" y1="597.108" x2="578.332" y2="597.108" gradientUnits="userSpaceOnUse">
<stop stop-color="#DBC5FF"/>
<stop offset="1" stop-color="#FFEA7D" stop-opacity="0.33"/>
</linearGradient>
<linearGradient id="paint1_linear_1593_833" x1="1565.16" y1="600.918" x2="563.092" y2="600.918" gradientUnits="userSpaceOnUse">
<stop stop-color="#DBC5FF"/>
<stop offset="1" stop-color="#FFEA7D" stop-opacity="0.33"/>
</linearGradient>
<linearGradient id="paint2_linear_1593_833" x1="1549.92" y1="604.727" x2="547.852" y2="604.727" gradientUnits="userSpaceOnUse">
<stop stop-color="#DBC5FF"/>
<stop offset="1" stop-color="#FFEA7D" stop-opacity="0.33"/>
</linearGradient>
<linearGradient id="paint3_linear_1593_833" x1="1536.59" y1="610.444" x2="534.516" y2="610.443" gradientUnits="userSpaceOnUse">
<stop stop-color="#DBC5FF"/>
<stop offset="1" stop-color="#FFEA7D" stop-opacity="0.33"/>
</linearGradient>
<linearGradient id="paint4_linear_1593_833" x1="1521.35" y1="614.252" x2="519.276" y2="614.252" gradientUnits="userSpaceOnUse">
<stop stop-color="#DBC5FF"/>
<stop offset="1" stop-color="#FFEA7D" stop-opacity="0.33"/>
</linearGradient>
<linearGradient id="paint5_linear_1593_833" x1="1506.11" y1="619.015" x2="504.035" y2="619.015" gradientUnits="userSpaceOnUse">
<stop stop-color="#DBC5FF"/>
<stop offset="1" stop-color="#FFEA7D" stop-opacity="0.33"/>
</linearGradient>
<linearGradient id="paint6_linear_1593_833" x1="1492.77" y1="623.778" x2="490.699" y2="623.777" gradientUnits="userSpaceOnUse">
<stop stop-color="#DBC5FF"/>
<stop offset="1" stop-color="#FFEA7D" stop-opacity="0.33"/>
</linearGradient>
<linearGradient id="paint7_linear_1593_833" x1="1477.53" y1="629.494" x2="475.459" y2="629.494" gradientUnits="userSpaceOnUse">
<stop stop-color="#DBC5FF"/>
<stop offset="1" stop-color="#FFEA7D" stop-opacity="0.33"/>
</linearGradient>
<linearGradient id="paint8_linear_1593_833" x1="1462.29" y1="633.303" x2="460.219" y2="633.303" gradientUnits="userSpaceOnUse">
<stop stop-color="#DBC5FF"/>
<stop offset="1" stop-color="#FFEA7D" stop-opacity="0.33"/>
</linearGradient>
<linearGradient id="paint9_linear_1593_833" x1="1447.05" y1="637.113" x2="444.979" y2="637.113" gradientUnits="userSpaceOnUse">
<stop stop-color="#DBC5FF"/>
<stop offset="1" stop-color="#FFEA7D" stop-opacity="0.33"/>
</linearGradient>
<linearGradient id="paint10_linear_1593_833" x1="1431.81" y1="640.924" x2="429.737" y2="640.924" gradientUnits="userSpaceOnUse">
<stop stop-color="#DBC5FF"/>
<stop offset="1" stop-color="#FFEA7D" stop-opacity="0.33"/>
</linearGradient>
<linearGradient id="paint11_linear_1593_833" x1="1418.47" y1="646.639" x2="416.403" y2="646.639" gradientUnits="userSpaceOnUse">
<stop stop-color="#DBC5FF"/>
<stop offset="1" stop-color="#FFEA7D" stop-opacity="0.33"/>
</linearGradient>
<linearGradient id="paint12_linear_1593_833" x1="1403.23" y1="650.449" x2="401.16" y2="650.449" gradientUnits="userSpaceOnUse">
<stop stop-color="#DBC5FF"/>
<stop offset="1" stop-color="#FFEA7D" stop-opacity="0.33"/>
</linearGradient>
<linearGradient id="paint13_linear_1593_833" x1="1387.99" y1="656.164" x2="385.92" y2="656.164" gradientUnits="userSpaceOnUse">
<stop stop-color="#DBC5FF"/>
<stop offset="1" stop-color="#FFEA7D" stop-opacity="0.33"/>
</linearGradient>
<linearGradient id="paint14_linear_1593_833" x1="1374.65" y1="659.975" x2="372.584" y2="659.975" gradientUnits="userSpaceOnUse">
<stop stop-color="#DBC5FF"/>
<stop offset="1" stop-color="#FFEA7D" stop-opacity="0.33"/>
</linearGradient>
<linearGradient id="paint15_linear_1593_833" x1="1359.41" y1="665.69" x2="357.344" y2="665.69" gradientUnits="userSpaceOnUse">
<stop stop-color="#DBC5FF"/>
<stop offset="1" stop-color="#FFEA7D" stop-opacity="0.33"/>
</linearGradient>
<linearGradient id="paint16_linear_1593_833" x1="1344.17" y1="669.5" x2="342.104" y2="669.5" gradientUnits="userSpaceOnUse">
<stop stop-color="#DBC5FF"/>
<stop offset="1" stop-color="#FFEA7D" stop-opacity="0.33"/>
</linearGradient>
<linearGradient id="paint17_linear_1593_833" x1="1328.93" y1="673.311" x2="326.863" y2="673.311" gradientUnits="userSpaceOnUse">
<stop stop-color="#DBC5FF"/>
<stop offset="1" stop-color="#FFEA7D" stop-opacity="0.33"/>
</linearGradient>
<linearGradient id="paint18_linear_1593_833" x1="1315.6" y1="677.121" x2="313.528" y2="677.121" gradientUnits="userSpaceOnUse">
<stop stop-color="#DBC5FF"/>
<stop offset="1" stop-color="#FFEA7D" stop-opacity="0.33"/>
</linearGradient>
<linearGradient id="paint19_linear_1593_833" x1="1300.36" y1="682.836" x2="298.287" y2="682.836" gradientUnits="userSpaceOnUse">
<stop stop-color="#DBC5FF"/>
<stop offset="1" stop-color="#FFEA7D" stop-opacity="0.33"/>
</linearGradient>
<linearGradient id="paint20_linear_1593_833" x1="1285.12" y1="686.647" x2="283.047" y2="686.647" gradientUnits="userSpaceOnUse">
<stop stop-color="#DBC5FF"/>
<stop offset="1" stop-color="#FFEA7D" stop-opacity="0.33"/>
</linearGradient>
<linearGradient id="paint21_linear_1593_833" x1="1269.87" y1="692.362" x2="267.805" y2="692.361" gradientUnits="userSpaceOnUse">
<stop stop-color="#DBC5FF"/>
<stop offset="1" stop-color="#FFEA7D" stop-opacity="0.33"/>
</linearGradient>
<linearGradient id="paint22_linear_1593_833" x1="1256.54" y1="696.172" x2="254.471" y2="696.172" gradientUnits="userSpaceOnUse">
<stop stop-color="#DBC5FF"/>
<stop offset="1" stop-color="#FFEA7D" stop-opacity="0.33"/>
</linearGradient>
<linearGradient id="paint23_linear_1593_833" x1="1241.3" y1="701.887" x2="239.229" y2="701.887" gradientUnits="userSpaceOnUse">
<stop stop-color="#DBC5FF"/>
<stop offset="1" stop-color="#FFEA7D" stop-opacity="0.33"/>
</linearGradient>
<linearGradient id="paint24_linear_1593_833" x1="1226.06" y1="705.697" x2="223.988" y2="705.697" gradientUnits="userSpaceOnUse">
<stop stop-color="#DBC5FF"/>
<stop offset="1" stop-color="#FFEA7D" stop-opacity="0.33"/>
</linearGradient>
<linearGradient id="paint25_linear_1593_833" x1="1212.72" y1="709.506" x2="210.653" y2="709.506" gradientUnits="userSpaceOnUse">
<stop stop-color="#DBC5FF"/>
<stop offset="1" stop-color="#FFEA7D" stop-opacity="0.33"/>
</linearGradient>
<linearGradient id="paint26_linear_1593_833" x1="1197.48" y1="713.317" x2="195.412" y2="713.317" gradientUnits="userSpaceOnUse">
<stop stop-color="#DBC5FF"/>
<stop offset="1" stop-color="#FFEA7D" stop-opacity="0.33"/>
</linearGradient>
<linearGradient id="paint27_linear_1593_833" x1="1182.24" y1="719.031" x2="180.172" y2="719.031" gradientUnits="userSpaceOnUse">
<stop stop-color="#DBC5FF"/>
<stop offset="1" stop-color="#FFEA7D" stop-opacity="0.33"/>
</linearGradient>
<linearGradient id="paint28_linear_1593_833" x1="1167" y1="722.842" x2="164.932" y2="722.842" gradientUnits="userSpaceOnUse">
<stop stop-color="#DBC5FF"/>
<stop offset="1" stop-color="#FFEA7D" stop-opacity="0.33"/>
</linearGradient>
<linearGradient id="paint29_linear_1593_833" x1="1151.76" y1="728.557" x2="149.692" y2="728.557" gradientUnits="userSpaceOnUse">
<stop stop-color="#DBC5FF"/>
<stop offset="1" stop-color="#FFEA7D" stop-opacity="0.33"/>
</linearGradient>
<linearGradient id="paint30_linear_1593_833" x1="1138.43" y1="732.367" x2="136.356" y2="732.367" gradientUnits="userSpaceOnUse">
<stop stop-color="#DBC5FF"/>
<stop offset="1" stop-color="#FFEA7D" stop-opacity="0.33"/>
</linearGradient>
<linearGradient id="paint31_linear_1593_833" x1="1123.19" y1="738.082" x2="121.115" y2="738.082" gradientUnits="userSpaceOnUse">
<stop stop-color="#DBC5FF"/>
<stop offset="1" stop-color="#FFEA7D" stop-opacity="0.33"/>
</linearGradient>
<linearGradient id="paint32_linear_1593_833" x1="1107.94" y1="741.893" x2="105.873" y2="741.893" gradientUnits="userSpaceOnUse">
<stop stop-color="#DBC5FF"/>
<stop offset="1" stop-color="#FFEA7D" stop-opacity="0.33"/>
</linearGradient>
<linearGradient id="paint33_linear_1593_833" x1="1094.61" y1="745.703" x2="92.5393" y2="745.703" gradientUnits="userSpaceOnUse">
<stop stop-color="#DBC5FF"/>
<stop offset="1" stop-color="#FFEA7D" stop-opacity="0.33"/>
</linearGradient>
<linearGradient id="paint34_linear_1593_833" x1="1079.37" y1="749.514" x2="77.2971" y2="749.514" gradientUnits="userSpaceOnUse">
<stop stop-color="#DBC5FF"/>
<stop offset="1" stop-color="#FFEA7D" stop-opacity="0.33"/>
</linearGradient>
<linearGradient id="paint35_linear_1593_833" x1="1064.13" y1="755.229" x2="62.0569" y2="755.229" gradientUnits="userSpaceOnUse">
<stop stop-color="#DBC5FF"/>
<stop offset="1" stop-color="#FFEA7D" stop-opacity="0.33"/>
</linearGradient>
<linearGradient id="paint36_linear_1593_833" x1="1050.79" y1="759.039" x2="48.7229" y2="759.039" gradientUnits="userSpaceOnUse">
<stop stop-color="#DBC5FF"/>
<stop offset="1" stop-color="#FFEA7D" stop-opacity="0.33"/>
</linearGradient>
<linearGradient id="paint37_linear_1593_833" x1="1035.55" y1="764.754" x2="33.4807" y2="764.754" gradientUnits="userSpaceOnUse">
<stop stop-color="#DBC5FF"/>
<stop offset="1" stop-color="#FFEA7D" stop-opacity="0.33"/>
</linearGradient>
<linearGradient id="paint38_linear_1593_833" x1="1020.31" y1="768.565" x2="18.2405" y2="768.565" gradientUnits="userSpaceOnUse">
<stop stop-color="#DBC5FF"/>
<stop offset="1" stop-color="#FFEA7D" stop-opacity="0.33"/>
</linearGradient>
<linearGradient id="paint39_linear_1593_833" x1="1005.07" y1="774.279" x2="3.00022" y2="774.279" gradientUnits="userSpaceOnUse">
<stop stop-color="#DBC5FF"/>
<stop offset="1" stop-color="#FFEA7D" stop-opacity="0.33"/>
</linearGradient>
</defs>
</svg>
