<svg width="765" height="857" viewBox="0 0 765 857" fill="none" xmlns="http://www.w3.org/2000/svg">
<path d="M722.584 108C725.508 100.839 727.04 93.1869 727.1 85.453C727.446 55.6427 707.196 30.6314 681.946 29.5218C680.632 29.4532 679.314 29.4532 678 29.5218C685.452 11.3343 701.439 -0.742703 719.842 0.0355232C745.092 1.15242 765.342 26.1566 764.996 55.967C764.685 84.2209 746.015 106.609 722.584 108Z" fill="url(#paint0_linear_1593_919)"/>
<path d="M568.852 111C573.519 102.443 576.036 92.8737 576.184 83.1212C576.529 53.2959 553.68 31.3074 525.469 33.6504C523.294 33.8303 521.133 34.1529 519 34.6164C527.97 17.7968 544.444 5.73554 563.275 4.17111C591.493 1.82805 614.306 23.8168 613.997 53.6493C613.666 81.081 593.843 105.579 568.852 111Z" fill="url(#paint1_linear_1593_919)"/>
<path d="M396.44 146C405.378 132.997 411.033 117.39 411.306 102.066C411.585 71.1345 389.102 50.0687 361.578 54.6396C361.047 54.7248 360.524 54.8241 360 54.9234C369.077 39.2022 382.825 28.0449 398.277 25.6247C425.801 21.0467 448.284 42.1123 447.997 73.0437C447.453 104.507 424.111 137.242 396.44 146Z" fill="url(#paint2_linear_1593_919)"/>
<path d="M710.808 294C714.564 286.007 716.803 277.374 717.409 268.549C719.693 236.56 701.56 209.516 676.691 208.361C674.789 208.315 672.887 208.413 671 208.655C680.298 190.669 696.609 178.553 714.087 179.013C738.985 180.175 757.089 207.219 754.806 239.201C752.665 268.636 733.714 291.847 710.808 294Z" fill="url(#paint3_linear_1593_919)"/>
<path d="M566.539 265.478C569.237 235.485 549.218 211.248 521.819 213.402C519.52 213.613 517.241 214.001 515 214.562C525.041 198.141 541.329 185.722 559.032 184.133C586.431 181.985 606.478 206.223 603.752 236.208C601.372 262.694 582.401 283.581 559.479 289C563.399 281.73 565.802 273.724 566.539 265.478Z" fill="url(#paint4_linear_1593_919)"/>
<path d="M387.426 337.062C386.639 337.401 385.86 337.711 385.08 338C395.002 324.704 401.685 308.868 402.649 293.357C404.456 264.24 384.478 246.305 358 254.493C367.142 241.457 379.105 231.003 392.167 226.047C420.14 215.435 441.777 233.622 439.885 263.858C437.992 294.093 414.392 325.591 387.426 337.062Z" fill="url(#paint5_linear_1593_919)"/>
<path d="M195.316 304.778C194.873 304.85 194.436 304.936 194 305.022C203.039 289.487 216.95 278.094 232.318 275.533C258.463 271.192 278.984 293.821 277.964 326.828C277.21 357.339 255.725 386.62 229.797 393C236.662 381.908 240.514 369.168 240.962 356.073C241.983 323.066 221.469 300.43 195.316 304.778Z" fill="url(#paint6_linear_1593_919)"/>
<path d="M703.869 464C705.308 459.44 706.116 454.698 706.272 449.91C707.271 421.608 688.048 395.662 662.477 392.493C658.997 392.07 655.48 392.07 652 392.493C659.418 373.335 678.409 360.78 699.168 363.328C724.74 366.468 743.962 392.443 742.963 420.745C742.097 445.335 725.522 462.894 703.869 464Z" fill="url(#paint7_linear_1593_919)"/>
<path d="M547.578 442C549.202 437.799 550.206 433.38 550.558 428.885C552.602 403.026 533.096 380.537 506.302 381.274C503.17 381.361 500.054 381.761 497 382.469C505.742 365.833 523.807 352.553 543.597 352.017C570.391 351.301 589.897 373.768 587.853 399.627C586.086 421.93 569.064 438.716 547.578 442Z" fill="url(#paint8_linear_1593_919)"/>
<path d="M350 423.363C358.841 411.258 371.405 400.481 385.2 394.475C411.164 383.175 431.171 394.174 429.947 417.371C428.722 440.569 407.213 466.619 381.9 477C388.707 467.38 393.052 456.798 393.585 446.769C394.768 423.902 375.397 412.91 350 423.363Z" fill="url(#paint9_linear_1593_919)"/>
<path d="M192.07 479.821C190.352 480.144 188.662 480.524 187 480.987C193.837 466.426 210.022 454.751 229.234 451.114C255.169 446.2 276.113 457.91 276 479.007C275.901 499.226 257.149 520.766 233.448 527C236.856 520.801 238.807 514.187 238.836 507.714C238.949 486.617 218.005 474.914 192.07 479.821Z" fill="url(#paint10_linear_1593_919)"/>
<path d="M88.4323 523.196C87.7179 500.698 67.0921 477.254 42.3799 470.159C40.2859 469.557 38.1547 469.095 36 468.775C37.4289 446.449 56.4114 434.121 79.9305 440.823C104.643 447.897 125.297 471.341 125.983 493.861C126.604 514.381 110.201 528.407 88.3537 526.888C88.4395 525.705 88.468 524.465 88.4323 523.196Z" fill="url(#paint11_linear_1593_919)"/>
<path d="M496.505 530.242C494.001 530.109 491.491 530.187 489 530.477C496.384 512.395 513.774 500.007 533.858 501.063C560.154 502.954 581.24 527.644 580.998 556.189C580.778 582.064 563.089 602.102 540.198 604C542.449 598.039 543.617 591.721 543.644 585.346C543.886 556.824 522.814 532.133 496.505 530.242Z" fill="url(#paint12_linear_1593_919)"/>
<path d="M344 557.575C352.31 544.892 365.393 534.161 380.241 528.895C406.014 519.746 426.864 532.935 426.999 559.235C427.135 585.535 406.935 613.074 381.648 619.665C381.198 619.786 380.741 619.893 380.291 620C386.093 610.281 389.501 599.222 389.444 588.37C389.308 562.52 369.166 549.338 344 557.575Z" fill="url(#paint13_linear_1593_919)"/>
<path d="M240.518 635.059C239.655 612.204 218.862 600.492 193.85 605.582C192.895 605.777 191.941 605.999 191 606.237C197.463 591.491 212.905 579.952 231.304 576.185C256.316 571.073 277.102 582.792 277.971 605.661C278.841 628.531 259.807 653.248 235.116 658C238.822 650.688 240.81 642.751 240.518 635.059Z" fill="url(#paint14_linear_1593_919)"/>
<path d="M92.8827 652.3C91.8885 629.469 70.7777 609.628 45.9299 605.92C43.9657 605.623 41.9852 605.45 40 605.403C43.3069 585.281 61.0261 573.259 83.0112 576.536C107.852 580.244 128.97 600.085 129.964 622.915C130.881 644 114.163 661.649 91.825 663C92.6919 659.506 93.0483 655.9 92.8827 652.3Z" fill="url(#paint15_linear_1593_919)"/>
<path d="M395.277 773.279C393.972 739.95 374.349 716.105 351 718.532C358.485 703.454 370.616 692.39 384.743 689.611C409.333 684.772 430.582 709.205 431.942 743.927C433.184 778.7 414.209 808.977 389.626 811.835C388.984 811.914 388.349 811.964 387.708 812C393.237 799.913 395.834 786.626 395.277 773.279Z" fill="url(#paint16_linear_1593_919)"/>
<path d="M248.638 796.147C247.339 764.519 226.149 744.209 201.298 748.047L201 748.098C208.506 732.356 222.403 720.987 238.599 718.464C263.429 714.626 284.641 734.936 285.939 766.565C287.237 798.193 267.735 826.157 242.565 828C247.034 818.021 249.115 807.105 248.638 796.147Z" fill="url(#paint17_linear_1593_919)"/>
<path d="M99.3841 805.976C98.7713 777.316 77.8377 754.67 52.8928 754.121C51.5766 754.121 50.2814 754.121 49 754.228C55.9639 736.478 71.3472 724.563 89.4953 725.012C114.44 725.597 135.374 748.207 135.987 776.874C136.565 803.988 118.451 826.613 95.1292 829C98.1245 821.72 99.5748 813.873 99.3841 805.976Z" fill="url(#paint18_linear_1593_919)"/>
<path d="M718.04 107.503C719.36 107.559 720.682 107.547 722 107.467C714.58 125.623 698.726 137.762 680.54 136.963C655.568 135.853 635.641 110.702 636.005 80.874C636.347 52.6243 654.734 30.3401 677.907 29C675.061 36.1214 673.568 43.7201 673.505 51.3994C673.141 81.263 693.047 106.415 718.04 107.503Z" fill="url(#paint19_linear_1593_919)"/>
<path d="M561.489 111.584C563.679 111.413 565.854 111.089 568 110.614C559.079 127.264 542.782 139.339 524.454 140.766C496.664 143.514 474.666 121.704 475.004 91.8442C475.314 64.3178 494.437 40.3882 519.092 35C514.58 43.5148 512.163 53.0064 512.046 62.6692C511.701 92.5007 533.72 114.311 561.489 111.584Z" fill="url(#paint20_linear_1593_919)"/>
<path d="M395 146.572C385.54 160.51 372.426 171.497 358.148 176.071C330.336 184.973 309.256 162.176 310.02 125.983C310.778 90.4892 331.865 59.2808 358.408 54C351.13 66.9282 347.165 81.5473 346.886 96.4843C346.115 132.678 367.188 155.482 395 146.572Z" fill="url(#paint21_linear_1593_919)"/>
<path d="M705.877 294.527C707.917 294.667 709.964 294.64 712 294.448C703.084 313.06 686.472 325.168 668.145 323.911C642.366 322.136 623.458 296.46 626.279 265.546C628.741 236.177 648.648 211.968 671.821 209C667.448 217.448 664.793 226.681 664.01 236.163C661.189 267.077 680.098 292.752 705.877 294.527Z" fill="url(#paint22_linear_1593_919)"/>
<path d="M549.611 290.374C552.775 290.228 555.918 289.782 559 289.039C549.455 306.915 531.656 318.996 512.368 319.884C485.222 321.637 464.893 303.458 467.175 273.899C469.301 246.8 489.786 220.178 514.487 214C508.83 223.185 505.381 233.599 504.418 244.397C502.115 273.949 522.465 292.135 549.611 290.374Z" fill="url(#paint23_linear_1593_919)"/>
<path d="M385 337.709C375.693 350.221 363.509 360.46 350.535 365.998C323.943 377.337 303.139 363.925 304.027 334.057C304.986 302.01 327.617 266.554 355.231 256.043C356.26 255.657 357.267 255.329 358.275 255C347.981 269.72 341.319 287.762 340.78 304.84C339.948 333.836 359.521 347.319 385 337.709Z" fill="url(#paint24_linear_1593_919)"/>
<path d="M194.411 304C187.873 315.305 184.228 328.115 183.814 341.244C182.925 373.667 203.313 395.992 229.167 392.318L230 392.11C221.013 406.922 207.415 418.174 192.381 421.604C166.527 425.279 146.139 402.982 147.028 370.523C147.896 338.637 168.991 309.114 194.411 304Z" fill="url(#paint25_linear_1593_919)"/>
<path d="M694.803 464.036C698.168 464.629 701.588 464.845 705 464.68C698.452 484.927 679.628 497.133 657.622 493.298C630.9 488.633 610.244 463.436 612.118 436.563C613.759 413.426 631.161 395.526 652.495 393C650.708 397.575 649.625 402.401 649.285 407.309C647.39 434.152 668.081 459.35 694.803 464.036Z" fill="url(#paint26_linear_1593_919)"/>
<path d="M537.45 442.116C540.974 442.309 544.51 442.141 548 441.616C540.757 460.046 521.769 472.079 500.308 470.924C473.851 470.599 453.542 453.769 455.082 430.026C456.495 409.053 474.989 388.129 497.651 383C494.584 388.628 492.735 394.834 492.224 401.219C490.683 424.947 510.993 441.799 537.45 442.116Z" fill="url(#paint27_linear_1593_919)"/>
<path d="M347.233 423.487L348.421 423C340.458 433.635 335.455 445.301 335.151 455.664C334.515 477.764 354.977 486.753 380.88 476.462L381 476.411C371.885 488.979 358.44 499.886 343.743 505.755C317.841 516.046 297.379 507.057 298.014 484.95C298.65 462.842 320.723 434.773 347.233 423.487Z" fill="url(#paint28_linear_1593_919)"/>
<path d="M187.153 481C184.767 486.202 183.593 491.914 183.726 497.675C184.368 519.424 205.097 534.533 229.929 529.277C230.962 529.059 231.981 528.806 233 528.552C225.407 543.008 210.45 555.304 193.218 558.951C168.386 564.207 147.657 549.098 147.015 527.349C146.415 506.549 163.982 487.547 187.153 481Z" fill="url(#paint29_linear_1593_919)"/>
<path d="M37.2564 468.448C37.1858 469.567 37.1575 470.716 37.1787 471.885C37.5744 496.116 57.9171 520.078 82.6407 525.039C84.7395 525.465 86.8638 525.754 89 525.904C87.5303 546.045 68.7915 558.724 45.467 554.018C20.7363 549.022 0.407776 525.081 0.00502014 500.864C-0.32708 478.759 15.875 465.329 37.2564 468.448Z" fill="url(#paint30_linear_1593_919)"/>
<path d="M490.541 530C488.093 536.163 486.828 542.756 486.815 549.414C486.703 577.507 507.905 602.201 533.87 604.351C536.243 604.55 538.627 604.55 541 604.351C533.996 623.181 516.912 635.51 497.055 633.851C471.09 631.686 449.888 607.006 450 578.913C450.077 553.49 467.756 532.705 490.541 530Z" fill="url(#paint31_linear_1593_919)"/>
<path d="M342.952 558.457C343.382 558.293 343.818 558.15 344.248 558C338.229 567.364 334.752 577.785 335.012 587.863C335.625 611.205 355.686 626.304 380 620.576C371.877 634.439 358.974 645.574 344.339 649.445C319.427 656.059 298.633 640.875 298.014 617.069C297.394 593.263 317.555 567.621 342.952 558.457Z" fill="url(#paint32_linear_1593_919)"/>
<path d="M191.799 606C189.43 611.246 188.328 616.97 188.579 622.716C189.628 644.817 210.826 661.739 235.7 657.185L236 657.128C228.689 671.336 214.681 683.215 198.16 686.255C173.278 690.809 152.081 673.887 151.038 651.786C150.053 630.523 168.131 611.896 191.799 606Z" fill="url(#paint33_linear_1593_919)"/>
<path d="M40.8668 606.015C40.4206 608.757 40.24 611.537 40.3275 614.315C41.0371 639.324 62.0508 662.014 87.3226 663.558C89.2134 663.669 91.1091 663.669 93 663.558C88.529 681.222 71.1915 694.204 50.0146 692.911C24.7429 691.36 3.75767 668.678 3.0196 643.668C2.3525 620.691 18.7958 605.462 40.8668 606.015Z" fill="url(#paint34_linear_1593_919)"/>
<path d="M347.044 718.435C348.036 718.242 349.014 718.1 349.991 718C344.121 729.848 341.388 743.037 342.058 756.277C343.289 788.295 363.073 812.195 387 810.791C379.355 826.85 366.653 838.091 351.968 839.773C327.182 842.624 306.357 818.297 305.091 785.423C303.53 752.92 322.238 723.239 347.044 718.435Z" fill="url(#paint35_linear_1593_919)"/>
<path d="M201.838 749C197.684 757.704 195.668 767.297 195.963 776.962C196.771 805.97 217.615 829.374 242.691 827.778H243C235.501 844.216 221.769 855.904 205.752 856.922C180.677 858.525 159.832 835.121 159.024 806.113C158.223 777.247 177.36 752.924 201.838 749Z" fill="url(#paint36_linear_1593_919)"/>
<defs>
<linearGradient id="paint0_linear_1593_919" x1="721.5" y1="0" x2="721.5" y2="108" gradientUnits="userSpaceOnUse">
<stop stop-color="#AAD1FF"/>
<stop offset="1" stop-color="#9CBEF3" stop-opacity="0"/>
</linearGradient>
<linearGradient id="paint1_linear_1593_919" x1="566.5" y1="4" x2="566.5" y2="111" gradientUnits="userSpaceOnUse">
<stop stop-color="#AAD1FF"/>
<stop offset="1" stop-color="#9CBEF3" stop-opacity="0"/>
</linearGradient>
<linearGradient id="paint2_linear_1593_919" x1="404" y1="25" x2="404" y2="146" gradientUnits="userSpaceOnUse">
<stop stop-color="#AAD1FF"/>
<stop offset="1" stop-color="#9CBEF3" stop-opacity="0"/>
</linearGradient>
<linearGradient id="paint3_linear_1593_919" x1="713" y1="179" x2="713" y2="294" gradientUnits="userSpaceOnUse">
<stop stop-color="#AAD1FF"/>
<stop offset="1" stop-color="#9CBEF3" stop-opacity="0"/>
</linearGradient>
<linearGradient id="paint4_linear_1593_919" x1="559.5" y1="184" x2="559.5" y2="289" gradientUnits="userSpaceOnUse">
<stop stop-color="#AAD1FF"/>
<stop offset="1" stop-color="#9CBEF3" stop-opacity="0"/>
</linearGradient>
<linearGradient id="paint5_linear_1593_919" x1="399" y1="223" x2="399" y2="338" gradientUnits="userSpaceOnUse">
<stop stop-color="#AAD1FF"/>
<stop offset="1" stop-color="#9CBEF3" stop-opacity="0"/>
</linearGradient>
<linearGradient id="paint6_linear_1593_919" x1="236" y1="275" x2="236" y2="393" gradientUnits="userSpaceOnUse">
<stop stop-color="#AAD1FF"/>
<stop offset="1" stop-color="#9CBEF3" stop-opacity="0"/>
</linearGradient>
<linearGradient id="paint7_linear_1593_919" x1="697.5" y1="363" x2="697.5" y2="464" gradientUnits="userSpaceOnUse">
<stop stop-color="#AAD1FF"/>
<stop offset="1" stop-color="#9CBEF3" stop-opacity="0"/>
</linearGradient>
<linearGradient id="paint8_linear_1593_919" x1="542.5" y1="352" x2="542.5" y2="442" gradientUnits="userSpaceOnUse">
<stop stop-color="#AAD1FF"/>
<stop offset="1" stop-color="#9CBEF3" stop-opacity="0"/>
</linearGradient>
<linearGradient id="paint9_linear_1593_919" x1="390" y1="390" x2="390" y2="477" gradientUnits="userSpaceOnUse">
<stop stop-color="#AAD1FF"/>
<stop offset="1" stop-color="#9CBEF3" stop-opacity="0"/>
</linearGradient>
<linearGradient id="paint10_linear_1593_919" x1="231.5" y1="450" x2="231.5" y2="527" gradientUnits="userSpaceOnUse">
<stop stop-color="#AAD1FF"/>
<stop offset="1" stop-color="#9CBEF3" stop-opacity="0"/>
</linearGradient>
<linearGradient id="paint11_linear_1593_919" x1="81" y1="439" x2="81" y2="527" gradientUnits="userSpaceOnUse">
<stop stop-color="#AAD1FF"/>
<stop offset="1" stop-color="#9CBEF3" stop-opacity="0"/>
</linearGradient>
<linearGradient id="paint12_linear_1593_919" x1="535" y1="501" x2="535" y2="604" gradientUnits="userSpaceOnUse">
<stop stop-color="#AAD1FF"/>
<stop offset="1" stop-color="#9CBEF3" stop-opacity="0"/>
</linearGradient>
<linearGradient id="paint13_linear_1593_919" x1="385.5" y1="526" x2="385.5" y2="620" gradientUnits="userSpaceOnUse">
<stop stop-color="#AAD1FF"/>
<stop offset="1" stop-color="#9CBEF3" stop-opacity="0"/>
</linearGradient>
<linearGradient id="paint14_linear_1593_919" x1="234.5" y1="575" x2="234.5" y2="658" gradientUnits="userSpaceOnUse">
<stop stop-color="#AAD1FF"/>
<stop offset="1" stop-color="#9CBEF3" stop-opacity="0"/>
</linearGradient>
<linearGradient id="paint15_linear_1593_919" x1="85" y1="576" x2="85" y2="663" gradientUnits="userSpaceOnUse">
<stop stop-color="#AAD1FF"/>
<stop offset="1" stop-color="#9CBEF3" stop-opacity="0"/>
</linearGradient>
<linearGradient id="paint16_linear_1593_919" x1="391.5" y1="689" x2="391.5" y2="812" gradientUnits="userSpaceOnUse">
<stop stop-color="#AAD1FF"/>
<stop offset="1" stop-color="#9CBEF3" stop-opacity="0"/>
</linearGradient>
<linearGradient id="paint17_linear_1593_919" x1="243.5" y1="718" x2="243.5" y2="828" gradientUnits="userSpaceOnUse">
<stop stop-color="#AAD1FF"/>
<stop offset="1" stop-color="#9CBEF3" stop-opacity="0"/>
</linearGradient>
<linearGradient id="paint18_linear_1593_919" x1="92.5" y1="725" x2="92.5" y2="829" gradientUnits="userSpaceOnUse">
<stop stop-color="#AAD1FF"/>
<stop offset="1" stop-color="#9CBEF3" stop-opacity="0"/>
</linearGradient>
<linearGradient id="paint19_linear_1593_919" x1="679" y1="29" x2="679" y2="137" gradientUnits="userSpaceOnUse">
<stop stop-color="#AAD1FF"/>
<stop offset="1" stop-color="#9CBEF3" stop-opacity="0"/>
</linearGradient>
<linearGradient id="paint20_linear_1593_919" x1="521.5" y1="35" x2="521.5" y2="141" gradientUnits="userSpaceOnUse">
<stop stop-color="#AAD1FF"/>
<stop offset="1" stop-color="#9CBEF3" stop-opacity="0"/>
</linearGradient>
<linearGradient id="paint21_linear_1593_919" x1="352.5" y1="54" x2="352.5" y2="178" gradientUnits="userSpaceOnUse">
<stop stop-color="#AAD1FF"/>
<stop offset="1" stop-color="#9CBEF3" stop-opacity="0"/>
</linearGradient>
<linearGradient id="paint22_linear_1593_919" x1="669" y1="209" x2="669" y2="324" gradientUnits="userSpaceOnUse">
<stop stop-color="#AAD1FF"/>
<stop offset="1" stop-color="#9CBEF3" stop-opacity="0"/>
</linearGradient>
<linearGradient id="paint23_linear_1593_919" x1="513" y1="214" x2="513" y2="320" gradientUnits="userSpaceOnUse">
<stop stop-color="#AAD1FF"/>
<stop offset="1" stop-color="#9CBEF3" stop-opacity="0"/>
</linearGradient>
<linearGradient id="paint24_linear_1593_919" x1="344.5" y1="255" x2="344.5" y2="370" gradientUnits="userSpaceOnUse">
<stop stop-color="#AAD1FF"/>
<stop offset="1" stop-color="#9CBEF3" stop-opacity="0"/>
</linearGradient>
<linearGradient id="paint25_linear_1593_919" x1="188.5" y1="304" x2="188.5" y2="422" gradientUnits="userSpaceOnUse">
<stop stop-color="#AAD1FF"/>
<stop offset="1" stop-color="#9CBEF3" stop-opacity="0"/>
</linearGradient>
<linearGradient id="paint26_linear_1593_919" x1="658.5" y1="393" x2="658.5" y2="494" gradientUnits="userSpaceOnUse">
<stop stop-color="#AAD1FF"/>
<stop offset="1" stop-color="#9CBEF3" stop-opacity="0"/>
</linearGradient>
<linearGradient id="paint27_linear_1593_919" x1="501.5" y1="383" x2="501.5" y2="471" gradientUnits="userSpaceOnUse">
<stop stop-color="#AAD1FF"/>
<stop offset="1" stop-color="#9CBEF3" stop-opacity="0"/>
</linearGradient>
<linearGradient id="paint28_linear_1593_919" x1="339.5" y1="423" x2="339.5" y2="510" gradientUnits="userSpaceOnUse">
<stop stop-color="#AAD1FF"/>
<stop offset="1" stop-color="#9CBEF3" stop-opacity="0"/>
</linearGradient>
<linearGradient id="paint29_linear_1593_919" x1="190" y1="481" x2="190" y2="560" gradientUnits="userSpaceOnUse">
<stop stop-color="#AAD1FF"/>
<stop offset="1" stop-color="#9CBEF3" stop-opacity="0"/>
</linearGradient>
<linearGradient id="paint30_linear_1593_919" x1="44.5" y1="468" x2="44.5" y2="555" gradientUnits="userSpaceOnUse">
<stop stop-color="#AAD1FF"/>
<stop offset="1" stop-color="#9CBEF3" stop-opacity="0"/>
</linearGradient>
<linearGradient id="paint31_linear_1593_919" x1="495.5" y1="530" x2="495.5" y2="634" gradientUnits="userSpaceOnUse">
<stop stop-color="#AAD1FF"/>
<stop offset="1" stop-color="#9CBEF3" stop-opacity="0"/>
</linearGradient>
<linearGradient id="paint32_linear_1593_919" x1="339" y1="558" x2="339" y2="651" gradientUnits="userSpaceOnUse">
<stop stop-color="#AAD1FF"/>
<stop offset="1" stop-color="#9CBEF3" stop-opacity="0"/>
</linearGradient>
<linearGradient id="paint33_linear_1593_919" x1="193.5" y1="606" x2="193.5" y2="687" gradientUnits="userSpaceOnUse">
<stop stop-color="#AAD1FF"/>
<stop offset="1" stop-color="#9CBEF3" stop-opacity="0"/>
</linearGradient>
<linearGradient id="paint34_linear_1593_919" x1="48" y1="606" x2="48" y2="693" gradientUnits="userSpaceOnUse">
<stop stop-color="#AAD1FF"/>
<stop offset="1" stop-color="#9CBEF3" stop-opacity="0"/>
</linearGradient>
<linearGradient id="paint35_linear_1593_919" x1="346" y1="718" x2="346" y2="840" gradientUnits="userSpaceOnUse">
<stop stop-color="#AAD1FF"/>
<stop offset="1" stop-color="#9CBEF3" stop-opacity="0"/>
</linearGradient>
<linearGradient id="paint36_linear_1593_919" x1="201" y1="749" x2="201" y2="857" gradientUnits="userSpaceOnUse">
<stop stop-color="#AAD1FF"/>
<stop offset="1" stop-color="#9CBEF3" stop-opacity="0"/>
</linearGradient>
</defs>
</svg>
