<svg width="1529" height="952" viewBox="0 0 1529 952" fill="none" xmlns="http://www.w3.org/2000/svg">
<path d="M1459.67 951.24H1458.56C1446.37 951.264 1434.51 947.288 1424.8 939.923C1415.09 932.557 1408.06 922.21 1404.81 910.469C1396.43 880.004 1385.66 850.247 1372.6 821.478C1334.97 738.787 1280.56 663.86 1268.72 570.903C1255.66 468.003 1323.46 387.792 1372.6 303.232C1409.93 239.499 1422.67 169.856 1417.97 98.9333V0H1528.22V98.9333C1528.12 144.68 1529.99 189.131 1521.9 235.768C1511.33 296.388 1483.96 347.065 1456.58 400.539C1435.75 440.641 1417.08 480.124 1410.86 525.201C1397.8 624.686 1453.78 709.254 1488.31 797.545C1495.15 815.267 1501.68 832.672 1506.23 850.629C1509.18 862.485 1511.77 873.443 1513.99 883.496C1515.8 891.629 1515.75 900.063 1513.86 908.177C1511.97 916.29 1508.29 923.877 1503.07 930.377C1497.86 936.878 1491.26 942.127 1483.75 945.737C1476.23 949.348 1468.01 951.229 1459.67 951.24Z" fill="url(#paint0_linear_1581_1284)"/>
<path d="M166.757 0C100.466 94.9392 -111.886 577.569 75.7616 616.634C263.409 655.699 163.516 437.287 457.863 560.068C752.209 682.848 1021.95 0 1021.95 0H166.757Z" fill="url(#paint1_linear_1581_1284)"/>
<defs>
<linearGradient id="paint0_linear_1581_1284" x1="1397.71" y1="0" x2="1397.71" y2="951.24" gradientUnits="userSpaceOnUse">
<stop stop-color="#A6BFFF"/>
<stop offset="1" stop-color="#DFEFFF"/>
</linearGradient>
<linearGradient id="paint1_linear_1581_1284" x1="511.029" y1="0" x2="511.029" y2="621.383" gradientUnits="userSpaceOnUse">
<stop stop-color="#95C8FF"/>
<stop offset="1" stop-color="#E0EFFF"/>
</linearGradient>
</defs>
</svg>
