<svg width="1057" height="2279" viewBox="0 0 1057 2279" fill="none" xmlns="http://www.w3.org/2000/svg">
<path d="M108.645 2252.05C119.652 2088.11 130.66 1925.1 133.595 1761.37C140.934 1288.94 74.8882 820.821 58.9199 349.658C52.8657 138.075 52.8364 0 52.8364 0H0C0 0 0.0366898 138.06 6.20093 349.754C16.8783 659.257 47.6995 965.079 68.247 1275.23C90.2621 1602.69 82.9238 1927.26 56.4689 2252.51L108.645 2252.05Z" fill="url(#paint0_linear_1581_1286)"/>
<path d="M1051.72 2278.5C963.532 2277.43 875.193 2279.64 786.854 2277.43C764.769 2172.16 732.379 2069.83 687.473 1971.19C598.398 1775.37 469.57 1597.95 441.596 1377.84C410.678 1134.17 571.16 944.246 687.473 744.011C775.812 593.098 805.994 428.199 794.856 260.266V25.9912H1055.79V260.266C1055.55 368.57 1059.97 473.841 1040.83 584.264C1015.8 727.815 951.017 847.809 886.235 974.429C836.913 1069.39 792.743 1162.89 778.02 1269.63C747.102 1505.2 879.61 1705.43 961.324 1914.5C977.519 1956.46 992.978 1997.69 1003.74 2040.21C1040.68 2187.86 1051.72 2278.5 1051.72 2278.5Z" fill="url(#paint1_linear_1581_1286)"/>
<defs>
<linearGradient id="paint0_linear_1581_1286" x1="66.7148" y1="-386.01" x2="67.0811" y2="2252.51" gradientUnits="userSpaceOnUse">
<stop stop-color="#C1D3FF"/>
<stop offset="1" stop-color="#C3AEFF"/>
</linearGradient>
<linearGradient id="paint1_linear_1581_1286" x1="746.894" y1="25.9912" x2="746.894" y2="2278.5" gradientUnits="userSpaceOnUse">
<stop stop-color="#EFA26E"/>
<stop offset="0.0001" stop-color="#E4ABFF"/>
<stop offset="1" stop-color="#B5CEFF"/>
</linearGradient>
</defs>
</svg>
